G75*
%MOIN*%
%OFA0B0*%
%FSLAX25Y25*%
%IPPOS*%
%LPD*%
%AMOC8*
5,1,8,0,0,1.08239X$1,22.5*
%
%ADD10C,0.05200*%
%ADD11R,0.05543X0.05543*%
%ADD12R,0.06750X0.06750*%
%ADD13R,0.06150X0.06150*%
%ADD14C,0.03969*%
%ADD15C,0.06000*%
%ADD16C,0.03569*%
%ADD17R,0.03962X0.03962*%
%ADD18C,0.01200*%
%ADD19C,0.01600*%
%ADD20C,0.01000*%
%ADD21C,0.03962*%
D10*
X0399200Y0188495D02*
X0404400Y0188495D01*
X0404400Y0198495D02*
X0399200Y0198495D01*
X0399200Y0208495D02*
X0404400Y0208495D01*
X0404400Y0218495D02*
X0399200Y0218495D01*
X0399200Y0228495D02*
X0404400Y0228495D01*
D11*
X0396800Y0151495D03*
X0396800Y0130495D03*
X0291800Y0098995D03*
X0291800Y0077995D03*
X0016800Y0067995D03*
X0016800Y0088995D03*
D12*
X0046800Y0261495D03*
X0056800Y0261495D03*
X0066800Y0261495D03*
D13*
X0016800Y0262747D03*
X0016800Y0244243D03*
X0016800Y0217747D03*
X0016800Y0199243D03*
X0016800Y0172747D03*
X0016800Y0154243D03*
X0016800Y0127747D03*
X0016800Y0109243D03*
X0139048Y0069495D03*
X0157552Y0069495D03*
X0152548Y0023495D03*
X0171052Y0023495D03*
X0202548Y0023495D03*
X0221052Y0023495D03*
X0247548Y0023495D03*
X0266052Y0023495D03*
X0121052Y0023495D03*
X0102548Y0023495D03*
X0076052Y0023495D03*
X0057548Y0023495D03*
X0031052Y0023495D03*
X0012548Y0023495D03*
X0118548Y0258495D03*
X0137052Y0258495D03*
X0159548Y0258495D03*
X0178052Y0258495D03*
X0202548Y0258495D03*
X0221052Y0258495D03*
X0245548Y0258495D03*
X0264052Y0258495D03*
X0289048Y0258495D03*
X0307552Y0258495D03*
X0332548Y0258495D03*
X0351052Y0258495D03*
X0375048Y0258495D03*
X0393552Y0258495D03*
D14*
X0222643Y0045495D03*
X0202957Y0045495D03*
D15*
X0066800Y0050495D02*
X0066800Y0056495D01*
X0056800Y0056495D02*
X0056800Y0050495D01*
X0046800Y0050495D02*
X0046800Y0056495D01*
X0046800Y0065495D02*
X0046800Y0071495D01*
X0056800Y0071495D02*
X0056800Y0065495D01*
X0066800Y0065495D02*
X0066800Y0071495D01*
D16*
X0083800Y0068495D03*
X0103800Y0077495D03*
X0119800Y0098495D03*
X0128800Y0103495D03*
X0141800Y0111495D03*
X0138800Y0115495D03*
X0129800Y0117495D03*
X0129800Y0137495D03*
X0129800Y0143495D03*
X0141800Y0137495D03*
X0144800Y0143495D03*
X0154800Y0151495D03*
X0149800Y0163495D03*
X0121800Y0182495D03*
X0143800Y0197495D03*
X0162800Y0203495D03*
X0178800Y0203495D03*
X0184800Y0208995D03*
X0193800Y0205495D03*
X0206800Y0208995D03*
X0210800Y0205495D03*
X0224800Y0198495D03*
X0246800Y0212495D03*
X0254800Y0198495D03*
X0262800Y0188495D03*
X0271800Y0183495D03*
X0246800Y0178495D03*
X0231800Y0182495D03*
X0237800Y0166495D03*
X0225800Y0163495D03*
X0219300Y0164995D03*
X0229800Y0155495D03*
X0222800Y0147995D03*
X0199800Y0156995D03*
X0194300Y0147995D03*
X0222800Y0128495D03*
X0233800Y0128495D03*
X0229800Y0115495D03*
X0211800Y0115495D03*
X0191300Y0120495D03*
X0174300Y0112495D03*
X0162800Y0106495D03*
X0160800Y0111495D03*
X0158800Y0115495D03*
X0155800Y0096995D03*
X0172800Y0069495D03*
X0099800Y0120495D03*
X0097800Y0126495D03*
X0099800Y0137235D03*
X0097800Y0146495D03*
X0084800Y0135495D03*
X0048800Y0127995D03*
X0053060Y0177235D03*
X0085800Y0177495D03*
X0062800Y0211495D03*
X0071800Y0220495D03*
X0092800Y0218495D03*
X0126800Y0211495D03*
X0249800Y0155495D03*
X0286800Y0147495D03*
X0292800Y0152495D03*
X0297300Y0147495D03*
X0286800Y0136495D03*
X0283800Y0129495D03*
X0297300Y0129495D03*
X0300800Y0115495D03*
X0321800Y0129495D03*
X0329800Y0129495D03*
X0321800Y0140495D03*
X0320800Y0147495D03*
X0332800Y0148495D03*
X0365800Y0141495D03*
X0364800Y0129495D03*
X0372800Y0127495D03*
X0373800Y0119495D03*
X0362800Y0118495D03*
X0329800Y0115495D03*
X0309800Y0090495D03*
X0276800Y0090495D03*
X0267800Y0094495D03*
X0266800Y0043495D03*
X0310800Y0036495D03*
X0327800Y0039495D03*
X0331800Y0033495D03*
X0378800Y0163495D03*
X0359800Y0188495D03*
X0332800Y0184495D03*
X0292800Y0165495D03*
X0079800Y0043495D03*
X0013300Y0041995D03*
D17*
X0078800Y0093495D03*
X0084800Y0111495D03*
X0036800Y0138495D03*
X0031800Y0111495D03*
X0079800Y0143495D03*
X0130800Y0157495D03*
X0139800Y0157495D03*
X0170300Y0163495D03*
X0191300Y0138495D03*
X0197300Y0119995D03*
X0219300Y0138495D03*
X0207800Y0185995D03*
X0203800Y0190995D03*
X0222800Y0212495D03*
X0218800Y0219495D03*
X0197800Y0219495D03*
X0227800Y0234495D03*
X0245300Y0239495D03*
X0262800Y0219995D03*
X0262800Y0214495D03*
X0268800Y0197495D03*
X0274300Y0192995D03*
X0299800Y0172495D03*
X0318800Y0172495D03*
X0344800Y0172495D03*
X0369800Y0172495D03*
X0392800Y0183495D03*
X0387800Y0190495D03*
X0387800Y0203495D03*
X0366800Y0209495D03*
X0362300Y0214495D03*
X0322800Y0233495D03*
X0287800Y0219995D03*
X0274300Y0238495D03*
X0161800Y0234495D03*
X0152800Y0221495D03*
X0136800Y0212495D03*
X0118800Y0221495D03*
X0099800Y0241495D03*
X0065800Y0236495D03*
X0191800Y0093495D03*
X0205800Y0086495D03*
X0211800Y0090495D03*
X0201800Y0074495D03*
X0216800Y0061495D03*
X0238800Y0064495D03*
X0244800Y0078495D03*
X0260800Y0070495D03*
X0280800Y0069495D03*
X0285800Y0064495D03*
X0306800Y0069495D03*
X0376800Y0109495D03*
X0404800Y0110495D03*
X0409800Y0172495D03*
X0187800Y0048495D03*
X0155800Y0048495D03*
D18*
X0007200Y0013895D02*
X0007200Y0268095D01*
X0416400Y0268095D01*
X0416400Y0220252D01*
X0415545Y0221107D01*
X0414413Y0221576D01*
X0413187Y0221576D01*
X0412055Y0221107D01*
X0411188Y0220240D01*
X0411169Y0220195D01*
X0407701Y0220195D01*
X0407537Y0220591D01*
X0406496Y0221632D01*
X0405136Y0222195D01*
X0398464Y0222195D01*
X0397104Y0221632D01*
X0396063Y0220591D01*
X0395500Y0219231D01*
X0395500Y0217759D01*
X0396063Y0216399D01*
X0397104Y0215358D01*
X0398464Y0214795D01*
X0405136Y0214795D01*
X0406496Y0215358D01*
X0407537Y0216399D01*
X0407701Y0216795D01*
X0411169Y0216795D01*
X0411188Y0216749D01*
X0412055Y0215883D01*
X0413187Y0215414D01*
X0414413Y0215414D01*
X0415545Y0215883D01*
X0416400Y0216737D01*
X0416400Y0126167D01*
X0415413Y0126576D01*
X0414187Y0126576D01*
X0413055Y0126107D01*
X0412188Y0125240D01*
X0412169Y0125195D01*
X0374579Y0125195D01*
X0375179Y0125795D01*
X0382504Y0125795D01*
X0383500Y0126791D01*
X0383500Y0160980D01*
X0383605Y0161138D01*
X0383500Y0161663D01*
X0383500Y0162199D01*
X0383366Y0162333D01*
X0383329Y0162519D01*
X0382883Y0162816D01*
X0382504Y0163195D01*
X0382315Y0163195D01*
X0381684Y0163615D01*
X0381684Y0164069D01*
X0381245Y0165129D01*
X0380434Y0165940D01*
X0379374Y0166379D01*
X0378226Y0166379D01*
X0377166Y0165940D01*
X0376355Y0165129D01*
X0375916Y0164069D01*
X0375916Y0162921D01*
X0376355Y0161861D01*
X0377166Y0161050D01*
X0378226Y0160611D01*
X0379374Y0160611D01*
X0379798Y0160786D01*
X0380100Y0160585D01*
X0380100Y0129195D01*
X0375179Y0129195D01*
X0374434Y0129940D01*
X0373374Y0130379D01*
X0372226Y0130379D01*
X0371166Y0129940D01*
X0370355Y0129129D01*
X0369916Y0128069D01*
X0369916Y0126921D01*
X0370355Y0125861D01*
X0371021Y0125195D01*
X0171500Y0125195D01*
X0171500Y0126364D01*
X0171545Y0126383D01*
X0172412Y0127249D01*
X0172881Y0128382D01*
X0172881Y0129608D01*
X0172412Y0130740D01*
X0171545Y0131607D01*
X0170413Y0132076D01*
X0169187Y0132076D01*
X0168055Y0131607D01*
X0167188Y0130740D01*
X0166719Y0129608D01*
X0166719Y0128382D01*
X0167188Y0127249D01*
X0168055Y0126383D01*
X0168100Y0126364D01*
X0168100Y0122791D01*
X0169096Y0121795D01*
X0188717Y0121795D01*
X0188416Y0121069D01*
X0188416Y0120015D01*
X0185096Y0116695D01*
X0176596Y0116695D01*
X0175161Y0115260D01*
X0174874Y0115379D01*
X0173726Y0115379D01*
X0172666Y0114940D01*
X0171855Y0114129D01*
X0171416Y0113069D01*
X0171416Y0111921D01*
X0171855Y0110861D01*
X0172666Y0110050D01*
X0173726Y0109611D01*
X0174874Y0109611D01*
X0175934Y0110050D01*
X0176745Y0110861D01*
X0177184Y0111921D01*
X0177184Y0112475D01*
X0178004Y0113295D01*
X0186504Y0113295D01*
X0187500Y0114291D01*
X0190820Y0117611D01*
X0191874Y0117611D01*
X0192934Y0118050D01*
X0193745Y0118861D01*
X0194184Y0119921D01*
X0194184Y0121069D01*
X0193883Y0121795D01*
X0194219Y0121795D01*
X0194219Y0119318D01*
X0184096Y0109195D01*
X0183100Y0108199D01*
X0183100Y0098695D01*
X0158179Y0098695D01*
X0157434Y0099440D01*
X0156374Y0099879D01*
X0155226Y0099879D01*
X0154166Y0099440D01*
X0153355Y0098629D01*
X0152916Y0097569D01*
X0152916Y0096421D01*
X0153355Y0095361D01*
X0153521Y0095195D01*
X0081881Y0095195D01*
X0081881Y0095932D01*
X0081237Y0096576D01*
X0076363Y0096576D01*
X0075719Y0095932D01*
X0075719Y0091058D01*
X0076363Y0090414D01*
X0081237Y0090414D01*
X0081881Y0091058D01*
X0081881Y0091795D01*
X0188719Y0091795D01*
X0188719Y0091058D01*
X0189363Y0090414D01*
X0194237Y0090414D01*
X0194881Y0091058D01*
X0194881Y0095932D01*
X0194237Y0096576D01*
X0189363Y0096576D01*
X0188719Y0095932D01*
X0188719Y0095195D01*
X0158079Y0095195D01*
X0158179Y0095295D01*
X0185504Y0095295D01*
X0186500Y0096291D01*
X0186500Y0106791D01*
X0196623Y0116914D01*
X0199737Y0116914D01*
X0200381Y0117558D01*
X0200381Y0121795D01*
X0372021Y0121795D01*
X0371355Y0121129D01*
X0370916Y0120069D01*
X0370916Y0119015D01*
X0363096Y0111195D01*
X0349096Y0111195D01*
X0348100Y0110199D01*
X0348100Y0104999D01*
X0345500Y0104999D01*
X0345500Y0116795D01*
X0360421Y0116795D01*
X0361166Y0116050D01*
X0362226Y0115611D01*
X0363374Y0115611D01*
X0364434Y0116050D01*
X0365245Y0116861D01*
X0365684Y0117921D01*
X0365684Y0119069D01*
X0365245Y0120129D01*
X0364434Y0120940D01*
X0363374Y0121379D01*
X0362226Y0121379D01*
X0361166Y0120940D01*
X0360421Y0120195D01*
X0343096Y0120195D01*
X0342100Y0119199D01*
X0342100Y0104999D01*
X0315375Y0104999D01*
X0313592Y0104261D01*
X0312228Y0102896D01*
X0311489Y0101114D01*
X0311489Y0065053D01*
X0311412Y0065240D01*
X0310545Y0066107D01*
X0309413Y0066576D01*
X0309399Y0066576D01*
X0309881Y0067058D01*
X0309881Y0071932D01*
X0309237Y0072576D01*
X0304363Y0072576D01*
X0303719Y0071932D01*
X0303719Y0071195D01*
X0283881Y0071195D01*
X0283881Y0071932D01*
X0283237Y0072576D01*
X0278363Y0072576D01*
X0277719Y0071932D01*
X0277719Y0067058D01*
X0278363Y0066414D01*
X0282719Y0066414D01*
X0282719Y0066195D01*
X0241881Y0066195D01*
X0241881Y0066932D01*
X0241237Y0067576D01*
X0236363Y0067576D01*
X0235719Y0066932D01*
X0235719Y0062058D01*
X0236363Y0061414D01*
X0241237Y0061414D01*
X0241881Y0062058D01*
X0241881Y0062795D01*
X0282719Y0062795D01*
X0282719Y0062058D01*
X0283363Y0061414D01*
X0288237Y0061414D01*
X0288881Y0062058D01*
X0288881Y0066932D01*
X0288237Y0067576D01*
X0283881Y0067576D01*
X0283881Y0067795D01*
X0303719Y0067795D01*
X0303719Y0067058D01*
X0304363Y0066414D01*
X0307796Y0066414D01*
X0307055Y0066107D01*
X0306188Y0065240D01*
X0305719Y0064108D01*
X0305719Y0062882D01*
X0306188Y0061749D01*
X0307055Y0060883D01*
X0307100Y0060864D01*
X0307100Y0058199D01*
X0307096Y0058195D01*
X0301096Y0058195D01*
X0300100Y0057199D01*
X0300100Y0051126D01*
X0300055Y0051107D01*
X0299188Y0050240D01*
X0298719Y0049108D01*
X0298719Y0047882D01*
X0299188Y0046749D01*
X0300055Y0045883D01*
X0301187Y0045414D01*
X0302413Y0045414D01*
X0303545Y0045883D01*
X0304412Y0046749D01*
X0304881Y0047882D01*
X0304881Y0049108D01*
X0304412Y0050240D01*
X0303545Y0051107D01*
X0303500Y0051126D01*
X0303500Y0054795D01*
X0308504Y0054795D01*
X0309504Y0055795D01*
X0310500Y0056791D01*
X0310500Y0060864D01*
X0310545Y0060883D01*
X0311412Y0061749D01*
X0311489Y0061936D01*
X0311489Y0025876D01*
X0312228Y0024093D01*
X0313592Y0022729D01*
X0315375Y0021991D01*
X0372300Y0021991D01*
X0372300Y0013895D01*
X0007200Y0013895D01*
X0007200Y0014487D02*
X0372300Y0014487D01*
X0372300Y0015686D02*
X0007200Y0015686D01*
X0007200Y0016884D02*
X0372300Y0016884D01*
X0372300Y0018083D02*
X0007200Y0018083D01*
X0007200Y0019281D02*
X0026853Y0019281D01*
X0026995Y0019139D02*
X0026697Y0019437D01*
X0026486Y0019802D01*
X0026377Y0020209D01*
X0026377Y0023070D01*
X0030627Y0023070D01*
X0030627Y0023920D01*
X0030627Y0028170D01*
X0027766Y0028170D01*
X0027359Y0028061D01*
X0026995Y0027850D01*
X0026697Y0027552D01*
X0026486Y0027187D01*
X0026377Y0026780D01*
X0026377Y0023920D01*
X0030627Y0023920D01*
X0031477Y0023920D01*
X0031477Y0028170D01*
X0034338Y0028170D01*
X0034745Y0028061D01*
X0035109Y0027850D01*
X0035407Y0027552D01*
X0035618Y0027187D01*
X0035727Y0026780D01*
X0035727Y0023920D01*
X0031477Y0023920D01*
X0031477Y0023070D01*
X0035727Y0023070D01*
X0035727Y0020209D01*
X0035618Y0019802D01*
X0035407Y0019437D01*
X0035109Y0019139D01*
X0034745Y0018929D01*
X0034338Y0018820D01*
X0031477Y0018820D01*
X0031477Y0023070D01*
X0030627Y0023070D01*
X0030627Y0018820D01*
X0027766Y0018820D01*
X0027359Y0018929D01*
X0026995Y0019139D01*
X0026377Y0020480D02*
X0016723Y0020480D01*
X0016723Y0019964D02*
X0016079Y0019320D01*
X0009017Y0019320D01*
X0008373Y0019964D01*
X0008373Y0027025D01*
X0009017Y0027670D01*
X0016079Y0027670D01*
X0016723Y0027025D01*
X0016723Y0019964D01*
X0016723Y0021678D02*
X0026377Y0021678D01*
X0026377Y0022877D02*
X0016723Y0022877D01*
X0016723Y0024075D02*
X0026377Y0024075D01*
X0026377Y0025274D02*
X0016723Y0025274D01*
X0016723Y0026472D02*
X0026377Y0026472D01*
X0026815Y0027671D02*
X0007200Y0027671D01*
X0007200Y0028870D02*
X0311489Y0028870D01*
X0311489Y0030068D02*
X0007200Y0030068D01*
X0007200Y0031267D02*
X0311489Y0031267D01*
X0311489Y0032465D02*
X0007200Y0032465D01*
X0007200Y0033664D02*
X0311489Y0033664D01*
X0311489Y0034862D02*
X0007200Y0034862D01*
X0007200Y0036061D02*
X0311489Y0036061D01*
X0310800Y0036495D02*
X0273800Y0036495D01*
X0266800Y0043495D01*
X0266477Y0028170D02*
X0269338Y0028170D01*
X0269745Y0028061D01*
X0270109Y0027850D01*
X0270407Y0027552D01*
X0270618Y0027187D01*
X0270727Y0026780D01*
X0270727Y0023920D01*
X0266477Y0023920D01*
X0265627Y0023920D01*
X0265627Y0028170D01*
X0262766Y0028170D01*
X0262359Y0028061D01*
X0261995Y0027850D01*
X0261697Y0027552D01*
X0261486Y0027187D01*
X0261377Y0026780D01*
X0261377Y0023920D01*
X0265627Y0023920D01*
X0265627Y0023070D01*
X0261377Y0023070D01*
X0261377Y0020209D01*
X0261486Y0019802D01*
X0261697Y0019437D01*
X0261995Y0019139D01*
X0262359Y0018929D01*
X0262766Y0018820D01*
X0265627Y0018820D01*
X0265627Y0023070D01*
X0266477Y0023070D01*
X0266477Y0023920D01*
X0266477Y0028170D01*
X0266477Y0027671D02*
X0265627Y0027671D01*
X0265627Y0026472D02*
X0266477Y0026472D01*
X0266477Y0025274D02*
X0265627Y0025274D01*
X0265627Y0024075D02*
X0266477Y0024075D01*
X0266477Y0023070D02*
X0270727Y0023070D01*
X0270727Y0020209D01*
X0270618Y0019802D01*
X0270407Y0019437D01*
X0270109Y0019139D01*
X0269745Y0018929D01*
X0269338Y0018820D01*
X0266477Y0018820D01*
X0266477Y0023070D01*
X0266477Y0022877D02*
X0265627Y0022877D01*
X0265627Y0021678D02*
X0266477Y0021678D01*
X0266477Y0020480D02*
X0265627Y0020480D01*
X0265627Y0019281D02*
X0266477Y0019281D01*
X0270251Y0019281D02*
X0372300Y0019281D01*
X0372300Y0020480D02*
X0270727Y0020480D01*
X0270727Y0021678D02*
X0372300Y0021678D01*
X0349800Y0056495D02*
X0331800Y0038495D01*
X0331800Y0033495D01*
X0327800Y0039495D02*
X0343800Y0055495D01*
X0343800Y0118495D01*
X0362800Y0118495D01*
X0361685Y0121155D02*
X0200381Y0121155D01*
X0200381Y0119956D02*
X0342857Y0119956D01*
X0342100Y0118758D02*
X0200381Y0118758D01*
X0200381Y0117559D02*
X0209786Y0117559D01*
X0210166Y0117940D02*
X0209355Y0117129D01*
X0208916Y0116069D01*
X0208916Y0114921D01*
X0209355Y0113861D01*
X0210166Y0113050D01*
X0211226Y0112611D01*
X0212374Y0112611D01*
X0213434Y0113050D01*
X0214179Y0113795D01*
X0227421Y0113795D01*
X0228166Y0113050D01*
X0229226Y0112611D01*
X0230374Y0112611D01*
X0231434Y0113050D01*
X0232245Y0113861D01*
X0232684Y0114921D01*
X0232684Y0116069D01*
X0232245Y0117129D01*
X0231434Y0117940D01*
X0230374Y0118379D01*
X0229226Y0118379D01*
X0228166Y0117940D01*
X0227421Y0117195D01*
X0214179Y0117195D01*
X0213434Y0117940D01*
X0212374Y0118379D01*
X0211226Y0118379D01*
X0210166Y0117940D01*
X0209037Y0116361D02*
X0196070Y0116361D01*
X0194872Y0115162D02*
X0208916Y0115162D01*
X0209312Y0113964D02*
X0193673Y0113964D01*
X0192475Y0112765D02*
X0210853Y0112765D01*
X0212747Y0112765D02*
X0228853Y0112765D01*
X0230747Y0112765D02*
X0299853Y0112765D01*
X0300226Y0112611D02*
X0301374Y0112611D01*
X0302434Y0113050D01*
X0303179Y0113795D01*
X0327421Y0113795D01*
X0328166Y0113050D01*
X0329226Y0112611D01*
X0330374Y0112611D01*
X0331434Y0113050D01*
X0332245Y0113861D01*
X0332684Y0114921D01*
X0332684Y0116069D01*
X0332245Y0117129D01*
X0331434Y0117940D01*
X0330374Y0118379D01*
X0329226Y0118379D01*
X0328166Y0117940D01*
X0327421Y0117195D01*
X0303179Y0117195D01*
X0302434Y0117940D01*
X0301374Y0118379D01*
X0300226Y0118379D01*
X0299166Y0117940D01*
X0298355Y0117129D01*
X0297916Y0116069D01*
X0297916Y0114921D01*
X0298355Y0113861D01*
X0299166Y0113050D01*
X0300226Y0112611D01*
X0301747Y0112765D02*
X0328853Y0112765D01*
X0330747Y0112765D02*
X0342100Y0112765D01*
X0342100Y0111567D02*
X0191276Y0111567D01*
X0190078Y0110368D02*
X0342100Y0110368D01*
X0342100Y0109170D02*
X0188879Y0109170D01*
X0187681Y0107971D02*
X0342100Y0107971D01*
X0342100Y0106773D02*
X0186500Y0106773D01*
X0186500Y0105574D02*
X0342100Y0105574D01*
X0345500Y0105574D02*
X0348100Y0105574D01*
X0348100Y0106773D02*
X0345500Y0106773D01*
X0345500Y0107971D02*
X0348100Y0107971D01*
X0348100Y0109170D02*
X0345500Y0109170D01*
X0345500Y0110368D02*
X0348269Y0110368D01*
X0349800Y0109495D02*
X0363800Y0109495D01*
X0373800Y0119495D01*
X0370916Y0119956D02*
X0365316Y0119956D01*
X0365684Y0118758D02*
X0370659Y0118758D01*
X0369460Y0117559D02*
X0365534Y0117559D01*
X0364745Y0116361D02*
X0368262Y0116361D01*
X0367063Y0115162D02*
X0345500Y0115162D01*
X0345500Y0113964D02*
X0365865Y0113964D01*
X0364666Y0112765D02*
X0345500Y0112765D01*
X0345500Y0111567D02*
X0363468Y0111567D01*
X0360855Y0116361D02*
X0345500Y0116361D01*
X0342100Y0116361D02*
X0332563Y0116361D01*
X0332684Y0115162D02*
X0342100Y0115162D01*
X0342100Y0113964D02*
X0332288Y0113964D01*
X0329800Y0115495D02*
X0300800Y0115495D01*
X0302814Y0117559D02*
X0327786Y0117559D01*
X0331814Y0117559D02*
X0342100Y0117559D01*
X0349800Y0109495D02*
X0349800Y0056495D01*
X0311489Y0056435D02*
X0310145Y0056435D01*
X0310500Y0057634D02*
X0311489Y0057634D01*
X0311489Y0058832D02*
X0310500Y0058832D01*
X0310500Y0060031D02*
X0311489Y0060031D01*
X0311489Y0061229D02*
X0310892Y0061229D01*
X0308800Y0063495D02*
X0308800Y0057495D01*
X0307800Y0056495D01*
X0301800Y0056495D01*
X0301800Y0048495D01*
X0302980Y0045649D02*
X0311489Y0045649D01*
X0311489Y0046847D02*
X0304452Y0046847D01*
X0304881Y0048046D02*
X0311489Y0048046D01*
X0311489Y0049244D02*
X0304825Y0049244D01*
X0304209Y0050443D02*
X0311489Y0050443D01*
X0311489Y0051641D02*
X0303500Y0051641D01*
X0303500Y0052840D02*
X0311489Y0052840D01*
X0311489Y0054038D02*
X0303500Y0054038D01*
X0300100Y0054038D02*
X0213500Y0054038D01*
X0213500Y0052840D02*
X0300100Y0052840D01*
X0300100Y0051641D02*
X0213500Y0051641D01*
X0213500Y0050443D02*
X0299391Y0050443D01*
X0298775Y0049244D02*
X0213500Y0049244D01*
X0213500Y0048046D02*
X0220832Y0048046D01*
X0220895Y0048109D02*
X0220028Y0047242D01*
X0219558Y0046108D01*
X0219558Y0044881D01*
X0220028Y0043748D01*
X0220895Y0042880D01*
X0222029Y0042411D01*
X0223256Y0042411D01*
X0224390Y0042880D01*
X0225257Y0043748D01*
X0225727Y0044881D01*
X0225727Y0046108D01*
X0225257Y0047242D01*
X0224390Y0048109D01*
X0223256Y0048579D01*
X0222029Y0048579D01*
X0220895Y0048109D01*
X0219864Y0046847D02*
X0213500Y0046847D01*
X0213500Y0045649D02*
X0219558Y0045649D01*
X0219737Y0044450D02*
X0213159Y0044450D01*
X0213500Y0044791D02*
X0213500Y0087414D01*
X0214237Y0087414D01*
X0214881Y0088058D01*
X0214881Y0092932D01*
X0214237Y0093576D01*
X0209363Y0093576D01*
X0208719Y0092932D01*
X0208719Y0088058D01*
X0209363Y0087414D01*
X0210100Y0087414D01*
X0210100Y0047195D01*
X0205592Y0047195D01*
X0205572Y0047242D01*
X0204705Y0048109D01*
X0203571Y0048579D01*
X0202344Y0048579D01*
X0201210Y0048109D01*
X0200343Y0047242D01*
X0199873Y0046108D01*
X0199873Y0044881D01*
X0200343Y0043748D01*
X0201210Y0042880D01*
X0202344Y0042411D01*
X0203571Y0042411D01*
X0204705Y0042880D01*
X0205572Y0043748D01*
X0205592Y0043795D01*
X0212504Y0043795D01*
X0213500Y0044791D01*
X0211800Y0045495D02*
X0202957Y0045495D01*
X0200839Y0043252D02*
X0082684Y0043252D01*
X0082684Y0042921D02*
X0082684Y0044069D01*
X0082245Y0045129D01*
X0081434Y0045940D01*
X0080374Y0046379D01*
X0079226Y0046379D01*
X0078166Y0045940D01*
X0077355Y0045129D01*
X0077341Y0045095D01*
X0048400Y0045095D01*
X0048400Y0046720D01*
X0049122Y0047019D01*
X0050276Y0048172D01*
X0050900Y0049679D01*
X0050900Y0057310D01*
X0050276Y0058817D01*
X0049122Y0059971D01*
X0047616Y0060595D01*
X0045984Y0060595D01*
X0044478Y0059971D01*
X0043324Y0058817D01*
X0042700Y0057310D01*
X0042700Y0049679D01*
X0043324Y0048172D01*
X0044478Y0047019D01*
X0045200Y0046720D01*
X0045200Y0042832D01*
X0046137Y0041895D01*
X0077341Y0041895D01*
X0077355Y0041861D01*
X0078166Y0041050D01*
X0079226Y0040611D01*
X0080374Y0040611D01*
X0081434Y0041050D01*
X0082245Y0041861D01*
X0082684Y0042921D01*
X0082325Y0042053D02*
X0311489Y0042053D01*
X0311489Y0040855D02*
X0080963Y0040855D01*
X0078637Y0040855D02*
X0007200Y0040855D01*
X0007200Y0042053D02*
X0045979Y0042053D01*
X0045200Y0043252D02*
X0007200Y0043252D01*
X0007200Y0044450D02*
X0045200Y0044450D01*
X0045200Y0045649D02*
X0007200Y0045649D01*
X0007200Y0046847D02*
X0044892Y0046847D01*
X0043451Y0048046D02*
X0007200Y0048046D01*
X0007200Y0049244D02*
X0042880Y0049244D01*
X0042700Y0050443D02*
X0007200Y0050443D01*
X0007200Y0051641D02*
X0042700Y0051641D01*
X0042700Y0052840D02*
X0007200Y0052840D01*
X0007200Y0054038D02*
X0042700Y0054038D01*
X0042700Y0055237D02*
X0007200Y0055237D01*
X0007200Y0056435D02*
X0042700Y0056435D01*
X0042834Y0057634D02*
X0007200Y0057634D01*
X0007200Y0058832D02*
X0043339Y0058832D01*
X0044623Y0060031D02*
X0007200Y0060031D01*
X0007200Y0061229D02*
X0045042Y0061229D01*
X0045034Y0061232D02*
X0045723Y0061008D01*
X0046400Y0060901D01*
X0046400Y0068095D01*
X0042200Y0068095D01*
X0042200Y0065133D01*
X0042313Y0064418D01*
X0042537Y0063729D01*
X0042866Y0063084D01*
X0043291Y0062498D01*
X0043803Y0061986D01*
X0044389Y0061561D01*
X0045034Y0061232D01*
X0046400Y0061229D02*
X0047200Y0061229D01*
X0047200Y0060901D02*
X0047877Y0061008D01*
X0048566Y0061232D01*
X0049211Y0061561D01*
X0049797Y0061986D01*
X0050309Y0062498D01*
X0050734Y0063084D01*
X0051063Y0063729D01*
X0051287Y0064418D01*
X0051400Y0065133D01*
X0051400Y0068095D01*
X0047200Y0068095D01*
X0047200Y0068895D01*
X0046400Y0068895D01*
X0046400Y0076089D01*
X0045723Y0075982D01*
X0045034Y0075758D01*
X0044389Y0075429D01*
X0043803Y0075003D01*
X0043291Y0074491D01*
X0042866Y0073906D01*
X0042537Y0073261D01*
X0042313Y0072572D01*
X0042200Y0071857D01*
X0042200Y0068895D01*
X0046400Y0068895D01*
X0046400Y0068095D01*
X0047200Y0068095D01*
X0047200Y0060901D01*
X0048558Y0061229D02*
X0210100Y0061229D01*
X0210100Y0060031D02*
X0068977Y0060031D01*
X0069122Y0059971D02*
X0067616Y0060595D01*
X0065984Y0060595D01*
X0064478Y0059971D01*
X0063324Y0058817D01*
X0062700Y0057310D01*
X0062700Y0049679D01*
X0063324Y0048172D01*
X0064478Y0047019D01*
X0065984Y0046395D01*
X0067616Y0046395D01*
X0069122Y0047019D01*
X0070276Y0048172D01*
X0070900Y0049679D01*
X0070900Y0057310D01*
X0070276Y0058817D01*
X0069122Y0059971D01*
X0070261Y0058832D02*
X0210100Y0058832D01*
X0210100Y0057634D02*
X0070766Y0057634D01*
X0070900Y0056435D02*
X0210100Y0056435D01*
X0210100Y0055237D02*
X0070900Y0055237D01*
X0070900Y0054038D02*
X0210100Y0054038D01*
X0210100Y0052840D02*
X0070900Y0052840D01*
X0070900Y0051641D02*
X0210100Y0051641D01*
X0210100Y0050443D02*
X0190881Y0050443D01*
X0190881Y0050932D02*
X0190237Y0051576D01*
X0185363Y0051576D01*
X0184719Y0050932D01*
X0184719Y0050195D01*
X0158881Y0050195D01*
X0158881Y0050932D01*
X0158237Y0051576D01*
X0153363Y0051576D01*
X0152719Y0050932D01*
X0152719Y0046058D01*
X0153363Y0045414D01*
X0158237Y0045414D01*
X0158881Y0046058D01*
X0158881Y0046795D01*
X0184719Y0046795D01*
X0184719Y0046058D01*
X0185363Y0045414D01*
X0190237Y0045414D01*
X0190881Y0046058D01*
X0190881Y0050932D01*
X0190881Y0049244D02*
X0210100Y0049244D01*
X0210100Y0048046D02*
X0204768Y0048046D01*
X0201147Y0048046D02*
X0190881Y0048046D01*
X0190881Y0046847D02*
X0200179Y0046847D01*
X0199873Y0045649D02*
X0190472Y0045649D01*
X0187800Y0048495D02*
X0155800Y0048495D01*
X0152719Y0048046D02*
X0070149Y0048046D01*
X0070720Y0049244D02*
X0152719Y0049244D01*
X0152719Y0050443D02*
X0070900Y0050443D01*
X0068708Y0046847D02*
X0152719Y0046847D01*
X0153128Y0045649D02*
X0081725Y0045649D01*
X0082526Y0044450D02*
X0200052Y0044450D01*
X0205076Y0043252D02*
X0220524Y0043252D01*
X0224761Y0043252D02*
X0311489Y0043252D01*
X0311489Y0044450D02*
X0225548Y0044450D01*
X0225727Y0045649D02*
X0300620Y0045649D01*
X0299148Y0046847D02*
X0225421Y0046847D01*
X0224453Y0048046D02*
X0298719Y0048046D01*
X0300100Y0055237D02*
X0213500Y0055237D01*
X0213500Y0056435D02*
X0300100Y0056435D01*
X0300535Y0057634D02*
X0213500Y0057634D01*
X0213500Y0058832D02*
X0307100Y0058832D01*
X0307100Y0060031D02*
X0213500Y0060031D01*
X0213500Y0061229D02*
X0306708Y0061229D01*
X0305907Y0062428D02*
X0288881Y0062428D01*
X0288881Y0063626D02*
X0305719Y0063626D01*
X0306016Y0064825D02*
X0288881Y0064825D01*
X0288881Y0066023D02*
X0306971Y0066023D01*
X0309881Y0067222D02*
X0311489Y0067222D01*
X0311489Y0068420D02*
X0309881Y0068420D01*
X0309881Y0069619D02*
X0311489Y0069619D01*
X0311489Y0070817D02*
X0309881Y0070817D01*
X0309797Y0072016D02*
X0311489Y0072016D01*
X0311489Y0073214D02*
X0213500Y0073214D01*
X0213500Y0072016D02*
X0277803Y0072016D01*
X0277719Y0070817D02*
X0213500Y0070817D01*
X0213500Y0069619D02*
X0277719Y0069619D01*
X0277719Y0068420D02*
X0213500Y0068420D01*
X0213500Y0067222D02*
X0236009Y0067222D01*
X0235719Y0066023D02*
X0213500Y0066023D01*
X0213500Y0064825D02*
X0235719Y0064825D01*
X0235719Y0063626D02*
X0213500Y0063626D01*
X0213500Y0062428D02*
X0235719Y0062428D01*
X0238800Y0064495D02*
X0285800Y0064495D01*
X0282719Y0062428D02*
X0241881Y0062428D01*
X0241591Y0067222D02*
X0277719Y0067222D01*
X0280800Y0069495D02*
X0306800Y0069495D01*
X0303719Y0067222D02*
X0288591Y0067222D01*
X0283797Y0072016D02*
X0303803Y0072016D01*
X0311489Y0074413D02*
X0295317Y0074413D01*
X0295027Y0074123D02*
X0295672Y0074768D01*
X0295672Y0081222D01*
X0295027Y0081866D01*
X0288573Y0081866D01*
X0287928Y0081222D01*
X0287928Y0079695D01*
X0247881Y0079695D01*
X0247881Y0080932D01*
X0247237Y0081576D01*
X0242363Y0081576D01*
X0241719Y0080932D01*
X0241719Y0076058D01*
X0242363Y0075414D01*
X0247237Y0075414D01*
X0247881Y0076058D01*
X0247881Y0076295D01*
X0287928Y0076295D01*
X0287928Y0074768D01*
X0288573Y0074123D01*
X0295027Y0074123D01*
X0295672Y0075611D02*
X0311489Y0075611D01*
X0311489Y0076810D02*
X0295672Y0076810D01*
X0295672Y0078008D02*
X0311489Y0078008D01*
X0311489Y0079207D02*
X0295672Y0079207D01*
X0295672Y0080405D02*
X0311489Y0080405D01*
X0311489Y0081604D02*
X0295290Y0081604D01*
X0291800Y0077995D02*
X0245300Y0077995D01*
X0244800Y0078495D01*
X0241719Y0078008D02*
X0213500Y0078008D01*
X0213500Y0076810D02*
X0241719Y0076810D01*
X0242166Y0075611D02*
X0213500Y0075611D01*
X0213500Y0074413D02*
X0288283Y0074413D01*
X0287928Y0075611D02*
X0247434Y0075611D01*
X0241719Y0079207D02*
X0213500Y0079207D01*
X0213500Y0080405D02*
X0241719Y0080405D01*
X0247881Y0080405D02*
X0287928Y0080405D01*
X0288310Y0081604D02*
X0213500Y0081604D01*
X0213500Y0082803D02*
X0311489Y0082803D01*
X0311489Y0084001D02*
X0213500Y0084001D01*
X0213500Y0085200D02*
X0311489Y0085200D01*
X0311489Y0086398D02*
X0213500Y0086398D01*
X0214420Y0087597D02*
X0311489Y0087597D01*
X0311489Y0088795D02*
X0214881Y0088795D01*
X0214881Y0089994D02*
X0311489Y0089994D01*
X0311489Y0091192D02*
X0214881Y0091192D01*
X0214881Y0092391D02*
X0265825Y0092391D01*
X0266166Y0092050D02*
X0267226Y0091611D01*
X0268374Y0091611D01*
X0269434Y0092050D01*
X0270179Y0092795D01*
X0288004Y0092795D01*
X0289000Y0093791D01*
X0290333Y0095123D01*
X0295027Y0095123D01*
X0295672Y0095768D01*
X0295672Y0102222D01*
X0295027Y0102866D01*
X0288573Y0102866D01*
X0287928Y0102222D01*
X0287928Y0097527D01*
X0286596Y0096195D01*
X0270179Y0096195D01*
X0269434Y0096940D01*
X0268374Y0097379D01*
X0267226Y0097379D01*
X0266166Y0096940D01*
X0265355Y0096129D01*
X0264916Y0095069D01*
X0264916Y0093921D01*
X0265355Y0092861D01*
X0266166Y0092050D01*
X0265053Y0093589D02*
X0194881Y0093589D01*
X0194881Y0092391D02*
X0208719Y0092391D01*
X0208719Y0091192D02*
X0194881Y0091192D01*
X0194881Y0094788D02*
X0264916Y0094788D01*
X0265296Y0095986D02*
X0194827Y0095986D01*
X0191800Y0093495D02*
X0078800Y0093495D01*
X0075719Y0093589D02*
X0007200Y0093589D01*
X0007200Y0092391D02*
X0013097Y0092391D01*
X0012928Y0092222D02*
X0012928Y0085768D01*
X0013573Y0085123D01*
X0020027Y0085123D01*
X0020672Y0085768D01*
X0020672Y0092222D01*
X0020027Y0092866D01*
X0013573Y0092866D01*
X0012928Y0092222D01*
X0012928Y0091192D02*
X0007200Y0091192D01*
X0007200Y0089994D02*
X0012928Y0089994D01*
X0012928Y0088795D02*
X0007200Y0088795D01*
X0007200Y0087597D02*
X0012928Y0087597D01*
X0012928Y0086398D02*
X0007200Y0086398D01*
X0007200Y0085200D02*
X0013496Y0085200D01*
X0020104Y0085200D02*
X0210100Y0085200D01*
X0210100Y0086398D02*
X0020672Y0086398D01*
X0020672Y0087597D02*
X0209180Y0087597D01*
X0208719Y0088795D02*
X0020672Y0088795D01*
X0020672Y0089994D02*
X0208719Y0089994D01*
X0211800Y0090495D02*
X0211800Y0045495D01*
X0216800Y0061495D02*
X0216800Y0068495D01*
X0217800Y0069495D01*
X0260800Y0069495D01*
X0260800Y0070495D01*
X0276800Y0090495D02*
X0309800Y0090495D01*
X0311489Y0092391D02*
X0269775Y0092391D01*
X0267800Y0094495D02*
X0287300Y0094495D01*
X0291800Y0098995D01*
X0295672Y0099582D02*
X0311489Y0099582D01*
X0311489Y0100780D02*
X0295672Y0100780D01*
X0295672Y0101979D02*
X0311848Y0101979D01*
X0312509Y0103177D02*
X0186500Y0103177D01*
X0186500Y0101979D02*
X0287928Y0101979D01*
X0287928Y0100780D02*
X0186500Y0100780D01*
X0186500Y0099582D02*
X0287928Y0099582D01*
X0287928Y0098383D02*
X0186500Y0098383D01*
X0186500Y0097185D02*
X0266757Y0097185D01*
X0268843Y0097185D02*
X0287586Y0097185D01*
X0289997Y0094788D02*
X0311489Y0094788D01*
X0311489Y0095986D02*
X0295672Y0095986D01*
X0295672Y0097185D02*
X0311489Y0097185D01*
X0311489Y0098383D02*
X0295672Y0098383D01*
X0288798Y0093589D02*
X0311489Y0093589D01*
X0313870Y0104376D02*
X0186500Y0104376D01*
X0183100Y0104376D02*
X0164760Y0104376D01*
X0164434Y0104050D02*
X0165245Y0104861D01*
X0165684Y0105921D01*
X0165684Y0107069D01*
X0165245Y0108129D01*
X0164434Y0108940D01*
X0163374Y0109379D01*
X0162763Y0109379D01*
X0163245Y0109861D01*
X0163684Y0110921D01*
X0163684Y0112069D01*
X0163245Y0113129D01*
X0162434Y0113940D01*
X0161447Y0114349D01*
X0161684Y0114921D01*
X0161684Y0116069D01*
X0161245Y0117129D01*
X0160434Y0117940D01*
X0159374Y0118379D01*
X0158226Y0118379D01*
X0157166Y0117940D01*
X0156421Y0117195D01*
X0141179Y0117195D01*
X0140434Y0117940D01*
X0139374Y0118379D01*
X0138226Y0118379D01*
X0137166Y0117940D01*
X0136355Y0117129D01*
X0135916Y0116069D01*
X0135916Y0114921D01*
X0136355Y0113861D01*
X0137166Y0113050D01*
X0138226Y0112611D01*
X0139140Y0112611D01*
X0138916Y0112069D01*
X0138916Y0110921D01*
X0139355Y0109861D01*
X0140166Y0109050D01*
X0141226Y0108611D01*
X0142374Y0108611D01*
X0143434Y0109050D01*
X0144245Y0109861D01*
X0144259Y0109895D01*
X0158341Y0109895D01*
X0158355Y0109861D01*
X0159166Y0109050D01*
X0160226Y0108611D01*
X0160837Y0108611D01*
X0160355Y0108129D01*
X0160341Y0108095D01*
X0130604Y0108095D01*
X0130504Y0108195D01*
X0130400Y0108195D01*
X0130400Y0114621D01*
X0131434Y0115050D01*
X0132245Y0115861D01*
X0132684Y0116921D01*
X0132684Y0118069D01*
X0132245Y0119129D01*
X0131434Y0119940D01*
X0130374Y0120379D01*
X0129226Y0120379D01*
X0128166Y0119940D01*
X0127400Y0119174D01*
X0127400Y0132832D01*
X0129192Y0134625D01*
X0129226Y0134611D01*
X0130374Y0134611D01*
X0131434Y0135050D01*
X0132245Y0135861D01*
X0132259Y0135895D01*
X0139341Y0135895D01*
X0139355Y0135861D01*
X0140166Y0135050D01*
X0141226Y0134611D01*
X0142374Y0134611D01*
X0143434Y0135050D01*
X0144245Y0135861D01*
X0144684Y0136921D01*
X0144684Y0138069D01*
X0144245Y0139129D01*
X0143434Y0139940D01*
X0142374Y0140379D01*
X0141226Y0140379D01*
X0140166Y0139940D01*
X0139355Y0139129D01*
X0139341Y0139095D01*
X0132259Y0139095D01*
X0132245Y0139129D01*
X0131434Y0139940D01*
X0130374Y0140379D01*
X0129226Y0140379D01*
X0128166Y0139940D01*
X0127355Y0139129D01*
X0126916Y0138069D01*
X0126916Y0136921D01*
X0126930Y0136887D01*
X0124200Y0134158D01*
X0124200Y0105158D01*
X0120408Y0101365D01*
X0120374Y0101379D01*
X0119226Y0101379D01*
X0118166Y0100940D01*
X0117355Y0100129D01*
X0116916Y0099069D01*
X0116916Y0097921D01*
X0117355Y0096861D01*
X0118166Y0096050D01*
X0119226Y0095611D01*
X0120374Y0095611D01*
X0121434Y0096050D01*
X0122245Y0096861D01*
X0122684Y0097921D01*
X0122684Y0099069D01*
X0122670Y0099102D01*
X0126084Y0102516D01*
X0126355Y0101861D01*
X0127166Y0101050D01*
X0128226Y0100611D01*
X0129374Y0100611D01*
X0130434Y0101050D01*
X0131245Y0101861D01*
X0131684Y0102921D01*
X0131684Y0104069D01*
X0131342Y0104895D01*
X0160341Y0104895D01*
X0160355Y0104861D01*
X0161166Y0104050D01*
X0162226Y0103611D01*
X0163374Y0103611D01*
X0164434Y0104050D01*
X0165541Y0105574D02*
X0183100Y0105574D01*
X0183100Y0106773D02*
X0165684Y0106773D01*
X0165310Y0107971D02*
X0183100Y0107971D01*
X0184071Y0109170D02*
X0163879Y0109170D01*
X0163455Y0110368D02*
X0172348Y0110368D01*
X0171563Y0111567D02*
X0163684Y0111567D01*
X0163396Y0112765D02*
X0171416Y0112765D01*
X0171787Y0113964D02*
X0162376Y0113964D01*
X0161684Y0115162D02*
X0173203Y0115162D01*
X0174300Y0112495D02*
X0174800Y0112495D01*
X0177300Y0114995D01*
X0185800Y0114995D01*
X0191300Y0120495D01*
X0193642Y0118758D02*
X0193659Y0118758D01*
X0194184Y0119956D02*
X0194219Y0119956D01*
X0194219Y0121155D02*
X0194148Y0121155D01*
X0197300Y0119995D02*
X0184800Y0107495D01*
X0184800Y0096995D01*
X0155800Y0096995D01*
X0153096Y0095986D02*
X0121280Y0095986D01*
X0122379Y0097185D02*
X0152916Y0097185D01*
X0153253Y0098383D02*
X0122684Y0098383D01*
X0123150Y0099582D02*
X0154508Y0099582D01*
X0157092Y0099582D02*
X0183100Y0099582D01*
X0183100Y0100780D02*
X0129783Y0100780D01*
X0131294Y0101979D02*
X0183100Y0101979D01*
X0183100Y0103177D02*
X0131684Y0103177D01*
X0131557Y0104376D02*
X0160840Y0104376D01*
X0159046Y0109170D02*
X0143554Y0109170D01*
X0140046Y0109170D02*
X0130400Y0109170D01*
X0130400Y0110368D02*
X0139145Y0110368D01*
X0138916Y0111567D02*
X0130400Y0111567D01*
X0130400Y0112765D02*
X0137853Y0112765D01*
X0136312Y0113964D02*
X0130400Y0113964D01*
X0131546Y0115162D02*
X0135916Y0115162D01*
X0136037Y0116361D02*
X0132452Y0116361D01*
X0132684Y0117559D02*
X0136786Y0117559D01*
X0138800Y0115495D02*
X0158800Y0115495D01*
X0160814Y0117559D02*
X0185960Y0117559D01*
X0187159Y0118758D02*
X0132399Y0118758D01*
X0131394Y0119956D02*
X0188357Y0119956D01*
X0188452Y0121155D02*
X0127400Y0121155D01*
X0127400Y0122353D02*
X0168537Y0122353D01*
X0168100Y0123552D02*
X0127400Y0123552D01*
X0127400Y0124750D02*
X0168100Y0124750D01*
X0168100Y0125949D02*
X0127400Y0125949D01*
X0127400Y0127147D02*
X0167290Y0127147D01*
X0166734Y0128346D02*
X0127400Y0128346D01*
X0127400Y0129544D02*
X0166719Y0129544D01*
X0167191Y0130743D02*
X0127400Y0130743D01*
X0127400Y0131941D02*
X0168863Y0131941D01*
X0170737Y0131941D02*
X0282170Y0131941D01*
X0282166Y0131940D02*
X0281355Y0131129D01*
X0280916Y0130069D01*
X0280916Y0128921D01*
X0281355Y0127861D01*
X0282166Y0127050D01*
X0283226Y0126611D01*
X0284374Y0126611D01*
X0285434Y0127050D01*
X0286179Y0127795D01*
X0294921Y0127795D01*
X0295666Y0127050D01*
X0296726Y0126611D01*
X0297874Y0126611D01*
X0298934Y0127050D01*
X0299745Y0127861D01*
X0300184Y0128921D01*
X0300184Y0130069D01*
X0299745Y0131129D01*
X0298934Y0131940D01*
X0297874Y0132379D01*
X0296726Y0132379D01*
X0295666Y0131940D01*
X0294921Y0131195D01*
X0286179Y0131195D01*
X0285434Y0131940D01*
X0284374Y0132379D01*
X0283226Y0132379D01*
X0282166Y0131940D01*
X0281195Y0130743D02*
X0235631Y0130743D01*
X0235434Y0130940D02*
X0234374Y0131379D01*
X0233226Y0131379D01*
X0232166Y0130940D01*
X0231421Y0130195D01*
X0225179Y0130195D01*
X0224434Y0130940D01*
X0223374Y0131379D01*
X0222226Y0131379D01*
X0221166Y0130940D01*
X0220355Y0130129D01*
X0219916Y0129069D01*
X0219916Y0127921D01*
X0220355Y0126861D01*
X0221166Y0126050D01*
X0222226Y0125611D01*
X0223374Y0125611D01*
X0224434Y0126050D01*
X0225179Y0126795D01*
X0231421Y0126795D01*
X0232166Y0126050D01*
X0233226Y0125611D01*
X0234374Y0125611D01*
X0235434Y0126050D01*
X0236245Y0126861D01*
X0236684Y0127921D01*
X0236684Y0129069D01*
X0236245Y0130129D01*
X0235434Y0130940D01*
X0236487Y0129544D02*
X0280916Y0129544D01*
X0281154Y0128346D02*
X0236684Y0128346D01*
X0236364Y0127147D02*
X0282068Y0127147D01*
X0283800Y0129495D02*
X0297300Y0129495D01*
X0300184Y0129544D02*
X0318916Y0129544D01*
X0318916Y0130069D02*
X0318916Y0128921D01*
X0319355Y0127861D01*
X0320166Y0127050D01*
X0321226Y0126611D01*
X0322374Y0126611D01*
X0323434Y0127050D01*
X0324245Y0127861D01*
X0324684Y0128921D01*
X0324684Y0130069D01*
X0324245Y0131129D01*
X0323500Y0131874D01*
X0323500Y0138116D01*
X0324245Y0138861D01*
X0324684Y0139921D01*
X0324684Y0141069D01*
X0324245Y0142129D01*
X0323434Y0142940D01*
X0322374Y0143379D01*
X0321226Y0143379D01*
X0320166Y0142940D01*
X0319355Y0142129D01*
X0318916Y0141069D01*
X0318916Y0139921D01*
X0319355Y0138861D01*
X0320100Y0138116D01*
X0320100Y0131874D01*
X0319355Y0131129D01*
X0318916Y0130069D01*
X0319195Y0130743D02*
X0299905Y0130743D01*
X0298930Y0131941D02*
X0320100Y0131941D01*
X0320100Y0133140D02*
X0127708Y0133140D01*
X0128906Y0134338D02*
X0284877Y0134338D01*
X0285166Y0134050D02*
X0286226Y0133611D01*
X0287374Y0133611D01*
X0288434Y0134050D01*
X0289245Y0134861D01*
X0289684Y0135921D01*
X0289684Y0137069D01*
X0289245Y0138129D01*
X0288500Y0138874D01*
X0288500Y0145116D01*
X0289245Y0145861D01*
X0289684Y0146921D01*
X0289684Y0148069D01*
X0289245Y0149129D01*
X0288434Y0149940D01*
X0287374Y0150379D01*
X0286226Y0150379D01*
X0285166Y0149940D01*
X0284355Y0149129D01*
X0283916Y0148069D01*
X0283916Y0146921D01*
X0284355Y0145861D01*
X0285100Y0145116D01*
X0285100Y0138874D01*
X0284355Y0138129D01*
X0283916Y0137069D01*
X0283916Y0135921D01*
X0284355Y0134861D01*
X0285166Y0134050D01*
X0284075Y0135537D02*
X0221860Y0135537D01*
X0221737Y0135414D02*
X0222381Y0136058D01*
X0222381Y0140932D01*
X0221737Y0141576D01*
X0216863Y0141576D01*
X0216219Y0140932D01*
X0216219Y0140195D01*
X0194381Y0140195D01*
X0194381Y0140932D01*
X0193737Y0141576D01*
X0188863Y0141576D01*
X0188219Y0140932D01*
X0188219Y0136058D01*
X0188863Y0135414D01*
X0193737Y0135414D01*
X0194381Y0136058D01*
X0194381Y0136795D01*
X0216219Y0136795D01*
X0216219Y0136058D01*
X0216863Y0135414D01*
X0221737Y0135414D01*
X0222381Y0136736D02*
X0283916Y0136736D01*
X0284274Y0137934D02*
X0222381Y0137934D01*
X0222381Y0139133D02*
X0285100Y0139133D01*
X0285100Y0140331D02*
X0222381Y0140331D01*
X0221783Y0141530D02*
X0285100Y0141530D01*
X0285100Y0142728D02*
X0147604Y0142728D01*
X0147684Y0142921D02*
X0147684Y0144069D01*
X0147245Y0145129D01*
X0146434Y0145940D01*
X0145374Y0146379D01*
X0144226Y0146379D01*
X0143166Y0145940D01*
X0142355Y0145129D01*
X0142341Y0145095D01*
X0132259Y0145095D01*
X0132245Y0145129D01*
X0131434Y0145940D01*
X0130374Y0146379D01*
X0129226Y0146379D01*
X0128166Y0145940D01*
X0127355Y0145129D01*
X0126916Y0144069D01*
X0126916Y0142921D01*
X0127355Y0141861D01*
X0128166Y0141050D01*
X0129226Y0140611D01*
X0130374Y0140611D01*
X0131434Y0141050D01*
X0132245Y0141861D01*
X0132259Y0141895D01*
X0142341Y0141895D01*
X0142355Y0141861D01*
X0143166Y0141050D01*
X0144226Y0140611D01*
X0145374Y0140611D01*
X0146434Y0141050D01*
X0147245Y0141861D01*
X0147684Y0142921D01*
X0147684Y0143927D02*
X0285100Y0143927D01*
X0285091Y0145125D02*
X0147247Y0145125D01*
X0145508Y0146324D02*
X0284163Y0146324D01*
X0283916Y0147522D02*
X0100496Y0147522D01*
X0100684Y0147069D02*
X0100245Y0148129D01*
X0099479Y0148895D01*
X0153540Y0148895D01*
X0154226Y0148611D01*
X0155374Y0148611D01*
X0156434Y0149050D01*
X0157245Y0149861D01*
X0157684Y0150921D01*
X0157684Y0152069D01*
X0157245Y0153129D01*
X0156434Y0153940D01*
X0155374Y0154379D01*
X0154226Y0154379D01*
X0153166Y0153940D01*
X0152355Y0153129D01*
X0151927Y0152095D01*
X0030137Y0152095D01*
X0029200Y0151158D01*
X0015200Y0137158D01*
X0015200Y0131922D01*
X0013269Y0131922D01*
X0012625Y0131277D01*
X0012625Y0124216D01*
X0013269Y0123572D01*
X0020331Y0123572D01*
X0020975Y0124216D01*
X0020975Y0131277D01*
X0020331Y0131922D01*
X0018400Y0131922D01*
X0018400Y0135832D01*
X0031463Y0148895D01*
X0096121Y0148895D01*
X0095355Y0148129D01*
X0094916Y0147069D01*
X0094916Y0145921D01*
X0094930Y0145887D01*
X0094137Y0145095D01*
X0082881Y0145095D01*
X0082881Y0145932D01*
X0082237Y0146576D01*
X0077363Y0146576D01*
X0076719Y0145932D01*
X0076719Y0145195D01*
X0062096Y0145195D01*
X0061100Y0144199D01*
X0061100Y0140195D01*
X0039881Y0140195D01*
X0039881Y0140932D01*
X0039237Y0141576D01*
X0034363Y0141576D01*
X0033719Y0140932D01*
X0033719Y0136058D01*
X0034363Y0135414D01*
X0039237Y0135414D01*
X0039881Y0136058D01*
X0039881Y0136795D01*
X0063504Y0136795D01*
X0064500Y0137791D01*
X0064500Y0141795D01*
X0076719Y0141795D01*
X0076719Y0141058D01*
X0077363Y0140414D01*
X0082237Y0140414D01*
X0082881Y0141058D01*
X0082881Y0141895D01*
X0095463Y0141895D01*
X0096100Y0142532D01*
X0096100Y0136531D01*
X0097096Y0135535D01*
X0097421Y0135535D01*
X0098166Y0134790D01*
X0099226Y0134351D01*
X0100374Y0134351D01*
X0101434Y0134790D01*
X0102245Y0135601D01*
X0102684Y0136661D01*
X0102684Y0137809D01*
X0102245Y0138869D01*
X0101434Y0139680D01*
X0100374Y0140119D01*
X0099500Y0140119D01*
X0099500Y0144116D01*
X0100245Y0144861D01*
X0100684Y0145921D01*
X0100684Y0147069D01*
X0100684Y0146324D02*
X0129092Y0146324D01*
X0130508Y0146324D02*
X0144092Y0146324D01*
X0142353Y0145125D02*
X0132247Y0145125D01*
X0131914Y0141530D02*
X0142686Y0141530D01*
X0142490Y0140331D02*
X0188219Y0140331D01*
X0188219Y0139133D02*
X0144241Y0139133D01*
X0144684Y0137934D02*
X0188219Y0137934D01*
X0188219Y0136736D02*
X0144607Y0136736D01*
X0143921Y0135537D02*
X0188740Y0135537D01*
X0191300Y0138495D02*
X0219300Y0138495D01*
X0216219Y0136736D02*
X0194381Y0136736D01*
X0193860Y0135537D02*
X0216740Y0135537D01*
X0216219Y0140331D02*
X0194381Y0140331D01*
X0193783Y0141530D02*
X0216817Y0141530D01*
X0222800Y0147995D02*
X0194300Y0147995D01*
X0198166Y0154550D02*
X0199226Y0154111D01*
X0200374Y0154111D01*
X0201434Y0154550D01*
X0202245Y0155361D01*
X0202684Y0156421D01*
X0202684Y0157569D01*
X0202245Y0158629D01*
X0201434Y0159440D01*
X0200374Y0159879D01*
X0199226Y0159879D01*
X0198166Y0159440D01*
X0197421Y0158695D01*
X0190787Y0158695D01*
X0190587Y0158895D01*
X0177587Y0158895D01*
X0173381Y0163101D01*
X0173381Y0165932D01*
X0172737Y0166576D01*
X0167863Y0166576D01*
X0167219Y0165932D01*
X0167219Y0161058D01*
X0167863Y0160414D01*
X0170694Y0160414D01*
X0176013Y0155095D01*
X0190587Y0155095D01*
X0190787Y0155295D01*
X0197421Y0155295D01*
X0198166Y0154550D01*
X0198003Y0154713D02*
X0142536Y0154713D01*
X0142237Y0154414D02*
X0142881Y0155058D01*
X0142881Y0159932D01*
X0142237Y0160576D01*
X0137363Y0160576D01*
X0136719Y0159932D01*
X0136719Y0159195D01*
X0133881Y0159195D01*
X0133881Y0159932D01*
X0133237Y0160576D01*
X0128363Y0160576D01*
X0127719Y0159932D01*
X0127719Y0155058D01*
X0128363Y0154414D01*
X0133237Y0154414D01*
X0133881Y0155058D01*
X0133881Y0155795D01*
X0136719Y0155795D01*
X0136719Y0155058D01*
X0137363Y0154414D01*
X0142237Y0154414D01*
X0142881Y0155912D02*
X0175196Y0155912D01*
X0173998Y0157110D02*
X0142881Y0157110D01*
X0142881Y0158309D02*
X0172799Y0158309D01*
X0171601Y0159507D02*
X0142881Y0159507D01*
X0139800Y0157495D02*
X0130800Y0157495D01*
X0127719Y0157110D02*
X0021930Y0157110D01*
X0020975Y0156155D02*
X0026715Y0161895D01*
X0147341Y0161895D01*
X0147355Y0161861D01*
X0148166Y0161050D01*
X0149226Y0160611D01*
X0150374Y0160611D01*
X0151434Y0161050D01*
X0152245Y0161861D01*
X0152684Y0162921D01*
X0152684Y0164069D01*
X0152245Y0165129D01*
X0151434Y0165940D01*
X0150374Y0166379D01*
X0149226Y0166379D01*
X0148166Y0165940D01*
X0147355Y0165129D01*
X0147341Y0165095D01*
X0025389Y0165095D01*
X0018712Y0158418D01*
X0013269Y0158418D01*
X0012625Y0157773D01*
X0012625Y0150712D01*
X0013269Y0150068D01*
X0020331Y0150068D01*
X0020975Y0150712D01*
X0020975Y0156155D01*
X0020975Y0155912D02*
X0127719Y0155912D01*
X0128064Y0154713D02*
X0020975Y0154713D01*
X0020975Y0153515D02*
X0152741Y0153515D01*
X0152018Y0152316D02*
X0020975Y0152316D01*
X0020975Y0151118D02*
X0029160Y0151118D01*
X0027962Y0149919D02*
X0007200Y0149919D01*
X0007200Y0148721D02*
X0026763Y0148721D01*
X0025565Y0147522D02*
X0007200Y0147522D01*
X0007200Y0146324D02*
X0024366Y0146324D01*
X0023168Y0145125D02*
X0007200Y0145125D01*
X0007200Y0143927D02*
X0021969Y0143927D01*
X0020771Y0142728D02*
X0007200Y0142728D01*
X0007200Y0141530D02*
X0019572Y0141530D01*
X0018374Y0140331D02*
X0007200Y0140331D01*
X0007200Y0139133D02*
X0017175Y0139133D01*
X0015976Y0137934D02*
X0007200Y0137934D01*
X0007200Y0136736D02*
X0015200Y0136736D01*
X0015200Y0135537D02*
X0007200Y0135537D01*
X0007200Y0134338D02*
X0015200Y0134338D01*
X0015200Y0133140D02*
X0007200Y0133140D01*
X0007200Y0131941D02*
X0015200Y0131941D01*
X0012625Y0130743D02*
X0007200Y0130743D01*
X0007200Y0129544D02*
X0012625Y0129544D01*
X0012625Y0128346D02*
X0007200Y0128346D01*
X0007200Y0127147D02*
X0012625Y0127147D01*
X0012625Y0125949D02*
X0007200Y0125949D01*
X0007200Y0124750D02*
X0012625Y0124750D01*
X0007200Y0123552D02*
X0096100Y0123552D01*
X0096100Y0124116D02*
X0096100Y0119791D01*
X0097096Y0118795D01*
X0097421Y0118795D01*
X0098166Y0118050D01*
X0099226Y0117611D01*
X0100374Y0117611D01*
X0101434Y0118050D01*
X0102245Y0118861D01*
X0102684Y0119921D01*
X0102684Y0121069D01*
X0102245Y0122129D01*
X0101434Y0122940D01*
X0100374Y0123379D01*
X0099500Y0123379D01*
X0099500Y0124116D01*
X0100245Y0124861D01*
X0100684Y0125921D01*
X0100684Y0127069D01*
X0100245Y0128129D01*
X0099434Y0128940D01*
X0098374Y0129379D01*
X0097226Y0129379D01*
X0096166Y0128940D01*
X0095355Y0128129D01*
X0094916Y0127069D01*
X0094916Y0125921D01*
X0095355Y0124861D01*
X0096100Y0124116D01*
X0095465Y0124750D02*
X0020975Y0124750D01*
X0020975Y0125949D02*
X0046767Y0125949D01*
X0047166Y0125550D02*
X0046355Y0126361D01*
X0045916Y0127421D01*
X0045916Y0128569D01*
X0046355Y0129629D01*
X0047166Y0130440D01*
X0048226Y0130879D01*
X0049374Y0130879D01*
X0050434Y0130440D01*
X0051179Y0129695D01*
X0083100Y0129695D01*
X0083100Y0133116D01*
X0082355Y0133861D01*
X0081916Y0134921D01*
X0081916Y0136069D01*
X0082355Y0137129D01*
X0083166Y0137940D01*
X0084226Y0138379D01*
X0085374Y0138379D01*
X0086434Y0137940D01*
X0087245Y0137129D01*
X0087684Y0136069D01*
X0087684Y0134921D01*
X0087245Y0133861D01*
X0086500Y0133116D01*
X0086500Y0127291D01*
X0085504Y0126295D01*
X0051179Y0126295D01*
X0050434Y0125550D01*
X0049374Y0125111D01*
X0048226Y0125111D01*
X0047166Y0125550D01*
X0046029Y0127147D02*
X0020975Y0127147D01*
X0020975Y0128346D02*
X0045916Y0128346D01*
X0046320Y0129544D02*
X0020975Y0129544D01*
X0020975Y0130743D02*
X0047898Y0130743D01*
X0049702Y0130743D02*
X0083100Y0130743D01*
X0083100Y0131941D02*
X0018400Y0131941D01*
X0018400Y0133140D02*
X0083076Y0133140D01*
X0082157Y0134338D02*
X0018400Y0134338D01*
X0018400Y0135537D02*
X0034240Y0135537D01*
X0033719Y0136736D02*
X0019303Y0136736D01*
X0020502Y0137934D02*
X0033719Y0137934D01*
X0033719Y0139133D02*
X0021700Y0139133D01*
X0022899Y0140331D02*
X0033719Y0140331D01*
X0034317Y0141530D02*
X0024097Y0141530D01*
X0025296Y0142728D02*
X0061100Y0142728D01*
X0061100Y0141530D02*
X0039283Y0141530D01*
X0039881Y0140331D02*
X0061100Y0140331D01*
X0062800Y0138495D02*
X0062800Y0143495D01*
X0079800Y0143495D01*
X0082881Y0145125D02*
X0094168Y0145125D01*
X0094916Y0146324D02*
X0082489Y0146324D01*
X0077111Y0146324D02*
X0028892Y0146324D01*
X0030090Y0147522D02*
X0095104Y0147522D01*
X0095947Y0148721D02*
X0031289Y0148721D01*
X0027693Y0145125D02*
X0062026Y0145125D01*
X0061100Y0143927D02*
X0026495Y0143927D01*
X0036800Y0138495D02*
X0062800Y0138495D01*
X0064500Y0137934D02*
X0083160Y0137934D01*
X0082192Y0136736D02*
X0039881Y0136736D01*
X0039360Y0135537D02*
X0081916Y0135537D01*
X0084800Y0135495D02*
X0084800Y0127995D01*
X0048800Y0127995D01*
X0050833Y0125949D02*
X0094916Y0125949D01*
X0094948Y0127147D02*
X0086357Y0127147D01*
X0086500Y0128346D02*
X0095572Y0128346D01*
X0097800Y0126495D02*
X0097800Y0120495D01*
X0099800Y0120495D01*
X0102020Y0122353D02*
X0124200Y0122353D01*
X0124200Y0121155D02*
X0102648Y0121155D01*
X0102684Y0119956D02*
X0124200Y0119956D01*
X0124200Y0118758D02*
X0102142Y0118758D01*
X0097458Y0118758D02*
X0007200Y0118758D01*
X0007200Y0119956D02*
X0096100Y0119956D01*
X0096100Y0121155D02*
X0007200Y0121155D01*
X0007200Y0122353D02*
X0096100Y0122353D01*
X0099500Y0123552D02*
X0124200Y0123552D01*
X0124200Y0124750D02*
X0100135Y0124750D01*
X0100684Y0125949D02*
X0124200Y0125949D01*
X0124200Y0127147D02*
X0100652Y0127147D01*
X0100028Y0128346D02*
X0124200Y0128346D01*
X0124200Y0129544D02*
X0086500Y0129544D01*
X0086500Y0130743D02*
X0124200Y0130743D01*
X0124200Y0131941D02*
X0086500Y0131941D01*
X0086524Y0133140D02*
X0124200Y0133140D01*
X0124381Y0134338D02*
X0087443Y0134338D01*
X0087684Y0135537D02*
X0097094Y0135537D01*
X0096100Y0136736D02*
X0087408Y0136736D01*
X0086440Y0137934D02*
X0096100Y0137934D01*
X0096100Y0139133D02*
X0064500Y0139133D01*
X0064500Y0140331D02*
X0096100Y0140331D01*
X0096100Y0141530D02*
X0082881Y0141530D01*
X0076719Y0141530D02*
X0064500Y0141530D01*
X0097800Y0137235D02*
X0097800Y0146495D01*
X0099653Y0148721D02*
X0153961Y0148721D01*
X0155639Y0148721D02*
X0284186Y0148721D01*
X0285145Y0149919D02*
X0157269Y0149919D01*
X0157684Y0151118D02*
X0290249Y0151118D01*
X0290355Y0150861D02*
X0291166Y0150050D01*
X0292226Y0149611D01*
X0293374Y0149611D01*
X0294434Y0150050D01*
X0295245Y0150861D01*
X0295684Y0151921D01*
X0295684Y0153069D01*
X0295245Y0154129D01*
X0294500Y0154874D01*
X0294500Y0163116D01*
X0295245Y0163861D01*
X0295684Y0164921D01*
X0295684Y0166069D01*
X0295245Y0167129D01*
X0294434Y0167940D01*
X0293374Y0168379D01*
X0292226Y0168379D01*
X0291166Y0167940D01*
X0290355Y0167129D01*
X0289916Y0166069D01*
X0289916Y0164921D01*
X0290355Y0163861D01*
X0291100Y0163116D01*
X0291100Y0154874D01*
X0290355Y0154129D01*
X0289916Y0153069D01*
X0289916Y0151921D01*
X0290355Y0150861D01*
X0291481Y0149919D02*
X0288455Y0149919D01*
X0289414Y0148721D02*
X0294686Y0148721D01*
X0294855Y0149129D02*
X0294416Y0148069D01*
X0294416Y0146921D01*
X0294855Y0145861D01*
X0295666Y0145050D01*
X0296726Y0144611D01*
X0297874Y0144611D01*
X0298934Y0145050D01*
X0299679Y0145795D01*
X0318421Y0145795D01*
X0319166Y0145050D01*
X0320226Y0144611D01*
X0321374Y0144611D01*
X0322434Y0145050D01*
X0323245Y0145861D01*
X0323684Y0146921D01*
X0323684Y0148069D01*
X0323245Y0149129D01*
X0322434Y0149940D01*
X0321374Y0150379D01*
X0320226Y0150379D01*
X0319166Y0149940D01*
X0318421Y0149195D01*
X0299679Y0149195D01*
X0298934Y0149940D01*
X0297874Y0150379D01*
X0296726Y0150379D01*
X0295666Y0149940D01*
X0294855Y0149129D01*
X0294119Y0149919D02*
X0295645Y0149919D01*
X0295351Y0151118D02*
X0331595Y0151118D01*
X0331166Y0150940D02*
X0330355Y0150129D01*
X0329916Y0149069D01*
X0329916Y0147921D01*
X0330355Y0146861D01*
X0331100Y0146116D01*
X0331100Y0133199D01*
X0330280Y0132379D01*
X0329226Y0132379D01*
X0328166Y0131940D01*
X0327355Y0131129D01*
X0326916Y0130069D01*
X0326916Y0128921D01*
X0327355Y0127861D01*
X0328166Y0127050D01*
X0329226Y0126611D01*
X0330374Y0126611D01*
X0331434Y0127050D01*
X0332245Y0127861D01*
X0332684Y0128921D01*
X0332684Y0129975D01*
X0334500Y0131791D01*
X0334500Y0146116D01*
X0335245Y0146861D01*
X0335684Y0147921D01*
X0335684Y0149069D01*
X0335245Y0150129D01*
X0334434Y0150940D01*
X0333374Y0151379D01*
X0332226Y0151379D01*
X0331166Y0150940D01*
X0330268Y0149919D02*
X0322455Y0149919D01*
X0323414Y0148721D02*
X0329916Y0148721D01*
X0330081Y0147522D02*
X0323684Y0147522D01*
X0323437Y0146324D02*
X0330892Y0146324D01*
X0331100Y0145125D02*
X0322509Y0145125D01*
X0323646Y0142728D02*
X0331100Y0142728D01*
X0331100Y0141530D02*
X0324493Y0141530D01*
X0324684Y0140331D02*
X0331100Y0140331D01*
X0331100Y0139133D02*
X0324358Y0139133D01*
X0323500Y0137934D02*
X0331100Y0137934D01*
X0331100Y0136736D02*
X0323500Y0136736D01*
X0323500Y0135537D02*
X0331100Y0135537D01*
X0331100Y0134338D02*
X0323500Y0134338D01*
X0323500Y0133140D02*
X0331041Y0133140D01*
X0332800Y0132495D02*
X0329800Y0129495D01*
X0332684Y0129544D02*
X0361916Y0129544D01*
X0361916Y0130069D02*
X0361916Y0128921D01*
X0362355Y0127861D01*
X0363166Y0127050D01*
X0364226Y0126611D01*
X0365374Y0126611D01*
X0366434Y0127050D01*
X0367245Y0127861D01*
X0367684Y0128921D01*
X0367684Y0130069D01*
X0367500Y0130513D01*
X0367500Y0139116D01*
X0368245Y0139861D01*
X0368684Y0140921D01*
X0368684Y0142069D01*
X0368245Y0143129D01*
X0367434Y0143940D01*
X0366374Y0144379D01*
X0365226Y0144379D01*
X0364166Y0143940D01*
X0363355Y0143129D01*
X0362916Y0142069D01*
X0362916Y0140921D01*
X0363355Y0139861D01*
X0364100Y0139116D01*
X0364100Y0132327D01*
X0363166Y0131940D01*
X0362355Y0131129D01*
X0361916Y0130069D01*
X0362195Y0130743D02*
X0333452Y0130743D01*
X0334500Y0131941D02*
X0363170Y0131941D01*
X0364100Y0133140D02*
X0334500Y0133140D01*
X0334500Y0134338D02*
X0364100Y0134338D01*
X0364100Y0135537D02*
X0334500Y0135537D01*
X0334500Y0136736D02*
X0364100Y0136736D01*
X0364100Y0137934D02*
X0334500Y0137934D01*
X0334500Y0139133D02*
X0364083Y0139133D01*
X0363160Y0140331D02*
X0334500Y0140331D01*
X0334500Y0141530D02*
X0362916Y0141530D01*
X0363189Y0142728D02*
X0334500Y0142728D01*
X0334500Y0143927D02*
X0364153Y0143927D01*
X0365800Y0141495D02*
X0365800Y0130495D01*
X0364800Y0129495D01*
X0367684Y0129544D02*
X0370771Y0129544D01*
X0370031Y0128346D02*
X0367446Y0128346D01*
X0366532Y0127147D02*
X0369916Y0127147D01*
X0370318Y0125949D02*
X0235191Y0125949D01*
X0232409Y0125949D02*
X0224191Y0125949D01*
X0221409Y0125949D02*
X0171500Y0125949D01*
X0172310Y0127147D02*
X0220236Y0127147D01*
X0219916Y0128346D02*
X0172866Y0128346D01*
X0172881Y0129544D02*
X0220113Y0129544D01*
X0220969Y0130743D02*
X0172409Y0130743D01*
X0169800Y0128995D02*
X0169800Y0123495D01*
X0414800Y0123495D01*
X0412897Y0125949D02*
X0382658Y0125949D01*
X0383500Y0127147D02*
X0393048Y0127147D01*
X0392928Y0127268D02*
X0393573Y0126623D01*
X0400027Y0126623D01*
X0400672Y0127268D01*
X0400672Y0133722D01*
X0400027Y0134366D01*
X0393573Y0134366D01*
X0392928Y0133722D01*
X0392928Y0127268D01*
X0392928Y0128346D02*
X0383500Y0128346D01*
X0383500Y0129544D02*
X0392928Y0129544D01*
X0392928Y0130743D02*
X0383500Y0130743D01*
X0383500Y0131941D02*
X0392928Y0131941D01*
X0392928Y0133140D02*
X0383500Y0133140D01*
X0383500Y0134338D02*
X0393545Y0134338D01*
X0400055Y0134338D02*
X0416400Y0134338D01*
X0416400Y0133140D02*
X0400672Y0133140D01*
X0400672Y0131941D02*
X0416400Y0131941D01*
X0416400Y0130743D02*
X0400672Y0130743D01*
X0400672Y0129544D02*
X0416400Y0129544D01*
X0416400Y0128346D02*
X0400672Y0128346D01*
X0400552Y0127147D02*
X0416400Y0127147D01*
X0416400Y0135537D02*
X0383500Y0135537D01*
X0383500Y0136736D02*
X0416400Y0136736D01*
X0416400Y0137934D02*
X0383500Y0137934D01*
X0383500Y0139133D02*
X0416400Y0139133D01*
X0416400Y0140331D02*
X0383500Y0140331D01*
X0383500Y0141530D02*
X0416400Y0141530D01*
X0416400Y0142728D02*
X0383500Y0142728D01*
X0383500Y0143927D02*
X0416400Y0143927D01*
X0416400Y0145125D02*
X0383500Y0145125D01*
X0383500Y0146324D02*
X0416400Y0146324D01*
X0416400Y0147522D02*
X0383500Y0147522D01*
X0383500Y0148721D02*
X0392928Y0148721D01*
X0392928Y0148268D02*
X0393573Y0147623D01*
X0400027Y0147623D01*
X0400672Y0148268D01*
X0400672Y0154722D01*
X0400027Y0155366D01*
X0393573Y0155366D01*
X0392928Y0154722D01*
X0392928Y0148268D01*
X0392928Y0149919D02*
X0383500Y0149919D01*
X0383500Y0151118D02*
X0392928Y0151118D01*
X0392928Y0152316D02*
X0383500Y0152316D01*
X0383500Y0153515D02*
X0392928Y0153515D01*
X0392928Y0154713D02*
X0383500Y0154713D01*
X0383500Y0155912D02*
X0416400Y0155912D01*
X0416400Y0157110D02*
X0383500Y0157110D01*
X0383500Y0158309D02*
X0416400Y0158309D01*
X0416400Y0159507D02*
X0383500Y0159507D01*
X0383500Y0160706D02*
X0416400Y0160706D01*
X0416400Y0161904D02*
X0383500Y0161904D01*
X0382596Y0163103D02*
X0416400Y0163103D01*
X0416400Y0164301D02*
X0381588Y0164301D01*
X0380874Y0165500D02*
X0416400Y0165500D01*
X0416400Y0166698D02*
X0295423Y0166698D01*
X0295684Y0165500D02*
X0376726Y0165500D01*
X0376012Y0164301D02*
X0295427Y0164301D01*
X0294500Y0163103D02*
X0375916Y0163103D01*
X0376337Y0161904D02*
X0294500Y0161904D01*
X0294500Y0160706D02*
X0377996Y0160706D01*
X0379603Y0160706D02*
X0379919Y0160706D01*
X0380100Y0159507D02*
X0294500Y0159507D01*
X0294500Y0158309D02*
X0380100Y0158309D01*
X0380100Y0157110D02*
X0294500Y0157110D01*
X0294500Y0155912D02*
X0380100Y0155912D01*
X0380100Y0154713D02*
X0294661Y0154713D01*
X0295499Y0153515D02*
X0380100Y0153515D01*
X0380100Y0152316D02*
X0295684Y0152316D01*
X0292800Y0152495D02*
X0292800Y0165495D01*
X0289916Y0165500D02*
X0222184Y0165500D01*
X0222184Y0165569D02*
X0221745Y0166629D01*
X0221000Y0167374D01*
X0221000Y0176795D01*
X0244421Y0176795D01*
X0245166Y0176050D01*
X0246226Y0175611D01*
X0247374Y0175611D01*
X0248434Y0176050D01*
X0249245Y0176861D01*
X0249684Y0177921D01*
X0249684Y0179069D01*
X0249245Y0180129D01*
X0248434Y0180940D01*
X0247374Y0181379D01*
X0246226Y0181379D01*
X0245166Y0180940D01*
X0244421Y0180195D01*
X0233579Y0180195D01*
X0234245Y0180861D01*
X0234684Y0181921D01*
X0234684Y0183069D01*
X0234245Y0184129D01*
X0234079Y0184295D01*
X0260004Y0184295D01*
X0261000Y0185291D01*
X0261000Y0186216D01*
X0261166Y0186050D01*
X0262226Y0185611D01*
X0263374Y0185611D01*
X0264434Y0186050D01*
X0265179Y0186795D01*
X0331021Y0186795D01*
X0330421Y0186195D01*
X0272819Y0186195D01*
X0272374Y0186379D01*
X0271226Y0186379D01*
X0270166Y0185940D01*
X0269355Y0185129D01*
X0268916Y0184069D01*
X0268916Y0182921D01*
X0269355Y0181861D01*
X0270166Y0181050D01*
X0271226Y0180611D01*
X0272374Y0180611D01*
X0273434Y0181050D01*
X0274245Y0181861D01*
X0274632Y0182795D01*
X0330421Y0182795D01*
X0331166Y0182050D01*
X0332226Y0181611D01*
X0333374Y0181611D01*
X0334434Y0182050D01*
X0335245Y0182861D01*
X0335684Y0183921D01*
X0335684Y0185069D01*
X0335245Y0186129D01*
X0334579Y0186795D01*
X0357421Y0186795D01*
X0358166Y0186050D01*
X0359226Y0185611D01*
X0360374Y0185611D01*
X0361434Y0186050D01*
X0362245Y0186861D01*
X0362684Y0187921D01*
X0362684Y0189069D01*
X0362245Y0190129D01*
X0361434Y0190940D01*
X0360374Y0191379D01*
X0359226Y0191379D01*
X0358166Y0190940D01*
X0357421Y0190195D01*
X0277018Y0190195D01*
X0277381Y0190558D01*
X0277381Y0195432D01*
X0276737Y0196076D01*
X0271881Y0196076D01*
X0271881Y0199932D01*
X0271237Y0200576D01*
X0266363Y0200576D01*
X0265719Y0199932D01*
X0265719Y0199195D01*
X0259596Y0199195D01*
X0258600Y0198199D01*
X0258600Y0198199D01*
X0257096Y0196695D01*
X0257079Y0196695D01*
X0257245Y0196861D01*
X0257684Y0197921D01*
X0257684Y0199069D01*
X0257245Y0200129D01*
X0256434Y0200940D01*
X0255374Y0201379D01*
X0254226Y0201379D01*
X0253166Y0200940D01*
X0252421Y0200195D01*
X0227179Y0200195D01*
X0226434Y0200940D01*
X0225374Y0201379D01*
X0224226Y0201379D01*
X0223166Y0200940D01*
X0222355Y0200129D01*
X0221916Y0199069D01*
X0221916Y0197921D01*
X0222355Y0196861D01*
X0223166Y0196050D01*
X0224226Y0195611D01*
X0225374Y0195611D01*
X0226434Y0196050D01*
X0227179Y0196795D01*
X0252421Y0196795D01*
X0252521Y0196695D01*
X0252096Y0196695D01*
X0251100Y0195699D01*
X0249596Y0194195D01*
X0204596Y0194195D01*
X0204477Y0194076D01*
X0201363Y0194076D01*
X0200719Y0193432D01*
X0200719Y0188558D01*
X0201363Y0187914D01*
X0204719Y0187914D01*
X0204719Y0184195D01*
X0124179Y0184195D01*
X0123434Y0184940D01*
X0122374Y0185379D01*
X0121226Y0185379D01*
X0120166Y0184940D01*
X0119355Y0184129D01*
X0118916Y0183069D01*
X0118916Y0181921D01*
X0119355Y0180861D01*
X0120166Y0180050D01*
X0121226Y0179611D01*
X0122374Y0179611D01*
X0123434Y0180050D01*
X0124179Y0180795D01*
X0229421Y0180795D01*
X0230021Y0180195D01*
X0218596Y0180195D01*
X0217600Y0179199D01*
X0217600Y0167374D01*
X0216855Y0166629D01*
X0216416Y0165569D01*
X0216416Y0164421D01*
X0216855Y0163361D01*
X0217666Y0162550D01*
X0218726Y0162111D01*
X0219874Y0162111D01*
X0220934Y0162550D01*
X0221745Y0163361D01*
X0222184Y0164421D01*
X0222184Y0165569D01*
X0221675Y0166698D02*
X0290177Y0166698D01*
X0291123Y0167897D02*
X0221000Y0167897D01*
X0221000Y0169095D02*
X0416400Y0169095D01*
X0416400Y0167897D02*
X0294477Y0167897D01*
X0296719Y0170058D02*
X0297363Y0169414D01*
X0302237Y0169414D01*
X0302881Y0170058D01*
X0302881Y0170595D01*
X0315719Y0170595D01*
X0315719Y0170058D01*
X0316363Y0169414D01*
X0321237Y0169414D01*
X0321881Y0170058D01*
X0321881Y0170595D01*
X0341719Y0170595D01*
X0341719Y0170058D01*
X0342363Y0169414D01*
X0347237Y0169414D01*
X0347881Y0170058D01*
X0347881Y0170595D01*
X0366719Y0170595D01*
X0366719Y0170058D01*
X0367363Y0169414D01*
X0372237Y0169414D01*
X0372881Y0170058D01*
X0372881Y0170795D01*
X0406719Y0170795D01*
X0406719Y0170058D01*
X0407363Y0169414D01*
X0412237Y0169414D01*
X0412881Y0170058D01*
X0412881Y0174932D01*
X0412237Y0175576D01*
X0407363Y0175576D01*
X0406719Y0174932D01*
X0406719Y0174195D01*
X0372881Y0174195D01*
X0372881Y0174932D01*
X0372237Y0175576D01*
X0367363Y0175576D01*
X0366719Y0174932D01*
X0366719Y0174395D01*
X0347881Y0174395D01*
X0347881Y0174932D01*
X0347237Y0175576D01*
X0342363Y0175576D01*
X0341719Y0174932D01*
X0341719Y0174395D01*
X0321881Y0174395D01*
X0321881Y0174932D01*
X0321237Y0175576D01*
X0316363Y0175576D01*
X0315719Y0174932D01*
X0315719Y0174395D01*
X0302881Y0174395D01*
X0302881Y0174932D01*
X0302237Y0175576D01*
X0297363Y0175576D01*
X0296719Y0174932D01*
X0296719Y0170058D01*
X0296719Y0170294D02*
X0221000Y0170294D01*
X0221000Y0171492D02*
X0296719Y0171492D01*
X0296719Y0172691D02*
X0221000Y0172691D01*
X0221000Y0173889D02*
X0296719Y0173889D01*
X0296875Y0175088D02*
X0221000Y0175088D01*
X0221000Y0176286D02*
X0244929Y0176286D01*
X0246800Y0178495D02*
X0219300Y0178495D01*
X0219300Y0164995D01*
X0221487Y0163103D02*
X0291100Y0163103D01*
X0291100Y0161904D02*
X0174578Y0161904D01*
X0173381Y0163103D02*
X0217113Y0163103D01*
X0216465Y0164301D02*
X0173381Y0164301D01*
X0173381Y0165500D02*
X0216416Y0165500D01*
X0216925Y0166698D02*
X0007200Y0166698D01*
X0007200Y0165500D02*
X0147726Y0165500D01*
X0151874Y0165500D02*
X0167219Y0165500D01*
X0167219Y0164301D02*
X0152588Y0164301D01*
X0152684Y0163103D02*
X0167219Y0163103D01*
X0167219Y0161904D02*
X0152263Y0161904D01*
X0150604Y0160706D02*
X0167571Y0160706D01*
X0175776Y0160706D02*
X0291100Y0160706D01*
X0291100Y0159507D02*
X0201271Y0159507D01*
X0202378Y0158309D02*
X0229057Y0158309D01*
X0229226Y0158379D02*
X0228166Y0157940D01*
X0227355Y0157129D01*
X0226916Y0156069D01*
X0226916Y0154921D01*
X0227355Y0153861D01*
X0228166Y0153050D01*
X0229226Y0152611D01*
X0230374Y0152611D01*
X0231434Y0153050D01*
X0232179Y0153795D01*
X0247421Y0153795D01*
X0248166Y0153050D01*
X0249226Y0152611D01*
X0250374Y0152611D01*
X0251434Y0153050D01*
X0252245Y0153861D01*
X0252684Y0154921D01*
X0252684Y0156069D01*
X0252245Y0157129D01*
X0251434Y0157940D01*
X0250374Y0158379D01*
X0249226Y0158379D01*
X0248781Y0158195D01*
X0248096Y0158195D01*
X0247100Y0157199D01*
X0247100Y0157195D01*
X0232179Y0157195D01*
X0231434Y0157940D01*
X0230374Y0158379D01*
X0229226Y0158379D01*
X0230543Y0158309D02*
X0249057Y0158309D01*
X0250543Y0158309D02*
X0291100Y0158309D01*
X0291100Y0157110D02*
X0252253Y0157110D01*
X0252684Y0155912D02*
X0291100Y0155912D01*
X0290939Y0154713D02*
X0252598Y0154713D01*
X0251899Y0153515D02*
X0290101Y0153515D01*
X0289916Y0152316D02*
X0157582Y0152316D01*
X0156859Y0153515D02*
X0227701Y0153515D01*
X0227002Y0154713D02*
X0201597Y0154713D01*
X0202473Y0155912D02*
X0226916Y0155912D01*
X0227347Y0157110D02*
X0202684Y0157110D01*
X0199800Y0156995D02*
X0189800Y0156995D01*
X0198329Y0159507D02*
X0176975Y0159507D01*
X0188817Y0141530D02*
X0146914Y0141530D01*
X0141110Y0140331D02*
X0130490Y0140331D01*
X0129110Y0140331D02*
X0099500Y0140331D01*
X0099500Y0141530D02*
X0127686Y0141530D01*
X0126996Y0142728D02*
X0099500Y0142728D01*
X0099500Y0143927D02*
X0126916Y0143927D01*
X0127353Y0145125D02*
X0100355Y0145125D01*
X0101981Y0139133D02*
X0127359Y0139133D01*
X0126916Y0137934D02*
X0102632Y0137934D01*
X0102684Y0136736D02*
X0126778Y0136736D01*
X0125579Y0135537D02*
X0102181Y0135537D01*
X0099800Y0137235D02*
X0097800Y0137235D01*
X0124200Y0117559D02*
X0007200Y0117559D01*
X0007200Y0116361D02*
X0124200Y0116361D01*
X0124200Y0115162D02*
X0007200Y0115162D01*
X0007200Y0113964D02*
X0028751Y0113964D01*
X0028719Y0113932D02*
X0028719Y0109058D01*
X0029363Y0108414D01*
X0034237Y0108414D01*
X0034881Y0109058D01*
X0034881Y0109795D01*
X0081719Y0109795D01*
X0081719Y0109058D01*
X0082363Y0108414D01*
X0087237Y0108414D01*
X0087881Y0109058D01*
X0087881Y0113932D01*
X0087237Y0114576D01*
X0082363Y0114576D01*
X0081719Y0113932D01*
X0081719Y0113195D01*
X0034881Y0113195D01*
X0034881Y0113932D01*
X0034237Y0114576D01*
X0029363Y0114576D01*
X0028719Y0113932D01*
X0028719Y0112765D02*
X0021412Y0112765D01*
X0021366Y0112935D02*
X0021475Y0112529D01*
X0021475Y0109668D01*
X0017225Y0109668D01*
X0016375Y0109668D01*
X0016375Y0113918D01*
X0013514Y0113918D01*
X0013107Y0113809D01*
X0012743Y0113598D01*
X0012445Y0113300D01*
X0012234Y0112935D01*
X0012125Y0112529D01*
X0012125Y0109668D01*
X0016375Y0109668D01*
X0016375Y0108818D01*
X0012125Y0108818D01*
X0012125Y0105957D01*
X0012234Y0105550D01*
X0012445Y0105185D01*
X0012743Y0104888D01*
X0013107Y0104677D01*
X0013514Y0104568D01*
X0016375Y0104568D01*
X0016375Y0108818D01*
X0017225Y0108818D01*
X0017225Y0109668D01*
X0017225Y0113918D01*
X0020086Y0113918D01*
X0020493Y0113809D01*
X0020857Y0113598D01*
X0021155Y0113300D01*
X0021366Y0112935D01*
X0021475Y0111567D02*
X0028719Y0111567D01*
X0028719Y0110368D02*
X0021475Y0110368D01*
X0021475Y0108818D02*
X0017225Y0108818D01*
X0017225Y0104568D01*
X0020086Y0104568D01*
X0020493Y0104677D01*
X0020857Y0104888D01*
X0021155Y0105185D01*
X0021366Y0105550D01*
X0021475Y0105957D01*
X0021475Y0108818D01*
X0021475Y0107971D02*
X0124200Y0107971D01*
X0124200Y0106773D02*
X0021475Y0106773D01*
X0021372Y0105574D02*
X0124200Y0105574D01*
X0123418Y0104376D02*
X0007200Y0104376D01*
X0007200Y0105574D02*
X0012228Y0105574D01*
X0012125Y0106773D02*
X0007200Y0106773D01*
X0007200Y0107971D02*
X0012125Y0107971D01*
X0012125Y0110368D02*
X0007200Y0110368D01*
X0007200Y0109170D02*
X0016375Y0109170D01*
X0017225Y0109170D02*
X0028719Y0109170D01*
X0031800Y0111495D02*
X0084800Y0111495D01*
X0087881Y0111567D02*
X0124200Y0111567D01*
X0124200Y0112765D02*
X0087881Y0112765D01*
X0087849Y0113964D02*
X0124200Y0113964D01*
X0124200Y0110368D02*
X0087881Y0110368D01*
X0087881Y0109170D02*
X0124200Y0109170D01*
X0128800Y0105495D02*
X0129800Y0106495D01*
X0128800Y0105495D02*
X0128800Y0103495D01*
X0127817Y0100780D02*
X0124348Y0100780D01*
X0125547Y0101979D02*
X0126306Y0101979D01*
X0122220Y0103177D02*
X0007200Y0103177D01*
X0007200Y0101979D02*
X0121021Y0101979D01*
X0118006Y0100780D02*
X0007200Y0100780D01*
X0007200Y0099582D02*
X0117128Y0099582D01*
X0116916Y0098383D02*
X0007200Y0098383D01*
X0007200Y0097185D02*
X0117221Y0097185D01*
X0118320Y0095986D02*
X0081827Y0095986D01*
X0081881Y0091192D02*
X0188719Y0091192D01*
X0188773Y0095986D02*
X0186195Y0095986D01*
X0205800Y0086495D02*
X0205800Y0074495D01*
X0201800Y0074495D01*
X0210100Y0074413D02*
X0069680Y0074413D01*
X0069122Y0074971D02*
X0067616Y0075595D01*
X0065984Y0075595D01*
X0064478Y0074971D01*
X0063324Y0073817D01*
X0062700Y0072310D01*
X0062700Y0064679D01*
X0063324Y0063172D01*
X0064478Y0062019D01*
X0065984Y0061395D01*
X0067616Y0061395D01*
X0069122Y0062019D01*
X0070276Y0063172D01*
X0070900Y0064679D01*
X0070900Y0066895D01*
X0081341Y0066895D01*
X0081355Y0066861D01*
X0082166Y0066050D01*
X0083226Y0065611D01*
X0084374Y0065611D01*
X0085434Y0066050D01*
X0086245Y0066861D01*
X0086684Y0067921D01*
X0086684Y0069069D01*
X0086245Y0070129D01*
X0085434Y0070940D01*
X0084374Y0071379D01*
X0083226Y0071379D01*
X0082166Y0070940D01*
X0081355Y0070129D01*
X0081341Y0070095D01*
X0070900Y0070095D01*
X0070900Y0072310D01*
X0070276Y0073817D01*
X0069122Y0074971D01*
X0070526Y0073214D02*
X0135062Y0073214D01*
X0134873Y0073025D02*
X0134873Y0065964D01*
X0135517Y0065320D01*
X0142579Y0065320D01*
X0143223Y0065964D01*
X0143223Y0073025D01*
X0142579Y0073670D01*
X0135517Y0073670D01*
X0134873Y0073025D01*
X0134873Y0072016D02*
X0070900Y0072016D01*
X0070900Y0070817D02*
X0082044Y0070817D01*
X0085556Y0070817D02*
X0134873Y0070817D01*
X0134873Y0069619D02*
X0086456Y0069619D01*
X0086684Y0068420D02*
X0134873Y0068420D01*
X0134873Y0067222D02*
X0086395Y0067222D01*
X0085370Y0066023D02*
X0134873Y0066023D01*
X0143223Y0066023D02*
X0153377Y0066023D01*
X0153377Y0065964D02*
X0154021Y0065320D01*
X0161083Y0065320D01*
X0161727Y0065964D01*
X0161727Y0067795D01*
X0170421Y0067795D01*
X0171166Y0067050D01*
X0172226Y0066611D01*
X0173374Y0066611D01*
X0174434Y0067050D01*
X0175245Y0067861D01*
X0175684Y0068921D01*
X0175684Y0070069D01*
X0175245Y0071129D01*
X0174434Y0071940D01*
X0173374Y0072379D01*
X0172226Y0072379D01*
X0171166Y0071940D01*
X0170421Y0071195D01*
X0161727Y0071195D01*
X0161727Y0073025D01*
X0161083Y0073670D01*
X0154021Y0073670D01*
X0153377Y0073025D01*
X0153377Y0065964D01*
X0153377Y0067222D02*
X0143223Y0067222D01*
X0143223Y0068420D02*
X0153377Y0068420D01*
X0153377Y0069619D02*
X0143223Y0069619D01*
X0143223Y0070817D02*
X0153377Y0070817D01*
X0153377Y0072016D02*
X0143223Y0072016D01*
X0143034Y0073214D02*
X0153566Y0073214D01*
X0157552Y0069495D02*
X0172800Y0069495D01*
X0175477Y0068420D02*
X0210100Y0068420D01*
X0210100Y0067222D02*
X0174606Y0067222D01*
X0175684Y0069619D02*
X0210100Y0069619D01*
X0210100Y0070817D02*
X0175374Y0070817D01*
X0174250Y0072016D02*
X0210100Y0072016D01*
X0210100Y0073214D02*
X0161538Y0073214D01*
X0161727Y0072016D02*
X0171350Y0072016D01*
X0170994Y0067222D02*
X0161727Y0067222D01*
X0161727Y0066023D02*
X0210100Y0066023D01*
X0210100Y0064825D02*
X0070900Y0064825D01*
X0070900Y0066023D02*
X0082230Y0066023D01*
X0070464Y0063626D02*
X0210100Y0063626D01*
X0210100Y0062428D02*
X0069531Y0062428D01*
X0064623Y0060031D02*
X0058977Y0060031D01*
X0059122Y0059971D02*
X0057616Y0060595D01*
X0055984Y0060595D01*
X0054478Y0059971D01*
X0053324Y0058817D01*
X0052700Y0057310D01*
X0052700Y0049679D01*
X0053324Y0048172D01*
X0054478Y0047019D01*
X0055984Y0046395D01*
X0057616Y0046395D01*
X0059122Y0047019D01*
X0060276Y0048172D01*
X0060900Y0049679D01*
X0060900Y0057310D01*
X0060276Y0058817D01*
X0059122Y0059971D01*
X0060261Y0058832D02*
X0063339Y0058832D01*
X0062834Y0057634D02*
X0060766Y0057634D01*
X0060900Y0056435D02*
X0062700Y0056435D01*
X0062700Y0055237D02*
X0060900Y0055237D01*
X0060900Y0054038D02*
X0062700Y0054038D01*
X0062700Y0052840D02*
X0060900Y0052840D01*
X0060900Y0051641D02*
X0062700Y0051641D01*
X0062700Y0050443D02*
X0060900Y0050443D01*
X0060720Y0049244D02*
X0062880Y0049244D01*
X0063451Y0048046D02*
X0060149Y0048046D01*
X0058708Y0046847D02*
X0064892Y0046847D01*
X0054892Y0046847D02*
X0048708Y0046847D01*
X0048400Y0045649D02*
X0077875Y0045649D01*
X0076477Y0028170D02*
X0079338Y0028170D01*
X0079745Y0028061D01*
X0080109Y0027850D01*
X0080407Y0027552D01*
X0080618Y0027187D01*
X0080727Y0026780D01*
X0080727Y0023920D01*
X0076477Y0023920D01*
X0075627Y0023920D01*
X0075627Y0028170D01*
X0072766Y0028170D01*
X0072359Y0028061D01*
X0071995Y0027850D01*
X0071697Y0027552D01*
X0071486Y0027187D01*
X0071377Y0026780D01*
X0071377Y0023920D01*
X0075627Y0023920D01*
X0075627Y0023070D01*
X0071377Y0023070D01*
X0071377Y0020209D01*
X0071486Y0019802D01*
X0071697Y0019437D01*
X0071995Y0019139D01*
X0072359Y0018929D01*
X0072766Y0018820D01*
X0075627Y0018820D01*
X0075627Y0023070D01*
X0076477Y0023070D01*
X0076477Y0023920D01*
X0076477Y0028170D01*
X0076477Y0027671D02*
X0075627Y0027671D01*
X0075627Y0026472D02*
X0076477Y0026472D01*
X0076477Y0025274D02*
X0075627Y0025274D01*
X0075627Y0024075D02*
X0076477Y0024075D01*
X0076477Y0023070D02*
X0080727Y0023070D01*
X0080727Y0020209D01*
X0080618Y0019802D01*
X0080407Y0019437D01*
X0080109Y0019139D01*
X0079745Y0018929D01*
X0079338Y0018820D01*
X0076477Y0018820D01*
X0076477Y0023070D01*
X0076477Y0022877D02*
X0075627Y0022877D01*
X0075627Y0021678D02*
X0076477Y0021678D01*
X0076477Y0020480D02*
X0075627Y0020480D01*
X0075627Y0019281D02*
X0076477Y0019281D01*
X0080251Y0019281D02*
X0116853Y0019281D01*
X0116995Y0019139D02*
X0116697Y0019437D01*
X0116486Y0019802D01*
X0116377Y0020209D01*
X0116377Y0023070D01*
X0120627Y0023070D01*
X0120627Y0023920D01*
X0120627Y0028170D01*
X0117766Y0028170D01*
X0117359Y0028061D01*
X0116995Y0027850D01*
X0116697Y0027552D01*
X0116486Y0027187D01*
X0116377Y0026780D01*
X0116377Y0023920D01*
X0120627Y0023920D01*
X0121477Y0023920D01*
X0121477Y0028170D01*
X0124338Y0028170D01*
X0124745Y0028061D01*
X0125109Y0027850D01*
X0125407Y0027552D01*
X0125618Y0027187D01*
X0125727Y0026780D01*
X0125727Y0023920D01*
X0121477Y0023920D01*
X0121477Y0023070D01*
X0125727Y0023070D01*
X0125727Y0020209D01*
X0125618Y0019802D01*
X0125407Y0019437D01*
X0125109Y0019139D01*
X0124745Y0018929D01*
X0124338Y0018820D01*
X0121477Y0018820D01*
X0121477Y0023070D01*
X0120627Y0023070D01*
X0120627Y0018820D01*
X0117766Y0018820D01*
X0117359Y0018929D01*
X0116995Y0019139D01*
X0116377Y0020480D02*
X0106723Y0020480D01*
X0106723Y0019964D02*
X0106079Y0019320D01*
X0099017Y0019320D01*
X0098373Y0019964D01*
X0098373Y0027025D01*
X0099017Y0027670D01*
X0106079Y0027670D01*
X0106723Y0027025D01*
X0106723Y0019964D01*
X0106723Y0021678D02*
X0116377Y0021678D01*
X0116377Y0022877D02*
X0106723Y0022877D01*
X0106723Y0024075D02*
X0116377Y0024075D01*
X0116377Y0025274D02*
X0106723Y0025274D01*
X0106723Y0026472D02*
X0116377Y0026472D01*
X0116815Y0027671D02*
X0080288Y0027671D01*
X0080727Y0026472D02*
X0098373Y0026472D01*
X0098373Y0025274D02*
X0080727Y0025274D01*
X0080727Y0024075D02*
X0098373Y0024075D01*
X0098373Y0022877D02*
X0080727Y0022877D01*
X0080727Y0021678D02*
X0098373Y0021678D01*
X0098373Y0020480D02*
X0080727Y0020480D01*
X0071853Y0019281D02*
X0035251Y0019281D01*
X0035727Y0020480D02*
X0053373Y0020480D01*
X0053373Y0019964D02*
X0054017Y0019320D01*
X0061079Y0019320D01*
X0061723Y0019964D01*
X0061723Y0027025D01*
X0061079Y0027670D01*
X0054017Y0027670D01*
X0053373Y0027025D01*
X0053373Y0019964D01*
X0053373Y0021678D02*
X0035727Y0021678D01*
X0035727Y0022877D02*
X0053373Y0022877D01*
X0053373Y0024075D02*
X0035727Y0024075D01*
X0035727Y0025274D02*
X0053373Y0025274D01*
X0053373Y0026472D02*
X0035727Y0026472D01*
X0035288Y0027671D02*
X0071815Y0027671D01*
X0071377Y0026472D02*
X0061723Y0026472D01*
X0061723Y0025274D02*
X0071377Y0025274D01*
X0071377Y0024075D02*
X0061723Y0024075D01*
X0061723Y0022877D02*
X0071377Y0022877D01*
X0071377Y0021678D02*
X0061723Y0021678D01*
X0061723Y0020480D02*
X0071377Y0020480D01*
X0032300Y0025995D02*
X0031052Y0024747D01*
X0031052Y0023495D01*
X0030627Y0024075D02*
X0031477Y0024075D01*
X0031477Y0022877D02*
X0030627Y0022877D01*
X0030627Y0021678D02*
X0031477Y0021678D01*
X0031477Y0020480D02*
X0030627Y0020480D01*
X0030627Y0019281D02*
X0031477Y0019281D01*
X0031477Y0025274D02*
X0030627Y0025274D01*
X0030627Y0026472D02*
X0031477Y0026472D01*
X0032300Y0025995D02*
X0032300Y0041495D01*
X0031800Y0041995D01*
X0013300Y0041995D01*
X0007200Y0039656D02*
X0311489Y0039656D01*
X0311489Y0038458D02*
X0007200Y0038458D01*
X0007200Y0037259D02*
X0311489Y0037259D01*
X0311489Y0027671D02*
X0270288Y0027671D01*
X0270727Y0026472D02*
X0311489Y0026472D01*
X0311739Y0025274D02*
X0270727Y0025274D01*
X0270727Y0024075D02*
X0312246Y0024075D01*
X0313444Y0022877D02*
X0270727Y0022877D01*
X0261377Y0022877D02*
X0251723Y0022877D01*
X0251723Y0024075D02*
X0261377Y0024075D01*
X0261377Y0025274D02*
X0251723Y0025274D01*
X0251723Y0026472D02*
X0261377Y0026472D01*
X0261815Y0027671D02*
X0225288Y0027671D01*
X0225407Y0027552D02*
X0225109Y0027850D01*
X0224745Y0028061D01*
X0224338Y0028170D01*
X0221477Y0028170D01*
X0221477Y0023920D01*
X0220627Y0023920D01*
X0220627Y0028170D01*
X0217766Y0028170D01*
X0217359Y0028061D01*
X0216995Y0027850D01*
X0216697Y0027552D01*
X0216486Y0027187D01*
X0216377Y0026780D01*
X0216377Y0023920D01*
X0220627Y0023920D01*
X0220627Y0023070D01*
X0216377Y0023070D01*
X0216377Y0020209D01*
X0216486Y0019802D01*
X0216697Y0019437D01*
X0216995Y0019139D01*
X0217359Y0018929D01*
X0217766Y0018820D01*
X0220627Y0018820D01*
X0220627Y0023070D01*
X0221477Y0023070D01*
X0221477Y0023920D01*
X0225727Y0023920D01*
X0225727Y0026780D01*
X0225618Y0027187D01*
X0225407Y0027552D01*
X0225727Y0026472D02*
X0243373Y0026472D01*
X0243373Y0027025D02*
X0243373Y0019964D01*
X0244017Y0019320D01*
X0251079Y0019320D01*
X0251723Y0019964D01*
X0251723Y0027025D01*
X0251079Y0027670D01*
X0244017Y0027670D01*
X0243373Y0027025D01*
X0243373Y0025274D02*
X0225727Y0025274D01*
X0225727Y0024075D02*
X0243373Y0024075D01*
X0243373Y0022877D02*
X0225727Y0022877D01*
X0225727Y0023070D02*
X0221477Y0023070D01*
X0221477Y0018820D01*
X0224338Y0018820D01*
X0224745Y0018929D01*
X0225109Y0019139D01*
X0225407Y0019437D01*
X0225618Y0019802D01*
X0225727Y0020209D01*
X0225727Y0023070D01*
X0225727Y0021678D02*
X0243373Y0021678D01*
X0243373Y0020480D02*
X0225727Y0020480D01*
X0225251Y0019281D02*
X0261853Y0019281D01*
X0261377Y0020480D02*
X0251723Y0020480D01*
X0251723Y0021678D02*
X0261377Y0021678D01*
X0221477Y0021678D02*
X0220627Y0021678D01*
X0220627Y0020480D02*
X0221477Y0020480D01*
X0221477Y0019281D02*
X0220627Y0019281D01*
X0220627Y0022877D02*
X0221477Y0022877D01*
X0221477Y0024075D02*
X0220627Y0024075D01*
X0220627Y0025274D02*
X0221477Y0025274D01*
X0221477Y0026472D02*
X0220627Y0026472D01*
X0220627Y0027671D02*
X0221477Y0027671D01*
X0216815Y0027671D02*
X0175288Y0027671D01*
X0175407Y0027552D02*
X0175109Y0027850D01*
X0174745Y0028061D01*
X0174338Y0028170D01*
X0171477Y0028170D01*
X0171477Y0023920D01*
X0170627Y0023920D01*
X0170627Y0028170D01*
X0167766Y0028170D01*
X0167359Y0028061D01*
X0166995Y0027850D01*
X0166697Y0027552D01*
X0166486Y0027187D01*
X0166377Y0026780D01*
X0166377Y0023920D01*
X0170627Y0023920D01*
X0170627Y0023070D01*
X0166377Y0023070D01*
X0166377Y0020209D01*
X0166486Y0019802D01*
X0166697Y0019437D01*
X0166995Y0019139D01*
X0167359Y0018929D01*
X0167766Y0018820D01*
X0170627Y0018820D01*
X0170627Y0023070D01*
X0171477Y0023070D01*
X0171477Y0023920D01*
X0175727Y0023920D01*
X0175727Y0026780D01*
X0175618Y0027187D01*
X0175407Y0027552D01*
X0175727Y0026472D02*
X0198373Y0026472D01*
X0198373Y0027025D02*
X0198373Y0019964D01*
X0199017Y0019320D01*
X0206079Y0019320D01*
X0206723Y0019964D01*
X0206723Y0027025D01*
X0206079Y0027670D01*
X0199017Y0027670D01*
X0198373Y0027025D01*
X0198373Y0025274D02*
X0175727Y0025274D01*
X0175727Y0024075D02*
X0198373Y0024075D01*
X0198373Y0022877D02*
X0175727Y0022877D01*
X0175727Y0023070D02*
X0171477Y0023070D01*
X0171477Y0018820D01*
X0174338Y0018820D01*
X0174745Y0018929D01*
X0175109Y0019139D01*
X0175407Y0019437D01*
X0175618Y0019802D01*
X0175727Y0020209D01*
X0175727Y0023070D01*
X0175727Y0021678D02*
X0198373Y0021678D01*
X0198373Y0020480D02*
X0175727Y0020480D01*
X0175251Y0019281D02*
X0216853Y0019281D01*
X0216377Y0020480D02*
X0206723Y0020480D01*
X0206723Y0021678D02*
X0216377Y0021678D01*
X0216377Y0022877D02*
X0206723Y0022877D01*
X0206723Y0024075D02*
X0216377Y0024075D01*
X0216377Y0025274D02*
X0206723Y0025274D01*
X0206723Y0026472D02*
X0216377Y0026472D01*
X0185128Y0045649D02*
X0158472Y0045649D01*
X0158881Y0050443D02*
X0184719Y0050443D01*
X0171477Y0027671D02*
X0170627Y0027671D01*
X0170627Y0026472D02*
X0171477Y0026472D01*
X0171477Y0025274D02*
X0170627Y0025274D01*
X0170627Y0024075D02*
X0171477Y0024075D01*
X0171477Y0022877D02*
X0170627Y0022877D01*
X0170627Y0021678D02*
X0171477Y0021678D01*
X0171477Y0020480D02*
X0170627Y0020480D01*
X0170627Y0019281D02*
X0171477Y0019281D01*
X0166853Y0019281D02*
X0125251Y0019281D01*
X0125727Y0020480D02*
X0148373Y0020480D01*
X0148373Y0019964D02*
X0149017Y0019320D01*
X0156079Y0019320D01*
X0156723Y0019964D01*
X0156723Y0027025D01*
X0156079Y0027670D01*
X0149017Y0027670D01*
X0148373Y0027025D01*
X0148373Y0019964D01*
X0148373Y0021678D02*
X0125727Y0021678D01*
X0125727Y0022877D02*
X0148373Y0022877D01*
X0148373Y0024075D02*
X0125727Y0024075D01*
X0125727Y0025274D02*
X0148373Y0025274D01*
X0148373Y0026472D02*
X0125727Y0026472D01*
X0125288Y0027671D02*
X0166815Y0027671D01*
X0166377Y0026472D02*
X0156723Y0026472D01*
X0156723Y0025274D02*
X0166377Y0025274D01*
X0166377Y0024075D02*
X0156723Y0024075D01*
X0156723Y0022877D02*
X0166377Y0022877D01*
X0166377Y0021678D02*
X0156723Y0021678D01*
X0156723Y0020480D02*
X0166377Y0020480D01*
X0121477Y0020480D02*
X0120627Y0020480D01*
X0120627Y0021678D02*
X0121477Y0021678D01*
X0121477Y0022877D02*
X0120627Y0022877D01*
X0120627Y0024075D02*
X0121477Y0024075D01*
X0121477Y0025274D02*
X0120627Y0025274D01*
X0120627Y0026472D02*
X0121477Y0026472D01*
X0121477Y0027671D02*
X0120627Y0027671D01*
X0120627Y0019281D02*
X0121477Y0019281D01*
X0064069Y0062428D02*
X0059531Y0062428D01*
X0059122Y0062019D02*
X0060276Y0063172D01*
X0060900Y0064679D01*
X0060900Y0072310D01*
X0060276Y0073817D01*
X0059122Y0074971D01*
X0058400Y0075270D01*
X0058400Y0075895D01*
X0101341Y0075895D01*
X0101355Y0075861D01*
X0102166Y0075050D01*
X0103226Y0074611D01*
X0104374Y0074611D01*
X0105434Y0075050D01*
X0106245Y0075861D01*
X0106684Y0076921D01*
X0106684Y0078069D01*
X0106245Y0079129D01*
X0105434Y0079940D01*
X0104374Y0080379D01*
X0103226Y0080379D01*
X0102166Y0079940D01*
X0101355Y0079129D01*
X0101341Y0079095D01*
X0056137Y0079095D01*
X0055200Y0078158D01*
X0055200Y0075270D01*
X0054478Y0074971D01*
X0053324Y0073817D01*
X0052700Y0072310D01*
X0052700Y0064679D01*
X0053324Y0063172D01*
X0054478Y0062019D01*
X0055984Y0061395D01*
X0057616Y0061395D01*
X0059122Y0062019D01*
X0060464Y0063626D02*
X0063136Y0063626D01*
X0062700Y0064825D02*
X0060900Y0064825D01*
X0060900Y0066023D02*
X0062700Y0066023D01*
X0062700Y0067222D02*
X0060900Y0067222D01*
X0060900Y0068420D02*
X0062700Y0068420D01*
X0062700Y0069619D02*
X0060900Y0069619D01*
X0060900Y0070817D02*
X0062700Y0070817D01*
X0062700Y0072016D02*
X0060900Y0072016D01*
X0060526Y0073214D02*
X0063074Y0073214D01*
X0063920Y0074413D02*
X0059680Y0074413D01*
X0058400Y0075611D02*
X0101604Y0075611D01*
X0101433Y0079207D02*
X0007200Y0079207D01*
X0007200Y0080405D02*
X0210100Y0080405D01*
X0210100Y0079207D02*
X0106167Y0079207D01*
X0106684Y0078008D02*
X0210100Y0078008D01*
X0210100Y0076810D02*
X0106638Y0076810D01*
X0105996Y0075611D02*
X0210100Y0075611D01*
X0210100Y0081604D02*
X0007200Y0081604D01*
X0007200Y0082803D02*
X0210100Y0082803D01*
X0210100Y0084001D02*
X0007200Y0084001D01*
X0007200Y0078008D02*
X0055200Y0078008D01*
X0055200Y0076810D02*
X0007200Y0076810D01*
X0007200Y0075611D02*
X0044747Y0075611D01*
X0046400Y0075611D02*
X0047200Y0075611D01*
X0047200Y0076089D02*
X0047200Y0068895D01*
X0051400Y0068895D01*
X0051400Y0071857D01*
X0051287Y0072572D01*
X0051063Y0073261D01*
X0050734Y0073906D01*
X0050309Y0074491D01*
X0049797Y0075003D01*
X0049211Y0075429D01*
X0048566Y0075758D01*
X0047877Y0075982D01*
X0047200Y0076089D01*
X0047200Y0074413D02*
X0046400Y0074413D01*
X0046400Y0073214D02*
X0047200Y0073214D01*
X0047200Y0072016D02*
X0046400Y0072016D01*
X0046400Y0070817D02*
X0047200Y0070817D01*
X0047200Y0069619D02*
X0046400Y0069619D01*
X0046400Y0068420D02*
X0021172Y0068420D01*
X0021172Y0068281D02*
X0021172Y0070977D01*
X0021063Y0071384D01*
X0020852Y0071749D01*
X0020554Y0072047D01*
X0020189Y0072257D01*
X0019782Y0072366D01*
X0017086Y0072366D01*
X0017086Y0068281D01*
X0016514Y0068281D01*
X0016514Y0072366D01*
X0013818Y0072366D01*
X0013411Y0072257D01*
X0013046Y0072047D01*
X0012748Y0071749D01*
X0012537Y0071384D01*
X0012428Y0070977D01*
X0012428Y0068281D01*
X0016514Y0068281D01*
X0016514Y0067709D01*
X0012428Y0067709D01*
X0012428Y0065012D01*
X0012537Y0064606D01*
X0012748Y0064241D01*
X0013046Y0063943D01*
X0013411Y0063732D01*
X0013818Y0063623D01*
X0016514Y0063623D01*
X0016514Y0067709D01*
X0017086Y0067709D01*
X0017086Y0068281D01*
X0021172Y0068281D01*
X0021172Y0067709D02*
X0021172Y0065012D01*
X0021063Y0064606D01*
X0020852Y0064241D01*
X0020554Y0063943D01*
X0020189Y0063732D01*
X0019782Y0063623D01*
X0017086Y0063623D01*
X0017086Y0067709D01*
X0021172Y0067709D01*
X0021172Y0067222D02*
X0042200Y0067222D01*
X0042200Y0066023D02*
X0021172Y0066023D01*
X0021121Y0064825D02*
X0042249Y0064825D01*
X0042589Y0063626D02*
X0019794Y0063626D01*
X0017086Y0063626D02*
X0016514Y0063626D01*
X0016514Y0064825D02*
X0017086Y0064825D01*
X0017086Y0066023D02*
X0016514Y0066023D01*
X0016514Y0067222D02*
X0017086Y0067222D01*
X0017086Y0068420D02*
X0016514Y0068420D01*
X0016514Y0069619D02*
X0017086Y0069619D01*
X0017086Y0070817D02*
X0016514Y0070817D01*
X0016514Y0072016D02*
X0017086Y0072016D01*
X0020585Y0072016D02*
X0042225Y0072016D01*
X0042200Y0070817D02*
X0021172Y0070817D01*
X0021172Y0069619D02*
X0042200Y0069619D01*
X0042522Y0073214D02*
X0007200Y0073214D01*
X0007200Y0072016D02*
X0013015Y0072016D01*
X0012428Y0070817D02*
X0007200Y0070817D01*
X0007200Y0069619D02*
X0012428Y0069619D01*
X0012428Y0068420D02*
X0007200Y0068420D01*
X0007200Y0067222D02*
X0012428Y0067222D01*
X0012428Y0066023D02*
X0007200Y0066023D01*
X0007200Y0064825D02*
X0012479Y0064825D01*
X0013806Y0063626D02*
X0007200Y0063626D01*
X0007200Y0062428D02*
X0043362Y0062428D01*
X0046400Y0062428D02*
X0047200Y0062428D01*
X0047200Y0063626D02*
X0046400Y0063626D01*
X0046400Y0064825D02*
X0047200Y0064825D01*
X0047200Y0066023D02*
X0046400Y0066023D01*
X0046400Y0067222D02*
X0047200Y0067222D01*
X0047200Y0068420D02*
X0052700Y0068420D01*
X0052700Y0067222D02*
X0051400Y0067222D01*
X0051400Y0066023D02*
X0052700Y0066023D01*
X0052700Y0064825D02*
X0051351Y0064825D01*
X0051011Y0063626D02*
X0053136Y0063626D01*
X0054069Y0062428D02*
X0050238Y0062428D01*
X0048977Y0060031D02*
X0054623Y0060031D01*
X0053339Y0058832D02*
X0050261Y0058832D01*
X0050766Y0057634D02*
X0052834Y0057634D01*
X0052700Y0056435D02*
X0050900Y0056435D01*
X0050900Y0055237D02*
X0052700Y0055237D01*
X0052700Y0054038D02*
X0050900Y0054038D01*
X0050900Y0052840D02*
X0052700Y0052840D01*
X0052700Y0051641D02*
X0050900Y0051641D01*
X0050900Y0050443D02*
X0052700Y0050443D01*
X0052880Y0049244D02*
X0050720Y0049244D01*
X0050149Y0048046D02*
X0053451Y0048046D01*
X0031477Y0027671D02*
X0030627Y0027671D01*
X0008373Y0026472D02*
X0007200Y0026472D01*
X0007200Y0025274D02*
X0008373Y0025274D01*
X0008373Y0024075D02*
X0007200Y0024075D01*
X0007200Y0022877D02*
X0008373Y0022877D01*
X0008373Y0021678D02*
X0007200Y0021678D01*
X0007200Y0020480D02*
X0008373Y0020480D01*
X0051400Y0069619D02*
X0052700Y0069619D01*
X0052700Y0070817D02*
X0051400Y0070817D01*
X0051375Y0072016D02*
X0052700Y0072016D01*
X0053074Y0073214D02*
X0051078Y0073214D01*
X0050366Y0074413D02*
X0053920Y0074413D01*
X0055200Y0075611D02*
X0048853Y0075611D01*
X0043234Y0074413D02*
X0007200Y0074413D01*
X0020672Y0091192D02*
X0075719Y0091192D01*
X0075719Y0092391D02*
X0020503Y0092391D01*
X0007200Y0094788D02*
X0075719Y0094788D01*
X0075773Y0095986D02*
X0007200Y0095986D01*
X0016375Y0105574D02*
X0017225Y0105574D01*
X0017225Y0106773D02*
X0016375Y0106773D01*
X0016375Y0107971D02*
X0017225Y0107971D01*
X0017225Y0110368D02*
X0016375Y0110368D01*
X0016375Y0111567D02*
X0017225Y0111567D01*
X0017225Y0112765D02*
X0016375Y0112765D01*
X0012188Y0112765D02*
X0007200Y0112765D01*
X0007200Y0111567D02*
X0012125Y0111567D01*
X0034849Y0113964D02*
X0081751Y0113964D01*
X0081719Y0109170D02*
X0034881Y0109170D01*
X0012625Y0151118D02*
X0007200Y0151118D01*
X0007200Y0152316D02*
X0012625Y0152316D01*
X0012625Y0153515D02*
X0007200Y0153515D01*
X0007200Y0154713D02*
X0012625Y0154713D01*
X0012625Y0155912D02*
X0007200Y0155912D01*
X0007200Y0157110D02*
X0012625Y0157110D01*
X0013160Y0158309D02*
X0007200Y0158309D01*
X0007200Y0159507D02*
X0019802Y0159507D01*
X0021000Y0160706D02*
X0007200Y0160706D01*
X0007200Y0161904D02*
X0022199Y0161904D01*
X0023397Y0163103D02*
X0007200Y0163103D01*
X0007200Y0164301D02*
X0024596Y0164301D01*
X0025526Y0160706D02*
X0148996Y0160706D01*
X0137064Y0154713D02*
X0133536Y0154713D01*
X0133881Y0159507D02*
X0136719Y0159507D01*
X0127719Y0159507D02*
X0024327Y0159507D01*
X0023129Y0158309D02*
X0127719Y0158309D01*
X0132241Y0139133D02*
X0139359Y0139133D01*
X0139679Y0135537D02*
X0131921Y0135537D01*
X0128206Y0119956D02*
X0127400Y0119956D01*
X0140814Y0117559D02*
X0156786Y0117559D01*
X0161563Y0116361D02*
X0176262Y0116361D01*
X0177475Y0112765D02*
X0187666Y0112765D01*
X0187173Y0113964D02*
X0188865Y0113964D01*
X0188372Y0115162D02*
X0190063Y0115162D01*
X0189570Y0116361D02*
X0191262Y0116361D01*
X0190769Y0117559D02*
X0192460Y0117559D01*
X0186468Y0111567D02*
X0177037Y0111567D01*
X0176252Y0110368D02*
X0185269Y0110368D01*
X0211800Y0115495D02*
X0229800Y0115495D01*
X0231814Y0117559D02*
X0298786Y0117559D01*
X0298037Y0116361D02*
X0232563Y0116361D01*
X0232684Y0115162D02*
X0297916Y0115162D01*
X0298312Y0113964D02*
X0232288Y0113964D01*
X0227786Y0117559D02*
X0213814Y0117559D01*
X0222800Y0128495D02*
X0233800Y0128495D01*
X0231969Y0130743D02*
X0224631Y0130743D01*
X0231899Y0153515D02*
X0247701Y0153515D01*
X0249800Y0155495D02*
X0229800Y0155495D01*
X0225800Y0163495D02*
X0225800Y0166495D01*
X0237800Y0166495D01*
X0248671Y0176286D02*
X0416400Y0176286D01*
X0416400Y0175088D02*
X0412725Y0175088D01*
X0412881Y0173889D02*
X0416400Y0173889D01*
X0416400Y0172691D02*
X0412881Y0172691D01*
X0412881Y0171492D02*
X0416400Y0171492D01*
X0416400Y0170294D02*
X0412881Y0170294D01*
X0409800Y0172495D02*
X0369800Y0172495D01*
X0372881Y0170294D02*
X0406719Y0170294D01*
X0406875Y0175088D02*
X0372725Y0175088D01*
X0366875Y0175088D02*
X0347725Y0175088D01*
X0347881Y0170294D02*
X0366719Y0170294D01*
X0378800Y0163495D02*
X0381800Y0161495D01*
X0381800Y0127495D01*
X0372800Y0127495D01*
X0374829Y0129544D02*
X0380100Y0129544D01*
X0380100Y0130743D02*
X0367500Y0130743D01*
X0367500Y0131941D02*
X0380100Y0131941D01*
X0380100Y0133140D02*
X0367500Y0133140D01*
X0367500Y0134338D02*
X0380100Y0134338D01*
X0380100Y0135537D02*
X0367500Y0135537D01*
X0367500Y0136736D02*
X0380100Y0136736D01*
X0380100Y0137934D02*
X0367500Y0137934D01*
X0367517Y0139133D02*
X0380100Y0139133D01*
X0380100Y0140331D02*
X0368440Y0140331D01*
X0368684Y0141530D02*
X0380100Y0141530D01*
X0380100Y0142728D02*
X0368411Y0142728D01*
X0367447Y0143927D02*
X0380100Y0143927D01*
X0380100Y0145125D02*
X0334500Y0145125D01*
X0334708Y0146324D02*
X0380100Y0146324D01*
X0380100Y0147522D02*
X0335519Y0147522D01*
X0335684Y0148721D02*
X0380100Y0148721D01*
X0380100Y0149919D02*
X0335332Y0149919D01*
X0334005Y0151118D02*
X0380100Y0151118D01*
X0400672Y0151118D02*
X0416400Y0151118D01*
X0416400Y0152316D02*
X0400672Y0152316D01*
X0400672Y0153515D02*
X0416400Y0153515D01*
X0416400Y0154713D02*
X0400672Y0154713D01*
X0400672Y0149919D02*
X0416400Y0149919D01*
X0416400Y0148721D02*
X0400672Y0148721D01*
X0363068Y0127147D02*
X0331532Y0127147D01*
X0332446Y0128346D02*
X0362154Y0128346D01*
X0363915Y0121155D02*
X0371381Y0121155D01*
X0377800Y0110495D02*
X0404800Y0110495D01*
X0377800Y0110495D02*
X0376800Y0109495D01*
X0332800Y0132495D02*
X0332800Y0148495D01*
X0331100Y0143927D02*
X0288500Y0143927D01*
X0288509Y0145125D02*
X0295591Y0145125D01*
X0294663Y0146324D02*
X0289437Y0146324D01*
X0289684Y0147522D02*
X0294416Y0147522D01*
X0297300Y0147495D02*
X0320800Y0147495D01*
X0319091Y0145125D02*
X0299009Y0145125D01*
X0298955Y0149919D02*
X0319145Y0149919D01*
X0319954Y0142728D02*
X0288500Y0142728D01*
X0288500Y0141530D02*
X0319107Y0141530D01*
X0318916Y0140331D02*
X0288500Y0140331D01*
X0288500Y0139133D02*
X0319242Y0139133D01*
X0320100Y0137934D02*
X0289326Y0137934D01*
X0289684Y0136736D02*
X0320100Y0136736D01*
X0320100Y0135537D02*
X0289525Y0135537D01*
X0288723Y0134338D02*
X0320100Y0134338D01*
X0323500Y0131941D02*
X0328170Y0131941D01*
X0327195Y0130743D02*
X0324405Y0130743D01*
X0324684Y0129544D02*
X0326916Y0129544D01*
X0327154Y0128346D02*
X0324446Y0128346D01*
X0323532Y0127147D02*
X0328068Y0127147D01*
X0321800Y0129495D02*
X0321800Y0140495D01*
X0319154Y0128346D02*
X0299946Y0128346D01*
X0299032Y0127147D02*
X0320068Y0127147D01*
X0295568Y0127147D02*
X0285532Y0127147D01*
X0285430Y0131941D02*
X0295670Y0131941D01*
X0286800Y0136495D02*
X0286800Y0147495D01*
X0290172Y0164301D02*
X0222135Y0164301D01*
X0217600Y0167897D02*
X0007200Y0167897D01*
X0007200Y0169095D02*
X0012223Y0169095D01*
X0012234Y0169054D02*
X0012445Y0168689D01*
X0012743Y0168391D01*
X0013107Y0168181D01*
X0013514Y0168072D01*
X0016375Y0168072D01*
X0016375Y0172322D01*
X0012125Y0172322D01*
X0012125Y0169461D01*
X0012234Y0169054D01*
X0012125Y0170294D02*
X0007200Y0170294D01*
X0007200Y0171492D02*
X0012125Y0171492D01*
X0012125Y0173172D02*
X0012125Y0176032D01*
X0012234Y0176439D01*
X0012445Y0176804D01*
X0012743Y0177102D01*
X0013107Y0177313D01*
X0013514Y0177422D01*
X0016375Y0177422D01*
X0016375Y0173172D01*
X0017225Y0173172D01*
X0017225Y0177422D01*
X0020086Y0177422D01*
X0020493Y0177313D01*
X0020857Y0177102D01*
X0021155Y0176804D01*
X0021366Y0176439D01*
X0021475Y0176032D01*
X0021475Y0173172D01*
X0017225Y0173172D01*
X0017225Y0172322D01*
X0021475Y0172322D01*
X0021475Y0169461D01*
X0021366Y0169054D01*
X0021155Y0168689D01*
X0020857Y0168391D01*
X0020493Y0168181D01*
X0020086Y0168072D01*
X0017225Y0168072D01*
X0017225Y0172322D01*
X0016375Y0172322D01*
X0016375Y0173172D01*
X0012125Y0173172D01*
X0012125Y0173889D02*
X0007200Y0173889D01*
X0007200Y0172691D02*
X0016375Y0172691D01*
X0017225Y0172691D02*
X0217600Y0172691D01*
X0217600Y0173889D02*
X0021475Y0173889D01*
X0021475Y0175088D02*
X0051128Y0175088D01*
X0051426Y0174790D02*
X0050615Y0175601D01*
X0050176Y0176661D01*
X0050176Y0177809D01*
X0050615Y0178869D01*
X0051426Y0179680D01*
X0052486Y0180119D01*
X0053634Y0180119D01*
X0054694Y0179680D01*
X0055179Y0179195D01*
X0083421Y0179195D01*
X0084166Y0179940D01*
X0085226Y0180379D01*
X0086374Y0180379D01*
X0087434Y0179940D01*
X0088245Y0179129D01*
X0088684Y0178069D01*
X0088684Y0176921D01*
X0088245Y0175861D01*
X0087434Y0175050D01*
X0086374Y0174611D01*
X0085226Y0174611D01*
X0084166Y0175050D01*
X0083421Y0175795D01*
X0055585Y0175795D01*
X0055505Y0175601D01*
X0054694Y0174790D01*
X0053634Y0174351D01*
X0052486Y0174351D01*
X0051426Y0174790D01*
X0050331Y0176286D02*
X0021407Y0176286D01*
X0017225Y0176286D02*
X0016375Y0176286D01*
X0016375Y0175088D02*
X0017225Y0175088D01*
X0017225Y0173889D02*
X0016375Y0173889D01*
X0016375Y0171492D02*
X0017225Y0171492D01*
X0017225Y0170294D02*
X0016375Y0170294D01*
X0016375Y0169095D02*
X0017225Y0169095D01*
X0021377Y0169095D02*
X0217600Y0169095D01*
X0217600Y0170294D02*
X0021475Y0170294D01*
X0021475Y0171492D02*
X0217600Y0171492D01*
X0217600Y0175088D02*
X0087472Y0175088D01*
X0088421Y0176286D02*
X0217600Y0176286D01*
X0217600Y0177485D02*
X0088684Y0177485D01*
X0088430Y0178683D02*
X0217600Y0178683D01*
X0218283Y0179882D02*
X0123029Y0179882D01*
X0120571Y0179882D02*
X0087492Y0179882D01*
X0085800Y0177495D02*
X0053320Y0177495D01*
X0053060Y0177235D01*
X0054206Y0179882D02*
X0084108Y0179882D01*
X0084128Y0175088D02*
X0054992Y0175088D01*
X0050176Y0177485D02*
X0007200Y0177485D01*
X0007200Y0178683D02*
X0050538Y0178683D01*
X0051913Y0179882D02*
X0007200Y0179882D01*
X0007200Y0181080D02*
X0119264Y0181080D01*
X0118916Y0182279D02*
X0007200Y0182279D01*
X0007200Y0183477D02*
X0119085Y0183477D01*
X0119902Y0184676D02*
X0007200Y0184676D01*
X0007200Y0185874D02*
X0204719Y0185874D01*
X0204719Y0184676D02*
X0123698Y0184676D01*
X0121800Y0182495D02*
X0231800Y0182495D01*
X0234515Y0183477D02*
X0268916Y0183477D01*
X0269167Y0184676D02*
X0260385Y0184676D01*
X0261000Y0185874D02*
X0261589Y0185874D01*
X0259300Y0185995D02*
X0259300Y0192995D01*
X0274300Y0192995D01*
X0277381Y0193066D02*
X0365100Y0193066D01*
X0365100Y0194264D02*
X0277381Y0194264D01*
X0277350Y0195463D02*
X0365100Y0195463D01*
X0365100Y0196661D02*
X0271881Y0196661D01*
X0271881Y0197860D02*
X0365100Y0197860D01*
X0365100Y0199058D02*
X0271881Y0199058D01*
X0271556Y0200257D02*
X0365100Y0200257D01*
X0365100Y0201455D02*
X0180839Y0201455D01*
X0180434Y0201050D02*
X0181245Y0201861D01*
X0181684Y0202921D01*
X0181684Y0204069D01*
X0181245Y0205129D01*
X0180434Y0205940D01*
X0179374Y0206379D01*
X0178226Y0206379D01*
X0177166Y0205940D01*
X0176355Y0205129D01*
X0176341Y0205095D01*
X0165259Y0205095D01*
X0165245Y0205129D01*
X0164434Y0205940D01*
X0163374Y0206379D01*
X0162226Y0206379D01*
X0161166Y0205940D01*
X0160355Y0205129D01*
X0159916Y0204069D01*
X0159916Y0202921D01*
X0160355Y0201861D01*
X0161166Y0201050D01*
X0162226Y0200611D01*
X0163374Y0200611D01*
X0164434Y0201050D01*
X0165245Y0201861D01*
X0165259Y0201895D01*
X0176341Y0201895D01*
X0176355Y0201861D01*
X0177166Y0201050D01*
X0178226Y0200611D01*
X0179374Y0200611D01*
X0180434Y0201050D01*
X0181573Y0202654D02*
X0193122Y0202654D01*
X0193226Y0202611D02*
X0194374Y0202611D01*
X0195434Y0203050D01*
X0196179Y0203795D01*
X0208421Y0203795D01*
X0209166Y0203050D01*
X0210226Y0202611D01*
X0211374Y0202611D01*
X0212434Y0203050D01*
X0213245Y0203861D01*
X0213684Y0204921D01*
X0213684Y0206069D01*
X0213245Y0207129D01*
X0212434Y0207940D01*
X0211374Y0208379D01*
X0210226Y0208379D01*
X0209551Y0208099D01*
X0209684Y0208421D01*
X0209684Y0209569D01*
X0209259Y0210595D01*
X0219719Y0210595D01*
X0219719Y0210058D01*
X0220363Y0209414D01*
X0225237Y0209414D01*
X0225881Y0210058D01*
X0225881Y0210795D01*
X0244421Y0210795D01*
X0245166Y0210050D01*
X0246226Y0209611D01*
X0247374Y0209611D01*
X0248434Y0210050D01*
X0249245Y0210861D01*
X0249684Y0211921D01*
X0249684Y0213069D01*
X0249245Y0214129D01*
X0248434Y0214940D01*
X0247374Y0215379D01*
X0246226Y0215379D01*
X0245166Y0214940D01*
X0244421Y0214195D01*
X0225881Y0214195D01*
X0225881Y0214932D01*
X0225237Y0215576D01*
X0220363Y0215576D01*
X0219719Y0214932D01*
X0219719Y0214395D01*
X0139881Y0214395D01*
X0139881Y0214932D01*
X0139237Y0215576D01*
X0134363Y0215576D01*
X0133719Y0214932D01*
X0133719Y0210058D01*
X0134363Y0209414D01*
X0139237Y0209414D01*
X0139881Y0210058D01*
X0139881Y0210595D01*
X0182341Y0210595D01*
X0181916Y0209569D01*
X0181916Y0208421D01*
X0182355Y0207361D01*
X0183166Y0206550D01*
X0184226Y0206111D01*
X0185374Y0206111D01*
X0186434Y0206550D01*
X0187179Y0207295D01*
X0191521Y0207295D01*
X0191355Y0207129D01*
X0190916Y0206069D01*
X0190916Y0204921D01*
X0191355Y0203861D01*
X0192166Y0203050D01*
X0193226Y0202611D01*
X0194478Y0202654D02*
X0210122Y0202654D01*
X0211478Y0202654D02*
X0365100Y0202654D01*
X0365100Y0203852D02*
X0213236Y0203852D01*
X0213684Y0205051D02*
X0365100Y0205051D01*
X0365100Y0206249D02*
X0213609Y0206249D01*
X0212926Y0207448D02*
X0363719Y0207448D01*
X0363719Y0207058D02*
X0364363Y0206414D01*
X0365100Y0206414D01*
X0365100Y0182791D01*
X0366096Y0181795D01*
X0389719Y0181795D01*
X0389719Y0181058D01*
X0390363Y0180414D01*
X0395237Y0180414D01*
X0395881Y0181058D01*
X0395881Y0185932D01*
X0395237Y0186576D01*
X0390363Y0186576D01*
X0389719Y0185932D01*
X0389719Y0185195D01*
X0368500Y0185195D01*
X0368500Y0206414D01*
X0369237Y0206414D01*
X0369881Y0207058D01*
X0369881Y0211932D01*
X0369237Y0212576D01*
X0365381Y0212576D01*
X0365381Y0216932D01*
X0364737Y0217576D01*
X0359863Y0217576D01*
X0359219Y0216932D01*
X0359219Y0216195D01*
X0265881Y0216195D01*
X0265881Y0216932D01*
X0265568Y0217245D01*
X0265881Y0217558D01*
X0265881Y0218295D01*
X0284719Y0218295D01*
X0284719Y0217558D01*
X0285363Y0216914D01*
X0290237Y0216914D01*
X0290881Y0217558D01*
X0290881Y0222432D01*
X0290237Y0223076D01*
X0285363Y0223076D01*
X0284719Y0222432D01*
X0284719Y0221695D01*
X0265881Y0221695D01*
X0265881Y0222432D01*
X0265237Y0223076D01*
X0260363Y0223076D01*
X0259719Y0222432D01*
X0259719Y0217558D01*
X0260032Y0217245D01*
X0259719Y0216932D01*
X0259719Y0212058D01*
X0260363Y0211414D01*
X0265237Y0211414D01*
X0265881Y0212058D01*
X0265881Y0212795D01*
X0359219Y0212795D01*
X0359219Y0212058D01*
X0359863Y0211414D01*
X0363719Y0211414D01*
X0363719Y0207058D01*
X0363719Y0208646D02*
X0209684Y0208646D01*
X0209570Y0209845D02*
X0219932Y0209845D01*
X0222800Y0212495D02*
X0246800Y0212495D01*
X0247939Y0209845D02*
X0363719Y0209845D01*
X0363719Y0211043D02*
X0249321Y0211043D01*
X0249684Y0212242D02*
X0259719Y0212242D01*
X0259719Y0213440D02*
X0249530Y0213440D01*
X0248735Y0214639D02*
X0259719Y0214639D01*
X0259719Y0215837D02*
X0021475Y0215837D01*
X0021475Y0214639D02*
X0133719Y0214639D01*
X0133719Y0213440D02*
X0128933Y0213440D01*
X0129245Y0213129D02*
X0128434Y0213940D01*
X0127374Y0214379D01*
X0126226Y0214379D01*
X0125166Y0213940D01*
X0124421Y0213195D01*
X0065179Y0213195D01*
X0064434Y0213940D01*
X0063374Y0214379D01*
X0062226Y0214379D01*
X0061166Y0213940D01*
X0060355Y0213129D01*
X0059916Y0212069D01*
X0059916Y0210921D01*
X0060355Y0209861D01*
X0061166Y0209050D01*
X0062226Y0208611D01*
X0063374Y0208611D01*
X0064434Y0209050D01*
X0065179Y0209795D01*
X0124421Y0209795D01*
X0125166Y0209050D01*
X0126226Y0208611D01*
X0127374Y0208611D01*
X0128434Y0209050D01*
X0129245Y0209861D01*
X0129684Y0210921D01*
X0129684Y0212069D01*
X0129245Y0213129D01*
X0129612Y0212242D02*
X0133719Y0212242D01*
X0133719Y0211043D02*
X0129684Y0211043D01*
X0129229Y0209845D02*
X0133932Y0209845D01*
X0139668Y0209845D02*
X0182030Y0209845D01*
X0181916Y0208646D02*
X0127460Y0208646D01*
X0126140Y0208646D02*
X0063460Y0208646D01*
X0062140Y0208646D02*
X0007200Y0208646D01*
X0007200Y0207448D02*
X0182319Y0207448D01*
X0183892Y0206249D02*
X0179687Y0206249D01*
X0177913Y0206249D02*
X0163687Y0206249D01*
X0161913Y0206249D02*
X0007200Y0206249D01*
X0007200Y0205051D02*
X0160323Y0205051D01*
X0159916Y0203852D02*
X0007200Y0203852D01*
X0007200Y0202654D02*
X0012625Y0202654D01*
X0012625Y0202773D02*
X0012625Y0195712D01*
X0013269Y0195068D01*
X0020331Y0195068D01*
X0020975Y0195712D01*
X0020975Y0197643D01*
X0140916Y0197643D01*
X0140916Y0196921D01*
X0141355Y0195861D01*
X0142166Y0195050D01*
X0143226Y0194611D01*
X0144374Y0194611D01*
X0145434Y0195050D01*
X0146245Y0195861D01*
X0146684Y0196921D01*
X0146684Y0198069D01*
X0146245Y0199129D01*
X0145434Y0199940D01*
X0144374Y0200379D01*
X0143226Y0200379D01*
X0143192Y0200365D01*
X0142715Y0200843D01*
X0020975Y0200843D01*
X0020975Y0202773D01*
X0020331Y0203418D01*
X0013269Y0203418D01*
X0012625Y0202773D01*
X0012625Y0201455D02*
X0007200Y0201455D01*
X0007200Y0200257D02*
X0012625Y0200257D01*
X0012625Y0199058D02*
X0007200Y0199058D01*
X0007200Y0197860D02*
X0012625Y0197860D01*
X0012625Y0196661D02*
X0007200Y0196661D01*
X0007200Y0195463D02*
X0012875Y0195463D01*
X0020725Y0195463D02*
X0141753Y0195463D01*
X0141023Y0196661D02*
X0020975Y0196661D01*
X0020975Y0201455D02*
X0160761Y0201455D01*
X0160027Y0202654D02*
X0020975Y0202654D01*
X0007200Y0209845D02*
X0060371Y0209845D01*
X0059916Y0211043D02*
X0007200Y0211043D01*
X0007200Y0212242D02*
X0059987Y0212242D01*
X0060666Y0213440D02*
X0020906Y0213440D01*
X0020857Y0213391D02*
X0021155Y0213689D01*
X0021366Y0214054D01*
X0021475Y0214461D01*
X0021475Y0217322D01*
X0017225Y0217322D01*
X0017225Y0218172D01*
X0016375Y0218172D01*
X0016375Y0222422D01*
X0013514Y0222422D01*
X0013107Y0222313D01*
X0012743Y0222102D01*
X0012445Y0221804D01*
X0012234Y0221439D01*
X0012125Y0221032D01*
X0012125Y0218172D01*
X0016375Y0218172D01*
X0016375Y0217322D01*
X0012125Y0217322D01*
X0012125Y0214461D01*
X0012234Y0214054D01*
X0012445Y0213689D01*
X0012743Y0213391D01*
X0013107Y0213181D01*
X0013514Y0213072D01*
X0016375Y0213072D01*
X0016375Y0217322D01*
X0017225Y0217322D01*
X0017225Y0213072D01*
X0020086Y0213072D01*
X0020493Y0213181D01*
X0020857Y0213391D01*
X0017225Y0213440D02*
X0016375Y0213440D01*
X0016375Y0214639D02*
X0017225Y0214639D01*
X0017225Y0215837D02*
X0016375Y0215837D01*
X0016375Y0217036D02*
X0017225Y0217036D01*
X0016800Y0217747D02*
X0025800Y0217747D01*
X0026548Y0218495D01*
X0071800Y0218495D01*
X0071800Y0220495D01*
X0071800Y0218495D02*
X0092800Y0218495D01*
X0068638Y0233815D02*
X0158719Y0233815D01*
X0158719Y0235013D02*
X0068881Y0235013D01*
X0068881Y0234058D02*
X0068881Y0238932D01*
X0068237Y0239576D01*
X0067700Y0239576D01*
X0067700Y0257020D01*
X0070631Y0257020D01*
X0071275Y0257664D01*
X0071275Y0265325D01*
X0070631Y0265970D01*
X0062969Y0265970D01*
X0062325Y0265325D01*
X0062325Y0257664D01*
X0062969Y0257020D01*
X0063900Y0257020D01*
X0063900Y0239576D01*
X0063363Y0239576D01*
X0062719Y0238932D01*
X0062719Y0234058D01*
X0063363Y0233414D01*
X0068237Y0233414D01*
X0068881Y0234058D01*
X0068881Y0236212D02*
X0158719Y0236212D01*
X0158719Y0236932D02*
X0158719Y0232058D01*
X0159363Y0231414D01*
X0164237Y0231414D01*
X0164881Y0232058D01*
X0164881Y0232595D01*
X0224719Y0232595D01*
X0224719Y0232058D01*
X0225363Y0231414D01*
X0230237Y0231414D01*
X0230418Y0231595D01*
X0319719Y0231595D01*
X0319719Y0231058D01*
X0320363Y0230414D01*
X0325237Y0230414D01*
X0325881Y0231058D01*
X0325881Y0235932D01*
X0325237Y0236576D01*
X0320363Y0236576D01*
X0319719Y0235932D01*
X0319719Y0235395D01*
X0230881Y0235395D01*
X0230881Y0236932D01*
X0230237Y0237576D01*
X0225363Y0237576D01*
X0224719Y0236932D01*
X0224719Y0236395D01*
X0164881Y0236395D01*
X0164881Y0236932D01*
X0164237Y0237576D01*
X0163500Y0237576D01*
X0163500Y0242199D01*
X0162504Y0243195D01*
X0102881Y0243195D01*
X0102881Y0243932D01*
X0102237Y0244576D01*
X0097363Y0244576D01*
X0096719Y0243932D01*
X0096719Y0239058D01*
X0097363Y0238414D01*
X0102237Y0238414D01*
X0102881Y0239058D01*
X0102881Y0239795D01*
X0160100Y0239795D01*
X0160100Y0237576D01*
X0159363Y0237576D01*
X0158719Y0236932D01*
X0159198Y0237410D02*
X0068881Y0237410D01*
X0068881Y0238609D02*
X0097168Y0238609D01*
X0096719Y0239807D02*
X0067700Y0239807D01*
X0067700Y0241006D02*
X0096719Y0241006D01*
X0096719Y0242205D02*
X0067700Y0242205D01*
X0067700Y0243403D02*
X0096719Y0243403D01*
X0099800Y0241495D02*
X0161800Y0241495D01*
X0161800Y0234495D01*
X0158719Y0232616D02*
X0007200Y0232616D01*
X0007200Y0231418D02*
X0159359Y0231418D01*
X0164241Y0231418D02*
X0225359Y0231418D01*
X0230241Y0231418D02*
X0319719Y0231418D01*
X0319999Y0236212D02*
X0277381Y0236212D01*
X0277381Y0236058D02*
X0277381Y0240932D01*
X0276737Y0241576D01*
X0271863Y0241576D01*
X0271219Y0240932D01*
X0271219Y0240195D01*
X0248381Y0240195D01*
X0248381Y0241932D01*
X0247737Y0242576D01*
X0242863Y0242576D01*
X0242219Y0241932D01*
X0242219Y0237058D01*
X0242863Y0236414D01*
X0247737Y0236414D01*
X0248118Y0236795D01*
X0271219Y0236795D01*
X0271219Y0236058D01*
X0271863Y0235414D01*
X0276737Y0235414D01*
X0277381Y0236058D01*
X0277381Y0237410D02*
X0416400Y0237410D01*
X0416400Y0236212D02*
X0325601Y0236212D01*
X0325881Y0235013D02*
X0416400Y0235013D01*
X0416400Y0233815D02*
X0325881Y0233815D01*
X0325881Y0232616D02*
X0398375Y0232616D01*
X0398216Y0232591D02*
X0397588Y0232387D01*
X0396999Y0232087D01*
X0396464Y0231698D01*
X0395996Y0231231D01*
X0395608Y0230696D01*
X0395308Y0230107D01*
X0395103Y0229478D01*
X0395000Y0228825D01*
X0395000Y0228695D01*
X0401600Y0228695D01*
X0401600Y0232695D01*
X0398869Y0232695D01*
X0398216Y0232591D01*
X0396183Y0231418D02*
X0325881Y0231418D01*
X0307552Y0251495D02*
X0351300Y0251495D01*
X0351300Y0258247D01*
X0351052Y0258495D01*
X0351477Y0258070D02*
X0351477Y0258920D01*
X0350627Y0258920D01*
X0350627Y0263170D01*
X0347766Y0263170D01*
X0347359Y0263061D01*
X0346995Y0262850D01*
X0346697Y0262552D01*
X0346486Y0262187D01*
X0346377Y0261780D01*
X0346377Y0258920D01*
X0350627Y0258920D01*
X0350627Y0258070D01*
X0346377Y0258070D01*
X0346377Y0255209D01*
X0346486Y0254802D01*
X0346697Y0254437D01*
X0346995Y0254139D01*
X0347359Y0253929D01*
X0347766Y0253820D01*
X0350627Y0253820D01*
X0350627Y0258070D01*
X0351477Y0258070D01*
X0355727Y0258070D01*
X0355727Y0255209D01*
X0355618Y0254802D01*
X0355407Y0254437D01*
X0355109Y0254139D01*
X0354745Y0253929D01*
X0354338Y0253820D01*
X0351477Y0253820D01*
X0351477Y0258070D01*
X0351477Y0257785D02*
X0350627Y0257785D01*
X0350627Y0256587D02*
X0351477Y0256587D01*
X0351477Y0255388D02*
X0350627Y0255388D01*
X0350627Y0254190D02*
X0351477Y0254190D01*
X0355159Y0254190D02*
X0370940Y0254190D01*
X0370991Y0254139D02*
X0371355Y0253929D01*
X0371762Y0253820D01*
X0374623Y0253820D01*
X0374623Y0258070D01*
X0370373Y0258070D01*
X0370373Y0255209D01*
X0370482Y0254802D01*
X0370693Y0254437D01*
X0370991Y0254139D01*
X0370373Y0255388D02*
X0355727Y0255388D01*
X0355727Y0256587D02*
X0370373Y0256587D01*
X0370373Y0257785D02*
X0355727Y0257785D01*
X0355727Y0258920D02*
X0351477Y0258920D01*
X0351477Y0263170D01*
X0354338Y0263170D01*
X0354745Y0263061D01*
X0355109Y0262850D01*
X0355407Y0262552D01*
X0355618Y0262187D01*
X0355727Y0261780D01*
X0355727Y0258920D01*
X0355727Y0258984D02*
X0370373Y0258984D01*
X0370373Y0258920D02*
X0374623Y0258920D01*
X0374623Y0263170D01*
X0371762Y0263170D01*
X0371355Y0263061D01*
X0370991Y0262850D01*
X0370693Y0262552D01*
X0370482Y0262187D01*
X0370373Y0261780D01*
X0370373Y0258920D01*
X0370373Y0260182D02*
X0355727Y0260182D01*
X0355727Y0261381D02*
X0370373Y0261381D01*
X0370720Y0262579D02*
X0355380Y0262579D01*
X0351477Y0262579D02*
X0350627Y0262579D01*
X0350627Y0261381D02*
X0351477Y0261381D01*
X0351477Y0260182D02*
X0350627Y0260182D01*
X0350627Y0258984D02*
X0351477Y0258984D01*
X0346377Y0258984D02*
X0336723Y0258984D01*
X0336723Y0260182D02*
X0346377Y0260182D01*
X0346377Y0261381D02*
X0336723Y0261381D01*
X0336723Y0262025D02*
X0336079Y0262670D01*
X0329017Y0262670D01*
X0328373Y0262025D01*
X0328373Y0254964D01*
X0329017Y0254320D01*
X0336079Y0254320D01*
X0336723Y0254964D01*
X0336723Y0262025D01*
X0336169Y0262579D02*
X0346724Y0262579D01*
X0346377Y0257785D02*
X0336723Y0257785D01*
X0336723Y0256587D02*
X0346377Y0256587D01*
X0346377Y0255388D02*
X0336723Y0255388D01*
X0328373Y0255388D02*
X0312227Y0255388D01*
X0312227Y0255209D02*
X0312227Y0258070D01*
X0307977Y0258070D01*
X0307977Y0258920D01*
X0307127Y0258920D01*
X0307127Y0263170D01*
X0304266Y0263170D01*
X0303859Y0263061D01*
X0303495Y0262850D01*
X0303197Y0262552D01*
X0302986Y0262187D01*
X0302877Y0261780D01*
X0302877Y0258920D01*
X0307127Y0258920D01*
X0307127Y0258070D01*
X0302877Y0258070D01*
X0302877Y0255209D01*
X0302986Y0254802D01*
X0303197Y0254437D01*
X0303495Y0254139D01*
X0303859Y0253929D01*
X0304266Y0253820D01*
X0307127Y0253820D01*
X0307127Y0258070D01*
X0307977Y0258070D01*
X0307977Y0253820D01*
X0310838Y0253820D01*
X0311245Y0253929D01*
X0311609Y0254139D01*
X0311907Y0254437D01*
X0312118Y0254802D01*
X0312227Y0255209D01*
X0311659Y0254190D02*
X0346944Y0254190D01*
X0328373Y0256587D02*
X0312227Y0256587D01*
X0312227Y0257785D02*
X0328373Y0257785D01*
X0328373Y0258984D02*
X0312227Y0258984D01*
X0312227Y0258920D02*
X0312227Y0261780D01*
X0312118Y0262187D01*
X0311907Y0262552D01*
X0311609Y0262850D01*
X0311245Y0263061D01*
X0310838Y0263170D01*
X0307977Y0263170D01*
X0307977Y0258920D01*
X0312227Y0258920D01*
X0312227Y0260182D02*
X0328373Y0260182D01*
X0328373Y0261381D02*
X0312227Y0261381D01*
X0311880Y0262579D02*
X0328927Y0262579D01*
X0307977Y0262579D02*
X0307127Y0262579D01*
X0307127Y0261381D02*
X0307977Y0261381D01*
X0307977Y0260182D02*
X0307127Y0260182D01*
X0307127Y0258984D02*
X0307977Y0258984D01*
X0307552Y0258495D02*
X0307552Y0251495D01*
X0185052Y0251495D01*
X0178052Y0258495D01*
X0178477Y0258070D02*
X0178477Y0258920D01*
X0177627Y0258920D01*
X0177627Y0263170D01*
X0174766Y0263170D01*
X0174359Y0263061D01*
X0173995Y0262850D01*
X0173697Y0262552D01*
X0173486Y0262187D01*
X0173377Y0261780D01*
X0173377Y0258920D01*
X0177627Y0258920D01*
X0177627Y0258070D01*
X0173377Y0258070D01*
X0173377Y0255209D01*
X0173486Y0254802D01*
X0173697Y0254437D01*
X0173995Y0254139D01*
X0174359Y0253929D01*
X0174766Y0253820D01*
X0177627Y0253820D01*
X0177627Y0258070D01*
X0178477Y0258070D01*
X0182727Y0258070D01*
X0182727Y0255209D01*
X0182618Y0254802D01*
X0182407Y0254437D01*
X0182109Y0254139D01*
X0181745Y0253929D01*
X0181338Y0253820D01*
X0178477Y0253820D01*
X0178477Y0258070D01*
X0178477Y0257785D02*
X0177627Y0257785D01*
X0177627Y0256587D02*
X0178477Y0256587D01*
X0178477Y0255388D02*
X0177627Y0255388D01*
X0177627Y0254190D02*
X0178477Y0254190D01*
X0182159Y0254190D02*
X0303444Y0254190D01*
X0302877Y0255388D02*
X0293223Y0255388D01*
X0293223Y0254964D02*
X0292579Y0254320D01*
X0285517Y0254320D01*
X0284873Y0254964D01*
X0284873Y0262025D01*
X0285517Y0262670D01*
X0292579Y0262670D01*
X0293223Y0262025D01*
X0293223Y0254964D01*
X0293223Y0256587D02*
X0302877Y0256587D01*
X0302877Y0257785D02*
X0293223Y0257785D01*
X0293223Y0258984D02*
X0302877Y0258984D01*
X0302877Y0260182D02*
X0293223Y0260182D01*
X0293223Y0261381D02*
X0302877Y0261381D01*
X0303224Y0262579D02*
X0292669Y0262579D01*
X0285427Y0262579D02*
X0267673Y0262579D01*
X0267583Y0262670D02*
X0260521Y0262670D01*
X0259877Y0262025D01*
X0259877Y0254964D01*
X0260521Y0254320D01*
X0267583Y0254320D01*
X0268227Y0254964D01*
X0268227Y0262025D01*
X0267583Y0262670D01*
X0268227Y0261381D02*
X0284873Y0261381D01*
X0284873Y0260182D02*
X0268227Y0260182D01*
X0268227Y0258984D02*
X0284873Y0258984D01*
X0284873Y0257785D02*
X0268227Y0257785D01*
X0268227Y0256587D02*
X0284873Y0256587D01*
X0284873Y0255388D02*
X0268227Y0255388D01*
X0259877Y0255388D02*
X0249723Y0255388D01*
X0249723Y0254964D02*
X0249723Y0262025D01*
X0249079Y0262670D01*
X0242017Y0262670D01*
X0241373Y0262025D01*
X0241373Y0254964D01*
X0242017Y0254320D01*
X0249079Y0254320D01*
X0249723Y0254964D01*
X0249723Y0256587D02*
X0259877Y0256587D01*
X0259877Y0257785D02*
X0249723Y0257785D01*
X0249723Y0258984D02*
X0259877Y0258984D01*
X0259877Y0260182D02*
X0249723Y0260182D01*
X0249723Y0261381D02*
X0259877Y0261381D01*
X0260431Y0262579D02*
X0249169Y0262579D01*
X0241927Y0262579D02*
X0224673Y0262579D01*
X0224583Y0262670D02*
X0217521Y0262670D01*
X0216877Y0262025D01*
X0216877Y0254964D01*
X0217521Y0254320D01*
X0224583Y0254320D01*
X0225227Y0254964D01*
X0225227Y0262025D01*
X0224583Y0262670D01*
X0225227Y0261381D02*
X0241373Y0261381D01*
X0241373Y0260182D02*
X0225227Y0260182D01*
X0225227Y0258984D02*
X0241373Y0258984D01*
X0241373Y0257785D02*
X0225227Y0257785D01*
X0225227Y0256587D02*
X0241373Y0256587D01*
X0241373Y0255388D02*
X0225227Y0255388D01*
X0216877Y0255388D02*
X0206723Y0255388D01*
X0206723Y0254964D02*
X0206079Y0254320D01*
X0199017Y0254320D01*
X0198373Y0254964D01*
X0198373Y0262025D01*
X0199017Y0262670D01*
X0206079Y0262670D01*
X0206723Y0262025D01*
X0206723Y0254964D01*
X0206723Y0256587D02*
X0216877Y0256587D01*
X0216877Y0257785D02*
X0206723Y0257785D01*
X0206723Y0258984D02*
X0216877Y0258984D01*
X0216877Y0260182D02*
X0206723Y0260182D01*
X0206723Y0261381D02*
X0216877Y0261381D01*
X0217431Y0262579D02*
X0206169Y0262579D01*
X0198927Y0262579D02*
X0182380Y0262579D01*
X0182407Y0262552D02*
X0182109Y0262850D01*
X0181745Y0263061D01*
X0181338Y0263170D01*
X0178477Y0263170D01*
X0178477Y0258920D01*
X0182727Y0258920D01*
X0182727Y0261780D01*
X0182618Y0262187D01*
X0182407Y0262552D01*
X0182727Y0261381D02*
X0198373Y0261381D01*
X0198373Y0260182D02*
X0182727Y0260182D01*
X0182727Y0258984D02*
X0198373Y0258984D01*
X0198373Y0257785D02*
X0182727Y0257785D01*
X0182727Y0256587D02*
X0198373Y0256587D01*
X0198373Y0255388D02*
X0182727Y0255388D01*
X0178477Y0258984D02*
X0177627Y0258984D01*
X0177627Y0260182D02*
X0178477Y0260182D01*
X0178477Y0261381D02*
X0177627Y0261381D01*
X0177627Y0262579D02*
X0178477Y0262579D01*
X0173724Y0262579D02*
X0163169Y0262579D01*
X0163079Y0262670D02*
X0156017Y0262670D01*
X0155373Y0262025D01*
X0155373Y0254964D01*
X0156017Y0254320D01*
X0163079Y0254320D01*
X0163723Y0254964D01*
X0163723Y0262025D01*
X0163079Y0262670D01*
X0163723Y0261381D02*
X0173377Y0261381D01*
X0173377Y0260182D02*
X0163723Y0260182D01*
X0163723Y0258984D02*
X0173377Y0258984D01*
X0173377Y0257785D02*
X0163723Y0257785D01*
X0163723Y0256587D02*
X0173377Y0256587D01*
X0173377Y0255388D02*
X0163723Y0255388D01*
X0155373Y0255388D02*
X0141227Y0255388D01*
X0141227Y0254964D02*
X0140583Y0254320D01*
X0133521Y0254320D01*
X0132877Y0254964D01*
X0132877Y0262025D01*
X0133521Y0262670D01*
X0140583Y0262670D01*
X0141227Y0262025D01*
X0141227Y0254964D01*
X0141227Y0256587D02*
X0155373Y0256587D01*
X0155373Y0257785D02*
X0141227Y0257785D01*
X0141227Y0258984D02*
X0155373Y0258984D01*
X0155373Y0260182D02*
X0141227Y0260182D01*
X0141227Y0261381D02*
X0155373Y0261381D01*
X0155927Y0262579D02*
X0140673Y0262579D01*
X0133431Y0262579D02*
X0122169Y0262579D01*
X0122079Y0262670D02*
X0115017Y0262670D01*
X0114373Y0262025D01*
X0114373Y0254964D01*
X0115017Y0254320D01*
X0122079Y0254320D01*
X0122723Y0254964D01*
X0122723Y0262025D01*
X0122079Y0262670D01*
X0122723Y0261381D02*
X0132877Y0261381D01*
X0132877Y0260182D02*
X0122723Y0260182D01*
X0122723Y0258984D02*
X0132877Y0258984D01*
X0132877Y0257785D02*
X0122723Y0257785D01*
X0122723Y0256587D02*
X0132877Y0256587D01*
X0132877Y0255388D02*
X0122723Y0255388D01*
X0114373Y0255388D02*
X0067700Y0255388D01*
X0067700Y0254190D02*
X0173944Y0254190D01*
X0163494Y0242205D02*
X0242492Y0242205D01*
X0242219Y0241006D02*
X0163500Y0241006D01*
X0163500Y0239807D02*
X0242219Y0239807D01*
X0242219Y0238609D02*
X0163500Y0238609D01*
X0164402Y0237410D02*
X0225198Y0237410D01*
X0230402Y0237410D02*
X0242219Y0237410D01*
X0245300Y0239495D02*
X0246300Y0238495D01*
X0274300Y0238495D01*
X0277381Y0238609D02*
X0416400Y0238609D01*
X0416400Y0239807D02*
X0277381Y0239807D01*
X0277307Y0241006D02*
X0416400Y0241006D01*
X0416400Y0242205D02*
X0248108Y0242205D01*
X0248381Y0241006D02*
X0271293Y0241006D01*
X0271219Y0236212D02*
X0230881Y0236212D01*
X0221237Y0222576D02*
X0216363Y0222576D01*
X0215719Y0221932D01*
X0215719Y0221195D01*
X0200881Y0221195D01*
X0200881Y0221932D01*
X0200237Y0222576D01*
X0195363Y0222576D01*
X0194719Y0221932D01*
X0194719Y0217058D01*
X0195363Y0216414D01*
X0200237Y0216414D01*
X0200881Y0217058D01*
X0200881Y0217795D01*
X0215719Y0217795D01*
X0215719Y0217058D01*
X0216363Y0216414D01*
X0221237Y0216414D01*
X0221881Y0217058D01*
X0221881Y0221932D01*
X0221237Y0222576D01*
X0221881Y0221830D02*
X0259719Y0221830D01*
X0259719Y0220631D02*
X0221881Y0220631D01*
X0221881Y0219433D02*
X0259719Y0219433D01*
X0259719Y0218234D02*
X0221881Y0218234D01*
X0221859Y0217036D02*
X0259823Y0217036D01*
X0262800Y0214495D02*
X0362300Y0214495D01*
X0365381Y0214639D02*
X0416400Y0214639D01*
X0416400Y0215837D02*
X0415435Y0215837D01*
X0416400Y0213440D02*
X0365381Y0213440D01*
X0365381Y0215837D02*
X0396625Y0215837D01*
X0395799Y0217036D02*
X0365277Y0217036D01*
X0359323Y0217036D02*
X0290359Y0217036D01*
X0290881Y0218234D02*
X0395500Y0218234D01*
X0395584Y0219433D02*
X0290881Y0219433D01*
X0290881Y0220631D02*
X0396104Y0220631D01*
X0397583Y0221830D02*
X0290881Y0221830D01*
X0290284Y0223028D02*
X0416400Y0223028D01*
X0416400Y0221830D02*
X0406017Y0221830D01*
X0407496Y0220631D02*
X0411579Y0220631D01*
X0413800Y0218495D02*
X0401800Y0218495D01*
X0401600Y0224295D02*
X0401600Y0228295D01*
X0395000Y0228295D01*
X0395000Y0228164D01*
X0395103Y0227511D01*
X0395308Y0226883D01*
X0395608Y0226294D01*
X0395996Y0225759D01*
X0396464Y0225291D01*
X0396999Y0224903D01*
X0397588Y0224603D01*
X0398216Y0224398D01*
X0398869Y0224295D01*
X0401600Y0224295D01*
X0402000Y0224295D02*
X0402000Y0228295D01*
X0402000Y0228695D01*
X0401600Y0228695D01*
X0401600Y0228295D01*
X0402000Y0228295D01*
X0408600Y0228295D01*
X0408600Y0228164D01*
X0408497Y0227511D01*
X0408292Y0226883D01*
X0407992Y0226294D01*
X0407604Y0225759D01*
X0407136Y0225291D01*
X0406601Y0224903D01*
X0406012Y0224603D01*
X0405384Y0224398D01*
X0404731Y0224295D01*
X0402000Y0224295D01*
X0402000Y0225425D02*
X0401600Y0225425D01*
X0401600Y0226624D02*
X0402000Y0226624D01*
X0402000Y0227822D02*
X0401600Y0227822D01*
X0402000Y0228695D02*
X0408600Y0228695D01*
X0408600Y0228825D01*
X0408497Y0229478D01*
X0408292Y0230107D01*
X0407992Y0230696D01*
X0407604Y0231231D01*
X0407136Y0231698D01*
X0406601Y0232087D01*
X0406012Y0232387D01*
X0405384Y0232591D01*
X0404731Y0232695D01*
X0402000Y0232695D01*
X0402000Y0228695D01*
X0402000Y0229021D02*
X0401600Y0229021D01*
X0401600Y0230219D02*
X0402000Y0230219D01*
X0402000Y0231418D02*
X0401600Y0231418D01*
X0401600Y0232616D02*
X0402000Y0232616D01*
X0405225Y0232616D02*
X0416400Y0232616D01*
X0416400Y0231418D02*
X0407417Y0231418D01*
X0408235Y0230219D02*
X0416400Y0230219D01*
X0416400Y0229021D02*
X0408569Y0229021D01*
X0408546Y0227822D02*
X0416400Y0227822D01*
X0416400Y0226624D02*
X0408160Y0226624D01*
X0407270Y0225425D02*
X0416400Y0225425D01*
X0416400Y0224227D02*
X0155586Y0224227D01*
X0155881Y0223932D02*
X0155237Y0224576D01*
X0150363Y0224576D01*
X0149719Y0223932D01*
X0149719Y0223395D01*
X0121881Y0223395D01*
X0121881Y0223932D01*
X0121237Y0224576D01*
X0116363Y0224576D01*
X0115719Y0223932D01*
X0115719Y0219058D01*
X0116363Y0218414D01*
X0121237Y0218414D01*
X0121881Y0219058D01*
X0121881Y0219595D01*
X0149719Y0219595D01*
X0149719Y0219058D01*
X0150363Y0218414D01*
X0155237Y0218414D01*
X0155881Y0219058D01*
X0155881Y0223932D01*
X0155881Y0223028D02*
X0260316Y0223028D01*
X0262800Y0219995D02*
X0287800Y0219995D01*
X0284719Y0218234D02*
X0265881Y0218234D01*
X0265777Y0217036D02*
X0285241Y0217036D01*
X0284719Y0221830D02*
X0265881Y0221830D01*
X0265284Y0223028D02*
X0285316Y0223028D01*
X0265881Y0212242D02*
X0359219Y0212242D01*
X0366800Y0209495D02*
X0366800Y0183495D01*
X0392800Y0183495D01*
X0395881Y0183477D02*
X0416400Y0183477D01*
X0416400Y0182279D02*
X0395881Y0182279D01*
X0395881Y0181080D02*
X0416400Y0181080D01*
X0416400Y0179882D02*
X0249347Y0179882D01*
X0249684Y0178683D02*
X0416400Y0178683D01*
X0416400Y0177485D02*
X0249504Y0177485D01*
X0248095Y0181080D02*
X0270135Y0181080D01*
X0269182Y0182279D02*
X0234684Y0182279D01*
X0234336Y0181080D02*
X0245505Y0181080D01*
X0259300Y0185995D02*
X0207800Y0185995D01*
X0204719Y0187073D02*
X0007200Y0187073D01*
X0007200Y0188272D02*
X0201005Y0188272D01*
X0200719Y0189470D02*
X0007200Y0189470D01*
X0007200Y0190669D02*
X0200719Y0190669D01*
X0200719Y0191867D02*
X0007200Y0191867D01*
X0007200Y0193066D02*
X0200719Y0193066D01*
X0203800Y0190995D02*
X0205300Y0192495D01*
X0250300Y0192495D01*
X0252800Y0194995D01*
X0257800Y0194995D01*
X0260300Y0197495D01*
X0268800Y0197495D01*
X0266044Y0200257D02*
X0257117Y0200257D01*
X0257684Y0199058D02*
X0259459Y0199058D01*
X0258261Y0197860D02*
X0257659Y0197860D01*
X0254800Y0198495D02*
X0224800Y0198495D01*
X0227045Y0196661D02*
X0252062Y0196661D01*
X0250864Y0195463D02*
X0145847Y0195463D01*
X0146577Y0196661D02*
X0222555Y0196661D01*
X0221941Y0197860D02*
X0146684Y0197860D01*
X0146274Y0199058D02*
X0221916Y0199058D01*
X0222483Y0200257D02*
X0144669Y0200257D01*
X0126800Y0211495D02*
X0062800Y0211495D01*
X0064933Y0213440D02*
X0124666Y0213440D01*
X0121881Y0219433D02*
X0149719Y0219433D01*
X0155881Y0219433D02*
X0194719Y0219433D01*
X0194719Y0220631D02*
X0155881Y0220631D01*
X0155881Y0221830D02*
X0194719Y0221830D01*
X0194719Y0218234D02*
X0021475Y0218234D01*
X0021475Y0218172D02*
X0021475Y0221032D01*
X0021366Y0221439D01*
X0021155Y0221804D01*
X0020857Y0222102D01*
X0020493Y0222313D01*
X0020086Y0222422D01*
X0017225Y0222422D01*
X0017225Y0218172D01*
X0021475Y0218172D01*
X0021475Y0217036D02*
X0194741Y0217036D01*
X0197800Y0219495D02*
X0218800Y0219495D01*
X0215719Y0221830D02*
X0200881Y0221830D01*
X0200859Y0217036D02*
X0215741Y0217036D01*
X0219719Y0214639D02*
X0139881Y0214639D01*
X0150014Y0224227D02*
X0121586Y0224227D01*
X0116014Y0224227D02*
X0007200Y0224227D01*
X0007200Y0225425D02*
X0396330Y0225425D01*
X0395440Y0226624D02*
X0007200Y0226624D01*
X0007200Y0227822D02*
X0395054Y0227822D01*
X0395031Y0229021D02*
X0007200Y0229021D01*
X0007200Y0230219D02*
X0395365Y0230219D01*
X0406975Y0215837D02*
X0412165Y0215837D01*
X0416400Y0212242D02*
X0369571Y0212242D01*
X0369881Y0211043D02*
X0396516Y0211043D01*
X0396063Y0210591D02*
X0395500Y0209231D01*
X0395500Y0207759D01*
X0396063Y0206399D01*
X0397104Y0205358D01*
X0398464Y0204795D01*
X0405136Y0204795D01*
X0406496Y0205358D01*
X0407537Y0206399D01*
X0408100Y0207759D01*
X0408100Y0209231D01*
X0407537Y0210591D01*
X0406496Y0211632D01*
X0405136Y0212195D01*
X0398464Y0212195D01*
X0397104Y0211632D01*
X0396063Y0210591D01*
X0395754Y0209845D02*
X0369881Y0209845D01*
X0369881Y0208646D02*
X0395500Y0208646D01*
X0395629Y0207448D02*
X0369881Y0207448D01*
X0368500Y0206249D02*
X0385037Y0206249D01*
X0384719Y0205932D02*
X0384719Y0201058D01*
X0385363Y0200414D01*
X0386100Y0200414D01*
X0386100Y0193576D01*
X0385363Y0193576D01*
X0384719Y0192932D01*
X0384719Y0188058D01*
X0385363Y0187414D01*
X0390237Y0187414D01*
X0390881Y0188058D01*
X0390881Y0192932D01*
X0390237Y0193576D01*
X0389500Y0193576D01*
X0389500Y0200414D01*
X0390237Y0200414D01*
X0390881Y0201058D01*
X0390881Y0205932D01*
X0390237Y0206576D01*
X0385363Y0206576D01*
X0384719Y0205932D01*
X0384719Y0205051D02*
X0368500Y0205051D01*
X0368500Y0203852D02*
X0384719Y0203852D01*
X0384719Y0202654D02*
X0368500Y0202654D01*
X0368500Y0201455D02*
X0384719Y0201455D01*
X0386100Y0200257D02*
X0368500Y0200257D01*
X0368500Y0199058D02*
X0386100Y0199058D01*
X0386100Y0197860D02*
X0368500Y0197860D01*
X0368500Y0196661D02*
X0386100Y0196661D01*
X0386100Y0195463D02*
X0368500Y0195463D01*
X0368500Y0194264D02*
X0386100Y0194264D01*
X0384853Y0193066D02*
X0368500Y0193066D01*
X0368500Y0191867D02*
X0384719Y0191867D01*
X0384719Y0190669D02*
X0368500Y0190669D01*
X0368500Y0189470D02*
X0384719Y0189470D01*
X0384719Y0188272D02*
X0368500Y0188272D01*
X0368500Y0187073D02*
X0395784Y0187073D01*
X0396063Y0186399D02*
X0397104Y0185358D01*
X0398464Y0184795D01*
X0405136Y0184795D01*
X0406496Y0185358D01*
X0407537Y0186399D01*
X0408100Y0187759D01*
X0408100Y0189231D01*
X0407537Y0190591D01*
X0406496Y0191632D01*
X0405136Y0192195D01*
X0398464Y0192195D01*
X0397104Y0191632D01*
X0396063Y0190591D01*
X0395500Y0189231D01*
X0395500Y0187759D01*
X0396063Y0186399D01*
X0395881Y0185874D02*
X0396588Y0185874D01*
X0395881Y0184676D02*
X0416400Y0184676D01*
X0416400Y0185874D02*
X0407012Y0185874D01*
X0407816Y0187073D02*
X0416400Y0187073D01*
X0416400Y0188272D02*
X0408100Y0188272D01*
X0408001Y0189470D02*
X0416400Y0189470D01*
X0416400Y0190669D02*
X0407459Y0190669D01*
X0405927Y0191867D02*
X0416400Y0191867D01*
X0416400Y0193066D02*
X0390747Y0193066D01*
X0390881Y0191867D02*
X0397673Y0191867D01*
X0396141Y0190669D02*
X0390881Y0190669D01*
X0390881Y0189470D02*
X0395599Y0189470D01*
X0395500Y0188272D02*
X0390881Y0188272D01*
X0389719Y0185874D02*
X0368500Y0185874D01*
X0365100Y0185874D02*
X0361011Y0185874D01*
X0362333Y0187073D02*
X0365100Y0187073D01*
X0365100Y0188272D02*
X0362684Y0188272D01*
X0362518Y0189470D02*
X0365100Y0189470D01*
X0365100Y0190669D02*
X0361705Y0190669D01*
X0359800Y0188495D02*
X0262800Y0188495D01*
X0264011Y0185874D02*
X0270101Y0185874D01*
X0271800Y0183495D02*
X0272800Y0184495D01*
X0332800Y0184495D01*
X0335500Y0183477D02*
X0365100Y0183477D01*
X0365100Y0184676D02*
X0335684Y0184676D01*
X0335350Y0185874D02*
X0358589Y0185874D01*
X0357895Y0190669D02*
X0277381Y0190669D01*
X0277381Y0191867D02*
X0365100Y0191867D01*
X0365612Y0182279D02*
X0334663Y0182279D01*
X0330937Y0182279D02*
X0274418Y0182279D01*
X0273465Y0181080D02*
X0389719Y0181080D01*
X0387800Y0190495D02*
X0387800Y0203495D01*
X0390881Y0203852D02*
X0416400Y0203852D01*
X0416400Y0202654D02*
X0390881Y0202654D01*
X0390881Y0201455D02*
X0396928Y0201455D01*
X0397104Y0201632D02*
X0396063Y0200591D01*
X0395500Y0199231D01*
X0395500Y0197759D01*
X0396063Y0196399D01*
X0397104Y0195358D01*
X0398464Y0194795D01*
X0405136Y0194795D01*
X0406496Y0195358D01*
X0407537Y0196399D01*
X0408100Y0197759D01*
X0408100Y0199231D01*
X0407537Y0200591D01*
X0406496Y0201632D01*
X0405136Y0202195D01*
X0398464Y0202195D01*
X0397104Y0201632D01*
X0395925Y0200257D02*
X0389500Y0200257D01*
X0389500Y0199058D02*
X0395500Y0199058D01*
X0395500Y0197860D02*
X0389500Y0197860D01*
X0389500Y0196661D02*
X0395955Y0196661D01*
X0397000Y0195463D02*
X0389500Y0195463D01*
X0389500Y0194264D02*
X0416400Y0194264D01*
X0416400Y0195463D02*
X0406600Y0195463D01*
X0407645Y0196661D02*
X0416400Y0196661D01*
X0416400Y0197860D02*
X0408100Y0197860D01*
X0408100Y0199058D02*
X0416400Y0199058D01*
X0416400Y0200257D02*
X0407675Y0200257D01*
X0406672Y0201455D02*
X0416400Y0201455D01*
X0416400Y0205051D02*
X0405754Y0205051D01*
X0407387Y0206249D02*
X0416400Y0206249D01*
X0416400Y0207448D02*
X0407971Y0207448D01*
X0408100Y0208646D02*
X0416400Y0208646D01*
X0416400Y0209845D02*
X0407846Y0209845D01*
X0407084Y0211043D02*
X0416400Y0211043D01*
X0416400Y0220631D02*
X0416021Y0220631D01*
X0397846Y0205051D02*
X0390881Y0205051D01*
X0390563Y0206249D02*
X0396213Y0206249D01*
X0341875Y0175088D02*
X0321725Y0175088D01*
X0321881Y0170294D02*
X0341719Y0170294D01*
X0315719Y0170294D02*
X0302881Y0170294D01*
X0302725Y0175088D02*
X0315875Y0175088D01*
X0252483Y0200257D02*
X0227117Y0200257D01*
X0225668Y0209845D02*
X0245661Y0209845D01*
X0244865Y0214639D02*
X0225881Y0214639D01*
X0210800Y0205495D02*
X0193800Y0205495D01*
X0190991Y0206249D02*
X0185708Y0206249D01*
X0184800Y0208995D02*
X0206800Y0208995D01*
X0191364Y0203852D02*
X0181684Y0203852D01*
X0181277Y0205051D02*
X0190916Y0205051D01*
X0176761Y0201455D02*
X0164839Y0201455D01*
X0115719Y0219433D02*
X0021475Y0219433D01*
X0021475Y0220631D02*
X0115719Y0220631D01*
X0115719Y0221830D02*
X0021130Y0221830D01*
X0017225Y0221830D02*
X0016375Y0221830D01*
X0016375Y0220631D02*
X0017225Y0220631D01*
X0017225Y0219433D02*
X0016375Y0219433D01*
X0016375Y0218234D02*
X0017225Y0218234D01*
X0012125Y0218234D02*
X0007200Y0218234D01*
X0007200Y0217036D02*
X0012125Y0217036D01*
X0012125Y0215837D02*
X0007200Y0215837D01*
X0007200Y0214639D02*
X0012125Y0214639D01*
X0012694Y0213440D02*
X0007200Y0213440D01*
X0007200Y0219433D02*
X0012125Y0219433D01*
X0012125Y0220631D02*
X0007200Y0220631D01*
X0007200Y0221830D02*
X0012470Y0221830D01*
X0007200Y0223028D02*
X0115719Y0223028D01*
X0102432Y0238609D02*
X0160100Y0238609D01*
X0114373Y0256587D02*
X0067700Y0256587D01*
X0071275Y0257785D02*
X0114373Y0257785D01*
X0114373Y0258984D02*
X0071275Y0258984D01*
X0071275Y0260182D02*
X0114373Y0260182D01*
X0114373Y0261381D02*
X0071275Y0261381D01*
X0071275Y0262579D02*
X0114927Y0262579D01*
X0102881Y0243403D02*
X0416400Y0243403D01*
X0416400Y0244602D02*
X0067700Y0244602D01*
X0067700Y0245800D02*
X0416400Y0245800D01*
X0416400Y0246999D02*
X0067700Y0246999D01*
X0067700Y0248197D02*
X0416400Y0248197D01*
X0416400Y0249396D02*
X0067700Y0249396D01*
X0067700Y0250594D02*
X0416400Y0250594D01*
X0416400Y0251793D02*
X0067700Y0251793D01*
X0067700Y0252991D02*
X0416400Y0252991D01*
X0416400Y0254190D02*
X0379156Y0254190D01*
X0379105Y0254139D02*
X0379403Y0254437D01*
X0379614Y0254802D01*
X0379723Y0255209D01*
X0379723Y0258070D01*
X0375473Y0258070D01*
X0375473Y0258920D01*
X0374623Y0258920D01*
X0374623Y0258070D01*
X0375473Y0258070D01*
X0375473Y0253820D01*
X0378334Y0253820D01*
X0378741Y0253929D01*
X0379105Y0254139D01*
X0379723Y0255388D02*
X0389377Y0255388D01*
X0389377Y0254964D02*
X0390021Y0254320D01*
X0397083Y0254320D01*
X0397727Y0254964D01*
X0397727Y0262025D01*
X0397083Y0262670D01*
X0390021Y0262670D01*
X0389377Y0262025D01*
X0389377Y0254964D01*
X0389377Y0256587D02*
X0379723Y0256587D01*
X0379723Y0257785D02*
X0389377Y0257785D01*
X0389377Y0258984D02*
X0379723Y0258984D01*
X0379723Y0258920D02*
X0379723Y0261780D01*
X0379614Y0262187D01*
X0379403Y0262552D01*
X0379105Y0262850D01*
X0378741Y0263061D01*
X0378334Y0263170D01*
X0375473Y0263170D01*
X0375473Y0258920D01*
X0379723Y0258920D01*
X0379723Y0260182D02*
X0389377Y0260182D01*
X0389377Y0261381D02*
X0379723Y0261381D01*
X0379376Y0262579D02*
X0389931Y0262579D01*
X0397173Y0262579D02*
X0416400Y0262579D01*
X0416400Y0261381D02*
X0397727Y0261381D01*
X0397727Y0260182D02*
X0416400Y0260182D01*
X0416400Y0258984D02*
X0397727Y0258984D01*
X0397727Y0257785D02*
X0416400Y0257785D01*
X0416400Y0256587D02*
X0397727Y0256587D01*
X0397727Y0255388D02*
X0416400Y0255388D01*
X0416400Y0263778D02*
X0071275Y0263778D01*
X0071275Y0264976D02*
X0416400Y0264976D01*
X0416400Y0266175D02*
X0061115Y0266175D01*
X0061157Y0266150D02*
X0060793Y0266361D01*
X0060386Y0266470D01*
X0057325Y0266470D01*
X0057325Y0262020D01*
X0056275Y0262020D01*
X0056275Y0266470D01*
X0053214Y0266470D01*
X0052807Y0266361D01*
X0052443Y0266150D01*
X0052145Y0265852D01*
X0051934Y0265487D01*
X0051825Y0265080D01*
X0051825Y0262020D01*
X0056275Y0262020D01*
X0056275Y0260970D01*
X0051825Y0260970D01*
X0051825Y0257909D01*
X0051934Y0257502D01*
X0052145Y0257137D01*
X0052443Y0256839D01*
X0052807Y0256629D01*
X0053214Y0256520D01*
X0056275Y0256520D01*
X0056275Y0260970D01*
X0057325Y0260970D01*
X0057325Y0262020D01*
X0061775Y0262020D01*
X0061775Y0265080D01*
X0061666Y0265487D01*
X0061455Y0265852D01*
X0061157Y0266150D01*
X0061775Y0264976D02*
X0062325Y0264976D01*
X0062325Y0263778D02*
X0061775Y0263778D01*
X0061775Y0262579D02*
X0062325Y0262579D01*
X0062325Y0261381D02*
X0057325Y0261381D01*
X0057325Y0260970D02*
X0061775Y0260970D01*
X0061775Y0257909D01*
X0061666Y0257502D01*
X0061455Y0257137D01*
X0061157Y0256839D01*
X0060793Y0256629D01*
X0060386Y0256520D01*
X0057325Y0256520D01*
X0057325Y0260970D01*
X0057325Y0260182D02*
X0056275Y0260182D01*
X0056275Y0258984D02*
X0057325Y0258984D01*
X0057325Y0257785D02*
X0056275Y0257785D01*
X0056275Y0256587D02*
X0057325Y0256587D01*
X0060635Y0256587D02*
X0063900Y0256587D01*
X0063900Y0255388D02*
X0007200Y0255388D01*
X0007200Y0254190D02*
X0063900Y0254190D01*
X0063900Y0252991D02*
X0007200Y0252991D01*
X0007200Y0251793D02*
X0063900Y0251793D01*
X0063900Y0250594D02*
X0007200Y0250594D01*
X0007200Y0249396D02*
X0063900Y0249396D01*
X0063900Y0248197D02*
X0020551Y0248197D01*
X0020331Y0248418D02*
X0020975Y0247773D01*
X0020975Y0240712D01*
X0020331Y0240068D01*
X0013269Y0240068D01*
X0012625Y0240712D01*
X0012625Y0247773D01*
X0013269Y0248418D01*
X0020331Y0248418D01*
X0020975Y0246999D02*
X0063900Y0246999D01*
X0063900Y0245800D02*
X0020975Y0245800D01*
X0020975Y0244602D02*
X0063900Y0244602D01*
X0063900Y0243403D02*
X0020975Y0243403D01*
X0020975Y0242205D02*
X0063900Y0242205D01*
X0063900Y0241006D02*
X0020975Y0241006D01*
X0012625Y0241006D02*
X0007200Y0241006D01*
X0007200Y0242205D02*
X0012625Y0242205D01*
X0012625Y0243403D02*
X0007200Y0243403D01*
X0007200Y0244602D02*
X0012625Y0244602D01*
X0012625Y0245800D02*
X0007200Y0245800D01*
X0007200Y0246999D02*
X0012625Y0246999D01*
X0013049Y0248197D02*
X0007200Y0248197D01*
X0007200Y0239807D02*
X0063900Y0239807D01*
X0062719Y0238609D02*
X0007200Y0238609D01*
X0007200Y0237410D02*
X0062719Y0237410D01*
X0062719Y0236212D02*
X0007200Y0236212D01*
X0007200Y0235013D02*
X0062719Y0235013D01*
X0062962Y0233815D02*
X0007200Y0233815D01*
X0007200Y0256587D02*
X0052965Y0256587D01*
X0051858Y0257785D02*
X0051275Y0257785D01*
X0051275Y0257664D02*
X0051275Y0265325D01*
X0050631Y0265970D01*
X0042969Y0265970D01*
X0042325Y0265325D01*
X0042325Y0257664D01*
X0042969Y0257020D01*
X0050631Y0257020D01*
X0051275Y0257664D01*
X0051275Y0258984D02*
X0051825Y0258984D01*
X0051825Y0260182D02*
X0051275Y0260182D01*
X0051275Y0261381D02*
X0056275Y0261381D01*
X0056275Y0262579D02*
X0057325Y0262579D01*
X0057325Y0263778D02*
X0056275Y0263778D01*
X0056275Y0264976D02*
X0057325Y0264976D01*
X0057325Y0266175D02*
X0056275Y0266175D01*
X0052485Y0266175D02*
X0021437Y0266175D01*
X0021475Y0266032D02*
X0021366Y0266439D01*
X0021155Y0266804D01*
X0020857Y0267102D01*
X0020493Y0267313D01*
X0020086Y0267422D01*
X0017225Y0267422D01*
X0017225Y0263172D01*
X0016375Y0263172D01*
X0016375Y0267422D01*
X0013514Y0267422D01*
X0013107Y0267313D01*
X0012743Y0267102D01*
X0012445Y0266804D01*
X0012234Y0266439D01*
X0012125Y0266032D01*
X0012125Y0263172D01*
X0016375Y0263172D01*
X0016375Y0262322D01*
X0012125Y0262322D01*
X0012125Y0259461D01*
X0012234Y0259054D01*
X0012445Y0258689D01*
X0012743Y0258391D01*
X0013107Y0258181D01*
X0013514Y0258072D01*
X0016375Y0258072D01*
X0016375Y0262322D01*
X0017225Y0262322D01*
X0017225Y0263172D01*
X0021475Y0263172D01*
X0021475Y0266032D01*
X0021475Y0264976D02*
X0042325Y0264976D01*
X0042325Y0263778D02*
X0021475Y0263778D01*
X0021475Y0262322D02*
X0017225Y0262322D01*
X0017225Y0258072D01*
X0020086Y0258072D01*
X0020493Y0258181D01*
X0020857Y0258391D01*
X0021155Y0258689D01*
X0021366Y0259054D01*
X0021475Y0259461D01*
X0021475Y0262322D01*
X0021475Y0261381D02*
X0042325Y0261381D01*
X0042325Y0262579D02*
X0017225Y0262579D01*
X0016375Y0262579D02*
X0007200Y0262579D01*
X0007200Y0261381D02*
X0012125Y0261381D01*
X0012125Y0260182D02*
X0007200Y0260182D01*
X0007200Y0258984D02*
X0012275Y0258984D01*
X0016375Y0258984D02*
X0017225Y0258984D01*
X0017225Y0260182D02*
X0016375Y0260182D01*
X0016375Y0261381D02*
X0017225Y0261381D01*
X0017225Y0263778D02*
X0016375Y0263778D01*
X0016375Y0264976D02*
X0017225Y0264976D01*
X0017225Y0266175D02*
X0016375Y0266175D01*
X0016375Y0267373D02*
X0017225Y0267373D01*
X0020267Y0267373D02*
X0416400Y0267373D01*
X0375473Y0262579D02*
X0374623Y0262579D01*
X0374623Y0261381D02*
X0375473Y0261381D01*
X0375473Y0260182D02*
X0374623Y0260182D01*
X0374623Y0258984D02*
X0375473Y0258984D01*
X0375473Y0257785D02*
X0374623Y0257785D01*
X0374623Y0256587D02*
X0375473Y0256587D01*
X0375473Y0255388D02*
X0374623Y0255388D01*
X0374623Y0254190D02*
X0375473Y0254190D01*
X0307977Y0254190D02*
X0307127Y0254190D01*
X0307127Y0255388D02*
X0307977Y0255388D01*
X0307977Y0256587D02*
X0307127Y0256587D01*
X0307127Y0257785D02*
X0307977Y0257785D01*
X0249665Y0194264D02*
X0007200Y0194264D01*
X0007200Y0176286D02*
X0012193Y0176286D01*
X0012125Y0175088D02*
X0007200Y0175088D01*
X0007200Y0257785D02*
X0042325Y0257785D01*
X0042325Y0258984D02*
X0021325Y0258984D01*
X0021475Y0260182D02*
X0042325Y0260182D01*
X0051275Y0262579D02*
X0051825Y0262579D01*
X0051825Y0263778D02*
X0051275Y0263778D01*
X0051275Y0264976D02*
X0051825Y0264976D01*
X0061775Y0260182D02*
X0062325Y0260182D01*
X0062325Y0258984D02*
X0061775Y0258984D01*
X0061742Y0257785D02*
X0062325Y0257785D01*
X0013333Y0267373D02*
X0007200Y0267373D01*
X0007200Y0266175D02*
X0012163Y0266175D01*
X0012125Y0264976D02*
X0007200Y0264976D01*
X0007200Y0263778D02*
X0012125Y0263778D01*
X0248800Y0156495D02*
X0249800Y0155495D01*
X0310629Y0066023D02*
X0311489Y0066023D01*
X0311489Y0055237D02*
X0308946Y0055237D01*
D19*
X0189800Y0156995D02*
X0176800Y0156995D01*
X0170300Y0163495D01*
X0136800Y0212495D02*
X0222800Y0212495D01*
X0227800Y0233495D02*
X0227800Y0234495D01*
X0161800Y0234495D01*
X0152800Y0221495D02*
X0118800Y0221495D01*
X0065800Y0236495D02*
X0065800Y0261495D01*
X0066800Y0261495D01*
X0227800Y0233495D02*
X0322800Y0233495D01*
X0362800Y0258495D02*
X0362800Y0264495D01*
X0401800Y0264495D01*
X0401800Y0228495D01*
X0375048Y0258495D02*
X0362800Y0258495D01*
X0369800Y0172495D02*
X0344800Y0172495D01*
X0318800Y0172495D01*
X0299800Y0172495D01*
D20*
X0178800Y0203495D02*
X0162800Y0203495D01*
X0143800Y0197495D02*
X0142052Y0199243D01*
X0016800Y0199243D01*
X0026052Y0163495D02*
X0016800Y0154243D01*
X0026052Y0163495D02*
X0149800Y0163495D01*
X0154800Y0151495D02*
X0153800Y0150495D01*
X0030800Y0150495D01*
X0016800Y0136495D01*
X0016800Y0127747D01*
X0079800Y0143495D02*
X0094800Y0143495D01*
X0097800Y0146495D01*
X0125800Y0133495D02*
X0129800Y0137495D01*
X0141800Y0137495D01*
X0144800Y0143495D02*
X0129800Y0143495D01*
X0125800Y0133495D02*
X0125800Y0104495D01*
X0119800Y0098495D01*
X0128800Y0107495D02*
X0129800Y0106495D01*
X0162800Y0106495D01*
X0160800Y0111495D02*
X0141800Y0111495D01*
X0129800Y0117495D02*
X0128800Y0116495D01*
X0128800Y0107495D01*
X0103800Y0077495D02*
X0056800Y0077495D01*
X0056800Y0068495D01*
X0066800Y0068495D02*
X0083800Y0068495D01*
X0079800Y0043495D02*
X0046800Y0043495D01*
X0046800Y0053495D01*
D21*
X0169800Y0128995D03*
X0301800Y0048495D03*
X0308800Y0063495D03*
X0414800Y0123495D03*
X0413800Y0218495D03*
M02*
