G75*
%MOIN*%
%OFA0B0*%
%FSLAX25Y25*%
%IPPOS*%
%LPD*%
%AMOC8*
5,1,8,0,0,1.08239X$1,22.5*
%
%ADD10C,0.06000*%
%ADD11R,0.06343X0.06343*%
%ADD12R,0.07550X0.07550*%
%ADD13R,0.06950X0.06950*%
%ADD14C,0.04769*%
%ADD15C,0.06800*%
%ADD16C,0.04369*%
%ADD17R,0.04762X0.04762*%
%ADD18C,0.04762*%
D10*
X0399200Y0188495D02*
X0404400Y0188495D01*
X0404400Y0198495D02*
X0399200Y0198495D01*
X0399200Y0208495D02*
X0404400Y0208495D01*
X0404400Y0218495D02*
X0399200Y0218495D01*
X0399200Y0228495D02*
X0404400Y0228495D01*
D11*
X0396800Y0151495D03*
X0396800Y0130495D03*
X0291800Y0098995D03*
X0291800Y0077995D03*
X0016800Y0067995D03*
X0016800Y0088995D03*
D12*
X0046800Y0261495D03*
X0056800Y0261495D03*
X0066800Y0261495D03*
D13*
X0012548Y0023495D03*
X0031052Y0023495D03*
X0057548Y0023495D03*
X0076052Y0023495D03*
X0102548Y0023495D03*
X0121052Y0023495D03*
X0152548Y0023495D03*
X0171052Y0023495D03*
X0202548Y0023495D03*
X0221052Y0023495D03*
X0247548Y0023495D03*
X0266052Y0023495D03*
X0016800Y0109243D03*
X0016800Y0127747D03*
X0016800Y0154243D03*
X0016800Y0172747D03*
X0016800Y0199243D03*
X0016800Y0217747D03*
X0016800Y0244243D03*
X0016800Y0262747D03*
X0118548Y0258495D03*
X0137052Y0258495D03*
X0159548Y0258495D03*
X0178052Y0258495D03*
X0202548Y0258495D03*
X0221052Y0258495D03*
X0272548Y0258495D03*
X0291052Y0258495D03*
X0317548Y0258495D03*
X0336052Y0258495D03*
X0362548Y0258495D03*
X0381052Y0258495D03*
D14*
X0222643Y0045495D03*
X0202957Y0045495D03*
D15*
X0066800Y0050495D02*
X0066800Y0056495D01*
X0056800Y0056495D02*
X0056800Y0050495D01*
X0046800Y0050495D02*
X0046800Y0056495D01*
X0046800Y0065495D02*
X0046800Y0071495D01*
X0056800Y0071495D02*
X0056800Y0065495D01*
X0066800Y0065495D02*
X0066800Y0071495D01*
D16*
X0083800Y0068495D03*
X0103800Y0077495D03*
X0119800Y0098495D03*
X0128800Y0103495D03*
X0141800Y0111495D03*
X0138800Y0115495D03*
X0129800Y0117495D03*
X0129800Y0137495D03*
X0129800Y0143495D03*
X0141800Y0137495D03*
X0144800Y0143495D03*
X0154800Y0151495D03*
X0149800Y0163495D03*
X0121800Y0182495D03*
X0143800Y0197495D03*
X0162800Y0203495D03*
X0178800Y0203495D03*
X0184800Y0208995D03*
X0193800Y0205495D03*
X0206800Y0208995D03*
X0210800Y0205495D03*
X0224800Y0198495D03*
X0246800Y0212495D03*
X0254800Y0198495D03*
X0262800Y0188495D03*
X0271800Y0183495D03*
X0246800Y0178495D03*
X0231800Y0182495D03*
X0237800Y0166495D03*
X0225800Y0163495D03*
X0219300Y0164995D03*
X0229800Y0155495D03*
X0222800Y0147995D03*
X0199800Y0156995D03*
X0189800Y0156995D03*
X0194300Y0147995D03*
X0222800Y0128495D03*
X0233800Y0128495D03*
X0229800Y0115495D03*
X0211800Y0115495D03*
X0162800Y0106495D03*
X0160800Y0111495D03*
X0158800Y0115495D03*
X0099800Y0120495D03*
X0097800Y0126495D03*
X0099800Y0137235D03*
X0097800Y0146495D03*
X0084800Y0135495D03*
X0048800Y0127995D03*
X0053060Y0177235D03*
X0085800Y0177495D03*
X0062800Y0211495D03*
X0071800Y0220495D03*
X0092800Y0218495D03*
X0126800Y0211495D03*
X0249800Y0155495D03*
X0286800Y0147495D03*
X0292800Y0152495D03*
X0297300Y0147495D03*
X0286800Y0136495D03*
X0283800Y0129495D03*
X0297300Y0129495D03*
X0300800Y0115495D03*
X0321800Y0129495D03*
X0329800Y0129495D03*
X0321800Y0140495D03*
X0320800Y0147495D03*
X0332800Y0148495D03*
X0365800Y0141495D03*
X0364800Y0129495D03*
X0372800Y0127495D03*
X0373800Y0119495D03*
X0362800Y0118495D03*
X0329800Y0115495D03*
X0309800Y0090495D03*
X0276800Y0090495D03*
X0267800Y0094495D03*
X0266800Y0043495D03*
X0310800Y0036495D03*
X0327800Y0039495D03*
X0331800Y0033495D03*
X0378800Y0163495D03*
X0359800Y0188495D03*
X0332800Y0184495D03*
X0292800Y0165495D03*
X0079800Y0043495D03*
X0013300Y0041995D03*
D17*
X0078800Y0093495D03*
X0084800Y0111495D03*
X0036800Y0138495D03*
X0031800Y0111495D03*
X0079800Y0143495D03*
X0130800Y0157495D03*
X0139800Y0157495D03*
X0170300Y0163495D03*
X0136800Y0212495D03*
X0152800Y0221495D03*
X0161800Y0234495D03*
X0197800Y0219495D03*
X0218800Y0219495D03*
X0222800Y0212495D03*
X0227800Y0234495D03*
X0322800Y0233495D03*
X0366800Y0209495D03*
X0387800Y0203495D03*
X0387800Y0190495D03*
X0392800Y0183495D03*
X0409800Y0172495D03*
X0369800Y0172495D03*
X0344800Y0172495D03*
X0318800Y0172495D03*
X0299800Y0172495D03*
X0376800Y0109495D03*
X0404800Y0110495D03*
X0306800Y0069495D03*
X0285800Y0064495D03*
X0280800Y0069495D03*
X0260800Y0070495D03*
X0244800Y0078495D03*
X0238800Y0064495D03*
X0216800Y0061495D03*
X0201800Y0074495D03*
X0205800Y0086495D03*
X0211800Y0090495D03*
X0191800Y0093495D03*
X0187800Y0048495D03*
X0155800Y0048495D03*
X0118800Y0221495D03*
X0099800Y0241495D03*
X0065800Y0236495D03*
D18*
X0169800Y0128995D03*
X0301800Y0048495D03*
X0308800Y0063495D03*
X0414800Y0123495D03*
X0413800Y0218495D03*
M02*
