%
M48
M72
T01C0.01969
T02C0.02362
T03C0.03200
T04C0.03543
T05C0.04000
T06C0.04100
T07C0.04500
%
T01
X13300Y41995
X79800Y43495
X83800Y68495
X103800Y77495
X119800Y98495
X128800Y103495
X141800Y111495
X138800Y115495
X129800Y117495
X129800Y137495
X129800Y143495
X141800Y137495
X144800Y143495
X154800Y151495
X149800Y163495
X121800Y182495
X143800Y197495
X162800Y203495
X178800Y203495
X184800Y208995
X193800Y205495
X206800Y208995
X210800Y205495
X224800Y198495
X246800Y212495
X254800Y198495
X262800Y188495
X271800Y183495
X246800Y178495
X231800Y182495
X237800Y166495
X225800Y163495
X219300Y164995
X229800Y155495
X222800Y147995
X199800Y156995
X189800Y156995
X194300Y147995
X222800Y128495
X233800Y128495
X229800Y115495
X211800Y115495
X162800Y106495
X160800Y111495
X158800Y115495
X99800Y120495
X97800Y126495
X99800Y137235
X97800Y146495
X84800Y135495
X48800Y127995
X53060Y177235
X85800Y177495
X62800Y211495
X71800Y220495
X92800Y218495
X126800Y211495
X249800Y155495
X286800Y147495
X292800Y152495
X297300Y147495
X286800Y136495
X283800Y129495
X297300Y129495
X300800Y115495
X321800Y129495
X329800Y129495
X321800Y140495
X320800Y147495
X332800Y148495
X365800Y141495
X364800Y129495
X372800Y127495
X373800Y119495
X362800Y118495
X329800Y115495
X309800Y90495
X276800Y90495
X267800Y94495
X222643Y45495
X202957Y45495
X266800Y43495
X310800Y36495
X327800Y39495
X331800Y33495
X378800Y163495
X359800Y188495
X332800Y184495
X292800Y165495
T02
X299800Y172495
X318800Y172495
X344800Y172495
X369800Y172495
X392800Y183495
X387800Y190495
X387800Y203495
X366800Y209495
X322800Y233495
X413800Y218495
X409800Y172495
X414800Y123495
X404800Y110495
X376800Y109495
X308800Y63495
X306800Y69495
X285800Y64495
X280800Y69495
X260800Y70495
X244800Y78495
X238800Y64495
X216800Y61495
X201800Y74495
X205800Y86495
X211800Y90495
X191800Y93495
X169800Y128995
X139800Y157495
X130800Y157495
X170300Y163495
X136800Y212495
X152800Y221495
X161800Y234495
X197800Y219495
X218800Y219495
X222800Y212495
X227800Y234495
X118800Y221495
X99800Y241495
X65800Y236495
X79800Y143495
X36800Y138495
X31800Y111495
X78800Y93495
X84800Y111495
X155800Y48495
X187800Y48495
X301800Y48495
T03
X401800Y188495
X401800Y198495
X401800Y208495
X401800Y218495
X401800Y228495
T04
X396800Y151495
X396800Y130495
X291800Y98995
X291800Y77995
X16800Y67995
X16800Y88995
T05
X46800Y68495
X56800Y68495
X66800Y68495
X66800Y53495
X56800Y53495
X46800Y53495
T06
X12548Y23495
X31052Y23495
X57548Y23495
X76052Y23495
X102548Y23495
X121052Y23495
X152548Y23495
X171052Y23495
X202548Y23495
X221052Y23495
X247548Y23495
X266052Y23495
X16800Y109243
X16800Y127747
X16800Y154243
X16800Y172747
X16800Y199243
X16800Y217747
X16800Y244243
X16800Y262747
X118548Y258495
X137052Y258495
X159548Y258495
X178052Y258495
X202548Y258495
X221052Y258495
X272548Y258495
X291052Y258495
X317548Y258495
X336052Y258495
X362548Y258495
X381052Y258495
T07
X66800Y261495
X56800Y261495
X46800Y261495
M30
