G75*
%MOIN*%
%OFA0B0*%
%FSLAX25Y25*%
%IPPOS*%
%LPD*%
%AMOC8*
5,1,8,0,0,1.08239X$1,22.5*
%
%ADD10C,0.01600*%
%ADD11R,0.05906X0.05118*%
%ADD12R,0.05118X0.05906*%
%ADD13C,0.05200*%
%ADD14C,0.00500*%
%ADD15R,0.05512X0.03543*%
%ADD16R,0.03543X0.05512*%
%ADD17R,0.01772X0.04921*%
%ADD18R,0.05543X0.05543*%
%ADD19R,0.06750X0.06750*%
%ADD20R,0.06150X0.06150*%
%ADD21R,0.08000X0.02600*%
%ADD22R,0.09000X0.13100*%
%ADD23R,0.03300X0.06300*%
%ADD24R,0.13000X0.07500*%
%ADD25R,0.05512X0.03937*%
%ADD26R,0.05906X0.01378*%
%ADD27R,0.01378X0.05906*%
%ADD28C,0.03969*%
%ADD29C,0.06000*%
%ADD30R,0.03937X0.05512*%
%ADD31C,0.01200*%
%ADD32C,0.03569*%
%ADD33R,0.03962X0.03962*%
%ADD34C,0.02400*%
%ADD35C,0.01000*%
%ADD36C,0.03962*%
D10*
X0001800Y0008495D02*
X0001800Y0273495D01*
X0421800Y0273495D01*
X0421800Y0008495D01*
X0001800Y0008495D01*
X0031052Y0015495D02*
X0031052Y0023495D01*
X0031800Y0023495D01*
X0031800Y0015495D01*
X0076052Y0015495D01*
X0076052Y0023495D01*
X0076800Y0023495D01*
X0076800Y0015495D01*
X0121052Y0015495D01*
X0121052Y0023495D01*
X0121800Y0023495D01*
X0121800Y0015495D01*
X0171052Y0015495D01*
X0171052Y0023495D01*
X0171800Y0023495D01*
X0171800Y0015495D01*
X0221052Y0015495D01*
X0221052Y0023495D01*
X0221052Y0015495D02*
X0266800Y0015495D01*
X0266800Y0023495D01*
X0266052Y0023495D01*
X0224800Y0045495D02*
X0224800Y0056755D01*
X0224800Y0045495D02*
X0222643Y0045495D01*
X0204800Y0045495D02*
X0204800Y0056755D01*
X0204800Y0045495D02*
X0202957Y0045495D01*
X0309800Y0090495D02*
X0309800Y0110995D01*
X0334300Y0110995D01*
X0334300Y0114495D01*
X0340560Y0114495D01*
X0340560Y0123995D01*
X0348040Y0123995D02*
X0348040Y0114495D01*
X0348300Y0114495D01*
X0348300Y0106995D01*
X0332127Y0106995D01*
X0332127Y0100149D01*
X0337127Y0100149D01*
X0348040Y0123995D02*
X0348040Y0134495D01*
X0351800Y0134495D01*
X0356800Y0134495D01*
X0356800Y0134755D01*
X0356800Y0133495D01*
X0358800Y0133495D01*
X0376800Y0133495D01*
X0376800Y0134755D01*
X0376800Y0134495D01*
X0383800Y0134495D01*
X0383800Y0196495D01*
X0375800Y0196495D01*
X0375800Y0203235D01*
X0374060Y0203235D01*
X0374060Y0204495D01*
X0374060Y0203235D02*
X0366800Y0203235D01*
X0352800Y0204235D01*
X0337800Y0204235D01*
X0319800Y0204235D01*
X0301800Y0204235D01*
X0301800Y0196755D02*
X0301800Y0196495D01*
X0305800Y0196495D01*
X0305800Y0162235D01*
X0301131Y0162235D01*
X0311800Y0162235D01*
X0311800Y0141235D01*
X0311800Y0133755D02*
X0331800Y0134755D01*
X0331800Y0134495D01*
X0336800Y0134495D01*
X0336800Y0134755D01*
X0356800Y0134755D01*
X0358800Y0134755D01*
X0358800Y0133495D01*
X0351800Y0134495D02*
X0351800Y0154755D01*
X0351131Y0154755D01*
X0351131Y0162235D02*
X0351131Y0188495D01*
X0342800Y0188495D01*
X0337800Y0196755D01*
X0352800Y0196755D02*
X0352800Y0195495D01*
X0369800Y0195495D01*
X0369800Y0190495D01*
X0375800Y0190495D01*
X0375800Y0162235D01*
X0372800Y0162235D01*
X0370131Y0162235D01*
X0370131Y0154755D02*
X0371800Y0154755D01*
X0371800Y0134495D01*
X0376800Y0134495D01*
X0396800Y0130495D02*
X0396800Y0114495D01*
X0382127Y0114495D01*
X0382127Y0100149D01*
X0331800Y0134495D02*
X0328800Y0134495D01*
X0328800Y0154755D01*
X0329131Y0154755D01*
X0323800Y0158495D02*
X0320469Y0158495D01*
X0329131Y0162235D02*
X0336800Y0162235D01*
X0336800Y0142235D01*
X0356800Y0142235D02*
X0356800Y0162235D01*
X0351131Y0162235D01*
X0353800Y0166495D02*
X0353800Y0180495D01*
X0361800Y0180495D02*
X0361800Y0181235D01*
X0361800Y0173755D02*
X0361800Y0172495D01*
X0369800Y0172495D01*
X0361800Y0166495D02*
X0353800Y0166495D01*
X0361800Y0166495D02*
X0361800Y0158495D01*
X0361469Y0158495D01*
X0342469Y0158495D02*
X0341800Y0158495D01*
X0341800Y0166495D01*
X0330800Y0166495D01*
X0330800Y0179495D01*
X0336800Y0179495D02*
X0336800Y0180235D01*
X0336800Y0172755D02*
X0344800Y0172755D01*
X0344800Y0172495D01*
X0336800Y0172495D01*
X0336800Y0172755D01*
X0323800Y0180495D02*
X0312800Y0180495D01*
X0312800Y0180235D01*
X0312800Y0172755D02*
X0319800Y0172755D01*
X0318800Y0172495D01*
X0312800Y0172495D01*
X0312800Y0172755D01*
X0299800Y0172755D02*
X0299800Y0172495D01*
X0299800Y0172755D02*
X0292800Y0172755D01*
X0292800Y0180235D02*
X0286800Y0180235D01*
X0286800Y0158495D01*
X0292469Y0158495D01*
X0301131Y0154755D02*
X0301800Y0154755D01*
X0383800Y0196495D02*
X0401800Y0196495D01*
X0401800Y0198495D01*
X0381540Y0214495D02*
X0381540Y0224495D01*
X0401800Y0224495D01*
X0401800Y0228495D01*
X0375048Y0258495D02*
X0351052Y0258495D01*
X0351052Y0239995D01*
X0344300Y0239995D01*
X0344300Y0232995D01*
X0343800Y0232995D01*
X0343800Y0222995D01*
X0345060Y0222995D01*
X0352540Y0222995D02*
X0353800Y0222995D01*
X0353800Y0232995D01*
X0333800Y0232995D02*
X0332548Y0232995D01*
X0332548Y0258495D01*
X0289048Y0258495D02*
X0272800Y0258495D01*
X0272800Y0266495D01*
X0159548Y0266495D01*
X0159548Y0258495D01*
X0137052Y0258495D02*
X0136800Y0258495D01*
X0136800Y0212495D01*
X0152800Y0218495D02*
X0161800Y0218495D01*
X0161800Y0219755D01*
X0162800Y0219755D01*
X0162800Y0203495D01*
X0180540Y0203495D02*
X0180540Y0219164D01*
X0173060Y0219164D02*
X0168800Y0219164D01*
X0168800Y0227495D01*
X0161800Y0227495D01*
X0161800Y0234495D01*
X0161800Y0227495D02*
X0161800Y0227235D01*
X0152800Y0221495D02*
X0152800Y0218495D01*
X0118800Y0221495D02*
X0118800Y0258495D01*
X0118548Y0258495D01*
X0105800Y0250495D02*
X0105800Y0234495D01*
X0091800Y0234495D01*
X0091800Y0234755D01*
X0091800Y0242235D02*
X0080800Y0242235D01*
X0080800Y0223495D01*
X0071800Y0225895D02*
X0071800Y0187995D01*
X0061540Y0187995D01*
X0060540Y0181995D02*
X0054300Y0181995D01*
X0054300Y0187995D01*
X0054060Y0187995D01*
X0060540Y0181995D02*
X0060540Y0163495D01*
X0016800Y0172747D02*
X0007800Y0172747D01*
X0007800Y0215495D01*
X0017800Y0215495D01*
X0051800Y0234755D02*
X0065800Y0234755D01*
X0065800Y0236495D01*
X0062745Y0236495D01*
X0062745Y0225895D01*
X0075800Y0250495D02*
X0105800Y0250495D01*
X0222800Y0212495D02*
X0227800Y0212495D01*
X0227800Y0219755D01*
X0234800Y0219164D02*
X0234800Y0226495D01*
X0227800Y0226495D01*
X0227800Y0227235D01*
X0227800Y0234495D01*
X0234800Y0219164D02*
X0238060Y0219164D01*
X0245540Y0219164D02*
X0250540Y0212495D01*
X0106800Y0117826D02*
X0106800Y0117235D01*
X0053060Y0088495D02*
X0015800Y0088495D01*
X0015800Y0088995D01*
X0016800Y0088995D01*
X0016800Y0109243D02*
X0016800Y0109495D01*
X0016800Y0068495D02*
X0046800Y0068495D01*
X0016800Y0068495D02*
X0016800Y0067995D01*
D11*
X0091800Y0109755D03*
X0091800Y0117235D03*
X0091800Y0129755D03*
X0091800Y0137235D03*
X0091800Y0149755D03*
X0091800Y0157235D03*
X0091800Y0169755D03*
X0091800Y0177235D03*
X0121800Y0177235D03*
X0121800Y0169755D03*
X0121800Y0157235D03*
X0121800Y0149755D03*
X0121800Y0137235D03*
X0121800Y0129755D03*
X0121800Y0117235D03*
X0121800Y0109755D03*
X0151800Y0137255D03*
X0151800Y0144735D03*
X0161800Y0219755D03*
X0161800Y0227235D03*
X0191800Y0227235D03*
X0191800Y0219755D03*
X0227800Y0219755D03*
X0227800Y0227235D03*
X0254800Y0227235D03*
X0254800Y0219755D03*
X0301800Y0204235D03*
X0301800Y0196755D03*
X0319800Y0196755D03*
X0319800Y0204235D03*
X0337800Y0204235D03*
X0337800Y0196755D03*
X0352800Y0196755D03*
X0352800Y0204235D03*
X0361800Y0181235D03*
X0361800Y0173755D03*
X0336800Y0172755D03*
X0336800Y0180235D03*
X0312800Y0180235D03*
X0312800Y0172755D03*
X0292800Y0172755D03*
X0292800Y0180235D03*
X0276800Y0144735D03*
X0276800Y0137255D03*
X0311800Y0133755D03*
X0311800Y0141235D03*
X0336800Y0142235D03*
X0336800Y0134755D03*
X0356800Y0134755D03*
X0356800Y0142235D03*
X0376800Y0142235D03*
X0376800Y0134755D03*
X0301800Y0062235D03*
X0291800Y0062235D03*
X0291800Y0054755D03*
X0301800Y0054755D03*
X0224800Y0056755D03*
X0224800Y0064235D03*
X0204800Y0064235D03*
X0204800Y0056755D03*
X0091800Y0234755D03*
X0091800Y0242235D03*
X0051800Y0242235D03*
X0051800Y0234755D03*
X0039800Y0234755D03*
X0039800Y0242235D03*
D12*
X0054060Y0187995D03*
X0061540Y0187995D03*
X0060540Y0163495D03*
X0053060Y0163495D03*
X0048540Y0121495D03*
X0041060Y0121495D03*
X0063060Y0120495D03*
X0070540Y0120495D03*
X0060540Y0088495D03*
X0053060Y0088495D03*
X0209060Y0074495D03*
X0216540Y0074495D03*
X0253060Y0078495D03*
X0260540Y0078495D03*
X0260540Y0088495D03*
X0253060Y0088495D03*
X0253060Y0098495D03*
X0260540Y0098495D03*
X0340560Y0114495D03*
X0348040Y0114495D03*
X0348040Y0123995D03*
X0340560Y0123995D03*
X0374060Y0204495D03*
X0381540Y0204495D03*
X0381540Y0214495D03*
X0374060Y0214495D03*
X0374060Y0224495D03*
X0381540Y0224495D03*
X0352540Y0222995D03*
X0345060Y0222995D03*
X0215540Y0198495D03*
X0208060Y0198495D03*
D13*
X0399200Y0198495D02*
X0404400Y0198495D01*
X0404400Y0208495D02*
X0399200Y0208495D01*
X0399200Y0218495D02*
X0404400Y0218495D01*
X0404400Y0228495D02*
X0399200Y0228495D01*
X0399200Y0188495D02*
X0404400Y0188495D01*
D14*
X0421261Y0100149D02*
X0316339Y0100149D01*
X0316339Y0026841D01*
X0421261Y0026841D01*
X0421261Y0100149D01*
D15*
X0316339Y0090896D03*
X0316339Y0085896D03*
X0316339Y0080896D03*
X0316339Y0075896D03*
X0316339Y0070896D03*
X0316339Y0065896D03*
X0316339Y0060896D03*
X0316339Y0055896D03*
X0316339Y0050896D03*
X0316339Y0045896D03*
X0316339Y0040896D03*
X0316339Y0035896D03*
D16*
X0322127Y0026841D03*
X0327127Y0026841D03*
X0332127Y0026841D03*
X0337127Y0026841D03*
X0342127Y0026841D03*
X0347127Y0026841D03*
X0352127Y0026841D03*
X0357127Y0026841D03*
X0362127Y0026841D03*
X0367127Y0026841D03*
X0372127Y0026841D03*
X0377127Y0026841D03*
X0382127Y0026841D03*
X0387127Y0026841D03*
X0392127Y0026841D03*
X0397127Y0026841D03*
X0397127Y0100149D03*
X0392127Y0100149D03*
X0387127Y0100149D03*
X0382127Y0100149D03*
X0377127Y0100149D03*
X0372127Y0100149D03*
X0367127Y0100149D03*
X0362127Y0100149D03*
X0357127Y0100149D03*
X0352127Y0100149D03*
X0347127Y0100149D03*
X0342127Y0100149D03*
X0337127Y0100149D03*
X0332127Y0100149D03*
X0327127Y0100149D03*
X0322127Y0100149D03*
D17*
X0299851Y0028495D03*
X0293749Y0028495D03*
X0293749Y0018495D03*
X0299851Y0018495D03*
D18*
X0291800Y0077995D03*
X0291800Y0098995D03*
X0396800Y0130495D03*
X0396800Y0151495D03*
X0016800Y0088995D03*
X0016800Y0067995D03*
D19*
X0046800Y0261495D03*
X0056800Y0261495D03*
X0066800Y0261495D03*
X0333800Y0232995D03*
X0343800Y0232995D03*
X0353800Y0232995D03*
D20*
X0351052Y0258495D03*
X0332548Y0258495D03*
X0307552Y0258495D03*
X0289048Y0258495D03*
X0264052Y0258495D03*
X0245548Y0258495D03*
X0221052Y0258495D03*
X0202548Y0258495D03*
X0178052Y0258495D03*
X0159548Y0258495D03*
X0137052Y0258495D03*
X0118548Y0258495D03*
X0016800Y0262747D03*
X0016800Y0244243D03*
X0016800Y0217747D03*
X0016800Y0199243D03*
X0016800Y0172747D03*
X0016800Y0154243D03*
X0016800Y0127747D03*
X0016800Y0109243D03*
X0139048Y0069495D03*
X0157552Y0069495D03*
X0152548Y0023495D03*
X0171052Y0023495D03*
X0202548Y0023495D03*
X0221052Y0023495D03*
X0247548Y0023495D03*
X0266052Y0023495D03*
X0121052Y0023495D03*
X0102548Y0023495D03*
X0076052Y0023495D03*
X0057548Y0023495D03*
X0031052Y0023495D03*
X0012548Y0023495D03*
X0375048Y0258495D03*
X0393552Y0258495D03*
D21*
X0068900Y0148495D03*
X0068900Y0143495D03*
X0068900Y0138495D03*
X0068900Y0133495D03*
X0044700Y0133495D03*
X0044700Y0138495D03*
X0044700Y0143495D03*
X0044700Y0148495D03*
D22*
X0056800Y0140995D03*
D23*
X0062745Y0225895D03*
X0071800Y0225895D03*
X0080855Y0225895D03*
D24*
X0071800Y0250495D03*
D25*
X0292469Y0158495D03*
X0301131Y0162235D03*
X0301131Y0154755D03*
X0320469Y0158495D03*
X0329131Y0162235D03*
X0329131Y0154755D03*
X0342469Y0158495D03*
X0351131Y0162235D03*
X0351131Y0154755D03*
X0361469Y0158495D03*
X0370131Y0162235D03*
X0370131Y0154755D03*
D26*
X0243296Y0154774D03*
X0243296Y0152806D03*
X0243296Y0150837D03*
X0243296Y0148869D03*
X0243296Y0146900D03*
X0243296Y0144932D03*
X0243296Y0142963D03*
X0243296Y0140995D03*
X0243296Y0139026D03*
X0243296Y0137058D03*
X0243296Y0135089D03*
X0243296Y0133121D03*
X0243296Y0131152D03*
X0243296Y0129184D03*
X0243296Y0127215D03*
X0243296Y0125247D03*
X0243296Y0123278D03*
X0243296Y0121310D03*
X0243296Y0119341D03*
X0243296Y0117373D03*
X0243296Y0156743D03*
X0243296Y0158711D03*
X0243296Y0160680D03*
X0243296Y0162648D03*
X0243296Y0164617D03*
X0180304Y0164617D03*
X0180304Y0162648D03*
X0180304Y0160680D03*
X0180304Y0158711D03*
X0180304Y0156743D03*
X0180304Y0154774D03*
X0180304Y0152806D03*
X0180304Y0150837D03*
X0180304Y0148869D03*
X0180304Y0146900D03*
X0180304Y0144932D03*
X0180304Y0142963D03*
X0180304Y0140995D03*
X0180304Y0139026D03*
X0180304Y0137058D03*
X0180304Y0135089D03*
X0180304Y0133121D03*
X0180304Y0131152D03*
X0180304Y0129184D03*
X0180304Y0127215D03*
X0180304Y0125247D03*
X0180304Y0123278D03*
X0180304Y0121310D03*
X0180304Y0119341D03*
X0180304Y0117373D03*
D27*
X0188178Y0109499D03*
X0190146Y0109499D03*
X0192115Y0109499D03*
X0194083Y0109499D03*
X0196052Y0109499D03*
X0198020Y0109499D03*
X0199989Y0109499D03*
X0201957Y0109499D03*
X0203926Y0109499D03*
X0205894Y0109499D03*
X0207863Y0109499D03*
X0209831Y0109499D03*
X0211800Y0109499D03*
X0213769Y0109499D03*
X0215737Y0109499D03*
X0217706Y0109499D03*
X0219674Y0109499D03*
X0221643Y0109499D03*
X0223611Y0109499D03*
X0225580Y0109499D03*
X0227548Y0109499D03*
X0229517Y0109499D03*
X0231485Y0109499D03*
X0233454Y0109499D03*
X0235422Y0109499D03*
X0235422Y0172491D03*
X0233454Y0172491D03*
X0231485Y0172491D03*
X0229517Y0172491D03*
X0227548Y0172491D03*
X0225580Y0172491D03*
X0223611Y0172491D03*
X0221643Y0172491D03*
X0219674Y0172491D03*
X0217706Y0172491D03*
X0215737Y0172491D03*
X0213769Y0172491D03*
X0211800Y0172491D03*
X0209831Y0172491D03*
X0207863Y0172491D03*
X0205894Y0172491D03*
X0203926Y0172491D03*
X0201957Y0172491D03*
X0199989Y0172491D03*
X0198020Y0172491D03*
X0196052Y0172491D03*
X0194083Y0172491D03*
X0192115Y0172491D03*
X0190146Y0172491D03*
X0188178Y0172491D03*
D28*
X0202957Y0045495D03*
X0222643Y0045495D03*
D29*
X0066800Y0050495D02*
X0066800Y0056495D01*
X0056800Y0056495D02*
X0056800Y0050495D01*
X0046800Y0050495D02*
X0046800Y0056495D01*
X0046800Y0065495D02*
X0046800Y0071495D01*
X0056800Y0071495D02*
X0056800Y0065495D01*
X0066800Y0065495D02*
X0066800Y0071495D01*
D30*
X0103060Y0109164D03*
X0110540Y0109164D03*
X0106800Y0117826D03*
X0103060Y0129164D03*
X0110540Y0129164D03*
X0106800Y0137826D03*
X0103060Y0149164D03*
X0110540Y0149164D03*
X0106800Y0157826D03*
X0103060Y0169164D03*
X0110540Y0169164D03*
X0106800Y0177826D03*
X0173060Y0219164D03*
X0180540Y0219164D03*
X0176800Y0227826D03*
X0238060Y0219164D03*
X0245540Y0219164D03*
X0241800Y0227826D03*
D31*
X0241800Y0208495D01*
X0246800Y0203495D01*
X0246800Y0178495D01*
X0231800Y0181495D02*
X0231800Y0182495D01*
X0231485Y0182180D01*
X0231485Y0172491D01*
X0227548Y0172491D02*
X0227800Y0167739D01*
X0227800Y0165995D01*
X0233800Y0164495D01*
X0233800Y0139495D01*
X0233800Y0128495D01*
X0222800Y0128495D02*
X0222800Y0124495D01*
X0221800Y0123495D01*
X0210800Y0123495D01*
X0207800Y0120495D01*
X0203800Y0120495D01*
X0198020Y0114715D01*
X0198020Y0109499D01*
X0198020Y0081715D01*
X0197800Y0081495D01*
X0216540Y0081495D01*
X0216540Y0074495D01*
X0221800Y0070495D02*
X0222800Y0069495D01*
X0231800Y0069495D01*
X0232800Y0068495D01*
X0232800Y0056495D01*
X0232540Y0056755D01*
X0224800Y0056755D01*
X0224800Y0056495D01*
X0216800Y0061495D02*
X0216800Y0064235D01*
X0216800Y0064495D01*
X0216800Y0064235D02*
X0224800Y0064235D01*
X0209060Y0064235D01*
X0209060Y0074495D01*
X0201800Y0074495D01*
X0204800Y0064235D02*
X0209060Y0064235D01*
X0221800Y0070495D02*
X0221800Y0085495D01*
X0216800Y0085495D01*
X0216800Y0092495D01*
X0214800Y0094495D01*
X0211800Y0094495D01*
X0203800Y0102495D01*
X0203800Y0109499D01*
X0203926Y0109499D01*
X0201957Y0109499D02*
X0201800Y0109499D01*
X0201800Y0099495D01*
X0210800Y0090495D01*
X0211800Y0090495D01*
X0205800Y0086495D02*
X0199800Y0092495D01*
X0199800Y0104499D01*
X0199989Y0109499D01*
X0199989Y0113684D01*
X0202800Y0116495D01*
X0207800Y0116495D01*
X0210800Y0119495D01*
X0225800Y0119495D01*
X0225800Y0147995D01*
X0222800Y0147995D01*
X0225800Y0147995D02*
X0225800Y0163495D01*
X0225580Y0163715D01*
X0225580Y0172491D01*
X0225580Y0188715D01*
X0221800Y0192495D01*
X0210800Y0192495D01*
X0209800Y0193495D01*
X0209800Y0196755D01*
X0208060Y0198495D01*
X0201800Y0204755D01*
X0201800Y0239495D01*
X0182800Y0258495D01*
X0178052Y0258495D01*
X0202548Y0258495D02*
X0206800Y0254243D01*
X0206800Y0208995D01*
X0210800Y0205495D02*
X0210800Y0248243D01*
X0221052Y0258495D01*
X0245300Y0258247D02*
X0245300Y0239495D01*
X0241800Y0227826D02*
X0242391Y0227235D01*
X0254800Y0227235D01*
X0254800Y0219755D02*
X0261300Y0219755D01*
X0261300Y0219995D01*
X0262800Y0219995D01*
X0262800Y0214495D02*
X0257800Y0209495D01*
X0257800Y0195495D01*
X0249800Y0187495D01*
X0249800Y0155495D01*
X0251269Y0142963D02*
X0262800Y0154495D01*
X0262800Y0188495D01*
X0271800Y0183495D02*
X0271800Y0157495D01*
X0255300Y0140995D01*
X0243296Y0140995D01*
X0243296Y0142963D02*
X0251269Y0142963D01*
X0243296Y0139026D02*
X0238269Y0139026D01*
X0237800Y0139495D01*
X0237800Y0166495D01*
X0227548Y0172491D02*
X0227800Y0178743D01*
X0227800Y0191495D01*
X0220800Y0198495D01*
X0224800Y0198495D01*
X0220800Y0198495D02*
X0215540Y0198495D01*
X0213540Y0200495D01*
X0218800Y0205755D01*
X0218800Y0219495D01*
X0197800Y0219495D02*
X0197540Y0219755D01*
X0191800Y0219755D01*
X0192800Y0218755D01*
X0192800Y0213495D01*
X0189800Y0210495D01*
X0189800Y0172837D01*
X0190146Y0172491D01*
X0188178Y0172491D01*
X0188178Y0166873D01*
X0194800Y0160251D01*
X0194800Y0153995D01*
X0187706Y0146900D01*
X0180304Y0146900D01*
X0177898Y0146995D01*
X0164300Y0146995D01*
X0162040Y0144735D01*
X0151800Y0144735D01*
X0152040Y0137495D02*
X0151800Y0137255D01*
X0152040Y0137495D02*
X0157800Y0137495D01*
X0165237Y0144932D01*
X0180304Y0144932D01*
X0191237Y0144932D01*
X0194300Y0147995D01*
X0191800Y0145495D02*
X0191798Y0145449D01*
X0191792Y0145402D01*
X0191783Y0145357D01*
X0191769Y0145312D01*
X0191753Y0145269D01*
X0191732Y0145227D01*
X0191708Y0145187D01*
X0191681Y0145149D01*
X0191651Y0145114D01*
X0191618Y0145081D01*
X0191583Y0145051D01*
X0191545Y0145024D01*
X0191505Y0145000D01*
X0191463Y0144979D01*
X0191420Y0144963D01*
X0191375Y0144949D01*
X0191330Y0144940D01*
X0191283Y0144934D01*
X0191237Y0144932D01*
X0192800Y0143495D02*
X0192798Y0143451D01*
X0192793Y0143408D01*
X0192784Y0143365D01*
X0192771Y0143323D01*
X0192755Y0143282D01*
X0192736Y0143242D01*
X0192714Y0143205D01*
X0192688Y0143169D01*
X0192660Y0143135D01*
X0192629Y0143104D01*
X0192595Y0143076D01*
X0192559Y0143050D01*
X0192522Y0143028D01*
X0192482Y0143009D01*
X0192441Y0142993D01*
X0192399Y0142980D01*
X0192356Y0142971D01*
X0192313Y0142966D01*
X0192269Y0142964D01*
X0192269Y0142963D02*
X0180304Y0142963D01*
X0180304Y0140995D02*
X0190800Y0140995D01*
X0191300Y0140495D01*
X0191300Y0138495D01*
X0192800Y0143495D02*
X0196800Y0143495D01*
X0199800Y0146495D01*
X0199800Y0156995D01*
X0201800Y0161995D02*
X0207300Y0156495D01*
X0207300Y0133495D01*
X0206800Y0132995D01*
X0197300Y0132995D01*
X0191300Y0126995D01*
X0191300Y0120495D01*
X0197300Y0119995D02*
X0197300Y0123495D01*
X0201300Y0127495D01*
X0208800Y0127495D01*
X0211300Y0129995D01*
X0211300Y0158995D01*
X0203800Y0166495D01*
X0203800Y0172491D01*
X0203926Y0172491D01*
X0205800Y0172491D02*
X0205800Y0179995D01*
X0203800Y0181995D01*
X0203800Y0190995D01*
X0207800Y0185995D02*
X0207800Y0172491D01*
X0207863Y0172491D01*
X0205894Y0172491D02*
X0205800Y0172491D01*
X0201957Y0172491D02*
X0201800Y0172491D01*
X0201800Y0161995D01*
X0194083Y0172491D02*
X0194083Y0182211D01*
X0193800Y0182211D01*
X0193800Y0205495D01*
X0184800Y0208995D02*
X0184800Y0169113D01*
X0180304Y0164617D01*
X0180304Y0156743D02*
X0167552Y0156743D01*
X0157800Y0166495D01*
X0170300Y0163495D02*
X0170300Y0204995D01*
X0176800Y0211495D01*
X0176800Y0227826D01*
X0191800Y0227826D01*
X0191800Y0227235D01*
X0246800Y0212495D02*
X0250540Y0212495D01*
X0254800Y0219755D02*
X0254800Y0198495D01*
X0268800Y0197495D02*
X0268800Y0252995D01*
X0264052Y0257743D01*
X0264052Y0258495D01*
X0245548Y0258495D02*
X0245300Y0258247D01*
X0274300Y0238495D02*
X0274300Y0192995D01*
X0301800Y0204235D02*
X0301800Y0218495D01*
X0305800Y0222495D01*
X0322800Y0222495D01*
X0322800Y0233495D01*
X0289048Y0219995D02*
X0289048Y0258495D01*
X0289048Y0219995D02*
X0287800Y0219995D01*
X0319800Y0196755D02*
X0326800Y0196755D01*
X0326800Y0162495D01*
X0329131Y0162495D01*
X0329131Y0162235D01*
X0323800Y0158495D02*
X0323800Y0180495D01*
X0330800Y0179495D02*
X0330800Y0182495D01*
X0332800Y0184495D01*
X0336800Y0180495D01*
X0336800Y0180235D01*
X0353800Y0180495D02*
X0353800Y0182495D01*
X0359800Y0188495D01*
X0359800Y0183235D01*
X0361800Y0181235D01*
X0374060Y0163495D02*
X0372800Y0162235D01*
X0376800Y0162235D01*
X0376800Y0142235D01*
X0365800Y0141495D02*
X0365060Y0142235D01*
X0356800Y0142235D01*
X0364800Y0129495D02*
X0364800Y0120495D01*
X0362800Y0118495D01*
X0373800Y0119495D02*
X0373800Y0126495D01*
X0372800Y0127495D01*
X0387800Y0130495D02*
X0387800Y0190495D01*
X0392800Y0183495D02*
X0392800Y0151495D01*
X0396800Y0151495D01*
X0378800Y0163495D02*
X0374060Y0163495D01*
X0409800Y0172495D02*
X0409800Y0209495D01*
X0401800Y0209495D01*
X0401800Y0208495D01*
X0387800Y0203495D02*
X0381540Y0203495D01*
X0381540Y0204495D01*
X0377800Y0209495D01*
X0374060Y0213235D01*
X0374060Y0214495D01*
X0366800Y0209495D02*
X0366800Y0224495D01*
X0374060Y0224495D01*
X0363052Y0214495D02*
X0363052Y0240495D01*
X0393552Y0258495D01*
X0413800Y0218495D02*
X0414800Y0218495D01*
X0414800Y0123495D01*
X0404800Y0110495D02*
X0404800Y0187495D01*
X0403800Y0188495D01*
X0401800Y0188495D01*
X0366800Y0203235D02*
X0360800Y0203235D01*
X0362300Y0214495D02*
X0363052Y0214495D01*
X0292800Y0172755D02*
X0292800Y0165495D01*
X0286800Y0158495D02*
X0286800Y0147495D01*
X0292800Y0148495D02*
X0281800Y0137495D01*
X0277040Y0137495D01*
X0276800Y0137255D01*
X0276603Y0137058D01*
X0243296Y0137058D01*
X0236237Y0137058D01*
X0233800Y0139495D01*
X0243296Y0139026D02*
X0271091Y0139026D01*
X0276800Y0144735D01*
X0286800Y0136495D02*
X0286800Y0113495D01*
X0283800Y0110495D01*
X0251800Y0110495D01*
X0243800Y0102495D01*
X0243800Y0095495D01*
X0240800Y0092495D01*
X0231800Y0092495D01*
X0225580Y0098715D01*
X0225580Y0109499D01*
X0227548Y0109499D02*
X0227548Y0102747D01*
X0230800Y0099495D01*
X0240800Y0099495D01*
X0241800Y0100495D01*
X0241800Y0104495D01*
X0249800Y0112495D01*
X0279800Y0112495D01*
X0283800Y0116495D01*
X0283800Y0129495D01*
X0297300Y0129495D02*
X0297300Y0147495D01*
X0292800Y0148495D02*
X0292800Y0152495D01*
X0301800Y0154755D02*
X0301800Y0135495D01*
X0301800Y0124495D01*
X0283800Y0106495D01*
X0251800Y0106495D01*
X0247800Y0102495D01*
X0247800Y0088495D01*
X0253060Y0088495D01*
X0253060Y0093495D02*
X0253060Y0098495D01*
X0260540Y0098495D02*
X0272800Y0098495D01*
X0272800Y0090495D01*
X0276800Y0090495D01*
X0272800Y0090495D02*
X0272800Y0076495D01*
X0265800Y0076495D01*
X0265800Y0043495D01*
X0266800Y0043495D01*
X0266052Y0042747D01*
X0266052Y0023495D01*
X0280800Y0018495D02*
X0280800Y0069495D01*
X0285800Y0064495D02*
X0291800Y0064495D01*
X0291800Y0062235D01*
X0296800Y0062235D01*
X0296800Y0054495D01*
X0301800Y0054495D01*
X0301800Y0054755D01*
X0301800Y0048495D02*
X0299851Y0048495D01*
X0299851Y0028495D01*
X0293749Y0028495D02*
X0293749Y0027495D01*
X0290800Y0027495D01*
X0290800Y0054755D01*
X0291800Y0054755D01*
X0301800Y0062235D02*
X0301800Y0069495D01*
X0306800Y0069495D01*
X0311800Y0070495D02*
X0306800Y0075495D01*
X0299800Y0075495D01*
X0298300Y0076995D01*
X0298300Y0098995D01*
X0291800Y0098995D01*
X0309800Y0090495D02*
X0315938Y0090495D01*
X0316339Y0090896D01*
X0319938Y0094495D01*
X0342800Y0094495D01*
X0342127Y0095168D01*
X0342127Y0100149D01*
X0341800Y0100476D01*
X0341800Y0099495D01*
X0342454Y0100149D01*
X0347127Y0100149D01*
X0347127Y0094168D01*
X0347800Y0093495D01*
X0395973Y0093495D01*
X0397127Y0100149D01*
X0377127Y0100149D02*
X0376800Y0100476D01*
X0376800Y0109495D01*
X0387800Y0130495D02*
X0396800Y0130495D01*
X0341800Y0100495D02*
X0341800Y0100476D01*
X0329800Y0115495D02*
X0329800Y0129495D01*
X0321800Y0129495D02*
X0303800Y0111495D01*
X0303800Y0083495D01*
X0304800Y0082495D01*
X0311800Y0082495D01*
X0312800Y0081495D01*
X0315740Y0081495D01*
X0316339Y0080896D01*
X0311800Y0076495D02*
X0308800Y0079495D01*
X0302800Y0079495D01*
X0300800Y0081495D01*
X0300800Y0115495D01*
X0311800Y0133755D02*
X0316800Y0135495D01*
X0301800Y0135495D01*
X0311800Y0141235D02*
X0312540Y0140495D01*
X0321800Y0140495D01*
X0320800Y0147495D02*
X0320800Y0158164D01*
X0320469Y0158495D01*
X0332800Y0148495D02*
X0336800Y0144495D01*
X0336800Y0142235D01*
X0267800Y0094495D02*
X0264800Y0091495D01*
X0259800Y0091495D01*
X0259800Y0093495D01*
X0253060Y0093495D01*
X0259800Y0091495D02*
X0259800Y0088495D01*
X0260540Y0088495D01*
X0247800Y0088495D02*
X0238800Y0088495D01*
X0238800Y0064495D01*
X0244800Y0078495D02*
X0253060Y0078495D01*
X0260540Y0078495D02*
X0260540Y0076495D01*
X0265800Y0076495D01*
X0260540Y0078495D02*
X0260540Y0070495D01*
X0260800Y0070495D01*
X0305800Y0043495D02*
X0305800Y0019495D01*
X0304800Y0018495D01*
X0299851Y0018495D01*
X0293749Y0018495D02*
X0280800Y0018495D01*
X0310800Y0036495D02*
X0316399Y0035896D01*
X0316339Y0035896D01*
X0321399Y0035896D01*
X0321800Y0035495D01*
X0321800Y0027167D01*
X0322127Y0026841D01*
X0322127Y0019168D01*
X0322800Y0018495D01*
X0396800Y0018495D01*
X0396800Y0026514D01*
X0397127Y0026841D01*
X0332127Y0026841D02*
X0332127Y0033168D01*
X0331800Y0033495D01*
X0327800Y0027514D02*
X0327800Y0039495D01*
X0310800Y0048495D02*
X0305800Y0043495D01*
X0310800Y0048495D02*
X0310800Y0058495D01*
X0312800Y0060495D01*
X0315938Y0060495D01*
X0316339Y0060896D01*
X0316339Y0065896D02*
X0311800Y0065896D01*
X0308800Y0063495D01*
X0311800Y0070495D02*
X0315938Y0070495D01*
X0316339Y0070896D01*
X0316339Y0075896D02*
X0315740Y0076495D01*
X0311800Y0076495D01*
X0247548Y0027747D02*
X0247548Y0023495D01*
X0247548Y0027747D02*
X0245800Y0029495D01*
X0199800Y0029495D01*
X0198800Y0030495D01*
X0202548Y0023495D02*
X0166800Y0059243D01*
X0166800Y0109495D01*
X0174678Y0117373D01*
X0180304Y0117373D01*
X0180304Y0123278D02*
X0175583Y0123278D01*
X0163800Y0111495D01*
X0163800Y0114495D02*
X0174552Y0125247D01*
X0180304Y0125247D01*
X0180304Y0127215D02*
X0173520Y0127215D01*
X0161800Y0115495D01*
X0158800Y0115495D01*
X0172800Y0110995D02*
X0172800Y0069495D01*
X0155800Y0086247D02*
X0155800Y0096995D01*
X0155800Y0086247D02*
X0139048Y0069495D01*
X0155800Y0048495D02*
X0155800Y0026747D01*
X0152548Y0023495D01*
X0187800Y0048495D02*
X0188178Y0048873D01*
X0188178Y0109499D01*
X0196052Y0109499D02*
X0196052Y0098495D01*
X0195800Y0098495D01*
X0195800Y0097495D01*
X0191800Y0093495D01*
X0211800Y0109499D02*
X0211800Y0115495D01*
X0229800Y0115495D02*
X0229800Y0155495D01*
X0219300Y0164995D02*
X0219300Y0138495D01*
X0180304Y0137058D02*
X0162363Y0137058D01*
X0153800Y0128495D01*
X0161800Y0127495D02*
X0167426Y0133121D01*
X0180304Y0133121D01*
X0180304Y0135089D02*
X0165394Y0135089D01*
X0162800Y0132495D01*
X0169800Y0128995D02*
X0171804Y0129495D01*
X0180304Y0129184D01*
X0174300Y0112495D02*
X0172800Y0110995D01*
X0134800Y0109755D02*
X0121800Y0109755D01*
X0128800Y0103495D02*
X0128800Y0097495D01*
X0134800Y0109755D02*
X0134800Y0129755D01*
X0121800Y0129755D01*
X0121800Y0137235D02*
X0121800Y0137826D01*
X0106800Y0137826D01*
X0099800Y0137235D02*
X0099800Y0129495D01*
X0097800Y0129495D01*
X0097800Y0126495D01*
X0091800Y0123495D02*
X0091800Y0129755D01*
X0091800Y0129495D01*
X0080800Y0129495D01*
X0080800Y0133495D01*
X0068900Y0133495D01*
X0063060Y0133495D01*
X0063060Y0120495D01*
X0070540Y0120495D02*
X0070540Y0114495D01*
X0040800Y0114495D01*
X0040800Y0105495D01*
X0021800Y0105495D01*
X0020300Y0106995D01*
X0007800Y0106995D01*
X0007800Y0068495D01*
X0016300Y0068495D01*
X0016800Y0067995D01*
X0007800Y0068495D02*
X0007800Y0041495D01*
X0013300Y0041995D01*
X0066800Y0053495D02*
X0066800Y0054495D01*
X0074800Y0054495D01*
X0074800Y0092495D01*
X0075800Y0093495D01*
X0078800Y0093495D01*
X0074800Y0092495D02*
X0074800Y0095495D01*
X0052800Y0095495D01*
X0052800Y0088495D01*
X0053060Y0088495D01*
X0060540Y0088495D02*
X0060540Y0082495D01*
X0066800Y0082495D01*
X0066800Y0068495D01*
X0092800Y0102495D02*
X0110540Y0102495D01*
X0110540Y0109164D01*
X0103060Y0109164D02*
X0099800Y0109164D01*
X0099800Y0117235D01*
X0099800Y0120495D01*
X0099800Y0117235D02*
X0091800Y0117235D01*
X0091800Y0111495D02*
X0084800Y0111495D01*
X0091800Y0111495D02*
X0091800Y0109755D01*
X0092800Y0109755D01*
X0092800Y0102495D01*
X0106800Y0117826D02*
X0118800Y0117826D01*
X0121800Y0117826D01*
X0121800Y0117235D01*
X0110800Y0123495D02*
X0091800Y0123495D01*
X0099800Y0129495D02*
X0103060Y0129495D01*
X0103060Y0129164D01*
X0110540Y0129164D02*
X0110800Y0129164D01*
X0110800Y0123495D01*
X0099800Y0137235D02*
X0091800Y0137235D01*
X0085800Y0138495D02*
X0085800Y0148495D01*
X0091800Y0148495D01*
X0091800Y0149755D01*
X0091800Y0143495D01*
X0110800Y0143495D01*
X0110800Y0149164D01*
X0110540Y0149164D01*
X0103060Y0149164D02*
X0098800Y0149164D01*
X0098800Y0146495D01*
X0097800Y0146495D01*
X0098800Y0149164D02*
X0098800Y0156495D01*
X0091800Y0156495D01*
X0091800Y0157235D01*
X0091800Y0169755D01*
X0091540Y0169495D01*
X0079800Y0169495D01*
X0080800Y0170495D01*
X0080800Y0223495D01*
X0080800Y0225840D01*
X0080855Y0225895D01*
X0071800Y0225895D02*
X0071800Y0220495D01*
X0062800Y0223495D02*
X0062745Y0223550D01*
X0062745Y0225895D01*
X0062800Y0223495D02*
X0062800Y0211495D01*
X0091800Y0219495D02*
X0091800Y0234755D01*
X0091800Y0242235D02*
X0099800Y0242235D01*
X0099800Y0241495D01*
X0075800Y0250495D02*
X0075800Y0267495D01*
X0056800Y0267495D01*
X0038800Y0267495D01*
X0038800Y0262747D01*
X0038800Y0242235D01*
X0039800Y0242235D01*
X0051800Y0242235D02*
X0051800Y0250495D01*
X0071800Y0250495D01*
X0075800Y0250495D01*
X0056800Y0261495D02*
X0056800Y0267495D01*
X0038800Y0262747D02*
X0016800Y0262747D01*
X0016800Y0217747D02*
X0016800Y0216495D01*
X0017800Y0215495D01*
X0053060Y0177235D02*
X0053060Y0163495D01*
X0044700Y0163495D01*
X0044700Y0148495D01*
X0044700Y0143495D02*
X0031800Y0143495D01*
X0031800Y0111495D01*
X0040800Y0114495D02*
X0040800Y0121495D01*
X0039800Y0121495D01*
X0039800Y0133495D01*
X0044700Y0133495D01*
X0044700Y0138495D02*
X0036800Y0138495D01*
X0048540Y0127735D02*
X0048800Y0127995D01*
X0048540Y0127735D02*
X0048540Y0121495D01*
X0041060Y0121495D02*
X0040800Y0121495D01*
X0021800Y0109243D02*
X0016800Y0109243D01*
X0021800Y0109243D02*
X0021800Y0105495D01*
X0007800Y0106995D02*
X0007800Y0172747D01*
X0060540Y0163495D02*
X0068900Y0163495D01*
X0068900Y0148495D01*
X0068900Y0143495D01*
X0079800Y0143495D01*
X0084300Y0138495D02*
X0068900Y0138495D01*
X0068900Y0143495D02*
X0067800Y0143495D01*
X0084300Y0138495D02*
X0084800Y0137995D01*
X0084800Y0135495D01*
X0084300Y0138495D02*
X0085800Y0138495D01*
X0106800Y0157826D02*
X0121800Y0157826D01*
X0121800Y0157235D01*
X0130540Y0157235D01*
X0130800Y0157495D01*
X0136800Y0157495D02*
X0139800Y0157495D01*
X0134800Y0149495D02*
X0121800Y0149495D01*
X0121800Y0149755D01*
X0134800Y0149495D02*
X0134800Y0168495D01*
X0130800Y0172495D01*
X0130800Y0201495D01*
X0126800Y0205495D01*
X0126800Y0211495D01*
X0092800Y0218495D02*
X0091800Y0219495D01*
X0121800Y0182495D02*
X0121800Y0177235D01*
X0121800Y0177826D01*
X0106800Y0177826D01*
X0106800Y0173495D02*
X0097800Y0173495D01*
X0094060Y0177235D01*
X0091800Y0177235D01*
X0086060Y0177235D01*
X0085800Y0177495D01*
X0091800Y0169755D02*
X0103060Y0169755D01*
X0103060Y0169164D01*
X0106800Y0172904D02*
X0106800Y0173495D01*
X0106800Y0172904D02*
X0110540Y0169164D01*
X0121800Y0169755D02*
X0123060Y0168495D01*
X0134800Y0168495D01*
X0123060Y0168495D02*
X0121800Y0168495D01*
X0121800Y0169755D01*
X0134800Y0149495D02*
X0134800Y0129755D01*
X0163800Y0152495D02*
X0164111Y0152806D01*
X0180304Y0152806D01*
X0180304Y0154774D02*
X0158520Y0154774D01*
X0156800Y0156495D01*
X0177898Y0146995D02*
X0179800Y0146995D01*
X0179800Y0146994D02*
X0179817Y0146993D01*
X0179834Y0146988D01*
X0179849Y0146981D01*
X0179863Y0146971D01*
X0179875Y0146959D01*
X0179885Y0146945D01*
X0179892Y0146930D01*
X0179897Y0146913D01*
X0179898Y0146896D01*
X0177898Y0146995D01*
X0327127Y0026841D02*
X0327800Y0027514D01*
D32*
X0331800Y0033495D03*
X0327800Y0039495D03*
X0310800Y0036495D03*
X0266800Y0043495D03*
X0276800Y0090495D03*
X0267800Y0094495D03*
X0300800Y0115495D03*
X0297300Y0129495D03*
X0286800Y0136495D03*
X0283800Y0129495D03*
X0286800Y0147495D03*
X0292800Y0152495D03*
X0297300Y0147495D03*
X0320800Y0147495D03*
X0321800Y0140495D03*
X0332800Y0148495D03*
X0329800Y0129495D03*
X0321800Y0129495D03*
X0329800Y0115495D03*
X0362800Y0118495D03*
X0373800Y0119495D03*
X0372800Y0127495D03*
X0364800Y0129495D03*
X0365800Y0141495D03*
X0378800Y0163495D03*
X0359800Y0188495D03*
X0332800Y0184495D03*
X0292800Y0165495D03*
X0271800Y0183495D03*
X0262800Y0188495D03*
X0254800Y0198495D03*
X0246800Y0212495D03*
X0224800Y0198495D03*
X0210800Y0205495D03*
X0206800Y0208995D03*
X0193800Y0205495D03*
X0184800Y0208995D03*
X0178800Y0203495D03*
X0162800Y0203495D03*
X0143800Y0197495D03*
X0126800Y0211495D03*
X0092800Y0218495D03*
X0071800Y0220495D03*
X0062800Y0211495D03*
X0053060Y0177235D03*
X0085800Y0177495D03*
X0121800Y0182495D03*
X0149800Y0163495D03*
X0154800Y0151495D03*
X0144800Y0143495D03*
X0141800Y0137495D03*
X0129800Y0137495D03*
X0129800Y0143495D03*
X0099800Y0137235D03*
X0097800Y0146495D03*
X0084800Y0135495D03*
X0097800Y0126495D03*
X0099800Y0120495D03*
X0129800Y0117495D03*
X0138800Y0115495D03*
X0141800Y0111495D03*
X0128800Y0103495D03*
X0119800Y0098495D03*
X0103800Y0077495D03*
X0083800Y0068495D03*
X0079800Y0043495D03*
X0013300Y0041995D03*
X0048800Y0127995D03*
X0155800Y0096995D03*
X0162800Y0106495D03*
X0160800Y0111495D03*
X0158800Y0115495D03*
X0174300Y0112495D03*
X0191300Y0120495D03*
X0211800Y0115495D03*
X0229800Y0115495D03*
X0233800Y0128495D03*
X0222800Y0128495D03*
X0222800Y0147995D03*
X0229800Y0155495D03*
X0225800Y0163495D03*
X0219300Y0164995D03*
X0237800Y0166495D03*
X0246800Y0178495D03*
X0231800Y0182495D03*
X0199800Y0156995D03*
X0194300Y0147995D03*
X0249800Y0155495D03*
X0309800Y0090495D03*
X0172800Y0069495D03*
D33*
X0201800Y0074495D03*
X0205800Y0086495D03*
X0211800Y0090495D03*
X0191800Y0093495D03*
X0197300Y0119995D03*
X0191300Y0138495D03*
X0219300Y0138495D03*
X0170300Y0163495D03*
X0139800Y0157495D03*
X0130800Y0157495D03*
X0079800Y0143495D03*
X0036800Y0138495D03*
X0031800Y0111495D03*
X0078800Y0093495D03*
X0084800Y0111495D03*
X0155800Y0048495D03*
X0187800Y0048495D03*
X0216800Y0061495D03*
X0238800Y0064495D03*
X0244800Y0078495D03*
X0260800Y0070495D03*
X0280800Y0069495D03*
X0285800Y0064495D03*
X0306800Y0069495D03*
X0376800Y0109495D03*
X0404800Y0110495D03*
X0409800Y0172495D03*
X0392800Y0183495D03*
X0387800Y0190495D03*
X0387800Y0203495D03*
X0366800Y0209495D03*
X0362300Y0214495D03*
X0322800Y0233495D03*
X0287800Y0219995D03*
X0262800Y0219995D03*
X0262800Y0214495D03*
X0268800Y0197495D03*
X0274300Y0192995D03*
X0299800Y0172495D03*
X0318800Y0172495D03*
X0344800Y0172495D03*
X0369800Y0172495D03*
X0274300Y0238495D03*
X0245300Y0239495D03*
X0227800Y0234495D03*
X0218800Y0219495D03*
X0222800Y0212495D03*
X0197800Y0219495D03*
X0161800Y0234495D03*
X0152800Y0221495D03*
X0136800Y0212495D03*
X0118800Y0221495D03*
X0099800Y0241495D03*
X0065800Y0236495D03*
X0203800Y0190995D03*
X0207800Y0185995D03*
X0357800Y0251995D03*
D34*
X0359800Y0251995D01*
X0359800Y0222995D01*
X0352540Y0222995D01*
X0356799Y0220095D02*
X0360377Y0220095D01*
X0360752Y0220250D01*
X0360752Y0218176D01*
X0359615Y0218176D01*
X0358619Y0217180D01*
X0358619Y0211810D01*
X0359615Y0210814D01*
X0363119Y0210814D01*
X0363119Y0206810D01*
X0363986Y0205942D01*
X0357453Y0206409D01*
X0357453Y0207498D01*
X0356457Y0208494D01*
X0349143Y0208494D01*
X0348147Y0207498D01*
X0348147Y0206735D01*
X0342453Y0206735D01*
X0342453Y0207498D01*
X0341457Y0208494D01*
X0334143Y0208494D01*
X0333147Y0207498D01*
X0333147Y0206735D01*
X0324453Y0206735D01*
X0324453Y0207498D01*
X0323457Y0208494D01*
X0316143Y0208494D01*
X0315147Y0207498D01*
X0315147Y0206735D01*
X0306453Y0206735D01*
X0306453Y0207498D01*
X0305457Y0208494D01*
X0304100Y0208494D01*
X0304100Y0217542D01*
X0306753Y0220195D01*
X0323753Y0220195D01*
X0325100Y0221542D01*
X0325100Y0229814D01*
X0325485Y0229814D01*
X0326481Y0230810D01*
X0326481Y0236180D01*
X0325485Y0237176D01*
X0320115Y0237176D01*
X0319119Y0236180D01*
X0319119Y0230810D01*
X0320115Y0229814D01*
X0320500Y0229814D01*
X0320500Y0224795D01*
X0304847Y0224795D01*
X0303500Y0223447D01*
X0300847Y0220795D01*
X0299500Y0219447D01*
X0299500Y0208494D01*
X0298143Y0208494D01*
X0297147Y0207498D01*
X0297147Y0200972D01*
X0297624Y0200495D01*
X0297147Y0200018D01*
X0297147Y0193491D01*
X0298143Y0192496D01*
X0303300Y0192496D01*
X0303300Y0175361D01*
X0302485Y0176176D01*
X0297295Y0176176D01*
X0296976Y0176495D01*
X0297453Y0176972D01*
X0297453Y0183498D01*
X0296457Y0184494D01*
X0289143Y0184494D01*
X0288147Y0183498D01*
X0288147Y0182735D01*
X0286303Y0182735D01*
X0285384Y0182354D01*
X0284681Y0181651D01*
X0284300Y0180732D01*
X0284300Y0157998D01*
X0284500Y0157515D01*
X0284500Y0150122D01*
X0283846Y0149468D01*
X0283316Y0148188D01*
X0283316Y0146802D01*
X0283846Y0145521D01*
X0284826Y0144541D01*
X0285369Y0144316D01*
X0281453Y0140400D01*
X0281453Y0140518D01*
X0281329Y0140641D01*
X0281513Y0140825D01*
X0281803Y0141327D01*
X0281953Y0141886D01*
X0281953Y0144655D01*
X0276880Y0144655D01*
X0276880Y0144814D01*
X0281953Y0144814D01*
X0281953Y0147584D01*
X0281803Y0148143D01*
X0281513Y0148645D01*
X0281104Y0149054D01*
X0280602Y0149344D01*
X0280042Y0149494D01*
X0276880Y0149494D01*
X0276880Y0144815D01*
X0276720Y0144815D01*
X0276720Y0149494D01*
X0273558Y0149494D01*
X0272998Y0149344D01*
X0272496Y0149054D01*
X0272087Y0148645D01*
X0271797Y0148143D01*
X0271647Y0147584D01*
X0271647Y0144814D01*
X0276720Y0144814D01*
X0276720Y0144655D01*
X0271647Y0144655D01*
X0271647Y0141886D01*
X0271797Y0141327D01*
X0272087Y0140825D01*
X0272271Y0140641D01*
X0272147Y0140518D01*
X0272147Y0139358D01*
X0256916Y0139358D01*
X0274100Y0156542D01*
X0274100Y0180867D01*
X0274754Y0181521D01*
X0275284Y0182802D01*
X0275284Y0184188D01*
X0274754Y0185468D01*
X0273774Y0186449D01*
X0272493Y0186979D01*
X0271107Y0186979D01*
X0269826Y0186449D01*
X0268846Y0185468D01*
X0268316Y0184188D01*
X0268316Y0182802D01*
X0268846Y0181521D01*
X0269500Y0180867D01*
X0269500Y0158447D01*
X0265100Y0154047D01*
X0265100Y0185867D01*
X0265754Y0186521D01*
X0266284Y0187802D01*
X0266284Y0189188D01*
X0265754Y0190468D01*
X0264774Y0191449D01*
X0263493Y0191979D01*
X0262107Y0191979D01*
X0260826Y0191449D01*
X0259846Y0190468D01*
X0259316Y0189188D01*
X0259316Y0187802D01*
X0259846Y0186521D01*
X0260500Y0185867D01*
X0260500Y0155447D01*
X0250316Y0145263D01*
X0247949Y0145263D01*
X0247949Y0152490D01*
X0249107Y0152011D01*
X0250493Y0152011D01*
X0251774Y0152541D01*
X0252754Y0153521D01*
X0253284Y0154802D01*
X0253284Y0156188D01*
X0252754Y0157468D01*
X0252100Y0158122D01*
X0252100Y0186542D01*
X0258753Y0193195D01*
X0260100Y0194542D01*
X0260100Y0208542D01*
X0262372Y0210814D01*
X0265485Y0210814D01*
X0266481Y0211810D01*
X0266481Y0217180D01*
X0266416Y0217245D01*
X0266481Y0217310D01*
X0266481Y0222680D01*
X0265485Y0223676D01*
X0260115Y0223676D01*
X0259453Y0223014D01*
X0259453Y0223018D01*
X0258976Y0223495D01*
X0259453Y0223972D01*
X0259453Y0230498D01*
X0258457Y0231494D01*
X0251143Y0231494D01*
X0250147Y0230498D01*
X0250147Y0229535D01*
X0245468Y0229535D01*
X0245468Y0231286D01*
X0244473Y0232281D01*
X0239127Y0232281D01*
X0238131Y0231286D01*
X0238131Y0224365D01*
X0238877Y0223620D01*
X0237300Y0223620D01*
X0237300Y0226992D01*
X0236919Y0227911D01*
X0236216Y0228614D01*
X0235297Y0228995D01*
X0232453Y0228995D01*
X0232453Y0230498D01*
X0231457Y0231494D01*
X0231166Y0231494D01*
X0231481Y0231810D01*
X0231481Y0237180D01*
X0230485Y0238176D01*
X0225115Y0238176D01*
X0224119Y0237180D01*
X0224119Y0231810D01*
X0224434Y0231494D01*
X0224143Y0231494D01*
X0223147Y0230498D01*
X0223147Y0223972D01*
X0223624Y0223495D01*
X0223147Y0223018D01*
X0223147Y0216491D01*
X0223463Y0216176D01*
X0221847Y0216176D01*
X0222481Y0216810D01*
X0222481Y0222180D01*
X0221485Y0223176D01*
X0216115Y0223176D01*
X0215119Y0222180D01*
X0215119Y0216810D01*
X0216115Y0215814D01*
X0216500Y0215814D01*
X0216500Y0206707D01*
X0214065Y0204272D01*
X0214284Y0204802D01*
X0214284Y0206188D01*
X0213754Y0207468D01*
X0213100Y0208122D01*
X0213100Y0247290D01*
X0219530Y0253720D01*
X0224831Y0253720D01*
X0225827Y0254716D01*
X0225827Y0262274D01*
X0224831Y0263270D01*
X0217273Y0263270D01*
X0216277Y0262274D01*
X0216277Y0256972D01*
X0209100Y0249796D01*
X0209100Y0255196D01*
X0207323Y0256972D01*
X0207323Y0262274D01*
X0206327Y0263270D01*
X0198769Y0263270D01*
X0197773Y0262274D01*
X0197773Y0254716D01*
X0198769Y0253720D01*
X0204070Y0253720D01*
X0204500Y0253290D01*
X0204500Y0211622D01*
X0203846Y0210968D01*
X0203316Y0209688D01*
X0203316Y0208302D01*
X0203846Y0207021D01*
X0204826Y0206041D01*
X0206107Y0205511D01*
X0207316Y0205511D01*
X0207316Y0204802D01*
X0207794Y0203648D01*
X0205211Y0203648D01*
X0204652Y0203498D01*
X0204150Y0203208D01*
X0203740Y0202798D01*
X0203451Y0202297D01*
X0203301Y0201737D01*
X0203301Y0198574D01*
X0207980Y0198574D01*
X0207980Y0198415D01*
X0203301Y0198415D01*
X0203301Y0195252D01*
X0203451Y0194693D01*
X0203461Y0194676D01*
X0201115Y0194676D01*
X0200119Y0193680D01*
X0200119Y0188310D01*
X0201115Y0187314D01*
X0201500Y0187314D01*
X0201500Y0181042D01*
X0202847Y0179695D01*
X0203500Y0179042D01*
X0203500Y0177144D01*
X0196383Y0177144D01*
X0196383Y0183164D01*
X0196100Y0183447D01*
X0196100Y0202867D01*
X0196754Y0203521D01*
X0197284Y0204802D01*
X0197284Y0206188D01*
X0196754Y0207468D01*
X0195774Y0208449D01*
X0194493Y0208979D01*
X0193107Y0208979D01*
X0192100Y0208562D01*
X0192100Y0209542D01*
X0193753Y0211195D01*
X0195100Y0212542D01*
X0195100Y0215496D01*
X0195457Y0215496D01*
X0195775Y0215814D01*
X0200485Y0215814D01*
X0201481Y0216810D01*
X0201481Y0222180D01*
X0200485Y0223176D01*
X0196295Y0223176D01*
X0195976Y0223495D01*
X0196453Y0223972D01*
X0196453Y0230498D01*
X0195457Y0231494D01*
X0188143Y0231494D01*
X0187147Y0230498D01*
X0187147Y0230126D01*
X0180468Y0230126D01*
X0180468Y0231286D01*
X0179473Y0232281D01*
X0174127Y0232281D01*
X0173131Y0231286D01*
X0173131Y0224365D01*
X0173877Y0223620D01*
X0171300Y0223620D01*
X0171300Y0227992D01*
X0170919Y0228911D01*
X0170216Y0229614D01*
X0169297Y0229995D01*
X0166453Y0229995D01*
X0166453Y0230498D01*
X0165457Y0231494D01*
X0165166Y0231494D01*
X0165481Y0231810D01*
X0165481Y0237180D01*
X0164485Y0238176D01*
X0159115Y0238176D01*
X0158119Y0237180D01*
X0158119Y0231810D01*
X0158434Y0231494D01*
X0158143Y0231494D01*
X0157147Y0230498D01*
X0157147Y0223972D01*
X0157624Y0223495D01*
X0157147Y0223018D01*
X0157147Y0220995D01*
X0156481Y0220995D01*
X0156481Y0224180D01*
X0155485Y0225176D01*
X0150115Y0225176D01*
X0149119Y0224180D01*
X0149119Y0218810D01*
X0150115Y0217814D01*
X0150376Y0217814D01*
X0150681Y0217079D01*
X0151384Y0216375D01*
X0152303Y0215995D01*
X0157644Y0215995D01*
X0158143Y0215496D01*
X0160300Y0215496D01*
X0160300Y0205922D01*
X0159846Y0205468D01*
X0159316Y0204188D01*
X0159316Y0202802D01*
X0159846Y0201521D01*
X0160826Y0200541D01*
X0162107Y0200011D01*
X0163493Y0200011D01*
X0164774Y0200541D01*
X0165754Y0201521D01*
X0166284Y0202802D01*
X0166284Y0204188D01*
X0165754Y0205468D01*
X0165300Y0205922D01*
X0165300Y0215496D01*
X0165457Y0215496D01*
X0166453Y0216491D01*
X0166453Y0218298D01*
X0166681Y0217748D01*
X0167384Y0217045D01*
X0168303Y0216664D01*
X0169391Y0216664D01*
X0169391Y0215704D01*
X0170387Y0214708D01*
X0174500Y0214708D01*
X0174500Y0212447D01*
X0168000Y0205947D01*
X0168000Y0167176D01*
X0167615Y0167176D01*
X0166619Y0166180D01*
X0166619Y0160929D01*
X0158753Y0168795D01*
X0158611Y0168795D01*
X0146000Y0181406D01*
X0146000Y0194767D01*
X0146754Y0195521D01*
X0147284Y0196802D01*
X0147284Y0198188D01*
X0146754Y0199468D01*
X0145774Y0200449D01*
X0144493Y0200979D01*
X0143107Y0200979D01*
X0141826Y0200449D01*
X0140846Y0199468D01*
X0140316Y0198188D01*
X0140316Y0196802D01*
X0140846Y0195521D01*
X0141600Y0194767D01*
X0141600Y0179584D01*
X0155500Y0165684D01*
X0155500Y0165542D01*
X0163968Y0157074D01*
X0159473Y0157074D01*
X0157753Y0158795D01*
X0157611Y0158795D01*
X0153284Y0163122D01*
X0153284Y0164188D01*
X0152754Y0165468D01*
X0151774Y0166449D01*
X0150493Y0166979D01*
X0149107Y0166979D01*
X0147826Y0166449D01*
X0146846Y0165468D01*
X0146316Y0164188D01*
X0146316Y0162802D01*
X0146846Y0161521D01*
X0147826Y0160541D01*
X0149107Y0160011D01*
X0150173Y0160011D01*
X0154500Y0155684D01*
X0154500Y0155542D01*
X0155063Y0154979D01*
X0154107Y0154979D01*
X0152826Y0154449D01*
X0151846Y0153468D01*
X0151316Y0152188D01*
X0151316Y0150802D01*
X0151846Y0149521D01*
X0152373Y0148994D01*
X0148143Y0148994D01*
X0147147Y0147998D01*
X0147147Y0146935D01*
X0145600Y0146935D01*
X0145493Y0146979D01*
X0144107Y0146979D01*
X0142826Y0146449D01*
X0141846Y0145468D01*
X0141316Y0144188D01*
X0141316Y0142802D01*
X0141846Y0141521D01*
X0142388Y0140979D01*
X0141107Y0140979D01*
X0141000Y0140935D01*
X0141000Y0144406D01*
X0139000Y0146406D01*
X0139000Y0153814D01*
X0142485Y0153814D01*
X0143481Y0154810D01*
X0143481Y0160180D01*
X0142485Y0161176D01*
X0137115Y0161176D01*
X0137100Y0161161D01*
X0137100Y0169447D01*
X0135753Y0170795D01*
X0133100Y0173447D01*
X0133100Y0202447D01*
X0129100Y0206447D01*
X0129100Y0208867D01*
X0129754Y0209521D01*
X0130284Y0210802D01*
X0130284Y0212188D01*
X0129754Y0213468D01*
X0128774Y0214449D01*
X0127493Y0214979D01*
X0126107Y0214979D01*
X0124826Y0214449D01*
X0123846Y0213468D01*
X0123316Y0212188D01*
X0123316Y0210802D01*
X0123846Y0209521D01*
X0124500Y0208867D01*
X0124500Y0204542D01*
X0125847Y0203195D01*
X0128500Y0200542D01*
X0128500Y0171542D01*
X0129247Y0170795D01*
X0126453Y0170795D01*
X0126453Y0173018D01*
X0125976Y0173495D01*
X0126453Y0173972D01*
X0126453Y0180498D01*
X0125457Y0181494D01*
X0125157Y0181494D01*
X0125284Y0181802D01*
X0125284Y0183188D01*
X0124754Y0184468D01*
X0123774Y0185449D01*
X0122493Y0185979D01*
X0121107Y0185979D01*
X0119826Y0185449D01*
X0118846Y0184468D01*
X0118316Y0183188D01*
X0118316Y0181802D01*
X0118443Y0181494D01*
X0118143Y0181494D01*
X0117147Y0180498D01*
X0117147Y0180126D01*
X0110468Y0180126D01*
X0110468Y0181286D01*
X0109473Y0182281D01*
X0104127Y0182281D01*
X0103131Y0181286D01*
X0103131Y0175795D01*
X0098753Y0175795D01*
X0096453Y0178095D01*
X0096453Y0180498D01*
X0095457Y0181494D01*
X0088143Y0181494D01*
X0087296Y0180647D01*
X0086493Y0180979D01*
X0085107Y0180979D01*
X0083826Y0180449D01*
X0083100Y0179722D01*
X0083100Y0221045D01*
X0083209Y0221045D01*
X0084205Y0222041D01*
X0084205Y0229749D01*
X0083300Y0230654D01*
X0083300Y0239735D01*
X0087147Y0239735D01*
X0087147Y0238972D01*
X0087271Y0238848D01*
X0087087Y0238665D01*
X0086797Y0238163D01*
X0086647Y0237603D01*
X0086647Y0234834D01*
X0091720Y0234834D01*
X0091720Y0234675D01*
X0086647Y0234675D01*
X0086647Y0231906D01*
X0086797Y0231346D01*
X0087087Y0230845D01*
X0087496Y0230435D01*
X0087998Y0230146D01*
X0088558Y0229996D01*
X0091720Y0229996D01*
X0091720Y0234675D01*
X0091880Y0234675D01*
X0091880Y0234834D01*
X0096953Y0234834D01*
X0096953Y0237603D01*
X0096816Y0238112D01*
X0097115Y0237814D01*
X0102485Y0237814D01*
X0103481Y0238810D01*
X0103481Y0244180D01*
X0102485Y0245176D01*
X0097115Y0245176D01*
X0096474Y0244535D01*
X0096453Y0244535D01*
X0096453Y0245498D01*
X0095457Y0246494D01*
X0088143Y0246494D01*
X0087147Y0245498D01*
X0087147Y0244735D01*
X0080303Y0244735D01*
X0079384Y0244354D01*
X0078681Y0243651D01*
X0078300Y0242732D01*
X0078300Y0230544D01*
X0077505Y0229749D01*
X0077505Y0222041D01*
X0078500Y0221046D01*
X0078500Y0171447D01*
X0077500Y0170447D01*
X0077500Y0168542D01*
X0078847Y0167195D01*
X0087147Y0167195D01*
X0087147Y0166491D01*
X0088143Y0165496D01*
X0089500Y0165496D01*
X0089500Y0161494D01*
X0088143Y0161494D01*
X0087147Y0160498D01*
X0087147Y0153972D01*
X0087624Y0153495D01*
X0087147Y0153018D01*
X0087147Y0150795D01*
X0084847Y0150795D01*
X0083500Y0149447D01*
X0083500Y0140795D01*
X0083466Y0140795D01*
X0083481Y0140810D01*
X0083481Y0146180D01*
X0082485Y0147176D01*
X0077115Y0147176D01*
X0076119Y0146180D01*
X0076119Y0145795D01*
X0074304Y0145795D01*
X0074104Y0145995D01*
X0074600Y0146491D01*
X0074600Y0150499D01*
X0073604Y0151495D01*
X0071200Y0151495D01*
X0071200Y0164447D01*
X0069853Y0165795D01*
X0064799Y0165795D01*
X0064799Y0167152D01*
X0063803Y0168148D01*
X0063040Y0168148D01*
X0063040Y0182492D01*
X0062895Y0182842D01*
X0064389Y0182842D01*
X0064948Y0182992D01*
X0065450Y0183282D01*
X0065860Y0183691D01*
X0066149Y0184193D01*
X0066299Y0184752D01*
X0066299Y0187915D01*
X0061620Y0187915D01*
X0061620Y0188074D01*
X0066299Y0188074D01*
X0066299Y0191237D01*
X0066149Y0191797D01*
X0065860Y0192298D01*
X0065450Y0192708D01*
X0064948Y0192998D01*
X0064389Y0193148D01*
X0061620Y0193148D01*
X0061620Y0188074D01*
X0061461Y0188074D01*
X0061461Y0193148D01*
X0058691Y0193148D01*
X0058132Y0192998D01*
X0057630Y0192708D01*
X0057446Y0192524D01*
X0057323Y0192648D01*
X0050797Y0192648D01*
X0049801Y0191652D01*
X0049801Y0184338D01*
X0050797Y0183342D01*
X0051800Y0183342D01*
X0051800Y0181498D01*
X0052158Y0180633D01*
X0051086Y0180189D01*
X0050106Y0179209D01*
X0049576Y0177928D01*
X0049576Y0176542D01*
X0050106Y0175261D01*
X0050760Y0174607D01*
X0050760Y0168148D01*
X0049797Y0168148D01*
X0048801Y0167152D01*
X0048801Y0165795D01*
X0043747Y0165795D01*
X0042400Y0164447D01*
X0042400Y0151495D01*
X0039996Y0151495D01*
X0039000Y0150499D01*
X0039000Y0146491D01*
X0039496Y0145995D01*
X0039296Y0145795D01*
X0030847Y0145795D01*
X0029500Y0144447D01*
X0029500Y0115176D01*
X0029115Y0115176D01*
X0028119Y0114180D01*
X0028119Y0108810D01*
X0029115Y0107814D01*
X0034485Y0107814D01*
X0035481Y0108810D01*
X0035481Y0114180D01*
X0034485Y0115176D01*
X0034100Y0115176D01*
X0034100Y0134828D01*
X0034115Y0134814D01*
X0038500Y0134814D01*
X0038500Y0133495D01*
X0044700Y0133495D01*
X0044700Y0133495D01*
X0038500Y0133495D01*
X0038500Y0131905D01*
X0038650Y0131346D01*
X0038940Y0130844D01*
X0039349Y0130434D01*
X0039851Y0130145D01*
X0040410Y0129995D01*
X0044700Y0129995D01*
X0045873Y0129995D01*
X0045846Y0129968D01*
X0045316Y0128688D01*
X0045316Y0127302D01*
X0045794Y0126148D01*
X0045277Y0126148D01*
X0045154Y0126024D01*
X0044970Y0126208D01*
X0044468Y0126498D01*
X0043909Y0126648D01*
X0041139Y0126648D01*
X0041139Y0121574D01*
X0040980Y0121574D01*
X0040980Y0121415D01*
X0041139Y0121415D01*
X0041139Y0116342D01*
X0043909Y0116342D01*
X0044468Y0116492D01*
X0044970Y0116782D01*
X0045154Y0116965D01*
X0045277Y0116842D01*
X0051803Y0116842D01*
X0052799Y0117838D01*
X0052799Y0125152D01*
X0051805Y0126146D01*
X0052284Y0127302D01*
X0052284Y0128688D01*
X0051754Y0129968D01*
X0050774Y0130949D01*
X0050570Y0131033D01*
X0050750Y0131346D01*
X0050900Y0131905D01*
X0050900Y0133441D01*
X0051596Y0132745D01*
X0060760Y0132745D01*
X0060760Y0125148D01*
X0059797Y0125148D01*
X0058801Y0124152D01*
X0058801Y0116838D01*
X0059797Y0115842D01*
X0066323Y0115842D01*
X0066446Y0115965D01*
X0066630Y0115782D01*
X0067132Y0115492D01*
X0067691Y0115342D01*
X0070461Y0115342D01*
X0070461Y0120415D01*
X0070620Y0120415D01*
X0070620Y0120574D01*
X0075299Y0120574D01*
X0075299Y0123737D01*
X0075149Y0124297D01*
X0074860Y0124798D01*
X0074450Y0125208D01*
X0073948Y0125498D01*
X0073389Y0125648D01*
X0070620Y0125648D01*
X0070620Y0120574D01*
X0070461Y0120574D01*
X0070461Y0125648D01*
X0067691Y0125648D01*
X0067132Y0125498D01*
X0066630Y0125208D01*
X0066446Y0125024D01*
X0066323Y0125148D01*
X0065360Y0125148D01*
X0065360Y0130495D01*
X0073604Y0130495D01*
X0074304Y0131195D01*
X0078500Y0131195D01*
X0078500Y0128542D01*
X0079847Y0127195D01*
X0087147Y0127195D01*
X0087147Y0126491D01*
X0088143Y0125496D01*
X0089500Y0125496D01*
X0089500Y0122542D01*
X0090548Y0121494D01*
X0088143Y0121494D01*
X0087147Y0120498D01*
X0087147Y0115176D01*
X0082115Y0115176D01*
X0081119Y0114180D01*
X0081119Y0108810D01*
X0082115Y0107814D01*
X0087147Y0107814D01*
X0087147Y0106491D01*
X0088143Y0105496D01*
X0090500Y0105496D01*
X0090500Y0101542D01*
X0091847Y0100195D01*
X0111493Y0100195D01*
X0112840Y0101542D01*
X0112840Y0104708D01*
X0113213Y0104708D01*
X0114209Y0105704D01*
X0114209Y0112624D01*
X0113213Y0113620D01*
X0109723Y0113620D01*
X0110468Y0114365D01*
X0110468Y0115526D01*
X0117147Y0115526D01*
X0117147Y0113972D01*
X0117624Y0113495D01*
X0117147Y0113018D01*
X0117147Y0106491D01*
X0117916Y0105722D01*
X0084173Y0071979D01*
X0083107Y0071979D01*
X0081826Y0071449D01*
X0080846Y0070468D01*
X0080316Y0069188D01*
X0080316Y0067802D01*
X0080846Y0066521D01*
X0081826Y0065541D01*
X0083107Y0065011D01*
X0084493Y0065011D01*
X0085774Y0065541D01*
X0086754Y0066521D01*
X0087284Y0067802D01*
X0087284Y0068868D01*
X0101600Y0083184D01*
X0101600Y0080222D01*
X0100846Y0079468D01*
X0100316Y0078188D01*
X0100316Y0076802D01*
X0100846Y0075521D01*
X0101826Y0074541D01*
X0102469Y0074275D01*
X0077600Y0049406D01*
X0077600Y0046222D01*
X0076846Y0045468D01*
X0076316Y0044188D01*
X0076316Y0042802D01*
X0076774Y0041695D01*
X0059000Y0041695D01*
X0059000Y0046319D01*
X0059462Y0046510D01*
X0060784Y0047832D01*
X0061500Y0049560D01*
X0061500Y0057430D01*
X0060784Y0059157D01*
X0059462Y0060479D01*
X0058218Y0060995D01*
X0059462Y0061510D01*
X0060784Y0062832D01*
X0061500Y0064560D01*
X0061500Y0072430D01*
X0060784Y0074157D01*
X0059462Y0075479D01*
X0057735Y0076195D01*
X0055865Y0076195D01*
X0054138Y0075479D01*
X0052816Y0074157D01*
X0052100Y0072430D01*
X0052100Y0064560D01*
X0052816Y0062832D01*
X0054138Y0061510D01*
X0055382Y0060995D01*
X0054138Y0060479D01*
X0052816Y0059157D01*
X0052100Y0057430D01*
X0052100Y0049560D01*
X0052816Y0047832D01*
X0054138Y0046510D01*
X0054600Y0046319D01*
X0054600Y0038584D01*
X0055489Y0037695D01*
X0023637Y0037695D01*
X0014212Y0028270D01*
X0008769Y0028270D01*
X0008300Y0027801D01*
X0008300Y0267495D01*
X0012287Y0267495D01*
X0011965Y0267173D01*
X0011675Y0266671D01*
X0011525Y0266111D01*
X0011525Y0262747D01*
X0016800Y0262747D01*
X0022075Y0262747D01*
X0022075Y0266111D01*
X0021925Y0266671D01*
X0021635Y0267173D01*
X0021313Y0267495D01*
X0157256Y0267495D01*
X0157048Y0266992D01*
X0157048Y0263270D01*
X0155769Y0263270D01*
X0154773Y0262274D01*
X0154773Y0254716D01*
X0155769Y0253720D01*
X0163327Y0253720D01*
X0164323Y0254716D01*
X0164323Y0262274D01*
X0163327Y0263270D01*
X0162048Y0263270D01*
X0162048Y0263995D01*
X0270300Y0263995D01*
X0270300Y0257998D01*
X0270681Y0257079D01*
X0271384Y0256375D01*
X0272303Y0255995D01*
X0284273Y0255995D01*
X0284273Y0254716D01*
X0285269Y0253720D01*
X0286748Y0253720D01*
X0286748Y0223676D01*
X0285115Y0223676D01*
X0284119Y0222680D01*
X0284119Y0217310D01*
X0285115Y0216314D01*
X0290485Y0216314D01*
X0291481Y0217310D01*
X0291481Y0222680D01*
X0291348Y0222813D01*
X0291348Y0253720D01*
X0292827Y0253720D01*
X0293823Y0254716D01*
X0293823Y0262274D01*
X0292827Y0263270D01*
X0285269Y0263270D01*
X0284273Y0262274D01*
X0284273Y0260995D01*
X0275300Y0260995D01*
X0275300Y0266992D01*
X0275092Y0267495D01*
X0415800Y0267495D01*
X0415800Y0221651D01*
X0414532Y0222176D01*
X0413068Y0222176D01*
X0411715Y0221615D01*
X0410679Y0220580D01*
X0410119Y0219227D01*
X0410119Y0217763D01*
X0410679Y0216410D01*
X0411715Y0215374D01*
X0412500Y0215049D01*
X0412500Y0176161D01*
X0412485Y0176176D01*
X0412100Y0176176D01*
X0412100Y0210447D01*
X0410753Y0211795D01*
X0407181Y0211795D01*
X0406836Y0212140D01*
X0405255Y0212795D01*
X0398345Y0212795D01*
X0396764Y0212140D01*
X0395555Y0210931D01*
X0394900Y0209350D01*
X0394900Y0207639D01*
X0395555Y0206059D01*
X0396764Y0204849D01*
X0398345Y0204195D01*
X0405255Y0204195D01*
X0406836Y0204849D01*
X0407500Y0205514D01*
X0407500Y0201476D01*
X0406836Y0202140D01*
X0405255Y0202795D01*
X0398345Y0202795D01*
X0396764Y0202140D01*
X0395555Y0200931D01*
X0394900Y0199350D01*
X0394900Y0198995D01*
X0378300Y0198995D01*
X0378300Y0199842D01*
X0384803Y0199842D01*
X0384945Y0199984D01*
X0385115Y0199814D01*
X0390485Y0199814D01*
X0391481Y0200810D01*
X0391481Y0206180D01*
X0390485Y0207176D01*
X0385799Y0207176D01*
X0385799Y0208152D01*
X0384803Y0209148D01*
X0380932Y0209148D01*
X0380787Y0209342D01*
X0381461Y0209342D01*
X0381461Y0214415D01*
X0381620Y0214415D01*
X0381620Y0214574D01*
X0386299Y0214574D01*
X0386299Y0217737D01*
X0386149Y0218297D01*
X0385860Y0218798D01*
X0385450Y0219208D01*
X0384953Y0219495D01*
X0385450Y0219782D01*
X0385860Y0220191D01*
X0386149Y0220693D01*
X0386299Y0221252D01*
X0386299Y0224415D01*
X0381620Y0224415D01*
X0381620Y0224574D01*
X0386299Y0224574D01*
X0386299Y0227737D01*
X0386149Y0228297D01*
X0385860Y0228798D01*
X0385450Y0229208D01*
X0384948Y0229498D01*
X0384389Y0229648D01*
X0381620Y0229648D01*
X0381620Y0224574D01*
X0381461Y0224574D01*
X0381461Y0229648D01*
X0378691Y0229648D01*
X0378132Y0229498D01*
X0377630Y0229208D01*
X0377446Y0229024D01*
X0377323Y0229148D01*
X0370797Y0229148D01*
X0369801Y0228152D01*
X0369801Y0226795D01*
X0365847Y0226795D01*
X0365352Y0226299D01*
X0365352Y0239182D01*
X0389986Y0253720D01*
X0397331Y0253720D01*
X0398327Y0254716D01*
X0398327Y0262274D01*
X0397331Y0263270D01*
X0389773Y0263270D01*
X0388777Y0262274D01*
X0388777Y0258347D01*
X0362700Y0242958D01*
X0362700Y0252572D01*
X0362258Y0253638D01*
X0361481Y0254415D01*
X0361481Y0254680D01*
X0360485Y0255676D01*
X0356327Y0255676D01*
X0356327Y0258495D01*
X0356327Y0261859D01*
X0356177Y0262419D01*
X0355887Y0262921D01*
X0355478Y0263330D01*
X0354976Y0263620D01*
X0354417Y0263770D01*
X0351052Y0263770D01*
X0351052Y0258495D01*
X0351052Y0258495D01*
X0351052Y0263770D01*
X0347687Y0263770D01*
X0347128Y0263620D01*
X0346626Y0263330D01*
X0346216Y0262921D01*
X0345927Y0262419D01*
X0345777Y0261859D01*
X0345777Y0258495D01*
X0351052Y0258495D01*
X0356327Y0258495D01*
X0351052Y0258495D01*
X0351052Y0258495D01*
X0351052Y0258495D01*
X0351052Y0253220D01*
X0354119Y0253220D01*
X0354119Y0249310D01*
X0355115Y0248314D01*
X0356900Y0248314D01*
X0356900Y0238070D01*
X0349721Y0238070D01*
X0349095Y0237444D01*
X0348935Y0237721D01*
X0348526Y0238130D01*
X0348024Y0238420D01*
X0347465Y0238570D01*
X0343800Y0238570D01*
X0343800Y0232995D01*
X0343800Y0232995D01*
X0343800Y0238570D01*
X0340135Y0238570D01*
X0339576Y0238420D01*
X0339074Y0238130D01*
X0338665Y0237721D01*
X0338505Y0237444D01*
X0337879Y0238070D01*
X0335048Y0238070D01*
X0335048Y0253720D01*
X0336327Y0253720D01*
X0337323Y0254716D01*
X0337323Y0262274D01*
X0336327Y0263270D01*
X0328769Y0263270D01*
X0327773Y0262274D01*
X0327773Y0254716D01*
X0328769Y0253720D01*
X0330048Y0253720D01*
X0330048Y0238070D01*
X0329721Y0238070D01*
X0328725Y0237074D01*
X0328725Y0228916D01*
X0329721Y0227920D01*
X0337879Y0227920D01*
X0338505Y0228546D01*
X0338665Y0228269D01*
X0339074Y0227859D01*
X0339576Y0227570D01*
X0340135Y0227420D01*
X0340862Y0227420D01*
X0340740Y0227298D01*
X0340451Y0226797D01*
X0340301Y0226237D01*
X0340301Y0223074D01*
X0344980Y0223074D01*
X0344980Y0222915D01*
X0345139Y0222915D01*
X0345139Y0217842D01*
X0347909Y0217842D01*
X0348468Y0217992D01*
X0348970Y0218282D01*
X0349154Y0218465D01*
X0349277Y0218342D01*
X0355803Y0218342D01*
X0356799Y0219338D01*
X0356799Y0220095D01*
X0356799Y0219564D02*
X0360752Y0219564D01*
X0358619Y0217165D02*
X0304100Y0217165D01*
X0304100Y0214767D02*
X0358619Y0214767D01*
X0358619Y0212368D02*
X0304100Y0212368D01*
X0304100Y0209970D02*
X0363119Y0209970D01*
X0363119Y0207571D02*
X0357380Y0207571D01*
X0348220Y0207571D02*
X0342380Y0207571D01*
X0333220Y0207571D02*
X0324380Y0207571D01*
X0315220Y0207571D02*
X0306380Y0207571D01*
X0299500Y0209970D02*
X0276600Y0209970D01*
X0276600Y0212368D02*
X0299500Y0212368D01*
X0299500Y0214767D02*
X0276600Y0214767D01*
X0276600Y0217165D02*
X0284263Y0217165D01*
X0284119Y0219564D02*
X0276600Y0219564D01*
X0276600Y0221962D02*
X0284119Y0221962D01*
X0286748Y0224361D02*
X0276600Y0224361D01*
X0276600Y0226759D02*
X0286748Y0226759D01*
X0286748Y0229158D02*
X0276600Y0229158D01*
X0276600Y0231556D02*
X0286748Y0231556D01*
X0286748Y0233955D02*
X0276600Y0233955D01*
X0276600Y0234814D02*
X0276985Y0234814D01*
X0277981Y0235810D01*
X0277981Y0241180D01*
X0276985Y0242176D01*
X0271615Y0242176D01*
X0271100Y0241661D01*
X0271100Y0253947D01*
X0268827Y0256221D01*
X0268827Y0262274D01*
X0267831Y0263270D01*
X0260273Y0263270D01*
X0259277Y0262274D01*
X0259277Y0254716D01*
X0260273Y0253720D01*
X0264822Y0253720D01*
X0266500Y0252042D01*
X0266500Y0201176D01*
X0266115Y0201176D01*
X0265119Y0200180D01*
X0265119Y0194810D01*
X0266115Y0193814D01*
X0270619Y0193814D01*
X0270619Y0190310D01*
X0271615Y0189314D01*
X0276985Y0189314D01*
X0277981Y0190310D01*
X0277981Y0195680D01*
X0276985Y0196676D01*
X0276600Y0196676D01*
X0276600Y0234814D01*
X0277981Y0236353D02*
X0286748Y0236353D01*
X0286748Y0238752D02*
X0277981Y0238752D01*
X0277981Y0241150D02*
X0286748Y0241150D01*
X0286748Y0243549D02*
X0271100Y0243549D01*
X0271100Y0245947D02*
X0286748Y0245947D01*
X0286748Y0248346D02*
X0271100Y0248346D01*
X0271100Y0250744D02*
X0286748Y0250744D01*
X0286748Y0253143D02*
X0271100Y0253143D01*
X0269506Y0255541D02*
X0284273Y0255541D01*
X0291348Y0253143D02*
X0330048Y0253143D01*
X0330048Y0250744D02*
X0291348Y0250744D01*
X0291348Y0248346D02*
X0330048Y0248346D01*
X0330048Y0245947D02*
X0291348Y0245947D01*
X0291348Y0243549D02*
X0330048Y0243549D01*
X0330048Y0241150D02*
X0291348Y0241150D01*
X0291348Y0238752D02*
X0330048Y0238752D01*
X0328725Y0236353D02*
X0326308Y0236353D01*
X0326481Y0233955D02*
X0328725Y0233955D01*
X0328725Y0231556D02*
X0326481Y0231556D01*
X0325100Y0229158D02*
X0328725Y0229158D01*
X0325100Y0226759D02*
X0340441Y0226759D01*
X0340301Y0224361D02*
X0325100Y0224361D01*
X0325100Y0221962D02*
X0340301Y0221962D01*
X0340301Y0222915D02*
X0340301Y0219752D01*
X0340451Y0219193D01*
X0340740Y0218691D01*
X0341150Y0218282D01*
X0341652Y0217992D01*
X0342211Y0217842D01*
X0344980Y0217842D01*
X0344980Y0222915D01*
X0340301Y0222915D01*
X0340351Y0219564D02*
X0306122Y0219564D01*
X0302015Y0221962D02*
X0291481Y0221962D01*
X0291481Y0219564D02*
X0299616Y0219564D01*
X0300847Y0220795D02*
X0300847Y0220795D01*
X0303500Y0223447D02*
X0303500Y0223447D01*
X0304413Y0224361D02*
X0291348Y0224361D01*
X0291348Y0226759D02*
X0320500Y0226759D01*
X0320500Y0229158D02*
X0291348Y0229158D01*
X0291348Y0231556D02*
X0319119Y0231556D01*
X0319119Y0233955D02*
X0291348Y0233955D01*
X0291348Y0236353D02*
X0319292Y0236353D01*
X0335048Y0238752D02*
X0356900Y0238752D01*
X0356900Y0241150D02*
X0335048Y0241150D01*
X0335048Y0243549D02*
X0356900Y0243549D01*
X0356900Y0245947D02*
X0335048Y0245947D01*
X0335048Y0248346D02*
X0355082Y0248346D01*
X0354119Y0250744D02*
X0335048Y0250744D01*
X0335048Y0253143D02*
X0354119Y0253143D01*
X0351052Y0253220D02*
X0351052Y0258495D01*
X0351052Y0258495D01*
X0345777Y0258495D01*
X0345777Y0255130D01*
X0345927Y0254571D01*
X0346216Y0254069D01*
X0346626Y0253659D01*
X0347128Y0253370D01*
X0347687Y0253220D01*
X0351052Y0253220D01*
X0351052Y0255541D02*
X0351052Y0255541D01*
X0351052Y0257940D02*
X0351052Y0257940D01*
X0351052Y0260338D02*
X0351052Y0260338D01*
X0351052Y0262737D02*
X0351052Y0262737D01*
X0355993Y0262737D02*
X0370107Y0262737D01*
X0370213Y0262921D02*
X0369923Y0262419D01*
X0369773Y0261859D01*
X0369773Y0258495D01*
X0375048Y0258495D01*
X0375048Y0263770D01*
X0371683Y0263770D01*
X0371124Y0263620D01*
X0370622Y0263330D01*
X0370213Y0262921D01*
X0369773Y0260338D02*
X0356327Y0260338D01*
X0356327Y0257940D02*
X0369773Y0257940D01*
X0369773Y0258495D02*
X0369773Y0255130D01*
X0369923Y0254571D01*
X0370213Y0254069D01*
X0370622Y0253659D01*
X0371124Y0253370D01*
X0371683Y0253220D01*
X0375048Y0253220D01*
X0375048Y0258495D01*
X0375048Y0258495D01*
X0375048Y0263770D01*
X0378413Y0263770D01*
X0378972Y0263620D01*
X0379474Y0263330D01*
X0379883Y0262921D01*
X0380173Y0262419D01*
X0380323Y0261859D01*
X0380323Y0258495D01*
X0375048Y0258495D01*
X0375048Y0258495D01*
X0375048Y0258495D01*
X0369773Y0258495D01*
X0369773Y0255541D02*
X0360620Y0255541D01*
X0362463Y0253143D02*
X0379958Y0253143D01*
X0379474Y0253659D02*
X0379883Y0254069D01*
X0380173Y0254571D01*
X0380323Y0255130D01*
X0380323Y0258495D01*
X0375048Y0258495D01*
X0375048Y0258495D01*
X0375048Y0253220D01*
X0378413Y0253220D01*
X0378972Y0253370D01*
X0379474Y0253659D01*
X0380323Y0255541D02*
X0384022Y0255541D01*
X0380323Y0257940D02*
X0388087Y0257940D01*
X0388777Y0260338D02*
X0380323Y0260338D01*
X0379990Y0262737D02*
X0389240Y0262737D01*
X0397864Y0262737D02*
X0415800Y0262737D01*
X0415800Y0260338D02*
X0398327Y0260338D01*
X0398327Y0257940D02*
X0415800Y0257940D01*
X0415800Y0255541D02*
X0398327Y0255541D01*
X0389009Y0253143D02*
X0415800Y0253143D01*
X0415800Y0250744D02*
X0384945Y0250744D01*
X0380881Y0248346D02*
X0415800Y0248346D01*
X0415800Y0245947D02*
X0376816Y0245947D01*
X0372752Y0243549D02*
X0415800Y0243549D01*
X0415800Y0241150D02*
X0368688Y0241150D01*
X0365352Y0238752D02*
X0415800Y0238752D01*
X0415800Y0236353D02*
X0365352Y0236353D01*
X0365352Y0233955D02*
X0415800Y0233955D01*
X0415800Y0231556D02*
X0408109Y0231556D01*
X0408061Y0231622D02*
X0407527Y0232156D01*
X0406916Y0232600D01*
X0406243Y0232943D01*
X0405524Y0233177D01*
X0404778Y0233295D01*
X0401800Y0233295D01*
X0401800Y0228495D01*
X0401800Y0228495D01*
X0401800Y0233295D01*
X0398822Y0233295D01*
X0398076Y0233177D01*
X0397357Y0232943D01*
X0396684Y0232600D01*
X0396073Y0232156D01*
X0395539Y0231622D01*
X0395095Y0231011D01*
X0394752Y0230337D01*
X0394518Y0229619D01*
X0394400Y0228873D01*
X0394400Y0228495D01*
X0401800Y0228495D01*
X0409200Y0228495D01*
X0409200Y0228873D01*
X0409082Y0229619D01*
X0408848Y0230337D01*
X0408505Y0231011D01*
X0408061Y0231622D01*
X0409155Y0229158D02*
X0415800Y0229158D01*
X0415800Y0226759D02*
X0408883Y0226759D01*
X0408848Y0226652D02*
X0409082Y0227371D01*
X0409200Y0228117D01*
X0409200Y0228495D01*
X0401800Y0228495D01*
X0401800Y0228495D01*
X0401800Y0228495D01*
X0394400Y0228495D01*
X0394400Y0228117D01*
X0394518Y0227371D01*
X0394752Y0226652D01*
X0395095Y0225979D01*
X0395539Y0225368D01*
X0396073Y0224834D01*
X0396684Y0224389D01*
X0397357Y0224046D01*
X0398076Y0223813D01*
X0398822Y0223695D01*
X0401800Y0223695D01*
X0404778Y0223695D01*
X0405524Y0223813D01*
X0406243Y0224046D01*
X0406916Y0224389D01*
X0407527Y0224834D01*
X0408061Y0225368D01*
X0408505Y0225979D01*
X0408848Y0226652D01*
X0406859Y0224361D02*
X0415800Y0224361D01*
X0415800Y0221962D02*
X0415048Y0221962D01*
X0412552Y0221962D02*
X0407014Y0221962D01*
X0406836Y0222140D02*
X0405255Y0222795D01*
X0398345Y0222795D01*
X0396764Y0222140D01*
X0395555Y0220931D01*
X0394900Y0219350D01*
X0394900Y0217639D01*
X0395555Y0216059D01*
X0396764Y0214849D01*
X0398345Y0214195D01*
X0405255Y0214195D01*
X0406836Y0214849D01*
X0408045Y0216059D01*
X0408700Y0217639D01*
X0408700Y0219350D01*
X0408045Y0220931D01*
X0406836Y0222140D01*
X0408611Y0219564D02*
X0410258Y0219564D01*
X0410366Y0217165D02*
X0408504Y0217165D01*
X0406636Y0214767D02*
X0412500Y0214767D01*
X0412500Y0212368D02*
X0406285Y0212368D01*
X0412100Y0209970D02*
X0412500Y0209970D01*
X0412500Y0207571D02*
X0412100Y0207571D01*
X0412100Y0205173D02*
X0412500Y0205173D01*
X0412500Y0202774D02*
X0412100Y0202774D01*
X0412100Y0200376D02*
X0412500Y0200376D01*
X0412500Y0197977D02*
X0412100Y0197977D01*
X0412100Y0195579D02*
X0412500Y0195579D01*
X0412500Y0193180D02*
X0412100Y0193180D01*
X0412100Y0190782D02*
X0412500Y0190782D01*
X0412500Y0188383D02*
X0412100Y0188383D01*
X0412100Y0185985D02*
X0412500Y0185985D01*
X0412500Y0183586D02*
X0412100Y0183586D01*
X0412100Y0181188D02*
X0412500Y0181188D01*
X0412500Y0178789D02*
X0412100Y0178789D01*
X0412100Y0176391D02*
X0412500Y0176391D01*
X0395325Y0200376D02*
X0391047Y0200376D01*
X0391481Y0202774D02*
X0398295Y0202774D01*
X0396441Y0205173D02*
X0391481Y0205173D01*
X0394928Y0207571D02*
X0385799Y0207571D01*
X0384948Y0209492D02*
X0384389Y0209342D01*
X0381620Y0209342D01*
X0381620Y0214415D01*
X0386299Y0214415D01*
X0386299Y0211252D01*
X0386149Y0210693D01*
X0385860Y0210191D01*
X0385450Y0209782D01*
X0384948Y0209492D01*
X0385638Y0209970D02*
X0395157Y0209970D01*
X0397315Y0212368D02*
X0386299Y0212368D01*
X0386299Y0214767D02*
X0396964Y0214767D01*
X0395096Y0217165D02*
X0386299Y0217165D01*
X0385073Y0219564D02*
X0394989Y0219564D01*
X0396586Y0221962D02*
X0386299Y0221962D01*
X0386299Y0224361D02*
X0396740Y0224361D01*
X0394717Y0226759D02*
X0386299Y0226759D01*
X0385500Y0229158D02*
X0394445Y0229158D01*
X0395491Y0231556D02*
X0365352Y0231556D01*
X0365352Y0229158D02*
X0377580Y0229158D01*
X0381461Y0229158D02*
X0381620Y0229158D01*
X0381620Y0226759D02*
X0381461Y0226759D01*
X0381461Y0224415D02*
X0381620Y0224415D01*
X0381620Y0219648D01*
X0381620Y0214574D01*
X0381461Y0214574D01*
X0381461Y0224415D01*
X0381461Y0224361D02*
X0381620Y0224361D01*
X0381620Y0221962D02*
X0381461Y0221962D01*
X0381461Y0219564D02*
X0381620Y0219564D01*
X0381620Y0217165D02*
X0381461Y0217165D01*
X0381461Y0214767D02*
X0381620Y0214767D01*
X0381620Y0212368D02*
X0381461Y0212368D01*
X0381461Y0209970D02*
X0381620Y0209970D01*
X0401800Y0223695D02*
X0401800Y0228495D01*
X0401800Y0223695D01*
X0401800Y0224361D02*
X0401800Y0224361D01*
X0401800Y0226759D02*
X0401800Y0226759D01*
X0401800Y0228495D02*
X0401800Y0228495D01*
X0401800Y0229158D02*
X0401800Y0229158D01*
X0401800Y0231556D02*
X0401800Y0231556D01*
X0375894Y0250744D02*
X0362700Y0250744D01*
X0362700Y0248346D02*
X0371830Y0248346D01*
X0367766Y0245947D02*
X0362700Y0245947D01*
X0362700Y0243549D02*
X0363702Y0243549D01*
X0375048Y0255541D02*
X0375048Y0255541D01*
X0375048Y0257940D02*
X0375048Y0257940D01*
X0375048Y0260338D02*
X0375048Y0260338D01*
X0375048Y0262737D02*
X0375048Y0262737D01*
X0346110Y0262737D02*
X0336860Y0262737D01*
X0337323Y0260338D02*
X0345777Y0260338D01*
X0345777Y0257940D02*
X0337323Y0257940D01*
X0337323Y0255541D02*
X0345777Y0255541D01*
X0327773Y0255541D02*
X0312827Y0255541D01*
X0312827Y0255130D02*
X0312827Y0258495D01*
X0312827Y0261859D01*
X0312677Y0262419D01*
X0312387Y0262921D01*
X0311978Y0263330D01*
X0311476Y0263620D01*
X0310917Y0263770D01*
X0307552Y0263770D01*
X0307552Y0258495D01*
X0307552Y0258495D01*
X0307552Y0263770D01*
X0304187Y0263770D01*
X0303628Y0263620D01*
X0303126Y0263330D01*
X0302716Y0262921D01*
X0302427Y0262419D01*
X0302277Y0261859D01*
X0302277Y0258495D01*
X0307552Y0258495D01*
X0312827Y0258495D01*
X0307552Y0258495D01*
X0307552Y0258495D01*
X0307552Y0258495D01*
X0307552Y0253220D01*
X0310917Y0253220D01*
X0311476Y0253370D01*
X0311978Y0253659D01*
X0312387Y0254069D01*
X0312677Y0254571D01*
X0312827Y0255130D01*
X0312827Y0257940D02*
X0327773Y0257940D01*
X0327773Y0260338D02*
X0312827Y0260338D01*
X0312493Y0262737D02*
X0328236Y0262737D01*
X0307552Y0262737D02*
X0307552Y0262737D01*
X0307552Y0260338D02*
X0307552Y0260338D01*
X0307552Y0258495D02*
X0302277Y0258495D01*
X0302277Y0255130D01*
X0302427Y0254571D01*
X0302716Y0254069D01*
X0303126Y0253659D01*
X0303628Y0253370D01*
X0304187Y0253220D01*
X0307552Y0253220D01*
X0307552Y0258495D01*
X0307552Y0258495D01*
X0307552Y0257940D02*
X0307552Y0257940D01*
X0307552Y0255541D02*
X0307552Y0255541D01*
X0302277Y0255541D02*
X0293823Y0255541D01*
X0293823Y0257940D02*
X0302277Y0257940D01*
X0302277Y0260338D02*
X0293823Y0260338D01*
X0293360Y0262737D02*
X0302610Y0262737D01*
X0284736Y0262737D02*
X0275300Y0262737D01*
X0275300Y0265136D02*
X0415800Y0265136D01*
X0365812Y0226759D02*
X0365352Y0226759D01*
X0348725Y0232995D02*
X0343800Y0232995D01*
X0348725Y0232995D01*
X0348725Y0232995D01*
X0343800Y0232995D02*
X0343800Y0232995D01*
X0343800Y0233955D02*
X0343800Y0233955D01*
X0343800Y0236353D02*
X0343800Y0236353D01*
X0344980Y0221962D02*
X0345139Y0221962D01*
X0345139Y0219564D02*
X0344980Y0219564D01*
X0299500Y0217165D02*
X0291337Y0217165D01*
X0297220Y0207571D02*
X0276600Y0207571D01*
X0276600Y0205173D02*
X0297147Y0205173D01*
X0297147Y0202774D02*
X0276600Y0202774D01*
X0276600Y0200376D02*
X0297505Y0200376D01*
X0297147Y0197977D02*
X0276600Y0197977D01*
X0277981Y0195579D02*
X0297147Y0195579D01*
X0297458Y0193180D02*
X0277981Y0193180D01*
X0277981Y0190782D02*
X0303300Y0190782D01*
X0303300Y0188383D02*
X0266284Y0188383D01*
X0265441Y0190782D02*
X0270619Y0190782D01*
X0270619Y0193180D02*
X0258738Y0193180D01*
X0260100Y0195579D02*
X0265119Y0195579D01*
X0265119Y0197977D02*
X0260100Y0197977D01*
X0260100Y0200376D02*
X0265315Y0200376D01*
X0266500Y0202774D02*
X0260100Y0202774D01*
X0260100Y0205173D02*
X0266500Y0205173D01*
X0266500Y0207571D02*
X0260100Y0207571D01*
X0261528Y0209970D02*
X0266500Y0209970D01*
X0266481Y0212368D02*
X0266500Y0212368D01*
X0266481Y0214767D02*
X0266500Y0214767D01*
X0266481Y0217165D02*
X0266500Y0217165D01*
X0266481Y0219564D02*
X0266500Y0219564D01*
X0266481Y0221962D02*
X0266500Y0221962D01*
X0266500Y0224361D02*
X0259453Y0224361D01*
X0259453Y0226759D02*
X0266500Y0226759D01*
X0266500Y0229158D02*
X0259453Y0229158D01*
X0266500Y0231556D02*
X0245198Y0231556D01*
X0242615Y0235814D02*
X0247985Y0235814D01*
X0248981Y0236810D01*
X0248981Y0242180D01*
X0247985Y0243176D01*
X0247600Y0243176D01*
X0247600Y0253720D01*
X0249327Y0253720D01*
X0250323Y0254716D01*
X0250323Y0262274D01*
X0249327Y0263270D01*
X0241769Y0263270D01*
X0240773Y0262274D01*
X0240773Y0254716D01*
X0241769Y0253720D01*
X0243000Y0253720D01*
X0243000Y0243176D01*
X0242615Y0243176D01*
X0241619Y0242180D01*
X0241619Y0236810D01*
X0242615Y0235814D01*
X0242075Y0236353D02*
X0231481Y0236353D01*
X0231481Y0233955D02*
X0266500Y0233955D01*
X0266500Y0236353D02*
X0248525Y0236353D01*
X0248981Y0238752D02*
X0266500Y0238752D01*
X0266500Y0241150D02*
X0248981Y0241150D01*
X0247600Y0243549D02*
X0266500Y0243549D01*
X0266500Y0245947D02*
X0247600Y0245947D01*
X0247600Y0248346D02*
X0266500Y0248346D01*
X0266500Y0250744D02*
X0247600Y0250744D01*
X0247600Y0253143D02*
X0265399Y0253143D01*
X0268827Y0257940D02*
X0270324Y0257940D01*
X0270300Y0260338D02*
X0268827Y0260338D01*
X0268364Y0262737D02*
X0270300Y0262737D01*
X0259740Y0262737D02*
X0249860Y0262737D01*
X0250323Y0260338D02*
X0259277Y0260338D01*
X0259277Y0257940D02*
X0250323Y0257940D01*
X0250323Y0255541D02*
X0259277Y0255541D01*
X0243000Y0253143D02*
X0218953Y0253143D01*
X0216554Y0250744D02*
X0243000Y0250744D01*
X0243000Y0248346D02*
X0214156Y0248346D01*
X0213100Y0245947D02*
X0243000Y0245947D01*
X0243000Y0243549D02*
X0213100Y0243549D01*
X0213100Y0241150D02*
X0241619Y0241150D01*
X0241619Y0238752D02*
X0213100Y0238752D01*
X0213100Y0236353D02*
X0224119Y0236353D01*
X0224119Y0233955D02*
X0213100Y0233955D01*
X0213100Y0231556D02*
X0224372Y0231556D01*
X0223147Y0229158D02*
X0213100Y0229158D01*
X0213100Y0226759D02*
X0223147Y0226759D01*
X0223147Y0224361D02*
X0213100Y0224361D01*
X0213100Y0221962D02*
X0215119Y0221962D01*
X0215119Y0219564D02*
X0213100Y0219564D01*
X0213100Y0217165D02*
X0215119Y0217165D01*
X0216500Y0214767D02*
X0213100Y0214767D01*
X0213100Y0212368D02*
X0216500Y0212368D01*
X0216500Y0209970D02*
X0213100Y0209970D01*
X0213651Y0207571D02*
X0216500Y0207571D01*
X0214965Y0205173D02*
X0214284Y0205173D01*
X0219124Y0202826D02*
X0219753Y0203455D01*
X0221100Y0204802D01*
X0221100Y0208814D01*
X0225485Y0208814D01*
X0226481Y0209810D01*
X0226481Y0209995D01*
X0228297Y0209995D01*
X0229216Y0210375D01*
X0229919Y0211079D01*
X0230300Y0211998D01*
X0230300Y0215496D01*
X0231457Y0215496D01*
X0232453Y0216491D01*
X0232453Y0218298D01*
X0232681Y0217748D01*
X0233384Y0217045D01*
X0234303Y0216664D01*
X0234391Y0216664D01*
X0234391Y0215704D01*
X0235387Y0214708D01*
X0239500Y0214708D01*
X0239500Y0207542D01*
X0244500Y0202542D01*
X0244500Y0181122D01*
X0243846Y0180468D01*
X0243316Y0179188D01*
X0243316Y0177802D01*
X0243846Y0176521D01*
X0244826Y0175541D01*
X0246107Y0175011D01*
X0247493Y0175011D01*
X0247500Y0175013D01*
X0247500Y0166459D01*
X0246953Y0167006D01*
X0239639Y0167006D01*
X0238643Y0166010D01*
X0238643Y0141127D01*
X0238583Y0141066D01*
X0238293Y0140564D01*
X0238143Y0140005D01*
X0238143Y0139358D01*
X0237190Y0139358D01*
X0236100Y0140447D01*
X0236100Y0164212D01*
X0236262Y0164861D01*
X0236100Y0165132D01*
X0236100Y0165447D01*
X0235627Y0165921D01*
X0235282Y0166495D01*
X0234976Y0166572D01*
X0234753Y0166795D01*
X0234083Y0166795D01*
X0230100Y0167790D01*
X0230100Y0167800D01*
X0230100Y0167838D01*
X0236815Y0167838D01*
X0237811Y0168834D01*
X0237811Y0176148D01*
X0236815Y0177144D01*
X0233785Y0177144D01*
X0233785Y0179552D01*
X0234754Y0180521D01*
X0235284Y0181802D01*
X0235284Y0183188D01*
X0234754Y0184468D01*
X0233774Y0185449D01*
X0232493Y0185979D01*
X0231107Y0185979D01*
X0230100Y0185562D01*
X0230100Y0192447D01*
X0226890Y0195657D01*
X0227754Y0196521D01*
X0228284Y0197802D01*
X0228284Y0199188D01*
X0227754Y0200468D01*
X0226774Y0201449D01*
X0225493Y0201979D01*
X0224107Y0201979D01*
X0222826Y0201449D01*
X0222173Y0200795D01*
X0219799Y0200795D01*
X0219799Y0202152D01*
X0219124Y0202826D01*
X0219177Y0202774D02*
X0244268Y0202774D01*
X0244500Y0200376D02*
X0227792Y0200376D01*
X0228284Y0197977D02*
X0244500Y0197977D01*
X0244500Y0195579D02*
X0226969Y0195579D01*
X0229367Y0193180D02*
X0244500Y0193180D01*
X0244500Y0190782D02*
X0230100Y0190782D01*
X0230100Y0188383D02*
X0244500Y0188383D01*
X0244500Y0185985D02*
X0230100Y0185985D01*
X0225500Y0185985D02*
X0211481Y0185985D01*
X0211481Y0188383D02*
X0225500Y0188383D01*
X0225500Y0190542D02*
X0225500Y0178789D01*
X0210100Y0178789D01*
X0210100Y0177144D02*
X0210100Y0182314D01*
X0210485Y0182314D01*
X0211481Y0183310D01*
X0211481Y0188680D01*
X0210485Y0189676D01*
X0207481Y0189676D01*
X0207481Y0193342D01*
X0207980Y0193342D01*
X0207980Y0198415D01*
X0208139Y0198415D01*
X0208139Y0193342D01*
X0210909Y0193342D01*
X0211468Y0193492D01*
X0211970Y0193782D01*
X0212154Y0193965D01*
X0212277Y0193842D01*
X0218803Y0193842D01*
X0219799Y0194838D01*
X0219799Y0196195D01*
X0219847Y0196195D01*
X0225500Y0190542D01*
X0225260Y0190782D02*
X0207481Y0190782D01*
X0207481Y0193180D02*
X0222862Y0193180D01*
X0220463Y0195579D02*
X0219799Y0195579D01*
X0221100Y0205173D02*
X0241869Y0205173D01*
X0239500Y0207571D02*
X0221100Y0207571D01*
X0226481Y0209970D02*
X0239500Y0209970D01*
X0239500Y0212368D02*
X0230300Y0212368D01*
X0230300Y0214767D02*
X0235329Y0214767D01*
X0233263Y0217165D02*
X0232453Y0217165D01*
X0223147Y0217165D02*
X0222481Y0217165D01*
X0222481Y0219564D02*
X0223147Y0219564D01*
X0223147Y0221962D02*
X0222481Y0221962D01*
X0232453Y0229158D02*
X0238131Y0229158D01*
X0238131Y0226759D02*
X0237300Y0226759D01*
X0237300Y0224361D02*
X0238136Y0224361D01*
X0238402Y0231556D02*
X0231228Y0231556D01*
X0204500Y0231556D02*
X0180198Y0231556D01*
X0173402Y0231556D02*
X0165228Y0231556D01*
X0165481Y0233955D02*
X0204500Y0233955D01*
X0204500Y0236353D02*
X0165481Y0236353D01*
X0158372Y0231556D02*
X0139300Y0231556D01*
X0139300Y0229158D02*
X0157147Y0229158D01*
X0157147Y0226759D02*
X0139300Y0226759D01*
X0139300Y0224361D02*
X0149300Y0224361D01*
X0149119Y0221962D02*
X0139300Y0221962D01*
X0139300Y0219564D02*
X0149119Y0219564D01*
X0150645Y0217165D02*
X0139300Y0217165D01*
X0139300Y0216176D02*
X0139300Y0253720D01*
X0140831Y0253720D01*
X0141827Y0254716D01*
X0141827Y0262274D01*
X0140831Y0263270D01*
X0133273Y0263270D01*
X0132277Y0262274D01*
X0132277Y0254716D01*
X0133273Y0253720D01*
X0134300Y0253720D01*
X0134300Y0216176D01*
X0134115Y0216176D01*
X0133119Y0215180D01*
X0133119Y0209810D01*
X0134115Y0208814D01*
X0139485Y0208814D01*
X0140481Y0209810D01*
X0140481Y0215180D01*
X0139485Y0216176D01*
X0139300Y0216176D01*
X0140481Y0214767D02*
X0160300Y0214767D01*
X0160300Y0212368D02*
X0140481Y0212368D01*
X0140481Y0209970D02*
X0160300Y0209970D01*
X0160300Y0207571D02*
X0129100Y0207571D01*
X0129940Y0209970D02*
X0133119Y0209970D01*
X0133119Y0212368D02*
X0130210Y0212368D01*
X0128006Y0214767D02*
X0133119Y0214767D01*
X0134300Y0217165D02*
X0083100Y0217165D01*
X0083100Y0214767D02*
X0125594Y0214767D01*
X0123390Y0212368D02*
X0083100Y0212368D01*
X0083100Y0209970D02*
X0123660Y0209970D01*
X0124500Y0207571D02*
X0083100Y0207571D01*
X0083100Y0205173D02*
X0124500Y0205173D01*
X0126268Y0202774D02*
X0083100Y0202774D01*
X0083100Y0200376D02*
X0128500Y0200376D01*
X0128500Y0197977D02*
X0083100Y0197977D01*
X0083100Y0195579D02*
X0128500Y0195579D01*
X0128500Y0193180D02*
X0083100Y0193180D01*
X0083100Y0190782D02*
X0128500Y0190782D01*
X0128500Y0188383D02*
X0083100Y0188383D01*
X0083100Y0185985D02*
X0128500Y0185985D01*
X0128500Y0183586D02*
X0125119Y0183586D01*
X0125763Y0181188D02*
X0128500Y0181188D01*
X0128500Y0178789D02*
X0126453Y0178789D01*
X0126453Y0176391D02*
X0128500Y0176391D01*
X0128500Y0173992D02*
X0126453Y0173992D01*
X0126453Y0171594D02*
X0128500Y0171594D01*
X0133100Y0173992D02*
X0147191Y0173992D01*
X0144793Y0176391D02*
X0133100Y0176391D01*
X0133100Y0178789D02*
X0142394Y0178789D01*
X0141600Y0181188D02*
X0133100Y0181188D01*
X0133100Y0183586D02*
X0141600Y0183586D01*
X0141600Y0185985D02*
X0133100Y0185985D01*
X0133100Y0188383D02*
X0141600Y0188383D01*
X0141600Y0190782D02*
X0133100Y0190782D01*
X0133100Y0193180D02*
X0141600Y0193180D01*
X0140822Y0195579D02*
X0133100Y0195579D01*
X0133100Y0197977D02*
X0140316Y0197977D01*
X0141753Y0200376D02*
X0133100Y0200376D01*
X0132773Y0202774D02*
X0159327Y0202774D01*
X0159724Y0205173D02*
X0130375Y0205173D01*
X0145847Y0200376D02*
X0161225Y0200376D01*
X0164375Y0200376D02*
X0168000Y0200376D01*
X0168000Y0202774D02*
X0166273Y0202774D01*
X0165876Y0205173D02*
X0168000Y0205173D01*
X0169624Y0207571D02*
X0165300Y0207571D01*
X0165300Y0209970D02*
X0172022Y0209970D01*
X0174421Y0212368D02*
X0165300Y0212368D01*
X0165300Y0214767D02*
X0170329Y0214767D01*
X0167263Y0217165D02*
X0166453Y0217165D01*
X0157147Y0221962D02*
X0156481Y0221962D01*
X0156300Y0224361D02*
X0157147Y0224361D01*
X0158119Y0233955D02*
X0139300Y0233955D01*
X0139300Y0236353D02*
X0158119Y0236353D01*
X0170672Y0229158D02*
X0173131Y0229158D01*
X0173131Y0226759D02*
X0171300Y0226759D01*
X0171300Y0224361D02*
X0173136Y0224361D01*
X0196453Y0224361D02*
X0204500Y0224361D01*
X0204500Y0226759D02*
X0196453Y0226759D01*
X0196453Y0229158D02*
X0204500Y0229158D01*
X0204500Y0221962D02*
X0201481Y0221962D01*
X0201481Y0219564D02*
X0204500Y0219564D01*
X0204500Y0217165D02*
X0201481Y0217165D01*
X0204500Y0214767D02*
X0195100Y0214767D01*
X0194926Y0212368D02*
X0204500Y0212368D01*
X0203433Y0209970D02*
X0192528Y0209970D01*
X0196651Y0207571D02*
X0203618Y0207571D01*
X0207316Y0205173D02*
X0197284Y0205173D01*
X0196100Y0202774D02*
X0203726Y0202774D01*
X0203301Y0200376D02*
X0196100Y0200376D01*
X0196100Y0197977D02*
X0203301Y0197977D01*
X0203301Y0195579D02*
X0196100Y0195579D01*
X0196100Y0193180D02*
X0200119Y0193180D01*
X0200119Y0190782D02*
X0196100Y0190782D01*
X0196100Y0188383D02*
X0200119Y0188383D01*
X0201500Y0185985D02*
X0196100Y0185985D01*
X0196100Y0183586D02*
X0201500Y0183586D01*
X0201500Y0181188D02*
X0196383Y0181188D01*
X0196383Y0178789D02*
X0203500Y0178789D01*
X0210100Y0177144D02*
X0223479Y0177144D01*
X0223540Y0177204D01*
X0224041Y0177494D01*
X0224601Y0177644D01*
X0225454Y0177644D01*
X0225500Y0178789D01*
X0225500Y0181188D02*
X0210100Y0181188D01*
X0211481Y0183586D02*
X0225500Y0183586D01*
X0233785Y0178789D02*
X0243316Y0178789D01*
X0243977Y0176391D02*
X0237568Y0176391D01*
X0237811Y0173992D02*
X0247500Y0173992D01*
X0247500Y0171594D02*
X0237811Y0171594D01*
X0237811Y0169195D02*
X0247500Y0169195D01*
X0247500Y0166797D02*
X0247162Y0166797D01*
X0252100Y0166797D02*
X0260500Y0166797D01*
X0260500Y0169195D02*
X0252100Y0169195D01*
X0252100Y0171594D02*
X0260500Y0171594D01*
X0260500Y0173992D02*
X0252100Y0173992D01*
X0252100Y0176391D02*
X0260500Y0176391D01*
X0260500Y0178789D02*
X0252100Y0178789D01*
X0252100Y0181188D02*
X0260500Y0181188D01*
X0260500Y0183586D02*
X0252100Y0183586D01*
X0252100Y0185985D02*
X0260383Y0185985D01*
X0259316Y0188383D02*
X0253941Y0188383D01*
X0256340Y0190782D02*
X0260159Y0190782D01*
X0265217Y0185985D02*
X0269362Y0185985D01*
X0268316Y0183586D02*
X0265100Y0183586D01*
X0265100Y0181188D02*
X0269180Y0181188D01*
X0269500Y0178789D02*
X0265100Y0178789D01*
X0265100Y0176391D02*
X0269500Y0176391D01*
X0269500Y0173992D02*
X0265100Y0173992D01*
X0265100Y0171594D02*
X0269500Y0171594D01*
X0269500Y0169195D02*
X0265100Y0169195D01*
X0265100Y0166797D02*
X0269500Y0166797D01*
X0269500Y0164398D02*
X0265100Y0164398D01*
X0265100Y0162000D02*
X0269500Y0162000D01*
X0269500Y0159601D02*
X0265100Y0159601D01*
X0265100Y0157203D02*
X0268255Y0157203D01*
X0265857Y0154804D02*
X0265100Y0154804D01*
X0269963Y0152405D02*
X0284500Y0152405D01*
X0284500Y0154804D02*
X0272362Y0154804D01*
X0274100Y0157203D02*
X0284500Y0157203D01*
X0284300Y0159601D02*
X0274100Y0159601D01*
X0274100Y0162000D02*
X0284300Y0162000D01*
X0284300Y0164398D02*
X0274100Y0164398D01*
X0274100Y0166797D02*
X0284300Y0166797D01*
X0284300Y0169195D02*
X0274100Y0169195D01*
X0274100Y0171594D02*
X0284300Y0171594D01*
X0284300Y0173992D02*
X0274100Y0173992D01*
X0274100Y0176391D02*
X0284300Y0176391D01*
X0284300Y0178789D02*
X0274100Y0178789D01*
X0274420Y0181188D02*
X0284489Y0181188D01*
X0288235Y0183586D02*
X0275284Y0183586D01*
X0274238Y0185985D02*
X0303300Y0185985D01*
X0303300Y0183586D02*
X0297365Y0183586D01*
X0297453Y0181188D02*
X0303300Y0181188D01*
X0303300Y0178789D02*
X0297453Y0178789D01*
X0297080Y0176391D02*
X0303300Y0176391D01*
X0284385Y0150007D02*
X0267565Y0150007D01*
X0265166Y0147608D02*
X0271654Y0147608D01*
X0271647Y0145210D02*
X0262768Y0145210D01*
X0260369Y0142811D02*
X0271647Y0142811D01*
X0272147Y0140413D02*
X0257971Y0140413D01*
X0252661Y0147608D02*
X0247949Y0147608D01*
X0247949Y0150007D02*
X0255059Y0150007D01*
X0257458Y0152405D02*
X0251447Y0152405D01*
X0253284Y0154804D02*
X0259857Y0154804D01*
X0260500Y0157203D02*
X0252864Y0157203D01*
X0252100Y0159601D02*
X0260500Y0159601D01*
X0260500Y0162000D02*
X0252100Y0162000D01*
X0252100Y0164398D02*
X0260500Y0164398D01*
X0248153Y0152405D02*
X0247949Y0152405D01*
X0238643Y0152405D02*
X0236100Y0152405D01*
X0236100Y0150007D02*
X0238643Y0150007D01*
X0238643Y0147608D02*
X0236100Y0147608D01*
X0236100Y0145210D02*
X0238643Y0145210D01*
X0238643Y0142811D02*
X0236100Y0142811D01*
X0236135Y0140413D02*
X0238253Y0140413D01*
X0227500Y0140413D02*
X0222981Y0140413D01*
X0222981Y0141180D02*
X0221985Y0142176D01*
X0221600Y0142176D01*
X0221600Y0162367D01*
X0222254Y0163021D01*
X0222784Y0164302D01*
X0222784Y0165688D01*
X0222254Y0166968D01*
X0221384Y0167838D01*
X0223479Y0167838D01*
X0223540Y0167778D01*
X0224041Y0167488D01*
X0224601Y0167338D01*
X0225500Y0167338D01*
X0225500Y0166278D01*
X0225338Y0165628D01*
X0225500Y0165358D01*
X0225500Y0165042D01*
X0225973Y0164569D01*
X0226318Y0163995D01*
X0226624Y0163918D01*
X0226847Y0163695D01*
X0227517Y0163695D01*
X0231500Y0162699D01*
X0231500Y0158562D01*
X0230493Y0158979D01*
X0229107Y0158979D01*
X0227826Y0158449D01*
X0226846Y0157468D01*
X0226316Y0156188D01*
X0226316Y0154802D01*
X0226846Y0153521D01*
X0227500Y0152867D01*
X0227500Y0118122D01*
X0226846Y0117468D01*
X0226316Y0116188D01*
X0226316Y0114802D01*
X0226585Y0114151D01*
X0215015Y0114151D01*
X0215284Y0114802D01*
X0215284Y0116188D01*
X0214754Y0117468D01*
X0213774Y0118449D01*
X0212493Y0118979D01*
X0211107Y0118979D01*
X0209826Y0118449D01*
X0208846Y0117468D01*
X0208316Y0116188D01*
X0208316Y0114802D01*
X0208585Y0114151D01*
X0202089Y0114151D01*
X0202029Y0114212D01*
X0201527Y0114502D01*
X0201158Y0114600D01*
X0204753Y0118195D01*
X0208753Y0118195D01*
X0211753Y0121195D01*
X0222753Y0121195D01*
X0223753Y0122195D01*
X0225100Y0123542D01*
X0225100Y0125867D01*
X0225754Y0126521D01*
X0226284Y0127802D01*
X0226284Y0129188D01*
X0225754Y0130468D01*
X0224774Y0131449D01*
X0223493Y0131979D01*
X0222107Y0131979D01*
X0220826Y0131449D01*
X0219846Y0130468D01*
X0219316Y0129188D01*
X0219316Y0127802D01*
X0219846Y0126521D01*
X0220500Y0125867D01*
X0220500Y0125795D01*
X0210353Y0125795D01*
X0211100Y0126542D01*
X0213600Y0129042D01*
X0213600Y0130947D01*
X0213600Y0159947D01*
X0212253Y0161295D01*
X0206100Y0167447D01*
X0206100Y0167838D01*
X0217216Y0167838D01*
X0216346Y0166968D01*
X0215816Y0165688D01*
X0215816Y0164302D01*
X0216346Y0163021D01*
X0217000Y0162367D01*
X0217000Y0142176D01*
X0216615Y0142176D01*
X0215619Y0141180D01*
X0215619Y0135810D01*
X0216615Y0134814D01*
X0221985Y0134814D01*
X0222981Y0135810D01*
X0222981Y0141180D01*
X0221600Y0142811D02*
X0227500Y0142811D01*
X0227500Y0145210D02*
X0221600Y0145210D01*
X0221600Y0147608D02*
X0227500Y0147608D01*
X0227500Y0150007D02*
X0221600Y0150007D01*
X0221600Y0152405D02*
X0227500Y0152405D01*
X0226316Y0154804D02*
X0221600Y0154804D01*
X0221600Y0157203D02*
X0226736Y0157203D01*
X0231500Y0159601D02*
X0221600Y0159601D01*
X0221600Y0162000D02*
X0231500Y0162000D01*
X0236100Y0162000D02*
X0238643Y0162000D01*
X0238643Y0164398D02*
X0236147Y0164398D01*
X0234076Y0166797D02*
X0239430Y0166797D01*
X0238643Y0159601D02*
X0236100Y0159601D01*
X0236100Y0157203D02*
X0238643Y0157203D01*
X0238643Y0154804D02*
X0236100Y0154804D01*
X0226076Y0164398D02*
X0222784Y0164398D01*
X0222325Y0166797D02*
X0225500Y0166797D01*
X0216275Y0166797D02*
X0206751Y0166797D01*
X0209149Y0164398D02*
X0215816Y0164398D01*
X0217000Y0162000D02*
X0211548Y0162000D01*
X0213600Y0159601D02*
X0217000Y0159601D01*
X0217000Y0157203D02*
X0213600Y0157203D01*
X0213600Y0154804D02*
X0217000Y0154804D01*
X0217000Y0152405D02*
X0213600Y0152405D01*
X0213600Y0150007D02*
X0217000Y0150007D01*
X0217000Y0147608D02*
X0213600Y0147608D01*
X0213600Y0145210D02*
X0217000Y0145210D01*
X0217000Y0142811D02*
X0213600Y0142811D01*
X0213600Y0140413D02*
X0215619Y0140413D01*
X0215619Y0138014D02*
X0213600Y0138014D01*
X0213600Y0135616D02*
X0215813Y0135616D01*
X0213600Y0133217D02*
X0227500Y0133217D01*
X0227500Y0130819D02*
X0225403Y0130819D01*
X0226284Y0128420D02*
X0227500Y0128420D01*
X0227500Y0126022D02*
X0225255Y0126022D01*
X0225100Y0123623D02*
X0227500Y0123623D01*
X0227500Y0121225D02*
X0222783Y0121225D01*
X0223753Y0122195D02*
X0223753Y0122195D01*
X0227500Y0118826D02*
X0212862Y0118826D01*
X0210738Y0118826D02*
X0209384Y0118826D01*
X0208415Y0116428D02*
X0202986Y0116428D01*
X0215185Y0116428D02*
X0226415Y0116428D01*
X0220345Y0126022D02*
X0210580Y0126022D01*
X0212978Y0128420D02*
X0219316Y0128420D01*
X0220197Y0130819D02*
X0213600Y0130819D01*
X0222787Y0135616D02*
X0227500Y0135616D01*
X0227500Y0138014D02*
X0222981Y0138014D01*
X0197500Y0147447D02*
X0197500Y0154367D01*
X0197100Y0154767D01*
X0197100Y0153042D01*
X0189321Y0145263D01*
X0191316Y0145263D01*
X0191316Y0145263D01*
X0191847Y0145795D01*
X0195847Y0145795D01*
X0197500Y0147447D01*
X0197500Y0147608D02*
X0191666Y0147608D01*
X0194065Y0150007D02*
X0197500Y0150007D01*
X0197500Y0152405D02*
X0196463Y0152405D01*
X0175651Y0142832D02*
X0175651Y0139358D01*
X0161410Y0139358D01*
X0156953Y0134900D01*
X0156953Y0137175D01*
X0151880Y0137175D01*
X0151880Y0137334D01*
X0156953Y0137334D01*
X0156953Y0140103D01*
X0156803Y0140663D01*
X0156513Y0141165D01*
X0156329Y0141348D01*
X0156453Y0141472D01*
X0156453Y0142435D01*
X0162993Y0142435D01*
X0165253Y0144695D01*
X0175151Y0144695D01*
X0175151Y0143953D01*
X0175301Y0143394D01*
X0175591Y0142892D01*
X0175651Y0142832D01*
X0175651Y0142811D02*
X0163369Y0142811D01*
X0160067Y0138014D02*
X0156953Y0138014D01*
X0156953Y0135616D02*
X0157668Y0135616D01*
X0154548Y0132496D02*
X0151880Y0132496D01*
X0151880Y0137175D01*
X0151720Y0137175D01*
X0146647Y0137175D01*
X0146647Y0134406D01*
X0146797Y0133846D01*
X0147087Y0133345D01*
X0147496Y0132935D01*
X0147998Y0132646D01*
X0148558Y0132496D01*
X0151720Y0132496D01*
X0151720Y0137175D01*
X0151720Y0137334D01*
X0146647Y0137334D01*
X0146647Y0140103D01*
X0146763Y0140537D01*
X0145493Y0140011D01*
X0144212Y0140011D01*
X0144754Y0139468D01*
X0145284Y0138188D01*
X0145284Y0136802D01*
X0144754Y0135521D01*
X0144000Y0134767D01*
X0144000Y0114222D01*
X0144600Y0113622D01*
X0144600Y0123406D01*
X0145889Y0124695D01*
X0151889Y0130695D01*
X0152747Y0130695D01*
X0154548Y0132496D01*
X0152871Y0130819D02*
X0144000Y0130819D01*
X0144000Y0133217D02*
X0147214Y0133217D01*
X0146647Y0135616D02*
X0144793Y0135616D01*
X0145284Y0138014D02*
X0146647Y0138014D01*
X0146730Y0140413D02*
X0146464Y0140413D01*
X0141316Y0142811D02*
X0141000Y0142811D01*
X0141739Y0145210D02*
X0140196Y0145210D01*
X0139000Y0147608D02*
X0147147Y0147608D01*
X0151645Y0150007D02*
X0139000Y0150007D01*
X0139000Y0152405D02*
X0151406Y0152405D01*
X0153684Y0154804D02*
X0143476Y0154804D01*
X0143481Y0157203D02*
X0152981Y0157203D01*
X0150583Y0159601D02*
X0143481Y0159601D01*
X0146648Y0162000D02*
X0137100Y0162000D01*
X0137100Y0164398D02*
X0146403Y0164398D01*
X0148666Y0166797D02*
X0137100Y0166797D01*
X0137100Y0169195D02*
X0151988Y0169195D01*
X0150934Y0166797D02*
X0154387Y0166797D01*
X0153197Y0164398D02*
X0156644Y0164398D01*
X0154407Y0162000D02*
X0159043Y0162000D01*
X0156805Y0159601D02*
X0161441Y0159601D01*
X0159345Y0157203D02*
X0163840Y0157203D01*
X0165548Y0162000D02*
X0166619Y0162000D01*
X0166619Y0164398D02*
X0163149Y0164398D01*
X0160751Y0166797D02*
X0167235Y0166797D01*
X0168000Y0169195D02*
X0158211Y0169195D01*
X0155812Y0171594D02*
X0168000Y0171594D01*
X0168000Y0173992D02*
X0153414Y0173992D01*
X0151015Y0176391D02*
X0168000Y0176391D01*
X0168000Y0178789D02*
X0148617Y0178789D01*
X0146218Y0181188D02*
X0168000Y0181188D01*
X0168000Y0183586D02*
X0146000Y0183586D01*
X0146000Y0185985D02*
X0168000Y0185985D01*
X0168000Y0188383D02*
X0146000Y0188383D01*
X0146000Y0190782D02*
X0168000Y0190782D01*
X0168000Y0193180D02*
X0146000Y0193180D01*
X0146778Y0195579D02*
X0168000Y0195579D01*
X0168000Y0197977D02*
X0147284Y0197977D01*
X0118481Y0183586D02*
X0083100Y0183586D01*
X0083100Y0181188D02*
X0087837Y0181188D01*
X0095763Y0181188D02*
X0103131Y0181188D01*
X0103131Y0178789D02*
X0096453Y0178789D01*
X0098157Y0176391D02*
X0103131Y0176391D01*
X0110468Y0181188D02*
X0117837Y0181188D01*
X0134954Y0171594D02*
X0149590Y0171594D01*
X0156870Y0140413D02*
X0175651Y0140413D01*
X0151880Y0135616D02*
X0151720Y0135616D01*
X0151720Y0133217D02*
X0151880Y0133217D01*
X0149614Y0128420D02*
X0144000Y0128420D01*
X0144000Y0126022D02*
X0147216Y0126022D01*
X0144817Y0123623D02*
X0144000Y0123623D01*
X0144000Y0121225D02*
X0144600Y0121225D01*
X0144600Y0118826D02*
X0144000Y0118826D01*
X0144000Y0116428D02*
X0144600Y0116428D01*
X0144600Y0114029D02*
X0144193Y0114029D01*
X0157000Y0112469D02*
X0157369Y0112316D01*
X0157316Y0112188D01*
X0157316Y0110802D01*
X0157846Y0109521D01*
X0158826Y0108541D01*
X0159722Y0108170D01*
X0159316Y0107188D01*
X0159316Y0105802D01*
X0159846Y0104521D01*
X0160826Y0103541D01*
X0162107Y0103011D01*
X0163493Y0103011D01*
X0164500Y0103428D01*
X0164500Y0058290D01*
X0197773Y0025017D01*
X0197773Y0019716D01*
X0198769Y0018720D01*
X0206327Y0018720D01*
X0207323Y0019716D01*
X0207323Y0027195D01*
X0215867Y0027195D01*
X0215777Y0026859D01*
X0215777Y0023495D01*
X0221052Y0023495D01*
X0226327Y0023495D01*
X0226327Y0026859D01*
X0226237Y0027195D01*
X0242773Y0027195D01*
X0242773Y0019716D01*
X0243769Y0018720D01*
X0251327Y0018720D01*
X0252323Y0019716D01*
X0252323Y0027274D01*
X0251327Y0028270D01*
X0249848Y0028270D01*
X0249848Y0028699D01*
X0246753Y0031795D01*
X0200753Y0031795D01*
X0199753Y0032795D01*
X0199611Y0032795D01*
X0187592Y0044814D01*
X0190485Y0044814D01*
X0191481Y0045810D01*
X0191481Y0051180D01*
X0190485Y0052176D01*
X0190478Y0052176D01*
X0190478Y0089814D01*
X0194485Y0089814D01*
X0195481Y0090810D01*
X0195481Y0093923D01*
X0195720Y0094163D01*
X0195720Y0082668D01*
X0195500Y0082447D01*
X0195500Y0080542D01*
X0196847Y0079195D01*
X0205137Y0079195D01*
X0204740Y0078798D01*
X0204451Y0078297D01*
X0204301Y0077737D01*
X0204301Y0074574D01*
X0208980Y0074574D01*
X0208980Y0074415D01*
X0209139Y0074415D01*
X0209139Y0069342D01*
X0211909Y0069342D01*
X0212468Y0069492D01*
X0212970Y0069782D01*
X0213154Y0069965D01*
X0213277Y0069842D01*
X0219500Y0069842D01*
X0219500Y0069542D01*
X0220492Y0068550D01*
X0220087Y0068145D01*
X0219797Y0067643D01*
X0219647Y0067084D01*
X0219647Y0064314D01*
X0224720Y0064314D01*
X0224720Y0064155D01*
X0219647Y0064155D01*
X0219647Y0061386D01*
X0219797Y0060827D01*
X0220087Y0060325D01*
X0220271Y0060141D01*
X0220147Y0060018D01*
X0220147Y0053491D01*
X0221143Y0052496D01*
X0222300Y0052496D01*
X0222300Y0049179D01*
X0221910Y0049179D01*
X0220556Y0048618D01*
X0219519Y0047582D01*
X0218958Y0046228D01*
X0218958Y0044762D01*
X0219519Y0043408D01*
X0220556Y0042371D01*
X0221910Y0041811D01*
X0223375Y0041811D01*
X0224729Y0042371D01*
X0225392Y0043034D01*
X0226216Y0043375D01*
X0226919Y0044079D01*
X0227300Y0044998D01*
X0227300Y0052496D01*
X0228457Y0052496D01*
X0229453Y0053491D01*
X0229453Y0054455D01*
X0231587Y0054455D01*
X0231847Y0054195D01*
X0233753Y0054195D01*
X0235100Y0055542D01*
X0235100Y0069447D01*
X0234100Y0070447D01*
X0234100Y0070447D01*
X0232753Y0071795D01*
X0224100Y0071795D01*
X0224100Y0086447D01*
X0222753Y0087795D01*
X0219100Y0087795D01*
X0219100Y0093447D01*
X0217753Y0094795D01*
X0215753Y0096795D01*
X0212753Y0096795D01*
X0206100Y0103447D01*
X0206100Y0104846D01*
X0223280Y0104846D01*
X0223280Y0097763D01*
X0229500Y0091542D01*
X0230847Y0090195D01*
X0237247Y0090195D01*
X0236500Y0089447D01*
X0236500Y0068176D01*
X0236115Y0068176D01*
X0235119Y0067180D01*
X0235119Y0061810D01*
X0236115Y0060814D01*
X0241485Y0060814D01*
X0242481Y0061810D01*
X0242481Y0067180D01*
X0241485Y0068176D01*
X0241100Y0068176D01*
X0241100Y0086195D01*
X0248801Y0086195D01*
X0248801Y0084838D01*
X0249797Y0083842D01*
X0256323Y0083842D01*
X0256800Y0084319D01*
X0257277Y0083842D01*
X0263803Y0083842D01*
X0264799Y0084838D01*
X0264799Y0089195D01*
X0265753Y0089195D01*
X0267100Y0090542D01*
X0267568Y0091011D01*
X0268493Y0091011D01*
X0269774Y0091541D01*
X0270754Y0092521D01*
X0271284Y0093802D01*
X0271284Y0095188D01*
X0270754Y0096468D01*
X0269774Y0097449D01*
X0268493Y0097979D01*
X0267107Y0097979D01*
X0265826Y0097449D01*
X0265299Y0096921D01*
X0265299Y0098415D01*
X0260620Y0098415D01*
X0260620Y0098574D01*
X0265299Y0098574D01*
X0265299Y0101737D01*
X0265149Y0102297D01*
X0264860Y0102798D01*
X0264450Y0103208D01*
X0263948Y0103498D01*
X0263389Y0103648D01*
X0260620Y0103648D01*
X0260620Y0098574D01*
X0260461Y0098574D01*
X0260461Y0103648D01*
X0257691Y0103648D01*
X0257132Y0103498D01*
X0256630Y0103208D01*
X0256446Y0103024D01*
X0256323Y0103148D01*
X0251705Y0103148D01*
X0252753Y0104195D01*
X0284753Y0104195D01*
X0286100Y0105542D01*
X0297719Y0117161D01*
X0297316Y0116188D01*
X0297316Y0114802D01*
X0297846Y0113521D01*
X0298500Y0112867D01*
X0298500Y0101295D01*
X0296272Y0101295D01*
X0296272Y0102471D01*
X0295276Y0103466D01*
X0288324Y0103466D01*
X0287328Y0102471D01*
X0287328Y0095519D01*
X0288324Y0094523D01*
X0295276Y0094523D01*
X0296000Y0095247D01*
X0296000Y0081742D01*
X0295276Y0082466D01*
X0288324Y0082466D01*
X0287328Y0081471D01*
X0287328Y0074519D01*
X0288324Y0073523D01*
X0295276Y0073523D01*
X0296272Y0074519D01*
X0296272Y0075770D01*
X0297347Y0074695D01*
X0298847Y0073195D01*
X0305847Y0073195D01*
X0305866Y0073176D01*
X0304115Y0073176D01*
X0303119Y0072180D01*
X0303119Y0071795D01*
X0300847Y0071795D01*
X0299500Y0070447D01*
X0299500Y0066494D01*
X0298143Y0066494D01*
X0297147Y0065498D01*
X0297147Y0064535D01*
X0296453Y0064535D01*
X0296453Y0065498D01*
X0295457Y0066494D01*
X0293053Y0066494D01*
X0292753Y0066795D01*
X0289481Y0066795D01*
X0289481Y0067180D01*
X0288485Y0068176D01*
X0284481Y0068176D01*
X0284481Y0072180D01*
X0283485Y0073176D01*
X0278115Y0073176D01*
X0277119Y0072180D01*
X0277119Y0066810D01*
X0278115Y0065814D01*
X0278500Y0065814D01*
X0278500Y0017542D01*
X0279847Y0016195D01*
X0291163Y0016195D01*
X0291163Y0015330D01*
X0291998Y0014495D01*
X0008300Y0014495D01*
X0008300Y0019189D01*
X0008769Y0018720D01*
X0016327Y0018720D01*
X0017323Y0019716D01*
X0017323Y0025159D01*
X0025459Y0033295D01*
X0064237Y0033295D01*
X0059212Y0028270D01*
X0053769Y0028270D01*
X0052773Y0027274D01*
X0052773Y0019716D01*
X0053769Y0018720D01*
X0061327Y0018720D01*
X0062323Y0019716D01*
X0062323Y0025159D01*
X0067459Y0030295D01*
X0093711Y0030295D01*
X0095000Y0031584D01*
X0096000Y0032584D01*
X0096000Y0045584D01*
X0101600Y0051184D01*
X0101600Y0028270D01*
X0098769Y0028270D01*
X0097773Y0027274D01*
X0097773Y0019716D01*
X0098769Y0018720D01*
X0106327Y0018720D01*
X0107323Y0019716D01*
X0107323Y0027274D01*
X0106327Y0028270D01*
X0106000Y0028270D01*
X0106000Y0049584D01*
X0152434Y0096017D01*
X0152846Y0095021D01*
X0153500Y0094367D01*
X0153500Y0087199D01*
X0140570Y0074270D01*
X0135269Y0074270D01*
X0134273Y0073274D01*
X0134273Y0065716D01*
X0135269Y0064720D01*
X0142827Y0064720D01*
X0143823Y0065716D01*
X0143823Y0071017D01*
X0156753Y0083947D01*
X0158100Y0085294D01*
X0158100Y0094367D01*
X0158754Y0095021D01*
X0159284Y0096302D01*
X0159284Y0097688D01*
X0158754Y0098968D01*
X0157774Y0099949D01*
X0156778Y0100361D01*
X0157000Y0100584D01*
X0157000Y0112469D01*
X0157000Y0111631D02*
X0157316Y0111631D01*
X0157000Y0109232D02*
X0158135Y0109232D01*
X0157000Y0106834D02*
X0159316Y0106834D01*
X0159932Y0104435D02*
X0157000Y0104435D01*
X0157000Y0102037D02*
X0164500Y0102037D01*
X0164500Y0099638D02*
X0158084Y0099638D01*
X0159284Y0097240D02*
X0164500Y0097240D01*
X0164500Y0094841D02*
X0158574Y0094841D01*
X0158100Y0092443D02*
X0164500Y0092443D01*
X0164500Y0090044D02*
X0158100Y0090044D01*
X0158100Y0087646D02*
X0164500Y0087646D01*
X0164500Y0085247D02*
X0158053Y0085247D01*
X0156753Y0083947D02*
X0156753Y0083947D01*
X0155655Y0082849D02*
X0164500Y0082849D01*
X0164500Y0080450D02*
X0153256Y0080450D01*
X0150858Y0078052D02*
X0164500Y0078052D01*
X0164500Y0075653D02*
X0148459Y0075653D01*
X0146061Y0073255D02*
X0152777Y0073255D01*
X0152777Y0073274D02*
X0152777Y0065716D01*
X0153773Y0064720D01*
X0161331Y0064720D01*
X0162327Y0065716D01*
X0162327Y0073274D01*
X0161331Y0074270D01*
X0153773Y0074270D01*
X0152777Y0073274D01*
X0152777Y0070856D02*
X0143823Y0070856D01*
X0143823Y0068458D02*
X0152777Y0068458D01*
X0152777Y0066059D02*
X0143823Y0066059D01*
X0134273Y0066059D02*
X0122476Y0066059D01*
X0124874Y0068458D02*
X0134273Y0068458D01*
X0134273Y0070856D02*
X0127273Y0070856D01*
X0129671Y0073255D02*
X0134273Y0073255D01*
X0132070Y0075653D02*
X0141954Y0075653D01*
X0144352Y0078052D02*
X0134468Y0078052D01*
X0136867Y0080450D02*
X0146751Y0080450D01*
X0149149Y0082849D02*
X0139265Y0082849D01*
X0141664Y0085247D02*
X0151548Y0085247D01*
X0153500Y0087646D02*
X0144062Y0087646D01*
X0146461Y0090044D02*
X0153500Y0090044D01*
X0153500Y0092443D02*
X0148859Y0092443D01*
X0151258Y0094841D02*
X0153026Y0094841D01*
X0162327Y0073255D02*
X0164500Y0073255D01*
X0164500Y0070856D02*
X0162327Y0070856D01*
X0162327Y0068458D02*
X0164500Y0068458D01*
X0164500Y0066059D02*
X0162327Y0066059D01*
X0164500Y0063661D02*
X0120077Y0063661D01*
X0117679Y0061262D02*
X0164500Y0061262D01*
X0164500Y0058864D02*
X0115280Y0058864D01*
X0112881Y0056465D02*
X0166325Y0056465D01*
X0168724Y0054067D02*
X0110483Y0054067D01*
X0108084Y0051668D02*
X0152607Y0051668D01*
X0152119Y0051180D02*
X0152119Y0045810D01*
X0153115Y0044814D01*
X0153500Y0044814D01*
X0153500Y0028270D01*
X0148769Y0028270D01*
X0147773Y0027274D01*
X0147773Y0019716D01*
X0148769Y0018720D01*
X0156327Y0018720D01*
X0157323Y0019716D01*
X0157323Y0025017D01*
X0158100Y0025794D01*
X0158100Y0044814D01*
X0158485Y0044814D01*
X0159481Y0045810D01*
X0159481Y0051180D01*
X0158485Y0052176D01*
X0153115Y0052176D01*
X0152119Y0051180D01*
X0152119Y0049270D02*
X0106000Y0049270D01*
X0106000Y0046871D02*
X0152119Y0046871D01*
X0153500Y0044472D02*
X0106000Y0044472D01*
X0106000Y0042074D02*
X0153500Y0042074D01*
X0153500Y0039675D02*
X0106000Y0039675D01*
X0106000Y0037277D02*
X0153500Y0037277D01*
X0153500Y0034878D02*
X0106000Y0034878D01*
X0106000Y0032480D02*
X0153500Y0032480D01*
X0153500Y0030081D02*
X0106000Y0030081D01*
X0106914Y0027683D02*
X0116079Y0027683D01*
X0116216Y0027921D02*
X0115927Y0027419D01*
X0115777Y0026859D01*
X0115777Y0023495D01*
X0121052Y0023495D01*
X0121052Y0023495D01*
X0121052Y0028770D01*
X0124417Y0028770D01*
X0124976Y0028620D01*
X0125478Y0028330D01*
X0125887Y0027921D01*
X0126177Y0027419D01*
X0126327Y0026859D01*
X0126327Y0023495D01*
X0121052Y0023495D01*
X0121052Y0028770D01*
X0117687Y0028770D01*
X0117128Y0028620D01*
X0116626Y0028330D01*
X0116216Y0027921D01*
X0115777Y0025284D02*
X0107323Y0025284D01*
X0107323Y0022886D02*
X0115777Y0022886D01*
X0115777Y0023495D02*
X0115777Y0020130D01*
X0115927Y0019571D01*
X0116216Y0019069D01*
X0116626Y0018659D01*
X0117128Y0018370D01*
X0117687Y0018220D01*
X0121052Y0018220D01*
X0124417Y0018220D01*
X0124976Y0018370D01*
X0125478Y0018659D01*
X0125887Y0019069D01*
X0126177Y0019571D01*
X0126327Y0020130D01*
X0126327Y0023495D01*
X0121052Y0023495D01*
X0121052Y0023495D01*
X0121052Y0023495D01*
X0121052Y0018220D01*
X0121052Y0023495D01*
X0121052Y0023495D01*
X0115777Y0023495D01*
X0115777Y0020487D02*
X0107323Y0020487D01*
X0097773Y0020487D02*
X0081327Y0020487D01*
X0081327Y0020130D02*
X0081327Y0023495D01*
X0081327Y0026859D01*
X0081177Y0027419D01*
X0080887Y0027921D01*
X0080478Y0028330D01*
X0079976Y0028620D01*
X0079417Y0028770D01*
X0076052Y0028770D01*
X0076052Y0023495D01*
X0076052Y0023495D01*
X0076052Y0028770D01*
X0072687Y0028770D01*
X0072128Y0028620D01*
X0071626Y0028330D01*
X0071216Y0027921D01*
X0070927Y0027419D01*
X0070777Y0026859D01*
X0070777Y0023495D01*
X0076052Y0023495D01*
X0081327Y0023495D01*
X0076052Y0023495D01*
X0076052Y0023495D01*
X0076052Y0023495D01*
X0076052Y0018220D01*
X0079417Y0018220D01*
X0079976Y0018370D01*
X0080478Y0018659D01*
X0080887Y0019069D01*
X0081177Y0019571D01*
X0081327Y0020130D01*
X0081327Y0022886D02*
X0097773Y0022886D01*
X0097773Y0025284D02*
X0081327Y0025284D01*
X0081025Y0027683D02*
X0098182Y0027683D01*
X0101600Y0030081D02*
X0067246Y0030081D01*
X0064847Y0027683D02*
X0071079Y0027683D01*
X0070777Y0025284D02*
X0062449Y0025284D01*
X0062323Y0022886D02*
X0070777Y0022886D01*
X0070777Y0023495D02*
X0070777Y0020130D01*
X0070927Y0019571D01*
X0071216Y0019069D01*
X0071626Y0018659D01*
X0072128Y0018370D01*
X0072687Y0018220D01*
X0076052Y0018220D01*
X0076052Y0023495D01*
X0076052Y0023495D01*
X0070777Y0023495D01*
X0070777Y0020487D02*
X0062323Y0020487D01*
X0052773Y0020487D02*
X0036327Y0020487D01*
X0036327Y0020130D02*
X0036327Y0023495D01*
X0036327Y0026859D01*
X0036177Y0027419D01*
X0035887Y0027921D01*
X0035478Y0028330D01*
X0034976Y0028620D01*
X0034417Y0028770D01*
X0031052Y0028770D01*
X0031052Y0023495D01*
X0031052Y0023495D01*
X0031052Y0028770D01*
X0027687Y0028770D01*
X0027128Y0028620D01*
X0026626Y0028330D01*
X0026216Y0027921D01*
X0025927Y0027419D01*
X0025777Y0026859D01*
X0025777Y0023495D01*
X0031052Y0023495D01*
X0036327Y0023495D01*
X0031052Y0023495D01*
X0031052Y0023495D01*
X0031052Y0023495D01*
X0031052Y0018220D01*
X0034417Y0018220D01*
X0034976Y0018370D01*
X0035478Y0018659D01*
X0035887Y0019069D01*
X0036177Y0019571D01*
X0036327Y0020130D01*
X0036327Y0022886D02*
X0052773Y0022886D01*
X0052773Y0025284D02*
X0036327Y0025284D01*
X0036025Y0027683D02*
X0053182Y0027683D01*
X0061023Y0030081D02*
X0022246Y0030081D01*
X0019847Y0027683D02*
X0026079Y0027683D01*
X0025777Y0025284D02*
X0017449Y0025284D01*
X0017323Y0022886D02*
X0025777Y0022886D01*
X0025777Y0023495D02*
X0025777Y0020130D01*
X0025927Y0019571D01*
X0026216Y0019069D01*
X0026626Y0018659D01*
X0027128Y0018370D01*
X0027687Y0018220D01*
X0031052Y0018220D01*
X0031052Y0023495D01*
X0031052Y0023495D01*
X0025777Y0023495D01*
X0025777Y0020487D02*
X0017323Y0020487D01*
X0008300Y0018089D02*
X0278500Y0018089D01*
X0278500Y0020487D02*
X0271327Y0020487D01*
X0271327Y0020130D02*
X0271327Y0023495D01*
X0271327Y0026859D01*
X0271177Y0027419D01*
X0270887Y0027921D01*
X0270478Y0028330D01*
X0269976Y0028620D01*
X0269417Y0028770D01*
X0266052Y0028770D01*
X0266052Y0023495D01*
X0266052Y0023495D01*
X0266052Y0028770D01*
X0262687Y0028770D01*
X0262128Y0028620D01*
X0261626Y0028330D01*
X0261216Y0027921D01*
X0260927Y0027419D01*
X0260777Y0026859D01*
X0260777Y0023495D01*
X0266052Y0023495D01*
X0271327Y0023495D01*
X0266052Y0023495D01*
X0266052Y0023495D01*
X0266052Y0023495D01*
X0266052Y0018220D01*
X0269417Y0018220D01*
X0269976Y0018370D01*
X0270478Y0018659D01*
X0270887Y0019069D01*
X0271177Y0019571D01*
X0271327Y0020130D01*
X0271327Y0022886D02*
X0278500Y0022886D01*
X0278500Y0025284D02*
X0271327Y0025284D01*
X0271025Y0027683D02*
X0278500Y0027683D01*
X0278500Y0030081D02*
X0248466Y0030081D01*
X0251914Y0027683D02*
X0261079Y0027683D01*
X0260777Y0025284D02*
X0252323Y0025284D01*
X0252323Y0022886D02*
X0260777Y0022886D01*
X0260777Y0023495D02*
X0260777Y0020130D01*
X0260927Y0019571D01*
X0261216Y0019069D01*
X0261626Y0018659D01*
X0262128Y0018370D01*
X0262687Y0018220D01*
X0266052Y0018220D01*
X0266052Y0023495D01*
X0266052Y0023495D01*
X0260777Y0023495D01*
X0260777Y0020487D02*
X0252323Y0020487D01*
X0242773Y0020487D02*
X0226327Y0020487D01*
X0226327Y0020130D02*
X0226327Y0023495D01*
X0221052Y0023495D01*
X0221052Y0023495D01*
X0221052Y0023495D01*
X0221052Y0018220D01*
X0224417Y0018220D01*
X0224976Y0018370D01*
X0225478Y0018659D01*
X0225887Y0019069D01*
X0226177Y0019571D01*
X0226327Y0020130D01*
X0226327Y0022886D02*
X0242773Y0022886D01*
X0242773Y0025284D02*
X0226327Y0025284D01*
X0221052Y0023495D02*
X0221052Y0023495D01*
X0215777Y0023495D01*
X0215777Y0020130D01*
X0215927Y0019571D01*
X0216216Y0019069D01*
X0216626Y0018659D01*
X0217128Y0018370D01*
X0217687Y0018220D01*
X0221052Y0018220D01*
X0221052Y0023495D01*
X0221052Y0022886D02*
X0221052Y0022886D01*
X0221052Y0020487D02*
X0221052Y0020487D01*
X0215777Y0020487D02*
X0207323Y0020487D01*
X0207323Y0022886D02*
X0215777Y0022886D01*
X0215777Y0025284D02*
X0207323Y0025284D01*
X0197506Y0025284D02*
X0176327Y0025284D01*
X0176327Y0026859D02*
X0176177Y0027419D01*
X0175887Y0027921D01*
X0175478Y0028330D01*
X0174976Y0028620D01*
X0174417Y0028770D01*
X0171052Y0028770D01*
X0171052Y0023495D01*
X0171052Y0023495D01*
X0171052Y0028770D01*
X0167687Y0028770D01*
X0167128Y0028620D01*
X0166626Y0028330D01*
X0166216Y0027921D01*
X0165927Y0027419D01*
X0165777Y0026859D01*
X0165777Y0023495D01*
X0171052Y0023495D01*
X0176327Y0023495D01*
X0176327Y0026859D01*
X0176025Y0027683D02*
X0195107Y0027683D01*
X0192709Y0030081D02*
X0158100Y0030081D01*
X0158100Y0027683D02*
X0166079Y0027683D01*
X0165777Y0025284D02*
X0157590Y0025284D01*
X0157323Y0022886D02*
X0165777Y0022886D01*
X0165777Y0023495D02*
X0165777Y0020130D01*
X0165927Y0019571D01*
X0166216Y0019069D01*
X0166626Y0018659D01*
X0167128Y0018370D01*
X0167687Y0018220D01*
X0171052Y0018220D01*
X0174417Y0018220D01*
X0174976Y0018370D01*
X0175478Y0018659D01*
X0175887Y0019069D01*
X0176177Y0019571D01*
X0176327Y0020130D01*
X0176327Y0023495D01*
X0171052Y0023495D01*
X0171052Y0023495D01*
X0171052Y0023495D01*
X0171052Y0018220D01*
X0171052Y0023495D01*
X0171052Y0023495D01*
X0165777Y0023495D01*
X0165777Y0020487D02*
X0157323Y0020487D01*
X0147773Y0020487D02*
X0126327Y0020487D01*
X0126327Y0022886D02*
X0147773Y0022886D01*
X0147773Y0025284D02*
X0126327Y0025284D01*
X0126025Y0027683D02*
X0148182Y0027683D01*
X0158100Y0032480D02*
X0190310Y0032480D01*
X0187912Y0034878D02*
X0158100Y0034878D01*
X0158100Y0037277D02*
X0185513Y0037277D01*
X0183115Y0039675D02*
X0158100Y0039675D01*
X0158100Y0042074D02*
X0180716Y0042074D01*
X0178318Y0044472D02*
X0158100Y0044472D01*
X0159481Y0046871D02*
X0175919Y0046871D01*
X0173521Y0049270D02*
X0159481Y0049270D01*
X0158993Y0051668D02*
X0171122Y0051668D01*
X0187934Y0044472D02*
X0199393Y0044472D01*
X0199273Y0044762D02*
X0199834Y0043408D01*
X0200871Y0042371D01*
X0202225Y0041811D01*
X0203690Y0041811D01*
X0205044Y0042371D01*
X0205930Y0043257D01*
X0206216Y0043375D01*
X0206919Y0044079D01*
X0207300Y0044998D01*
X0207300Y0052496D01*
X0208457Y0052496D01*
X0209453Y0053491D01*
X0209453Y0060018D01*
X0209329Y0060141D01*
X0209513Y0060325D01*
X0209803Y0060827D01*
X0209953Y0061386D01*
X0209953Y0064155D01*
X0204880Y0064155D01*
X0204880Y0064314D01*
X0209953Y0064314D01*
X0209953Y0067084D01*
X0209803Y0067643D01*
X0209513Y0068145D01*
X0209104Y0068554D01*
X0208602Y0068844D01*
X0208042Y0068994D01*
X0204880Y0068994D01*
X0204880Y0064315D01*
X0204720Y0064315D01*
X0204720Y0068994D01*
X0201558Y0068994D01*
X0200998Y0068844D01*
X0200496Y0068554D01*
X0200087Y0068145D01*
X0199797Y0067643D01*
X0199647Y0067084D01*
X0199647Y0064314D01*
X0204720Y0064314D01*
X0204720Y0064155D01*
X0199647Y0064155D01*
X0199647Y0061386D01*
X0199797Y0060827D01*
X0200087Y0060325D01*
X0200271Y0060141D01*
X0200147Y0060018D01*
X0200147Y0053491D01*
X0201143Y0052496D01*
X0202300Y0052496D01*
X0202300Y0049179D01*
X0202225Y0049179D01*
X0200871Y0048618D01*
X0199834Y0047582D01*
X0199273Y0046228D01*
X0199273Y0044762D01*
X0199540Y0046871D02*
X0191481Y0046871D01*
X0191481Y0049270D02*
X0202300Y0049270D01*
X0202300Y0051668D02*
X0190993Y0051668D01*
X0190478Y0054067D02*
X0200147Y0054067D01*
X0200147Y0056465D02*
X0190478Y0056465D01*
X0190478Y0058864D02*
X0200147Y0058864D01*
X0199681Y0061262D02*
X0190478Y0061262D01*
X0190478Y0063661D02*
X0199647Y0063661D01*
X0199647Y0066059D02*
X0190478Y0066059D01*
X0190478Y0068458D02*
X0200400Y0068458D01*
X0204720Y0068458D02*
X0204880Y0068458D01*
X0205652Y0069492D02*
X0205150Y0069782D01*
X0204740Y0070191D01*
X0204451Y0070693D01*
X0204301Y0071252D01*
X0204301Y0074415D01*
X0208980Y0074415D01*
X0208980Y0069342D01*
X0206211Y0069342D01*
X0205652Y0069492D01*
X0204407Y0070856D02*
X0190478Y0070856D01*
X0190478Y0073255D02*
X0204301Y0073255D01*
X0204301Y0075653D02*
X0190478Y0075653D01*
X0190478Y0078052D02*
X0204385Y0078052D01*
X0208980Y0073255D02*
X0209139Y0073255D01*
X0209139Y0070856D02*
X0208980Y0070856D01*
X0209200Y0068458D02*
X0220400Y0068458D01*
X0219647Y0066059D02*
X0209953Y0066059D01*
X0209953Y0063661D02*
X0219647Y0063661D01*
X0219681Y0061262D02*
X0209919Y0061262D01*
X0209453Y0058864D02*
X0220147Y0058864D01*
X0220147Y0056465D02*
X0209453Y0056465D01*
X0209453Y0054067D02*
X0220147Y0054067D01*
X0222300Y0051668D02*
X0207300Y0051668D01*
X0207300Y0049270D02*
X0222300Y0049270D01*
X0219225Y0046871D02*
X0207300Y0046871D01*
X0207083Y0044472D02*
X0219078Y0044472D01*
X0221274Y0042074D02*
X0204326Y0042074D01*
X0201589Y0042074D02*
X0190332Y0042074D01*
X0192731Y0039675D02*
X0278500Y0039675D01*
X0278500Y0037277D02*
X0195129Y0037277D01*
X0197528Y0034878D02*
X0278500Y0034878D01*
X0278500Y0032480D02*
X0200068Y0032480D01*
X0197773Y0022886D02*
X0176327Y0022886D01*
X0176327Y0020487D02*
X0197773Y0020487D01*
X0171052Y0020487D02*
X0171052Y0020487D01*
X0171052Y0022886D02*
X0171052Y0022886D01*
X0171052Y0025284D02*
X0171052Y0025284D01*
X0171052Y0027683D02*
X0171052Y0027683D01*
X0121052Y0027683D02*
X0121052Y0027683D01*
X0121052Y0025284D02*
X0121052Y0025284D01*
X0121052Y0022886D02*
X0121052Y0022886D01*
X0121052Y0020487D02*
X0121052Y0020487D01*
X0101600Y0032480D02*
X0095896Y0032480D01*
X0096000Y0034878D02*
X0101600Y0034878D01*
X0101600Y0037277D02*
X0096000Y0037277D01*
X0096000Y0039675D02*
X0101600Y0039675D01*
X0101600Y0042074D02*
X0096000Y0042074D01*
X0096000Y0044472D02*
X0101600Y0044472D01*
X0101600Y0046871D02*
X0097287Y0046871D01*
X0099686Y0049270D02*
X0101600Y0049270D01*
X0087057Y0058864D02*
X0077100Y0058864D01*
X0077100Y0061262D02*
X0089456Y0061262D01*
X0091855Y0063661D02*
X0077100Y0063661D01*
X0077100Y0066059D02*
X0081308Y0066059D01*
X0080316Y0068458D02*
X0077100Y0068458D01*
X0077100Y0070856D02*
X0081234Y0070856D01*
X0077100Y0073255D02*
X0085449Y0073255D01*
X0087847Y0075653D02*
X0077100Y0075653D01*
X0077100Y0078052D02*
X0090246Y0078052D01*
X0092644Y0080450D02*
X0077100Y0080450D01*
X0077100Y0082849D02*
X0095043Y0082849D01*
X0097441Y0085247D02*
X0077100Y0085247D01*
X0077100Y0087646D02*
X0099840Y0087646D01*
X0102238Y0090044D02*
X0081716Y0090044D01*
X0081485Y0089814D02*
X0082481Y0090810D01*
X0082481Y0096180D01*
X0081485Y0097176D01*
X0076372Y0097176D01*
X0075753Y0097795D01*
X0051847Y0097795D01*
X0050500Y0096447D01*
X0050500Y0093148D01*
X0049797Y0093148D01*
X0048801Y0092152D01*
X0048801Y0090995D01*
X0021272Y0090995D01*
X0021272Y0092471D01*
X0020276Y0093466D01*
X0013324Y0093466D01*
X0012328Y0092471D01*
X0012328Y0085519D01*
X0013324Y0084523D01*
X0020276Y0084523D01*
X0021272Y0085519D01*
X0021272Y0085995D01*
X0048801Y0085995D01*
X0048801Y0084838D01*
X0049797Y0083842D01*
X0056323Y0083842D01*
X0056800Y0084319D01*
X0057277Y0083842D01*
X0058240Y0083842D01*
X0058240Y0081542D01*
X0059587Y0080195D01*
X0064500Y0080195D01*
X0064500Y0075629D01*
X0064138Y0075479D01*
X0062816Y0074157D01*
X0062100Y0072430D01*
X0062100Y0064560D01*
X0062816Y0062832D01*
X0064138Y0061510D01*
X0065382Y0060995D01*
X0064138Y0060479D01*
X0062816Y0059157D01*
X0062100Y0057430D01*
X0062100Y0049560D01*
X0062816Y0047832D01*
X0064138Y0046510D01*
X0065865Y0045795D01*
X0067735Y0045795D01*
X0069462Y0046510D01*
X0070784Y0047832D01*
X0071500Y0049560D01*
X0071500Y0052195D01*
X0075753Y0052195D01*
X0077100Y0053542D01*
X0077100Y0089814D01*
X0081485Y0089814D01*
X0082481Y0092443D02*
X0104637Y0092443D01*
X0107035Y0094841D02*
X0082481Y0094841D01*
X0076308Y0097240D02*
X0109434Y0097240D01*
X0111832Y0099638D02*
X0008300Y0099638D01*
X0008300Y0097240D02*
X0051292Y0097240D01*
X0050500Y0094841D02*
X0008300Y0094841D01*
X0008300Y0092443D02*
X0012328Y0092443D01*
X0012328Y0090044D02*
X0008300Y0090044D01*
X0008300Y0087646D02*
X0012328Y0087646D01*
X0012600Y0085247D02*
X0008300Y0085247D01*
X0008300Y0082849D02*
X0058240Y0082849D01*
X0059332Y0080450D02*
X0008300Y0080450D01*
X0008300Y0078052D02*
X0064500Y0078052D01*
X0064500Y0075653D02*
X0059043Y0075653D01*
X0061158Y0073255D02*
X0062442Y0073255D01*
X0062100Y0070856D02*
X0061500Y0070856D01*
X0061500Y0068458D02*
X0062100Y0068458D01*
X0062100Y0066059D02*
X0061500Y0066059D01*
X0061127Y0063661D02*
X0062473Y0063661D01*
X0064737Y0061262D02*
X0058863Y0061262D01*
X0060906Y0058864D02*
X0062694Y0058864D01*
X0062100Y0056465D02*
X0061500Y0056465D01*
X0061500Y0054067D02*
X0062100Y0054067D01*
X0062100Y0051668D02*
X0061500Y0051668D01*
X0061380Y0049270D02*
X0062220Y0049270D01*
X0063777Y0046871D02*
X0059823Y0046871D01*
X0059000Y0044472D02*
X0076434Y0044472D01*
X0076617Y0042074D02*
X0059000Y0042074D01*
X0054600Y0042074D02*
X0008300Y0042074D01*
X0008300Y0044472D02*
X0054600Y0044472D01*
X0053777Y0046871D02*
X0049823Y0046871D01*
X0049462Y0046510D02*
X0050784Y0047832D01*
X0051500Y0049560D01*
X0051500Y0057430D01*
X0050784Y0059157D01*
X0049462Y0060479D01*
X0048882Y0060720D01*
X0049525Y0061047D01*
X0050188Y0061528D01*
X0050766Y0062107D01*
X0051247Y0062769D01*
X0051619Y0063499D01*
X0051872Y0064277D01*
X0052000Y0065086D01*
X0052000Y0068495D01*
X0052000Y0071904D01*
X0051872Y0072712D01*
X0051619Y0073491D01*
X0051247Y0074220D01*
X0050766Y0074882D01*
X0050188Y0075461D01*
X0049525Y0075942D01*
X0048796Y0076314D01*
X0048018Y0076567D01*
X0047209Y0076695D01*
X0046800Y0076695D01*
X0046800Y0068495D01*
X0046800Y0068495D01*
X0046800Y0076695D01*
X0046391Y0076695D01*
X0045582Y0076567D01*
X0044804Y0076314D01*
X0044075Y0075942D01*
X0043412Y0075461D01*
X0042834Y0074882D01*
X0042353Y0074220D01*
X0041981Y0073491D01*
X0041728Y0072712D01*
X0041600Y0071904D01*
X0041600Y0068495D01*
X0046800Y0068495D01*
X0052000Y0068495D01*
X0046800Y0068495D01*
X0046800Y0068495D01*
X0046800Y0068495D01*
X0041600Y0068495D01*
X0041600Y0065086D01*
X0041728Y0064277D01*
X0041981Y0063499D01*
X0042353Y0062769D01*
X0042834Y0062107D01*
X0043412Y0061528D01*
X0044075Y0061047D01*
X0044718Y0060720D01*
X0044138Y0060479D01*
X0042816Y0059157D01*
X0042100Y0057430D01*
X0042100Y0049560D01*
X0042816Y0047832D01*
X0044138Y0046510D01*
X0045865Y0045795D01*
X0047735Y0045795D01*
X0049462Y0046510D01*
X0051380Y0049270D02*
X0052220Y0049270D01*
X0052100Y0051668D02*
X0051500Y0051668D01*
X0051500Y0054067D02*
X0052100Y0054067D01*
X0052100Y0056465D02*
X0051500Y0056465D01*
X0050906Y0058864D02*
X0052694Y0058864D01*
X0054737Y0061262D02*
X0049821Y0061262D01*
X0051672Y0063661D02*
X0052473Y0063661D01*
X0052100Y0066059D02*
X0052000Y0066059D01*
X0052000Y0068458D02*
X0052100Y0068458D01*
X0052100Y0070856D02*
X0052000Y0070856D01*
X0051696Y0073255D02*
X0052442Y0073255D01*
X0054557Y0075653D02*
X0049923Y0075653D01*
X0046800Y0075653D02*
X0046800Y0075653D01*
X0046800Y0073255D02*
X0046800Y0073255D01*
X0046800Y0070856D02*
X0046800Y0070856D01*
X0041600Y0070856D02*
X0021772Y0070856D01*
X0021772Y0071056D02*
X0021622Y0071616D01*
X0021332Y0072117D01*
X0020922Y0072527D01*
X0020421Y0072817D01*
X0019861Y0072966D01*
X0016800Y0072966D01*
X0016800Y0067995D01*
X0016800Y0067995D01*
X0016800Y0072966D01*
X0013739Y0072966D01*
X0013179Y0072817D01*
X0012678Y0072527D01*
X0012268Y0072117D01*
X0011978Y0071616D01*
X0011828Y0071056D01*
X0011828Y0067995D01*
X0016800Y0067995D01*
X0021772Y0067995D01*
X0021772Y0071056D01*
X0021772Y0068458D02*
X0041600Y0068458D01*
X0041600Y0066059D02*
X0021772Y0066059D01*
X0021772Y0064934D02*
X0021772Y0067995D01*
X0016800Y0067995D01*
X0016800Y0067995D01*
X0016800Y0067995D01*
X0011828Y0067995D01*
X0011828Y0064934D01*
X0011978Y0064374D01*
X0012268Y0063872D01*
X0012678Y0063463D01*
X0013179Y0063173D01*
X0013739Y0063023D01*
X0016800Y0063023D01*
X0019861Y0063023D01*
X0020421Y0063173D01*
X0020922Y0063463D01*
X0021332Y0063872D01*
X0021622Y0064374D01*
X0021772Y0064934D01*
X0021120Y0063661D02*
X0041928Y0063661D01*
X0043779Y0061262D02*
X0008300Y0061262D01*
X0008300Y0058864D02*
X0042694Y0058864D01*
X0042100Y0056465D02*
X0008300Y0056465D01*
X0008300Y0054067D02*
X0042100Y0054067D01*
X0042100Y0051668D02*
X0008300Y0051668D01*
X0008300Y0049270D02*
X0042220Y0049270D01*
X0043777Y0046871D02*
X0008300Y0046871D01*
X0008300Y0039675D02*
X0054600Y0039675D01*
X0063422Y0032480D02*
X0024644Y0032480D01*
X0020820Y0034878D02*
X0008300Y0034878D01*
X0008300Y0032480D02*
X0018422Y0032480D01*
X0016023Y0030081D02*
X0008300Y0030081D01*
X0008300Y0037277D02*
X0023219Y0037277D01*
X0031052Y0027683D02*
X0031052Y0027683D01*
X0031052Y0025284D02*
X0031052Y0025284D01*
X0031052Y0022886D02*
X0031052Y0022886D01*
X0031052Y0020487D02*
X0031052Y0020487D01*
X0008300Y0015690D02*
X0291163Y0015690D01*
X0301602Y0014495D02*
X0302437Y0015330D01*
X0302437Y0016195D01*
X0305753Y0016195D01*
X0307100Y0017542D01*
X0308100Y0018542D01*
X0308100Y0042542D01*
X0310300Y0044742D01*
X0310300Y0014495D01*
X0301602Y0014495D01*
X0302437Y0015690D02*
X0310300Y0015690D01*
X0310300Y0018089D02*
X0307647Y0018089D01*
X0308100Y0020487D02*
X0310300Y0020487D01*
X0310300Y0022886D02*
X0308100Y0022886D01*
X0308100Y0025284D02*
X0310300Y0025284D01*
X0310300Y0027683D02*
X0308100Y0027683D01*
X0308100Y0030081D02*
X0310300Y0030081D01*
X0310300Y0032480D02*
X0308100Y0032480D01*
X0308100Y0034878D02*
X0310300Y0034878D01*
X0310300Y0037277D02*
X0308100Y0037277D01*
X0308100Y0039675D02*
X0310300Y0039675D01*
X0310300Y0042074D02*
X0308100Y0042074D01*
X0310030Y0044472D02*
X0310300Y0044472D01*
X0297708Y0066059D02*
X0295892Y0066059D01*
X0299500Y0068458D02*
X0284481Y0068458D01*
X0284481Y0070856D02*
X0299909Y0070856D01*
X0298788Y0073255D02*
X0241100Y0073255D01*
X0242115Y0074814D02*
X0247485Y0074814D01*
X0248481Y0075810D01*
X0248481Y0076195D01*
X0248801Y0076195D01*
X0248801Y0074838D01*
X0249797Y0073842D01*
X0256323Y0073842D01*
X0256446Y0073965D01*
X0256630Y0073782D01*
X0257132Y0073492D01*
X0257691Y0073342D01*
X0260461Y0073342D01*
X0260461Y0078415D01*
X0260620Y0078415D01*
X0260620Y0078574D01*
X0265299Y0078574D01*
X0265299Y0081737D01*
X0265149Y0082297D01*
X0264860Y0082798D01*
X0264450Y0083208D01*
X0263948Y0083498D01*
X0263389Y0083648D01*
X0260620Y0083648D01*
X0260620Y0078574D01*
X0260461Y0078574D01*
X0260461Y0083648D01*
X0257691Y0083648D01*
X0257132Y0083498D01*
X0256630Y0083208D01*
X0256446Y0083024D01*
X0256323Y0083148D01*
X0249797Y0083148D01*
X0248801Y0082152D01*
X0248801Y0080795D01*
X0248481Y0080795D01*
X0248481Y0081180D01*
X0247485Y0082176D01*
X0242115Y0082176D01*
X0241119Y0081180D01*
X0241119Y0075810D01*
X0242115Y0074814D01*
X0241275Y0075653D02*
X0241100Y0075653D01*
X0241100Y0078052D02*
X0241119Y0078052D01*
X0241100Y0080450D02*
X0241119Y0080450D01*
X0241100Y0082849D02*
X0249498Y0082849D01*
X0248801Y0085247D02*
X0241100Y0085247D01*
X0236500Y0085247D02*
X0224100Y0085247D01*
X0224100Y0082849D02*
X0236500Y0082849D01*
X0236500Y0080450D02*
X0224100Y0080450D01*
X0224100Y0078052D02*
X0236500Y0078052D01*
X0236500Y0075653D02*
X0224100Y0075653D01*
X0224100Y0073255D02*
X0236500Y0073255D01*
X0236500Y0070856D02*
X0233691Y0070856D01*
X0235100Y0068458D02*
X0236500Y0068458D01*
X0235119Y0066059D02*
X0235100Y0066059D01*
X0235100Y0063661D02*
X0235119Y0063661D01*
X0235100Y0061262D02*
X0235666Y0061262D01*
X0235100Y0058864D02*
X0278500Y0058864D01*
X0278500Y0061262D02*
X0241934Y0061262D01*
X0242481Y0063661D02*
X0278500Y0063661D01*
X0277869Y0066059D02*
X0242481Y0066059D01*
X0241100Y0068458D02*
X0277119Y0068458D01*
X0277119Y0070856D02*
X0241100Y0070856D01*
X0248325Y0075653D02*
X0248801Y0075653D01*
X0260461Y0075653D02*
X0260620Y0075653D01*
X0260620Y0073342D02*
X0263389Y0073342D01*
X0263948Y0073492D01*
X0264450Y0073782D01*
X0264860Y0074191D01*
X0265149Y0074693D01*
X0265299Y0075252D01*
X0265299Y0078415D01*
X0260620Y0078415D01*
X0260620Y0073342D01*
X0260620Y0078052D02*
X0260461Y0078052D01*
X0260461Y0080450D02*
X0260620Y0080450D01*
X0260620Y0082849D02*
X0260461Y0082849D01*
X0264809Y0082849D02*
X0296000Y0082849D01*
X0296000Y0085247D02*
X0264799Y0085247D01*
X0264799Y0087646D02*
X0296000Y0087646D01*
X0296000Y0090044D02*
X0266602Y0090044D01*
X0270675Y0092443D02*
X0296000Y0092443D01*
X0296000Y0094841D02*
X0295594Y0094841D01*
X0288006Y0094841D02*
X0271284Y0094841D01*
X0269983Y0097240D02*
X0287328Y0097240D01*
X0287328Y0099638D02*
X0265299Y0099638D01*
X0265299Y0097240D02*
X0265617Y0097240D01*
X0265219Y0102037D02*
X0287328Y0102037D01*
X0284993Y0104435D02*
X0298500Y0104435D01*
X0298500Y0102037D02*
X0296272Y0102037D01*
X0298500Y0106834D02*
X0287392Y0106834D01*
X0289790Y0109232D02*
X0298500Y0109232D01*
X0298500Y0111631D02*
X0292189Y0111631D01*
X0294587Y0114029D02*
X0297636Y0114029D01*
X0297415Y0116428D02*
X0296986Y0116428D01*
X0306100Y0110542D02*
X0321568Y0126011D01*
X0322493Y0126011D01*
X0323774Y0126541D01*
X0324754Y0127521D01*
X0325284Y0128802D01*
X0325284Y0130188D01*
X0324754Y0131468D01*
X0324344Y0131879D01*
X0327410Y0132032D01*
X0326846Y0131468D01*
X0326316Y0130188D01*
X0326316Y0128802D01*
X0326846Y0127521D01*
X0327500Y0126867D01*
X0327500Y0118122D01*
X0326846Y0117468D01*
X0326316Y0116188D01*
X0326316Y0114802D01*
X0326846Y0113521D01*
X0327826Y0112541D01*
X0329107Y0112011D01*
X0330493Y0112011D01*
X0331774Y0112541D01*
X0332754Y0113521D01*
X0333284Y0114802D01*
X0333284Y0116188D01*
X0332754Y0117468D01*
X0332100Y0118122D01*
X0332100Y0126867D01*
X0332754Y0127521D01*
X0333284Y0128802D01*
X0333284Y0130188D01*
X0333157Y0130496D01*
X0340457Y0130496D01*
X0341453Y0131491D01*
X0341453Y0132255D01*
X0345540Y0132255D01*
X0345540Y0128648D01*
X0344777Y0128648D01*
X0344654Y0128524D01*
X0344470Y0128708D01*
X0343968Y0128998D01*
X0343409Y0129148D01*
X0340639Y0129148D01*
X0340639Y0124074D01*
X0340480Y0124074D01*
X0340480Y0123915D01*
X0340639Y0123915D01*
X0340639Y0119648D01*
X0340639Y0114574D01*
X0340480Y0114574D01*
X0340480Y0114415D01*
X0335801Y0114415D01*
X0335801Y0111252D01*
X0335951Y0110693D01*
X0336240Y0110191D01*
X0336650Y0109782D01*
X0337147Y0109495D01*
X0331629Y0109495D01*
X0330711Y0109114D01*
X0330007Y0108411D01*
X0329627Y0107492D01*
X0329627Y0105995D01*
X0310300Y0105995D01*
X0310300Y0084795D01*
X0306100Y0084795D01*
X0306100Y0110542D01*
X0306100Y0109232D02*
X0330996Y0109232D01*
X0329627Y0106834D02*
X0306100Y0106834D01*
X0306100Y0104435D02*
X0310300Y0104435D01*
X0310300Y0102037D02*
X0306100Y0102037D01*
X0306100Y0099638D02*
X0310300Y0099638D01*
X0310300Y0097240D02*
X0306100Y0097240D01*
X0306100Y0094841D02*
X0310300Y0094841D01*
X0310300Y0092443D02*
X0306100Y0092443D01*
X0306100Y0090044D02*
X0310300Y0090044D01*
X0310300Y0087646D02*
X0306100Y0087646D01*
X0306100Y0085247D02*
X0310300Y0085247D01*
X0296389Y0075653D02*
X0296272Y0075653D01*
X0287328Y0075653D02*
X0265299Y0075653D01*
X0265299Y0078052D02*
X0287328Y0078052D01*
X0287328Y0080450D02*
X0265299Y0080450D01*
X0260620Y0099638D02*
X0260461Y0099638D01*
X0260461Y0102037D02*
X0260620Y0102037D01*
X0237097Y0090044D02*
X0219100Y0090044D01*
X0219100Y0092443D02*
X0228599Y0092443D01*
X0229500Y0091542D02*
X0229500Y0091542D01*
X0226201Y0094841D02*
X0217706Y0094841D01*
X0212308Y0097240D02*
X0223802Y0097240D01*
X0223280Y0099638D02*
X0209909Y0099638D01*
X0207511Y0102037D02*
X0223280Y0102037D01*
X0223280Y0104435D02*
X0206100Y0104435D01*
X0200320Y0097722D02*
X0208119Y0089923D01*
X0208119Y0087810D01*
X0209115Y0086814D01*
X0214485Y0086814D01*
X0214500Y0086828D01*
X0214500Y0084542D01*
X0215247Y0083795D01*
X0200320Y0083795D01*
X0200320Y0097722D01*
X0200320Y0097240D02*
X0200802Y0097240D01*
X0200320Y0094841D02*
X0203201Y0094841D01*
X0205599Y0092443D02*
X0200320Y0092443D01*
X0200320Y0090044D02*
X0207998Y0090044D01*
X0208283Y0087646D02*
X0200320Y0087646D01*
X0200320Y0085247D02*
X0214500Y0085247D01*
X0222902Y0087646D02*
X0236500Y0087646D01*
X0230500Y0067195D02*
X0230500Y0059055D01*
X0229453Y0059055D01*
X0229453Y0060018D01*
X0229329Y0060141D01*
X0229513Y0060325D01*
X0229803Y0060827D01*
X0229953Y0061386D01*
X0229953Y0064155D01*
X0224880Y0064155D01*
X0224880Y0064314D01*
X0229953Y0064314D01*
X0229953Y0067084D01*
X0229923Y0067195D01*
X0230500Y0067195D01*
X0230500Y0066059D02*
X0229953Y0066059D01*
X0229953Y0063661D02*
X0230500Y0063661D01*
X0230500Y0061262D02*
X0229919Y0061262D01*
X0235100Y0056465D02*
X0278500Y0056465D01*
X0278500Y0054067D02*
X0229453Y0054067D01*
X0227300Y0051668D02*
X0278500Y0051668D01*
X0278500Y0049270D02*
X0227300Y0049270D01*
X0227300Y0046871D02*
X0278500Y0046871D01*
X0278500Y0044472D02*
X0227083Y0044472D01*
X0224011Y0042074D02*
X0278500Y0042074D01*
X0266052Y0027683D02*
X0266052Y0027683D01*
X0266052Y0025284D02*
X0266052Y0025284D01*
X0266052Y0022886D02*
X0266052Y0022886D01*
X0266052Y0020487D02*
X0266052Y0020487D01*
X0204880Y0066059D02*
X0204720Y0066059D01*
X0195592Y0080450D02*
X0190478Y0080450D01*
X0190478Y0082849D02*
X0195720Y0082849D01*
X0195720Y0085247D02*
X0190478Y0085247D01*
X0190478Y0087646D02*
X0195720Y0087646D01*
X0195720Y0090044D02*
X0194716Y0090044D01*
X0195481Y0092443D02*
X0195720Y0092443D01*
X0117147Y0106834D02*
X0114209Y0106834D01*
X0114209Y0109232D02*
X0117147Y0109232D01*
X0117147Y0111631D02*
X0114209Y0111631D01*
X0117147Y0114029D02*
X0110132Y0114029D01*
X0112840Y0104435D02*
X0116629Y0104435D01*
X0114231Y0102037D02*
X0112840Y0102037D01*
X0090500Y0102037D02*
X0008300Y0102037D01*
X0008300Y0104435D02*
X0012346Y0104435D01*
X0012374Y0104407D02*
X0012876Y0104118D01*
X0013435Y0103968D01*
X0016800Y0103968D01*
X0020165Y0103968D01*
X0020724Y0104118D01*
X0021226Y0104407D01*
X0021635Y0104817D01*
X0021925Y0105319D01*
X0022075Y0105878D01*
X0022075Y0109243D01*
X0022075Y0112607D01*
X0021925Y0113167D01*
X0021635Y0113669D01*
X0021226Y0114078D01*
X0020724Y0114368D01*
X0020165Y0114518D01*
X0016800Y0114518D01*
X0016800Y0109243D01*
X0016800Y0109243D01*
X0016800Y0114518D01*
X0013435Y0114518D01*
X0012876Y0114368D01*
X0012374Y0114078D01*
X0011965Y0113669D01*
X0011675Y0113167D01*
X0011525Y0112607D01*
X0011525Y0109243D01*
X0016800Y0109243D01*
X0022075Y0109243D01*
X0016800Y0109243D01*
X0016800Y0109243D01*
X0016800Y0109243D01*
X0011525Y0109243D01*
X0011525Y0105878D01*
X0011675Y0105319D01*
X0011965Y0104817D01*
X0012374Y0104407D01*
X0011525Y0106834D02*
X0008300Y0106834D01*
X0008300Y0109232D02*
X0011525Y0109232D01*
X0011525Y0111631D02*
X0008300Y0111631D01*
X0008300Y0114029D02*
X0012325Y0114029D01*
X0016800Y0114029D02*
X0016800Y0114029D01*
X0016800Y0111631D02*
X0016800Y0111631D01*
X0016800Y0109243D02*
X0016800Y0103968D01*
X0016800Y0109243D01*
X0016800Y0109243D01*
X0016800Y0109232D02*
X0016800Y0109232D01*
X0016800Y0106834D02*
X0016800Y0106834D01*
X0016800Y0104435D02*
X0016800Y0104435D01*
X0021254Y0104435D02*
X0090500Y0104435D01*
X0087147Y0106834D02*
X0022075Y0106834D01*
X0022075Y0109232D02*
X0028119Y0109232D01*
X0028119Y0111631D02*
X0022075Y0111631D01*
X0021275Y0114029D02*
X0028119Y0114029D01*
X0029500Y0116428D02*
X0008300Y0116428D01*
X0008300Y0118826D02*
X0029500Y0118826D01*
X0029500Y0121225D02*
X0008300Y0121225D01*
X0008300Y0123623D02*
X0012369Y0123623D01*
X0012025Y0123968D02*
X0013021Y0122972D01*
X0020579Y0122972D01*
X0021575Y0123968D01*
X0021575Y0131526D01*
X0020579Y0132522D01*
X0013021Y0132522D01*
X0012025Y0131526D01*
X0012025Y0123968D01*
X0012025Y0126022D02*
X0008300Y0126022D01*
X0008300Y0128420D02*
X0012025Y0128420D01*
X0012025Y0130819D02*
X0008300Y0130819D01*
X0008300Y0133217D02*
X0029500Y0133217D01*
X0029500Y0130819D02*
X0021575Y0130819D01*
X0021575Y0128420D02*
X0029500Y0128420D01*
X0029500Y0126022D02*
X0021575Y0126022D01*
X0021231Y0123623D02*
X0029500Y0123623D01*
X0034100Y0123623D02*
X0036301Y0123623D01*
X0036301Y0124737D02*
X0036301Y0121574D01*
X0040980Y0121574D01*
X0040980Y0126648D01*
X0038211Y0126648D01*
X0037652Y0126498D01*
X0037150Y0126208D01*
X0036740Y0125798D01*
X0036451Y0125297D01*
X0036301Y0124737D01*
X0036964Y0126022D02*
X0034100Y0126022D01*
X0034100Y0128420D02*
X0045316Y0128420D01*
X0044700Y0129995D02*
X0044700Y0133495D01*
X0044700Y0133495D01*
X0044700Y0129995D01*
X0044700Y0130819D02*
X0044700Y0130819D01*
X0044700Y0133217D02*
X0044700Y0133217D01*
X0050900Y0133217D02*
X0051123Y0133217D01*
X0050903Y0130819D02*
X0060760Y0130819D01*
X0060760Y0128420D02*
X0052284Y0128420D01*
X0051929Y0126022D02*
X0060760Y0126022D01*
X0058801Y0123623D02*
X0052799Y0123623D01*
X0052799Y0121225D02*
X0058801Y0121225D01*
X0058801Y0118826D02*
X0052799Y0118826D01*
X0059211Y0116428D02*
X0044229Y0116428D01*
X0041139Y0116428D02*
X0040980Y0116428D01*
X0040980Y0116342D02*
X0040980Y0121415D01*
X0036301Y0121415D01*
X0036301Y0118252D01*
X0036451Y0117693D01*
X0036740Y0117191D01*
X0037150Y0116782D01*
X0037652Y0116492D01*
X0038211Y0116342D01*
X0040980Y0116342D01*
X0040980Y0118826D02*
X0041139Y0118826D01*
X0041139Y0121225D02*
X0040980Y0121225D01*
X0040980Y0123623D02*
X0041139Y0123623D01*
X0041139Y0126022D02*
X0040980Y0126022D01*
X0036301Y0121225D02*
X0034100Y0121225D01*
X0034100Y0118826D02*
X0036301Y0118826D01*
X0037891Y0116428D02*
X0034100Y0116428D01*
X0035481Y0114029D02*
X0081119Y0114029D01*
X0081119Y0111631D02*
X0035481Y0111631D01*
X0035481Y0109232D02*
X0081119Y0109232D01*
X0074450Y0115782D02*
X0073948Y0115492D01*
X0073389Y0115342D01*
X0070620Y0115342D01*
X0070620Y0120415D01*
X0075299Y0120415D01*
X0075299Y0117252D01*
X0075149Y0116693D01*
X0074860Y0116191D01*
X0074450Y0115782D01*
X0074996Y0116428D02*
X0087147Y0116428D01*
X0087147Y0118826D02*
X0075299Y0118826D01*
X0075299Y0121225D02*
X0087874Y0121225D01*
X0089500Y0123623D02*
X0075299Y0123623D01*
X0070620Y0123623D02*
X0070461Y0123623D01*
X0070461Y0121225D02*
X0070620Y0121225D01*
X0070620Y0118826D02*
X0070461Y0118826D01*
X0070461Y0116428D02*
X0070620Y0116428D01*
X0065360Y0126022D02*
X0087617Y0126022D01*
X0078622Y0128420D02*
X0065360Y0128420D01*
X0073928Y0130819D02*
X0078500Y0130819D01*
X0083481Y0142811D02*
X0083500Y0142811D01*
X0083481Y0145210D02*
X0083500Y0145210D01*
X0083500Y0147608D02*
X0074600Y0147608D01*
X0074600Y0150007D02*
X0084059Y0150007D01*
X0087147Y0152405D02*
X0071200Y0152405D01*
X0071200Y0154804D02*
X0087147Y0154804D01*
X0087147Y0157203D02*
X0071200Y0157203D01*
X0071200Y0159601D02*
X0087147Y0159601D01*
X0089500Y0162000D02*
X0071200Y0162000D01*
X0071200Y0164398D02*
X0089500Y0164398D01*
X0087147Y0166797D02*
X0064799Y0166797D01*
X0063040Y0169195D02*
X0077500Y0169195D01*
X0078500Y0171594D02*
X0063040Y0171594D01*
X0063040Y0173992D02*
X0078500Y0173992D01*
X0078500Y0176391D02*
X0063040Y0176391D01*
X0063040Y0178789D02*
X0078500Y0178789D01*
X0078500Y0181188D02*
X0063040Y0181188D01*
X0065755Y0183586D02*
X0078500Y0183586D01*
X0078500Y0185985D02*
X0066299Y0185985D01*
X0066299Y0188383D02*
X0078500Y0188383D01*
X0078500Y0190782D02*
X0066299Y0190782D01*
X0061620Y0190782D02*
X0061461Y0190782D01*
X0061461Y0188383D02*
X0061620Y0188383D01*
X0049801Y0188383D02*
X0008300Y0188383D01*
X0008300Y0185985D02*
X0049801Y0185985D01*
X0050553Y0183586D02*
X0008300Y0183586D01*
X0008300Y0181188D02*
X0051928Y0181188D01*
X0049932Y0178789D02*
X0008300Y0178789D01*
X0008300Y0176391D02*
X0011600Y0176391D01*
X0011675Y0176671D02*
X0011525Y0176111D01*
X0011525Y0172747D01*
X0016800Y0172747D01*
X0016800Y0172747D01*
X0016800Y0178022D01*
X0013435Y0178022D01*
X0012876Y0177872D01*
X0012374Y0177582D01*
X0011965Y0177173D01*
X0011675Y0176671D01*
X0011525Y0173992D02*
X0008300Y0173992D01*
X0008300Y0171594D02*
X0011525Y0171594D01*
X0011525Y0172747D02*
X0011525Y0169382D01*
X0011675Y0168823D01*
X0011965Y0168321D01*
X0012374Y0167911D01*
X0012876Y0167622D01*
X0013435Y0167472D01*
X0016800Y0167472D01*
X0020165Y0167472D01*
X0020724Y0167622D01*
X0021226Y0167911D01*
X0021635Y0168321D01*
X0021925Y0168823D01*
X0022075Y0169382D01*
X0022075Y0172747D01*
X0022075Y0176111D01*
X0021925Y0176671D01*
X0021635Y0177173D01*
X0021226Y0177582D01*
X0020724Y0177872D01*
X0020165Y0178022D01*
X0016800Y0178022D01*
X0016800Y0172747D01*
X0022075Y0172747D01*
X0016800Y0172747D01*
X0016800Y0172747D01*
X0016800Y0172747D01*
X0011525Y0172747D01*
X0011575Y0169195D02*
X0008300Y0169195D01*
X0008300Y0166797D02*
X0048801Y0166797D01*
X0050760Y0169195D02*
X0022025Y0169195D01*
X0022075Y0171594D02*
X0050760Y0171594D01*
X0050760Y0173992D02*
X0022075Y0173992D01*
X0022000Y0176391D02*
X0049638Y0176391D01*
X0042400Y0164398D02*
X0008300Y0164398D01*
X0008300Y0162000D02*
X0042400Y0162000D01*
X0042400Y0159601D02*
X0008300Y0159601D01*
X0008300Y0157203D02*
X0012025Y0157203D01*
X0012025Y0158022D02*
X0012025Y0150464D01*
X0013021Y0149468D01*
X0020579Y0149468D01*
X0021575Y0150464D01*
X0021575Y0158022D01*
X0020579Y0159018D01*
X0013021Y0159018D01*
X0012025Y0158022D01*
X0012025Y0154804D02*
X0008300Y0154804D01*
X0008300Y0152405D02*
X0012025Y0152405D01*
X0012482Y0150007D02*
X0008300Y0150007D01*
X0008300Y0147608D02*
X0039000Y0147608D01*
X0039000Y0150007D02*
X0021118Y0150007D01*
X0021575Y0152405D02*
X0042400Y0152405D01*
X0042400Y0154804D02*
X0021575Y0154804D01*
X0021575Y0157203D02*
X0042400Y0157203D01*
X0030262Y0145210D02*
X0008300Y0145210D01*
X0008300Y0142811D02*
X0029500Y0142811D01*
X0029500Y0140413D02*
X0008300Y0140413D01*
X0008300Y0138014D02*
X0029500Y0138014D01*
X0029500Y0135616D02*
X0008300Y0135616D01*
X0034100Y0133217D02*
X0038500Y0133217D01*
X0038965Y0130819D02*
X0034100Y0130819D01*
X0016800Y0167472D02*
X0016800Y0172747D01*
X0016800Y0172747D01*
X0016800Y0167472D01*
X0016800Y0169195D02*
X0016800Y0169195D01*
X0016800Y0171594D02*
X0016800Y0171594D01*
X0016800Y0173992D02*
X0016800Y0173992D01*
X0016800Y0176391D02*
X0016800Y0176391D01*
X0008300Y0190782D02*
X0049801Y0190782D01*
X0060826Y0208541D02*
X0062107Y0208011D01*
X0063493Y0208011D01*
X0064774Y0208541D01*
X0065754Y0209521D01*
X0066284Y0210802D01*
X0066284Y0212188D01*
X0065754Y0213468D01*
X0065100Y0214122D01*
X0065100Y0221046D01*
X0066095Y0222041D01*
X0066095Y0229749D01*
X0065245Y0230599D01*
X0065245Y0232255D01*
X0066297Y0232255D01*
X0067216Y0232635D01*
X0067395Y0232814D01*
X0068485Y0232814D01*
X0069481Y0233810D01*
X0069481Y0239180D01*
X0068485Y0240176D01*
X0063115Y0240176D01*
X0062119Y0239180D01*
X0062119Y0238941D01*
X0061329Y0238614D01*
X0060625Y0237911D01*
X0060354Y0237255D01*
X0056453Y0237255D01*
X0056453Y0238018D01*
X0056329Y0238141D01*
X0056513Y0238325D01*
X0056803Y0238827D01*
X0056953Y0239386D01*
X0056953Y0242155D01*
X0051880Y0242155D01*
X0051880Y0242314D01*
X0056953Y0242314D01*
X0056953Y0245084D01*
X0056803Y0245643D01*
X0056513Y0246145D01*
X0056104Y0246554D01*
X0055602Y0246844D01*
X0055042Y0246994D01*
X0051880Y0246994D01*
X0051880Y0242315D01*
X0051720Y0242315D01*
X0051720Y0246994D01*
X0048700Y0246994D01*
X0048700Y0256420D01*
X0050879Y0256420D01*
X0051505Y0257046D01*
X0051665Y0256769D01*
X0052074Y0256359D01*
X0052576Y0256070D01*
X0053135Y0255920D01*
X0056800Y0255920D01*
X0060465Y0255920D01*
X0061024Y0256070D01*
X0061526Y0256359D01*
X0061935Y0256769D01*
X0062095Y0257046D01*
X0062721Y0256420D01*
X0064917Y0256420D01*
X0064451Y0256295D01*
X0063949Y0256005D01*
X0063540Y0255596D01*
X0063250Y0255094D01*
X0063100Y0254534D01*
X0063100Y0251170D01*
X0071125Y0251170D01*
X0071125Y0256445D01*
X0070904Y0256445D01*
X0071875Y0257416D01*
X0071875Y0265574D01*
X0070879Y0266570D01*
X0062721Y0266570D01*
X0062095Y0265944D01*
X0061935Y0266221D01*
X0061526Y0266630D01*
X0061024Y0266920D01*
X0060465Y0267070D01*
X0056800Y0267070D01*
X0056800Y0261495D01*
X0056800Y0261495D01*
X0056800Y0267070D01*
X0053135Y0267070D01*
X0052576Y0266920D01*
X0052074Y0266630D01*
X0051665Y0266221D01*
X0051505Y0265944D01*
X0050879Y0266570D01*
X0042721Y0266570D01*
X0041725Y0265574D01*
X0041725Y0257416D01*
X0042721Y0256420D01*
X0042900Y0256420D01*
X0042900Y0246994D01*
X0039880Y0246994D01*
X0039880Y0242315D01*
X0039720Y0242315D01*
X0039720Y0246994D01*
X0036558Y0246994D01*
X0035998Y0246844D01*
X0035496Y0246554D01*
X0035087Y0246145D01*
X0034797Y0245643D01*
X0034647Y0245084D01*
X0034647Y0242314D01*
X0039720Y0242314D01*
X0039720Y0242155D01*
X0034647Y0242155D01*
X0034647Y0239386D01*
X0034797Y0238827D01*
X0035087Y0238325D01*
X0035271Y0238141D01*
X0035147Y0238018D01*
X0035147Y0237655D01*
X0019700Y0237655D01*
X0019700Y0239468D01*
X0020579Y0239468D01*
X0021575Y0240464D01*
X0021575Y0248022D01*
X0020579Y0249018D01*
X0013021Y0249018D01*
X0012025Y0248022D01*
X0012025Y0240464D01*
X0013021Y0239468D01*
X0013900Y0239468D01*
X0013900Y0234178D01*
X0014341Y0233112D01*
X0015157Y0232296D01*
X0016223Y0231855D01*
X0035147Y0231855D01*
X0035147Y0231491D01*
X0036143Y0230496D01*
X0043457Y0230496D01*
X0044453Y0231491D01*
X0044453Y0231855D01*
X0046377Y0231855D01*
X0047147Y0232174D01*
X0047147Y0231491D01*
X0048143Y0230496D01*
X0055457Y0230496D01*
X0056453Y0231491D01*
X0056453Y0232255D01*
X0060245Y0232255D01*
X0060245Y0230599D01*
X0059395Y0229749D01*
X0059395Y0222041D01*
X0060391Y0221045D01*
X0060500Y0221045D01*
X0060500Y0214122D01*
X0059846Y0213468D01*
X0059316Y0212188D01*
X0059316Y0210802D01*
X0059846Y0209521D01*
X0060826Y0208541D01*
X0059660Y0209970D02*
X0008300Y0209970D01*
X0008300Y0212368D02*
X0059390Y0212368D01*
X0060500Y0214767D02*
X0022075Y0214767D01*
X0022075Y0214382D02*
X0022075Y0217747D01*
X0022075Y0221111D01*
X0021925Y0221671D01*
X0021635Y0222173D01*
X0021226Y0222582D01*
X0020724Y0222872D01*
X0020165Y0223022D01*
X0016800Y0223022D01*
X0013435Y0223022D01*
X0012876Y0222872D01*
X0012374Y0222582D01*
X0011965Y0222173D01*
X0011675Y0221671D01*
X0011525Y0221111D01*
X0011525Y0217747D01*
X0016800Y0217747D01*
X0016800Y0217747D01*
X0016800Y0223022D01*
X0016800Y0217747D01*
X0022075Y0217747D01*
X0016800Y0217747D01*
X0016800Y0217747D01*
X0016800Y0217747D01*
X0011525Y0217747D01*
X0011525Y0214382D01*
X0011675Y0213823D01*
X0011965Y0213321D01*
X0012374Y0212911D01*
X0012876Y0212622D01*
X0013435Y0212472D01*
X0016800Y0212472D01*
X0020165Y0212472D01*
X0020724Y0212622D01*
X0021226Y0212911D01*
X0021635Y0213321D01*
X0021925Y0213823D01*
X0022075Y0214382D01*
X0022075Y0217165D02*
X0060500Y0217165D01*
X0060500Y0219564D02*
X0022075Y0219564D01*
X0021757Y0221962D02*
X0059473Y0221962D01*
X0059395Y0224361D02*
X0008300Y0224361D01*
X0008300Y0226759D02*
X0059395Y0226759D01*
X0059395Y0229158D02*
X0008300Y0229158D01*
X0008300Y0231556D02*
X0035147Y0231556D01*
X0039800Y0234755D02*
X0045800Y0234755D01*
X0045800Y0260495D01*
X0046800Y0261495D01*
X0041725Y0260338D02*
X0022075Y0260338D01*
X0022075Y0259382D02*
X0022075Y0262747D01*
X0016800Y0262747D01*
X0016800Y0262747D01*
X0016800Y0262747D01*
X0011525Y0262747D01*
X0011525Y0259382D01*
X0011675Y0258823D01*
X0011965Y0258321D01*
X0012374Y0257911D01*
X0012876Y0257622D01*
X0013435Y0257472D01*
X0016800Y0257472D01*
X0020165Y0257472D01*
X0020724Y0257622D01*
X0021226Y0257911D01*
X0021635Y0258321D01*
X0021925Y0258823D01*
X0022075Y0259382D01*
X0021255Y0257940D02*
X0041725Y0257940D01*
X0042900Y0255541D02*
X0008300Y0255541D01*
X0008300Y0253143D02*
X0042900Y0253143D01*
X0042900Y0250744D02*
X0008300Y0250744D01*
X0008300Y0248346D02*
X0012349Y0248346D01*
X0012025Y0245947D02*
X0008300Y0245947D01*
X0008300Y0243549D02*
X0012025Y0243549D01*
X0012025Y0241150D02*
X0008300Y0241150D01*
X0008300Y0238752D02*
X0013900Y0238752D01*
X0013900Y0236353D02*
X0008300Y0236353D01*
X0008300Y0233955D02*
X0013992Y0233955D01*
X0016800Y0234755D02*
X0016800Y0244243D01*
X0021575Y0243549D02*
X0034647Y0243549D01*
X0034647Y0241150D02*
X0021575Y0241150D01*
X0019700Y0238752D02*
X0034840Y0238752D01*
X0039800Y0234755D02*
X0016800Y0234755D01*
X0021575Y0245947D02*
X0034973Y0245947D01*
X0039720Y0245947D02*
X0039880Y0245947D01*
X0039880Y0243549D02*
X0039720Y0243549D01*
X0042900Y0248346D02*
X0021251Y0248346D01*
X0016800Y0257472D02*
X0016800Y0262747D01*
X0016800Y0262747D01*
X0016800Y0257472D01*
X0016800Y0257940D02*
X0016800Y0257940D01*
X0016800Y0260338D02*
X0016800Y0260338D01*
X0016800Y0262737D02*
X0016800Y0262737D01*
X0011525Y0262737D02*
X0008300Y0262737D01*
X0008300Y0260338D02*
X0011525Y0260338D01*
X0012345Y0257940D02*
X0008300Y0257940D01*
X0008300Y0265136D02*
X0011525Y0265136D01*
X0022075Y0265136D02*
X0041725Y0265136D01*
X0041725Y0262737D02*
X0022075Y0262737D01*
X0048700Y0255541D02*
X0063508Y0255541D01*
X0063100Y0253143D02*
X0048700Y0253143D01*
X0048700Y0250744D02*
X0071125Y0250744D01*
X0071125Y0251170D02*
X0071125Y0249820D01*
X0063100Y0249820D01*
X0063100Y0246455D01*
X0063250Y0245896D01*
X0063540Y0245394D01*
X0063949Y0244984D01*
X0064451Y0244695D01*
X0065010Y0244545D01*
X0071125Y0244545D01*
X0071125Y0249820D01*
X0072475Y0249820D01*
X0072475Y0251170D01*
X0071125Y0251170D01*
X0072475Y0251170D02*
X0072475Y0256445D01*
X0078590Y0256445D01*
X0079149Y0256295D01*
X0079651Y0256005D01*
X0080060Y0255596D01*
X0080350Y0255094D01*
X0080500Y0254534D01*
X0080500Y0251170D01*
X0072475Y0251170D01*
X0072475Y0250744D02*
X0116300Y0250744D01*
X0116300Y0248346D02*
X0080500Y0248346D01*
X0080500Y0249820D02*
X0072475Y0249820D01*
X0072475Y0244545D01*
X0078590Y0244545D01*
X0079149Y0244695D01*
X0079651Y0244984D01*
X0080060Y0245394D01*
X0080350Y0245896D01*
X0080500Y0246455D01*
X0080500Y0249820D01*
X0080500Y0253143D02*
X0116300Y0253143D01*
X0116300Y0253720D02*
X0114769Y0253720D01*
X0113773Y0254716D01*
X0113773Y0262274D01*
X0114769Y0263270D01*
X0122327Y0263270D01*
X0123323Y0262274D01*
X0123323Y0254716D01*
X0122327Y0253720D01*
X0121300Y0253720D01*
X0121300Y0225176D01*
X0121485Y0225176D01*
X0122481Y0224180D01*
X0122481Y0218810D01*
X0121485Y0217814D01*
X0116115Y0217814D01*
X0115119Y0218810D01*
X0115119Y0224180D01*
X0116115Y0225176D01*
X0116300Y0225176D01*
X0116300Y0253720D01*
X0113773Y0255541D02*
X0080092Y0255541D01*
X0072475Y0255541D02*
X0071125Y0255541D01*
X0071125Y0253143D02*
X0072475Y0253143D01*
X0072475Y0248346D02*
X0071125Y0248346D01*
X0071125Y0245947D02*
X0072475Y0245947D01*
X0078638Y0243549D02*
X0056953Y0243549D01*
X0056953Y0241150D02*
X0078300Y0241150D01*
X0078300Y0238752D02*
X0069481Y0238752D01*
X0069481Y0236353D02*
X0078300Y0236353D01*
X0078300Y0233955D02*
X0069481Y0233955D01*
X0069860Y0231245D02*
X0069301Y0231095D01*
X0068799Y0230805D01*
X0068390Y0230396D01*
X0068100Y0229894D01*
X0067950Y0229334D01*
X0067950Y0225895D01*
X0071800Y0225895D01*
X0071800Y0225895D01*
X0071800Y0231245D01*
X0073740Y0231245D01*
X0074299Y0231095D01*
X0074801Y0230805D01*
X0075210Y0230396D01*
X0075500Y0229894D01*
X0075650Y0229334D01*
X0075650Y0225895D01*
X0071800Y0225895D01*
X0071800Y0231245D01*
X0069860Y0231245D01*
X0067950Y0229158D02*
X0066095Y0229158D01*
X0066095Y0226759D02*
X0067950Y0226759D01*
X0067950Y0225895D02*
X0067950Y0222455D01*
X0068100Y0221896D01*
X0068390Y0221394D01*
X0068799Y0220984D01*
X0069301Y0220695D01*
X0069860Y0220545D01*
X0071800Y0220545D01*
X0073740Y0220545D01*
X0074299Y0220695D01*
X0074801Y0220984D01*
X0075210Y0221394D01*
X0075500Y0221896D01*
X0075650Y0222455D01*
X0075650Y0225895D01*
X0071800Y0225895D01*
X0071800Y0225895D01*
X0071800Y0225895D01*
X0067950Y0225895D01*
X0067950Y0224361D02*
X0066095Y0224361D01*
X0066017Y0221962D02*
X0068082Y0221962D01*
X0071800Y0221962D02*
X0071800Y0221962D01*
X0071800Y0220545D02*
X0071800Y0225895D01*
X0071800Y0225895D01*
X0071800Y0220545D01*
X0071800Y0224361D02*
X0071800Y0224361D01*
X0071800Y0226759D02*
X0071800Y0226759D01*
X0071800Y0229158D02*
X0071800Y0229158D01*
X0075650Y0229158D02*
X0077505Y0229158D01*
X0077505Y0226759D02*
X0075650Y0226759D01*
X0075650Y0224361D02*
X0077505Y0224361D01*
X0077583Y0221962D02*
X0075518Y0221962D01*
X0078500Y0219564D02*
X0065100Y0219564D01*
X0065100Y0217165D02*
X0078500Y0217165D01*
X0078500Y0214767D02*
X0065100Y0214767D01*
X0066210Y0212368D02*
X0078500Y0212368D01*
X0078500Y0209970D02*
X0065940Y0209970D01*
X0078500Y0207571D02*
X0008300Y0207571D01*
X0008300Y0205173D02*
X0078500Y0205173D01*
X0078500Y0202774D02*
X0021575Y0202774D01*
X0021575Y0203022D02*
X0020579Y0204018D01*
X0013021Y0204018D01*
X0012025Y0203022D01*
X0012025Y0195464D01*
X0013021Y0194468D01*
X0020579Y0194468D01*
X0021575Y0195464D01*
X0021575Y0203022D01*
X0021575Y0200376D02*
X0078500Y0200376D01*
X0078500Y0197977D02*
X0021575Y0197977D01*
X0021575Y0195579D02*
X0078500Y0195579D01*
X0078500Y0193180D02*
X0008300Y0193180D01*
X0008300Y0195579D02*
X0012025Y0195579D01*
X0012025Y0197977D02*
X0008300Y0197977D01*
X0008300Y0200376D02*
X0012025Y0200376D01*
X0012025Y0202774D02*
X0008300Y0202774D01*
X0016800Y0212472D02*
X0016800Y0217747D01*
X0016800Y0212472D01*
X0016800Y0214767D02*
X0016800Y0214767D01*
X0016800Y0217165D02*
X0016800Y0217165D01*
X0016800Y0217747D02*
X0016800Y0217747D01*
X0016800Y0219564D02*
X0016800Y0219564D01*
X0016800Y0221962D02*
X0016800Y0221962D01*
X0011843Y0221962D02*
X0008300Y0221962D01*
X0008300Y0219564D02*
X0011525Y0219564D01*
X0011525Y0217165D02*
X0008300Y0217165D01*
X0008300Y0214767D02*
X0011525Y0214767D01*
X0044453Y0231556D02*
X0047147Y0231556D01*
X0056453Y0231556D02*
X0060245Y0231556D01*
X0065245Y0231556D02*
X0078300Y0231556D01*
X0083300Y0231556D02*
X0086741Y0231556D01*
X0086647Y0233955D02*
X0083300Y0233955D01*
X0083300Y0236353D02*
X0086647Y0236353D01*
X0087174Y0238752D02*
X0083300Y0238752D01*
X0091880Y0234675D02*
X0091880Y0229996D01*
X0095042Y0229996D01*
X0095602Y0230146D01*
X0096104Y0230435D01*
X0096513Y0230845D01*
X0096803Y0231346D01*
X0096953Y0231906D01*
X0096953Y0234675D01*
X0091880Y0234675D01*
X0091880Y0233955D02*
X0091720Y0233955D01*
X0091720Y0231556D02*
X0091880Y0231556D01*
X0096859Y0231556D02*
X0116300Y0231556D01*
X0116300Y0229158D02*
X0084205Y0229158D01*
X0084205Y0226759D02*
X0116300Y0226759D01*
X0115300Y0224361D02*
X0084205Y0224361D01*
X0084127Y0221962D02*
X0115119Y0221962D01*
X0115119Y0219564D02*
X0083100Y0219564D01*
X0096953Y0233955D02*
X0116300Y0233955D01*
X0116300Y0236353D02*
X0096953Y0236353D01*
X0103423Y0238752D02*
X0116300Y0238752D01*
X0116300Y0241150D02*
X0103481Y0241150D01*
X0103481Y0243549D02*
X0116300Y0243549D01*
X0116300Y0245947D02*
X0096003Y0245947D01*
X0087596Y0245947D02*
X0080364Y0245947D01*
X0071875Y0257940D02*
X0113773Y0257940D01*
X0113773Y0260338D02*
X0071875Y0260338D01*
X0071875Y0262737D02*
X0114236Y0262737D01*
X0122860Y0262737D02*
X0132740Y0262737D01*
X0132277Y0260338D02*
X0123323Y0260338D01*
X0123323Y0257940D02*
X0132277Y0257940D01*
X0132277Y0255541D02*
X0123323Y0255541D01*
X0121300Y0253143D02*
X0134300Y0253143D01*
X0134300Y0250744D02*
X0121300Y0250744D01*
X0121300Y0248346D02*
X0134300Y0248346D01*
X0134300Y0245947D02*
X0121300Y0245947D01*
X0121300Y0243549D02*
X0134300Y0243549D01*
X0134300Y0241150D02*
X0121300Y0241150D01*
X0121300Y0238752D02*
X0134300Y0238752D01*
X0134300Y0236353D02*
X0121300Y0236353D01*
X0121300Y0233955D02*
X0134300Y0233955D01*
X0134300Y0231556D02*
X0121300Y0231556D01*
X0121300Y0229158D02*
X0134300Y0229158D01*
X0134300Y0226759D02*
X0121300Y0226759D01*
X0122300Y0224361D02*
X0134300Y0224361D01*
X0134300Y0221962D02*
X0122481Y0221962D01*
X0122481Y0219564D02*
X0134300Y0219564D01*
X0139300Y0238752D02*
X0204500Y0238752D01*
X0204500Y0241150D02*
X0139300Y0241150D01*
X0139300Y0243549D02*
X0204500Y0243549D01*
X0204500Y0245947D02*
X0139300Y0245947D01*
X0139300Y0248346D02*
X0204500Y0248346D01*
X0204500Y0250744D02*
X0139300Y0250744D01*
X0139300Y0253143D02*
X0204500Y0253143D01*
X0209100Y0253143D02*
X0212447Y0253143D01*
X0210049Y0250744D02*
X0209100Y0250744D01*
X0208754Y0255541D02*
X0214846Y0255541D01*
X0216277Y0257940D02*
X0207323Y0257940D01*
X0207323Y0260338D02*
X0216277Y0260338D01*
X0216740Y0262737D02*
X0206860Y0262737D01*
X0198236Y0262737D02*
X0182993Y0262737D01*
X0182887Y0262921D02*
X0182478Y0263330D01*
X0181976Y0263620D01*
X0181417Y0263770D01*
X0178052Y0263770D01*
X0178052Y0258495D01*
X0178052Y0258495D01*
X0178052Y0263770D01*
X0174687Y0263770D01*
X0174128Y0263620D01*
X0173626Y0263330D01*
X0173216Y0262921D01*
X0172927Y0262419D01*
X0172777Y0261859D01*
X0172777Y0258495D01*
X0178052Y0258495D01*
X0183327Y0258495D01*
X0183327Y0261859D01*
X0183177Y0262419D01*
X0182887Y0262921D01*
X0183327Y0260338D02*
X0197773Y0260338D01*
X0197773Y0257940D02*
X0183327Y0257940D01*
X0183327Y0258495D02*
X0178052Y0258495D01*
X0178052Y0258495D01*
X0178052Y0258495D01*
X0178052Y0253220D01*
X0181417Y0253220D01*
X0181976Y0253370D01*
X0182478Y0253659D01*
X0182887Y0254069D01*
X0183177Y0254571D01*
X0183327Y0255130D01*
X0183327Y0258495D01*
X0183327Y0255541D02*
X0197773Y0255541D01*
X0178052Y0255541D02*
X0178052Y0255541D01*
X0178052Y0253220D02*
X0174687Y0253220D01*
X0174128Y0253370D01*
X0173626Y0253659D01*
X0173216Y0254069D01*
X0172927Y0254571D01*
X0172777Y0255130D01*
X0172777Y0258495D01*
X0178052Y0258495D01*
X0178052Y0258495D01*
X0178052Y0253220D01*
X0172777Y0255541D02*
X0164323Y0255541D01*
X0164323Y0257940D02*
X0172777Y0257940D01*
X0172777Y0260338D02*
X0164323Y0260338D01*
X0163860Y0262737D02*
X0173110Y0262737D01*
X0178052Y0262737D02*
X0178052Y0262737D01*
X0178052Y0260338D02*
X0178052Y0260338D01*
X0178052Y0257940D02*
X0178052Y0257940D01*
X0157048Y0265136D02*
X0071875Y0265136D01*
X0056800Y0265136D02*
X0056800Y0265136D01*
X0056800Y0262737D02*
X0056800Y0262737D01*
X0056800Y0261495D02*
X0056800Y0255920D01*
X0056800Y0261495D01*
X0056800Y0261495D01*
X0056800Y0260338D02*
X0056800Y0260338D01*
X0056800Y0257940D02*
X0056800Y0257940D01*
X0063100Y0248346D02*
X0048700Y0248346D01*
X0051720Y0245947D02*
X0051880Y0245947D01*
X0051880Y0243549D02*
X0051720Y0243549D01*
X0056627Y0245947D02*
X0063236Y0245947D01*
X0061661Y0238752D02*
X0056760Y0238752D01*
X0141827Y0255541D02*
X0154773Y0255541D01*
X0154773Y0257940D02*
X0141827Y0257940D01*
X0141827Y0260338D02*
X0154773Y0260338D01*
X0155236Y0262737D02*
X0141364Y0262737D01*
X0225364Y0262737D02*
X0241236Y0262737D01*
X0240773Y0260338D02*
X0225827Y0260338D01*
X0225827Y0257940D02*
X0240773Y0257940D01*
X0240773Y0255541D02*
X0225827Y0255541D01*
X0208139Y0197977D02*
X0207980Y0197977D01*
X0207980Y0195579D02*
X0208139Y0195579D01*
X0235119Y0183586D02*
X0244500Y0183586D01*
X0244500Y0181188D02*
X0235030Y0181188D01*
X0276720Y0147608D02*
X0276880Y0147608D01*
X0276880Y0145210D02*
X0276720Y0145210D01*
X0281953Y0145210D02*
X0284157Y0145210D01*
X0283864Y0142811D02*
X0281953Y0142811D01*
X0281465Y0140413D02*
X0281453Y0140413D01*
X0281946Y0147608D02*
X0283316Y0147608D01*
X0316783Y0121225D02*
X0327500Y0121225D01*
X0327500Y0123623D02*
X0319181Y0123623D01*
X0322520Y0126022D02*
X0327500Y0126022D01*
X0326474Y0128420D02*
X0325126Y0128420D01*
X0325023Y0130819D02*
X0326577Y0130819D01*
X0333126Y0128420D02*
X0336362Y0128420D01*
X0336240Y0128298D02*
X0335951Y0127797D01*
X0335801Y0127237D01*
X0335801Y0124074D01*
X0340480Y0124074D01*
X0340480Y0129148D01*
X0337711Y0129148D01*
X0337152Y0128998D01*
X0336650Y0128708D01*
X0336240Y0128298D01*
X0335801Y0126022D02*
X0332100Y0126022D01*
X0332100Y0123623D02*
X0335801Y0123623D01*
X0335801Y0123915D02*
X0335801Y0120752D01*
X0335951Y0120193D01*
X0336240Y0119691D01*
X0336650Y0119282D01*
X0336714Y0119245D01*
X0336650Y0119208D01*
X0336240Y0118798D01*
X0335951Y0118297D01*
X0335801Y0117737D01*
X0335801Y0114574D01*
X0340480Y0114574D01*
X0340480Y0123915D01*
X0335801Y0123915D01*
X0335801Y0121225D02*
X0332100Y0121225D01*
X0332100Y0118826D02*
X0336268Y0118826D01*
X0335801Y0116428D02*
X0333185Y0116428D01*
X0332964Y0114029D02*
X0335801Y0114029D01*
X0335801Y0111631D02*
X0307189Y0111631D01*
X0309587Y0114029D02*
X0326636Y0114029D01*
X0326415Y0116428D02*
X0311986Y0116428D01*
X0314384Y0118826D02*
X0327500Y0118826D01*
X0340480Y0118826D02*
X0340639Y0118826D01*
X0340639Y0116428D02*
X0340480Y0116428D01*
X0340480Y0121225D02*
X0340639Y0121225D01*
X0340639Y0123623D02*
X0340480Y0123623D01*
X0340480Y0126022D02*
X0340639Y0126022D01*
X0340639Y0128420D02*
X0340480Y0128420D01*
X0340780Y0130819D02*
X0345540Y0130819D01*
X0405305Y0202774D02*
X0407500Y0202774D01*
X0407500Y0205173D02*
X0407159Y0205173D01*
X0101600Y0082849D02*
X0101265Y0082849D01*
X0101600Y0080450D02*
X0098867Y0080450D01*
X0100316Y0078052D02*
X0096468Y0078052D01*
X0094070Y0075653D02*
X0100792Y0075653D01*
X0101449Y0073255D02*
X0091671Y0073255D01*
X0089273Y0070856D02*
X0099050Y0070856D01*
X0096652Y0068458D02*
X0087284Y0068458D01*
X0086292Y0066059D02*
X0094253Y0066059D01*
X0084659Y0056465D02*
X0077100Y0056465D01*
X0077100Y0054067D02*
X0082260Y0054067D01*
X0079862Y0051668D02*
X0071500Y0051668D01*
X0071380Y0049270D02*
X0077600Y0049270D01*
X0077600Y0046871D02*
X0069823Y0046871D01*
X0076052Y0027683D02*
X0076052Y0027683D01*
X0076052Y0025284D02*
X0076052Y0025284D01*
X0076052Y0022886D02*
X0076052Y0022886D01*
X0076052Y0020487D02*
X0076052Y0020487D01*
X0016800Y0063023D02*
X0016800Y0067995D01*
X0016800Y0067995D01*
X0016800Y0063023D01*
X0016800Y0063661D02*
X0016800Y0063661D01*
X0016800Y0066059D02*
X0016800Y0066059D01*
X0016800Y0068458D02*
X0016800Y0068458D01*
X0016800Y0070856D02*
X0016800Y0070856D01*
X0011828Y0070856D02*
X0008300Y0070856D01*
X0008300Y0068458D02*
X0011828Y0068458D01*
X0011828Y0066059D02*
X0008300Y0066059D01*
X0008300Y0063661D02*
X0012480Y0063661D01*
X0008300Y0073255D02*
X0041904Y0073255D01*
X0043677Y0075653D02*
X0008300Y0075653D01*
X0021000Y0085247D02*
X0048801Y0085247D01*
X0049092Y0092443D02*
X0021272Y0092443D01*
D35*
X0056800Y0053495D02*
X0056800Y0039495D01*
X0083800Y0039495D01*
X0083800Y0047495D01*
X0132800Y0096495D01*
X0132800Y0102495D01*
X0137800Y0107495D01*
X0137800Y0114495D01*
X0138800Y0115495D01*
X0138800Y0143495D01*
X0136800Y0145495D01*
X0136800Y0157495D01*
X0134800Y0149495D02*
X0134800Y0148495D01*
X0129800Y0143495D01*
X0129800Y0137495D02*
X0129540Y0137235D01*
X0121800Y0137235D01*
X0141800Y0137495D02*
X0141800Y0111495D01*
X0146800Y0110495D02*
X0137800Y0101495D01*
X0137800Y0096495D01*
X0087800Y0046495D01*
X0087800Y0035495D01*
X0024548Y0035495D01*
X0012548Y0023495D01*
X0057548Y0023495D02*
X0066548Y0032495D01*
X0092800Y0032495D01*
X0093800Y0033495D01*
X0093800Y0046495D01*
X0141800Y0094495D01*
X0141800Y0099495D01*
X0150800Y0108495D01*
X0150800Y0120495D01*
X0162800Y0132495D01*
X0161800Y0127495D02*
X0154800Y0120495D01*
X0154800Y0101495D01*
X0103800Y0050495D01*
X0103800Y0023495D01*
X0102548Y0023495D01*
X0079800Y0043495D02*
X0079800Y0048495D01*
X0128800Y0097495D01*
X0119800Y0098495D02*
X0103800Y0082495D01*
X0103800Y0077495D01*
X0083800Y0068495D02*
X0121800Y0106495D01*
X0121800Y0109755D01*
X0119131Y0117495D02*
X0118800Y0117826D01*
X0119131Y0117495D02*
X0129800Y0117495D01*
X0128800Y0116495D01*
X0146800Y0122495D02*
X0146800Y0110495D01*
X0160800Y0111495D02*
X0163800Y0114495D01*
X0163800Y0111495D02*
X0163800Y0107495D01*
X0162800Y0106495D01*
X0179800Y0109495D02*
X0179800Y0049495D01*
X0198800Y0030495D01*
X0179800Y0109495D02*
X0187800Y0117495D01*
X0185800Y0119495D01*
X0181800Y0119495D01*
X0181646Y0119341D01*
X0180304Y0119341D01*
X0153800Y0128495D02*
X0152800Y0128495D01*
X0146800Y0122495D01*
X0144800Y0143495D02*
X0146040Y0144735D01*
X0151800Y0144735D01*
X0154800Y0151495D02*
X0162800Y0151495D01*
X0163800Y0152495D01*
X0156800Y0156495D02*
X0149800Y0163495D01*
X0157800Y0166495D02*
X0143800Y0180495D01*
X0143800Y0197495D01*
X0178800Y0203495D02*
X0180540Y0203495D01*
D36*
X0169800Y0128995D03*
X0301800Y0048495D03*
X0308800Y0063495D03*
X0414800Y0123495D03*
X0413800Y0218495D03*
M02*
