G75*
%MOIN*%
%OFA0B0*%
%FSLAX25Y25*%
%IPPOS*%
%LPD*%
%AMOC8*
5,1,8,0,0,1.08239X$1,22.5*
%
%ADD10C,0.05200*%
%ADD11R,0.05543X0.05543*%
%ADD12R,0.06750X0.06750*%
%ADD13R,0.06150X0.06150*%
%ADD14C,0.03969*%
%ADD15C,0.06000*%
%ADD16C,0.03569*%
%ADD17R,0.03962X0.03962*%
%ADD18C,0.01200*%
%ADD19C,0.01600*%
%ADD20C,0.02400*%
%ADD21C,0.01000*%
%ADD22C,0.03962*%
D10*
X0399200Y0188495D02*
X0404400Y0188495D01*
X0404400Y0198495D02*
X0399200Y0198495D01*
X0399200Y0208495D02*
X0404400Y0208495D01*
X0404400Y0218495D02*
X0399200Y0218495D01*
X0399200Y0228495D02*
X0404400Y0228495D01*
D11*
X0396800Y0151495D03*
X0396800Y0130495D03*
X0291800Y0098995D03*
X0291800Y0077995D03*
X0016800Y0067995D03*
X0016800Y0088995D03*
D12*
X0046800Y0261495D03*
X0056800Y0261495D03*
X0066800Y0261495D03*
X0333800Y0232995D03*
X0343800Y0232995D03*
X0353800Y0232995D03*
D13*
X0351052Y0258495D03*
X0332548Y0258495D03*
X0307552Y0258495D03*
X0289048Y0258495D03*
X0264052Y0258495D03*
X0245548Y0258495D03*
X0221052Y0258495D03*
X0202548Y0258495D03*
X0178052Y0258495D03*
X0159548Y0258495D03*
X0137052Y0258495D03*
X0118548Y0258495D03*
X0016800Y0262747D03*
X0016800Y0244243D03*
X0016800Y0217747D03*
X0016800Y0199243D03*
X0016800Y0172747D03*
X0016800Y0154243D03*
X0016800Y0127747D03*
X0016800Y0109243D03*
X0139048Y0069495D03*
X0157552Y0069495D03*
X0152548Y0023495D03*
X0171052Y0023495D03*
X0202548Y0023495D03*
X0221052Y0023495D03*
X0247548Y0023495D03*
X0266052Y0023495D03*
X0121052Y0023495D03*
X0102548Y0023495D03*
X0076052Y0023495D03*
X0057548Y0023495D03*
X0031052Y0023495D03*
X0012548Y0023495D03*
X0375048Y0258495D03*
X0393552Y0258495D03*
D14*
X0222643Y0045495D03*
X0202957Y0045495D03*
D15*
X0066800Y0050495D02*
X0066800Y0056495D01*
X0056800Y0056495D02*
X0056800Y0050495D01*
X0046800Y0050495D02*
X0046800Y0056495D01*
X0046800Y0065495D02*
X0046800Y0071495D01*
X0056800Y0071495D02*
X0056800Y0065495D01*
X0066800Y0065495D02*
X0066800Y0071495D01*
D16*
X0083800Y0068495D03*
X0103800Y0077495D03*
X0119800Y0098495D03*
X0128800Y0103495D03*
X0141800Y0111495D03*
X0138800Y0115495D03*
X0129800Y0117495D03*
X0129800Y0137495D03*
X0129800Y0143495D03*
X0141800Y0137495D03*
X0144800Y0143495D03*
X0154800Y0151495D03*
X0149800Y0163495D03*
X0121800Y0182495D03*
X0143800Y0197495D03*
X0162800Y0203495D03*
X0178800Y0203495D03*
X0184800Y0208995D03*
X0193800Y0205495D03*
X0206800Y0208995D03*
X0210800Y0205495D03*
X0224800Y0198495D03*
X0246800Y0212495D03*
X0254800Y0198495D03*
X0262800Y0188495D03*
X0271800Y0183495D03*
X0246800Y0178495D03*
X0231800Y0182495D03*
X0237800Y0166495D03*
X0225800Y0163495D03*
X0219300Y0164995D03*
X0229800Y0155495D03*
X0222800Y0147995D03*
X0199800Y0156995D03*
X0194300Y0147995D03*
X0222800Y0128495D03*
X0233800Y0128495D03*
X0229800Y0115495D03*
X0211800Y0115495D03*
X0191300Y0120495D03*
X0174300Y0112495D03*
X0162800Y0106495D03*
X0160800Y0111495D03*
X0158800Y0115495D03*
X0155800Y0096995D03*
X0172800Y0069495D03*
X0099800Y0120495D03*
X0097800Y0126495D03*
X0099800Y0137235D03*
X0097800Y0146495D03*
X0084800Y0135495D03*
X0048800Y0127995D03*
X0053060Y0177235D03*
X0085800Y0177495D03*
X0062800Y0211495D03*
X0071800Y0220495D03*
X0092800Y0218495D03*
X0126800Y0211495D03*
X0249800Y0155495D03*
X0286800Y0147495D03*
X0292800Y0152495D03*
X0297300Y0147495D03*
X0286800Y0136495D03*
X0283800Y0129495D03*
X0297300Y0129495D03*
X0300800Y0115495D03*
X0321800Y0129495D03*
X0329800Y0129495D03*
X0321800Y0140495D03*
X0320800Y0147495D03*
X0332800Y0148495D03*
X0365800Y0141495D03*
X0364800Y0129495D03*
X0372800Y0127495D03*
X0373800Y0119495D03*
X0362800Y0118495D03*
X0329800Y0115495D03*
X0309800Y0090495D03*
X0276800Y0090495D03*
X0267800Y0094495D03*
X0266800Y0043495D03*
X0310800Y0036495D03*
X0327800Y0039495D03*
X0331800Y0033495D03*
X0378800Y0163495D03*
X0359800Y0188495D03*
X0332800Y0184495D03*
X0292800Y0165495D03*
X0079800Y0043495D03*
X0013300Y0041995D03*
D17*
X0078800Y0093495D03*
X0084800Y0111495D03*
X0036800Y0138495D03*
X0031800Y0111495D03*
X0079800Y0143495D03*
X0130800Y0157495D03*
X0139800Y0157495D03*
X0170300Y0163495D03*
X0191300Y0138495D03*
X0197300Y0119995D03*
X0219300Y0138495D03*
X0207800Y0185995D03*
X0203800Y0190995D03*
X0222800Y0212495D03*
X0218800Y0219495D03*
X0197800Y0219495D03*
X0227800Y0234495D03*
X0245300Y0239495D03*
X0262800Y0219995D03*
X0262800Y0214495D03*
X0268800Y0197495D03*
X0274300Y0192995D03*
X0299800Y0172495D03*
X0318800Y0172495D03*
X0344800Y0172495D03*
X0369800Y0172495D03*
X0392800Y0183495D03*
X0387800Y0190495D03*
X0387800Y0203495D03*
X0366800Y0209495D03*
X0362300Y0214495D03*
X0322800Y0233495D03*
X0287800Y0219995D03*
X0274300Y0238495D03*
X0357800Y0251995D03*
X0409800Y0172495D03*
X0404800Y0110495D03*
X0376800Y0109495D03*
X0306800Y0069495D03*
X0285800Y0064495D03*
X0280800Y0069495D03*
X0260800Y0070495D03*
X0244800Y0078495D03*
X0238800Y0064495D03*
X0216800Y0061495D03*
X0201800Y0074495D03*
X0205800Y0086495D03*
X0211800Y0090495D03*
X0191800Y0093495D03*
X0187800Y0048495D03*
X0155800Y0048495D03*
X0136800Y0212495D03*
X0152800Y0221495D03*
X0161800Y0234495D03*
X0118800Y0221495D03*
X0099800Y0241495D03*
X0065800Y0236495D03*
D18*
X0071800Y0220495D02*
X0071800Y0218495D01*
X0092800Y0218495D01*
X0071800Y0218495D02*
X0026548Y0218495D01*
X0025800Y0217747D01*
X0016800Y0217747D01*
X0062800Y0211495D02*
X0126800Y0211495D01*
X0161800Y0234495D02*
X0161800Y0241495D01*
X0099800Y0241495D01*
X0178052Y0258495D02*
X0185052Y0251495D01*
X0307552Y0251495D01*
X0351300Y0251495D01*
X0351300Y0258247D01*
X0351052Y0258495D01*
X0307552Y0258495D02*
X0307552Y0251495D01*
X0274300Y0238495D02*
X0246300Y0238495D01*
X0245300Y0239495D01*
X0262800Y0219995D02*
X0287800Y0219995D01*
X0262800Y0214495D02*
X0362300Y0214495D01*
X0366800Y0209495D02*
X0366800Y0183495D01*
X0392800Y0183495D01*
X0387800Y0190495D02*
X0387800Y0203495D01*
X0401800Y0218495D02*
X0413800Y0218495D01*
X0359800Y0188495D02*
X0262800Y0188495D01*
X0259300Y0185995D02*
X0259300Y0192995D01*
X0274300Y0192995D01*
X0268800Y0197495D02*
X0260300Y0197495D01*
X0257800Y0194995D01*
X0252800Y0194995D01*
X0250300Y0192495D01*
X0205300Y0192495D01*
X0203800Y0190995D01*
X0207800Y0185995D02*
X0259300Y0185995D01*
X0271800Y0183495D02*
X0272800Y0184495D01*
X0332800Y0184495D01*
X0369800Y0172495D02*
X0409800Y0172495D01*
X0381800Y0161495D02*
X0378800Y0163495D01*
X0381800Y0161495D02*
X0381800Y0127495D01*
X0372800Y0127495D01*
X0365800Y0130495D02*
X0364800Y0129495D01*
X0365800Y0130495D02*
X0365800Y0141495D01*
X0362800Y0118495D02*
X0343800Y0118495D01*
X0343800Y0055495D01*
X0327800Y0039495D01*
X0331800Y0038495D02*
X0349800Y0056495D01*
X0349800Y0109495D01*
X0363800Y0109495D01*
X0373800Y0119495D01*
X0377800Y0110495D02*
X0404800Y0110495D01*
X0414800Y0123495D02*
X0169800Y0123495D01*
X0169800Y0128995D01*
X0177300Y0114995D02*
X0174800Y0112495D01*
X0174300Y0112495D01*
X0177300Y0114995D02*
X0185800Y0114995D01*
X0191300Y0120495D01*
X0197300Y0119995D02*
X0184800Y0107495D01*
X0184800Y0096995D01*
X0155800Y0096995D01*
X0158800Y0115495D02*
X0138800Y0115495D01*
X0129800Y0106495D02*
X0128800Y0105495D01*
X0128800Y0103495D01*
X0099800Y0120495D02*
X0097800Y0120495D01*
X0097800Y0126495D01*
X0084800Y0127995D02*
X0084800Y0135495D01*
X0084800Y0127995D02*
X0048800Y0127995D01*
X0036800Y0138495D02*
X0062800Y0138495D01*
X0062800Y0143495D01*
X0079800Y0143495D01*
X0097800Y0146495D02*
X0097800Y0137235D01*
X0099800Y0137235D01*
X0130800Y0157495D02*
X0139800Y0157495D01*
X0121800Y0182495D02*
X0231800Y0182495D01*
X0219300Y0178495D02*
X0246800Y0178495D01*
X0237800Y0166495D02*
X0225800Y0166495D01*
X0225800Y0163495D01*
X0219300Y0164995D02*
X0219300Y0178495D01*
X0199800Y0156995D02*
X0189800Y0156995D01*
X0194300Y0147995D02*
X0222800Y0147995D01*
X0219300Y0138495D02*
X0191300Y0138495D01*
X0222800Y0128495D02*
X0233800Y0128495D01*
X0229800Y0115495D02*
X0211800Y0115495D01*
X0191800Y0093495D02*
X0078800Y0093495D01*
X0084800Y0111495D02*
X0031800Y0111495D01*
X0053060Y0177235D02*
X0053320Y0177495D01*
X0085800Y0177495D01*
X0184800Y0208995D02*
X0206800Y0208995D01*
X0210800Y0205495D02*
X0193800Y0205495D01*
X0197800Y0219495D02*
X0218800Y0219495D01*
X0222800Y0212495D02*
X0246800Y0212495D01*
X0254800Y0198495D02*
X0224800Y0198495D01*
X0229800Y0155495D02*
X0249800Y0155495D01*
X0248800Y0156495D01*
X0286800Y0147495D02*
X0286800Y0136495D01*
X0283800Y0129495D02*
X0297300Y0129495D01*
X0300800Y0115495D02*
X0329800Y0115495D01*
X0329800Y0129495D02*
X0332800Y0132495D01*
X0332800Y0148495D01*
X0320800Y0147495D02*
X0297300Y0147495D01*
X0292800Y0152495D02*
X0292800Y0165495D01*
X0321800Y0140495D02*
X0321800Y0129495D01*
X0291800Y0098995D02*
X0287300Y0094495D01*
X0267800Y0094495D01*
X0276800Y0090495D02*
X0309800Y0090495D01*
X0291800Y0077995D02*
X0245300Y0077995D01*
X0244800Y0078495D01*
X0260800Y0070495D02*
X0260800Y0069495D01*
X0217800Y0069495D01*
X0216800Y0068495D01*
X0216800Y0061495D01*
X0205800Y0074495D02*
X0201800Y0074495D01*
X0205800Y0074495D02*
X0205800Y0086495D01*
X0211800Y0090495D02*
X0211800Y0045495D01*
X0202957Y0045495D01*
X0187800Y0048495D02*
X0155800Y0048495D01*
X0157552Y0069495D02*
X0172800Y0069495D01*
X0238800Y0064495D02*
X0285800Y0064495D01*
X0280800Y0069495D02*
X0306800Y0069495D01*
X0308800Y0063495D02*
X0308800Y0057495D01*
X0307800Y0056495D01*
X0301800Y0056495D01*
X0301800Y0048495D01*
X0310800Y0036495D02*
X0273800Y0036495D01*
X0266800Y0043495D01*
X0331800Y0038495D02*
X0331800Y0033495D01*
X0376800Y0109495D02*
X0377800Y0110495D01*
X0032300Y0041495D02*
X0032300Y0025995D01*
X0031052Y0024747D01*
X0031052Y0023495D01*
X0032300Y0041495D02*
X0031800Y0041995D01*
X0013300Y0041995D01*
D19*
X0170300Y0163495D02*
X0176800Y0156995D01*
X0189800Y0156995D01*
X0222800Y0212495D02*
X0136800Y0212495D01*
X0152800Y0221495D02*
X0118800Y0221495D01*
X0161800Y0234495D02*
X0227800Y0234495D01*
X0227800Y0233495D01*
X0322800Y0233495D01*
X0362800Y0258495D02*
X0362800Y0264495D01*
X0401800Y0264495D01*
X0401800Y0228495D01*
X0375048Y0258495D02*
X0362800Y0258495D01*
X0369800Y0172495D02*
X0344800Y0172495D01*
X0318800Y0172495D01*
X0299800Y0172495D01*
D20*
X0007800Y0019689D02*
X0007800Y0014495D01*
X0310800Y0014495D01*
X0310800Y0056242D01*
X0309753Y0055195D01*
X0308753Y0054195D01*
X0304100Y0054195D01*
X0304100Y0051401D01*
X0304921Y0050580D01*
X0305481Y0049227D01*
X0305481Y0047763D01*
X0304921Y0046410D01*
X0303885Y0045374D01*
X0302532Y0044814D01*
X0301068Y0044814D01*
X0299715Y0045374D01*
X0298679Y0046410D01*
X0298119Y0047763D01*
X0298119Y0049227D01*
X0298679Y0050580D01*
X0299500Y0051401D01*
X0299500Y0057447D01*
X0300847Y0058795D01*
X0306500Y0058795D01*
X0306500Y0060589D01*
X0305679Y0061410D01*
X0305119Y0062763D01*
X0305119Y0064227D01*
X0305679Y0065580D01*
X0305913Y0065814D01*
X0304115Y0065814D01*
X0303119Y0066810D01*
X0303119Y0067195D01*
X0289466Y0067195D01*
X0289481Y0067180D01*
X0289481Y0061810D01*
X0288485Y0060814D01*
X0283115Y0060814D01*
X0282119Y0061810D01*
X0282119Y0062195D01*
X0242481Y0062195D01*
X0242481Y0061810D01*
X0241485Y0060814D01*
X0236115Y0060814D01*
X0235119Y0061810D01*
X0235119Y0067180D01*
X0236115Y0068176D01*
X0241485Y0068176D01*
X0242481Y0067180D01*
X0242481Y0066795D01*
X0277134Y0066795D01*
X0277119Y0066810D01*
X0277119Y0072180D01*
X0278115Y0073176D01*
X0283485Y0073176D01*
X0284481Y0072180D01*
X0284481Y0071795D01*
X0303119Y0071795D01*
X0303119Y0072180D01*
X0304115Y0073176D01*
X0309485Y0073176D01*
X0310481Y0072180D01*
X0310481Y0066810D01*
X0310462Y0066791D01*
X0310800Y0066651D01*
X0310800Y0105495D01*
X0315004Y0105495D01*
X0315255Y0105599D01*
X0341500Y0105599D01*
X0341500Y0119447D01*
X0342847Y0120795D01*
X0360173Y0120795D01*
X0360573Y0121195D01*
X0200981Y0121195D01*
X0200981Y0117310D01*
X0199985Y0116314D01*
X0196872Y0116314D01*
X0187100Y0106542D01*
X0187100Y0096042D01*
X0186853Y0095795D01*
X0188119Y0095795D01*
X0188119Y0096180D01*
X0189115Y0097176D01*
X0194485Y0097176D01*
X0195481Y0096180D01*
X0195481Y0090810D01*
X0194485Y0089814D01*
X0189115Y0089814D01*
X0188119Y0090810D01*
X0188119Y0091195D01*
X0082481Y0091195D01*
X0082481Y0090810D01*
X0081485Y0089814D01*
X0076115Y0089814D01*
X0075119Y0090810D01*
X0075119Y0096180D01*
X0076115Y0097176D01*
X0081485Y0097176D01*
X0082481Y0096180D01*
X0082481Y0095795D01*
X0117573Y0095795D01*
X0116846Y0096521D01*
X0116316Y0097802D01*
X0116316Y0099188D01*
X0116846Y0100468D01*
X0117826Y0101449D01*
X0119107Y0101979D01*
X0120173Y0101979D01*
X0123600Y0105406D01*
X0123600Y0134406D01*
X0126316Y0137122D01*
X0126316Y0138188D01*
X0126846Y0139468D01*
X0127826Y0140449D01*
X0127938Y0140495D01*
X0127826Y0140541D01*
X0126846Y0141521D01*
X0126316Y0142802D01*
X0126316Y0144188D01*
X0126846Y0145468D01*
X0127826Y0146449D01*
X0129107Y0146979D01*
X0130493Y0146979D01*
X0131774Y0146449D01*
X0132527Y0145695D01*
X0142073Y0145695D01*
X0142826Y0146449D01*
X0144107Y0146979D01*
X0145493Y0146979D01*
X0146774Y0146449D01*
X0147754Y0145468D01*
X0148284Y0144188D01*
X0148284Y0142802D01*
X0147754Y0141521D01*
X0146774Y0140541D01*
X0145493Y0140011D01*
X0144212Y0140011D01*
X0144754Y0139468D01*
X0145284Y0138188D01*
X0145284Y0136802D01*
X0144754Y0135521D01*
X0143774Y0134541D01*
X0142493Y0134011D01*
X0141107Y0134011D01*
X0139826Y0134541D01*
X0139073Y0135295D01*
X0132527Y0135295D01*
X0131774Y0134541D01*
X0130493Y0134011D01*
X0129427Y0134011D01*
X0128000Y0132584D01*
X0128000Y0120521D01*
X0129107Y0120979D01*
X0130493Y0120979D01*
X0131774Y0120449D01*
X0132754Y0119468D01*
X0133284Y0118188D01*
X0133284Y0116802D01*
X0132754Y0115521D01*
X0131774Y0114541D01*
X0131000Y0114221D01*
X0131000Y0108695D01*
X0139673Y0108695D01*
X0138846Y0109521D01*
X0138316Y0110802D01*
X0138316Y0112011D01*
X0138107Y0112011D01*
X0136826Y0112541D01*
X0135846Y0113521D01*
X0135316Y0114802D01*
X0135316Y0116188D01*
X0135846Y0117468D01*
X0136826Y0118449D01*
X0138107Y0118979D01*
X0139493Y0118979D01*
X0140774Y0118449D01*
X0141427Y0117795D01*
X0156173Y0117795D01*
X0156826Y0118449D01*
X0158107Y0118979D01*
X0159493Y0118979D01*
X0160774Y0118449D01*
X0161754Y0117468D01*
X0162284Y0116188D01*
X0162284Y0114802D01*
X0162231Y0114673D01*
X0162774Y0114449D01*
X0163754Y0113468D01*
X0164284Y0112188D01*
X0164284Y0110802D01*
X0163878Y0109820D01*
X0164774Y0109449D01*
X0165754Y0108468D01*
X0166284Y0107188D01*
X0166284Y0105802D01*
X0165754Y0104521D01*
X0164774Y0103541D01*
X0163493Y0103011D01*
X0162107Y0103011D01*
X0160826Y0103541D01*
X0160073Y0104295D01*
X0132240Y0104295D01*
X0132284Y0104188D01*
X0132284Y0102802D01*
X0131754Y0101521D01*
X0130774Y0100541D01*
X0129493Y0100011D01*
X0128107Y0100011D01*
X0126826Y0100541D01*
X0125892Y0101475D01*
X0123284Y0098868D01*
X0123284Y0097802D01*
X0122754Y0096521D01*
X0122027Y0095795D01*
X0152526Y0095795D01*
X0152316Y0096302D01*
X0152316Y0097688D01*
X0152846Y0098968D01*
X0153826Y0099949D01*
X0155107Y0100479D01*
X0156493Y0100479D01*
X0157774Y0099949D01*
X0158427Y0099295D01*
X0182500Y0099295D01*
X0182500Y0108447D01*
X0183847Y0109795D01*
X0186747Y0112695D01*
X0178253Y0112695D01*
X0177784Y0112226D01*
X0177784Y0111802D01*
X0177254Y0110521D01*
X0176274Y0109541D01*
X0174993Y0109011D01*
X0173607Y0109011D01*
X0172326Y0109541D01*
X0171346Y0110521D01*
X0170816Y0111802D01*
X0170816Y0113188D01*
X0171346Y0114468D01*
X0172326Y0115449D01*
X0173607Y0115979D01*
X0174993Y0115979D01*
X0175020Y0115968D01*
X0176347Y0117295D01*
X0184847Y0117295D01*
X0187816Y0120263D01*
X0187816Y0121188D01*
X0187819Y0121195D01*
X0168847Y0121195D01*
X0167500Y0122542D01*
X0167500Y0126089D01*
X0166679Y0126910D01*
X0166119Y0128263D01*
X0166119Y0129727D01*
X0166679Y0131080D01*
X0167715Y0132115D01*
X0169068Y0132676D01*
X0170532Y0132676D01*
X0171885Y0132115D01*
X0172921Y0131080D01*
X0173481Y0129727D01*
X0173481Y0128263D01*
X0172921Y0126910D01*
X0172100Y0126089D01*
X0172100Y0125795D01*
X0220573Y0125795D01*
X0219846Y0126521D01*
X0219316Y0127802D01*
X0219316Y0129188D01*
X0219846Y0130468D01*
X0220826Y0131449D01*
X0222107Y0131979D01*
X0223493Y0131979D01*
X0224774Y0131449D01*
X0225427Y0130795D01*
X0231173Y0130795D01*
X0231826Y0131449D01*
X0233107Y0131979D01*
X0234493Y0131979D01*
X0235774Y0131449D01*
X0236754Y0130468D01*
X0237284Y0129188D01*
X0237284Y0127802D01*
X0236754Y0126521D01*
X0236027Y0125795D01*
X0369733Y0125795D01*
X0369316Y0126802D01*
X0369316Y0128188D01*
X0369846Y0129468D01*
X0370826Y0130449D01*
X0372107Y0130979D01*
X0373493Y0130979D01*
X0374774Y0130449D01*
X0375427Y0129795D01*
X0379500Y0129795D01*
X0379500Y0160013D01*
X0379493Y0160011D01*
X0378107Y0160011D01*
X0376826Y0160541D01*
X0375846Y0161521D01*
X0375316Y0162802D01*
X0375316Y0164188D01*
X0375846Y0165468D01*
X0376826Y0166449D01*
X0378107Y0166979D01*
X0379493Y0166979D01*
X0380774Y0166449D01*
X0381754Y0165468D01*
X0382284Y0164188D01*
X0382284Y0163936D01*
X0382496Y0163795D01*
X0382753Y0163795D01*
X0383265Y0163282D01*
X0383868Y0162880D01*
X0383919Y0162629D01*
X0384100Y0162447D01*
X0384100Y0161723D01*
X0384242Y0161012D01*
X0384100Y0160798D01*
X0384100Y0126542D01*
X0383353Y0125795D01*
X0411894Y0125795D01*
X0412715Y0126615D01*
X0414068Y0127176D01*
X0415532Y0127176D01*
X0415800Y0127065D01*
X0415800Y0215339D01*
X0414532Y0214814D01*
X0413068Y0214814D01*
X0411715Y0215374D01*
X0410894Y0216195D01*
X0408102Y0216195D01*
X0408045Y0216059D01*
X0406836Y0214849D01*
X0405255Y0214195D01*
X0398345Y0214195D01*
X0396764Y0214849D01*
X0395555Y0216059D01*
X0394900Y0217639D01*
X0394900Y0219350D01*
X0395555Y0220931D01*
X0396764Y0222140D01*
X0398345Y0222795D01*
X0405255Y0222795D01*
X0406836Y0222140D01*
X0408045Y0220931D01*
X0408102Y0220795D01*
X0410894Y0220795D01*
X0411715Y0221615D01*
X0413068Y0222176D01*
X0414532Y0222176D01*
X0415800Y0221651D01*
X0415800Y0267495D01*
X0360700Y0267495D01*
X0360700Y0255461D01*
X0361481Y0254680D01*
X0361481Y0249310D01*
X0360485Y0248314D01*
X0355115Y0248314D01*
X0354119Y0249310D01*
X0354119Y0253220D01*
X0351052Y0253220D01*
X0351052Y0258495D01*
X0351052Y0258495D01*
X0351052Y0263770D01*
X0354417Y0263770D01*
X0354900Y0263640D01*
X0354900Y0264095D01*
X0071875Y0264095D01*
X0071875Y0257416D01*
X0070879Y0256420D01*
X0068700Y0256420D01*
X0068700Y0239961D01*
X0069481Y0239180D01*
X0069481Y0233810D01*
X0068485Y0232814D01*
X0063115Y0232814D01*
X0062119Y0233810D01*
X0062119Y0239180D01*
X0062900Y0239961D01*
X0062900Y0256420D01*
X0062721Y0256420D01*
X0062095Y0257046D01*
X0061935Y0256769D01*
X0061526Y0256359D01*
X0061024Y0256070D01*
X0060465Y0255920D01*
X0056800Y0255920D01*
X0056800Y0261495D01*
X0056800Y0261495D01*
X0056800Y0255920D01*
X0053135Y0255920D01*
X0052576Y0256070D01*
X0052074Y0256359D01*
X0051665Y0256769D01*
X0051505Y0257046D01*
X0050879Y0256420D01*
X0042721Y0256420D01*
X0041725Y0257416D01*
X0041725Y0264095D01*
X0031200Y0264095D01*
X0031200Y0243666D01*
X0030758Y0242600D01*
X0029943Y0241784D01*
X0028877Y0241343D01*
X0021575Y0241343D01*
X0021575Y0240464D01*
X0020579Y0239468D01*
X0013021Y0239468D01*
X0012025Y0240464D01*
X0012025Y0248022D01*
X0013021Y0249018D01*
X0020579Y0249018D01*
X0021575Y0248022D01*
X0021575Y0247143D01*
X0025400Y0247143D01*
X0025400Y0267495D01*
X0021313Y0267495D01*
X0021635Y0267173D01*
X0021925Y0266671D01*
X0022075Y0266111D01*
X0022075Y0262747D01*
X0016800Y0262747D01*
X0016800Y0262747D01*
X0016800Y0262747D01*
X0011525Y0262747D01*
X0011525Y0266111D01*
X0011675Y0266671D01*
X0011965Y0267173D01*
X0012287Y0267495D01*
X0007800Y0267495D01*
X0007800Y0027301D01*
X0008769Y0028270D01*
X0016327Y0028270D01*
X0017323Y0027274D01*
X0017323Y0019716D01*
X0016327Y0018720D01*
X0008769Y0018720D01*
X0007800Y0019689D01*
X0007800Y0018089D02*
X0310800Y0018089D01*
X0310800Y0020487D02*
X0271327Y0020487D01*
X0271327Y0020130D02*
X0271327Y0023495D01*
X0271327Y0026859D01*
X0271177Y0027419D01*
X0270887Y0027921D01*
X0270478Y0028330D01*
X0269976Y0028620D01*
X0269417Y0028770D01*
X0266052Y0028770D01*
X0266052Y0023495D01*
X0266052Y0023495D01*
X0266052Y0028770D01*
X0262687Y0028770D01*
X0262128Y0028620D01*
X0261626Y0028330D01*
X0261216Y0027921D01*
X0260927Y0027419D01*
X0260777Y0026859D01*
X0260777Y0023495D01*
X0266052Y0023495D01*
X0271327Y0023495D01*
X0266052Y0023495D01*
X0266052Y0023495D01*
X0266052Y0023495D01*
X0266052Y0018220D01*
X0269417Y0018220D01*
X0269976Y0018370D01*
X0270478Y0018659D01*
X0270887Y0019069D01*
X0271177Y0019571D01*
X0271327Y0020130D01*
X0271327Y0022886D02*
X0310800Y0022886D01*
X0310800Y0025284D02*
X0271327Y0025284D01*
X0271025Y0027683D02*
X0310800Y0027683D01*
X0310800Y0030081D02*
X0007800Y0030081D01*
X0007800Y0027683D02*
X0008182Y0027683D01*
X0007800Y0032480D02*
X0310800Y0032480D01*
X0310800Y0034878D02*
X0007800Y0034878D01*
X0007800Y0037277D02*
X0310800Y0037277D01*
X0310800Y0039675D02*
X0007800Y0039675D01*
X0007800Y0042074D02*
X0045110Y0042074D01*
X0044600Y0042584D02*
X0045889Y0041295D01*
X0077073Y0041295D01*
X0077826Y0040541D01*
X0079107Y0040011D01*
X0080493Y0040011D01*
X0081774Y0040541D01*
X0082754Y0041521D01*
X0083284Y0042802D01*
X0083284Y0044188D01*
X0082754Y0045468D01*
X0081774Y0046449D01*
X0080493Y0046979D01*
X0079107Y0046979D01*
X0077826Y0046449D01*
X0077073Y0045695D01*
X0049000Y0045695D01*
X0049000Y0046319D01*
X0049462Y0046510D01*
X0050784Y0047832D01*
X0051500Y0049560D01*
X0051500Y0057430D01*
X0050784Y0059157D01*
X0049462Y0060479D01*
X0048882Y0060720D01*
X0049525Y0061047D01*
X0050188Y0061528D01*
X0050766Y0062107D01*
X0051247Y0062769D01*
X0051619Y0063499D01*
X0051872Y0064277D01*
X0052000Y0065086D01*
X0052000Y0068495D01*
X0052000Y0071904D01*
X0051872Y0072712D01*
X0051619Y0073491D01*
X0051247Y0074220D01*
X0050766Y0074882D01*
X0050188Y0075461D01*
X0049525Y0075942D01*
X0048796Y0076314D01*
X0048018Y0076567D01*
X0047209Y0076695D01*
X0046800Y0076695D01*
X0046800Y0068495D01*
X0046800Y0068495D01*
X0046800Y0076695D01*
X0046391Y0076695D01*
X0045582Y0076567D01*
X0044804Y0076314D01*
X0044075Y0075942D01*
X0043412Y0075461D01*
X0042834Y0074882D01*
X0042353Y0074220D01*
X0041981Y0073491D01*
X0041728Y0072712D01*
X0041600Y0071904D01*
X0041600Y0068495D01*
X0046800Y0068495D01*
X0052000Y0068495D01*
X0046800Y0068495D01*
X0046800Y0068495D01*
X0046800Y0068495D01*
X0041600Y0068495D01*
X0041600Y0065086D01*
X0041728Y0064277D01*
X0041981Y0063499D01*
X0042353Y0062769D01*
X0042834Y0062107D01*
X0043412Y0061528D01*
X0044075Y0061047D01*
X0044718Y0060720D01*
X0044138Y0060479D01*
X0042816Y0059157D01*
X0042100Y0057430D01*
X0042100Y0049560D01*
X0042816Y0047832D01*
X0044138Y0046510D01*
X0044600Y0046319D01*
X0044600Y0042584D01*
X0044600Y0044472D02*
X0007800Y0044472D01*
X0007800Y0046871D02*
X0043777Y0046871D01*
X0042220Y0049270D02*
X0007800Y0049270D01*
X0007800Y0051668D02*
X0042100Y0051668D01*
X0042100Y0054067D02*
X0007800Y0054067D01*
X0007800Y0056465D02*
X0042100Y0056465D01*
X0042694Y0058864D02*
X0007800Y0058864D01*
X0007800Y0061262D02*
X0043779Y0061262D01*
X0041928Y0063661D02*
X0021120Y0063661D01*
X0020922Y0063463D02*
X0021332Y0063872D01*
X0021622Y0064374D01*
X0021772Y0064934D01*
X0021772Y0067995D01*
X0021772Y0071056D01*
X0021622Y0071616D01*
X0021332Y0072117D01*
X0020922Y0072527D01*
X0020421Y0072817D01*
X0019861Y0072966D01*
X0016800Y0072966D01*
X0016800Y0067995D01*
X0016800Y0067995D01*
X0016800Y0072966D01*
X0013739Y0072966D01*
X0013179Y0072817D01*
X0012678Y0072527D01*
X0012268Y0072117D01*
X0011978Y0071616D01*
X0011828Y0071056D01*
X0011828Y0067995D01*
X0016800Y0067995D01*
X0021772Y0067995D01*
X0016800Y0067995D01*
X0016800Y0067995D01*
X0016800Y0067995D01*
X0011828Y0067995D01*
X0011828Y0064934D01*
X0011978Y0064374D01*
X0012268Y0063872D01*
X0012678Y0063463D01*
X0013179Y0063173D01*
X0013739Y0063023D01*
X0016800Y0063023D01*
X0019861Y0063023D01*
X0020421Y0063173D01*
X0020922Y0063463D01*
X0021772Y0066059D02*
X0041600Y0066059D01*
X0041600Y0068458D02*
X0021772Y0068458D01*
X0021772Y0070856D02*
X0041600Y0070856D01*
X0041904Y0073255D02*
X0007800Y0073255D01*
X0007800Y0075653D02*
X0043677Y0075653D01*
X0046800Y0075653D02*
X0046800Y0075653D01*
X0046800Y0073255D02*
X0046800Y0073255D01*
X0046800Y0070856D02*
X0046800Y0070856D01*
X0052000Y0070856D02*
X0052100Y0070856D01*
X0052100Y0072430D02*
X0052100Y0064560D01*
X0052816Y0062832D01*
X0054138Y0061510D01*
X0055382Y0060995D01*
X0054138Y0060479D01*
X0052816Y0059157D01*
X0052100Y0057430D01*
X0052100Y0049560D01*
X0052816Y0047832D01*
X0054138Y0046510D01*
X0055865Y0045795D01*
X0057735Y0045795D01*
X0059462Y0046510D01*
X0060784Y0047832D01*
X0061500Y0049560D01*
X0061500Y0057430D01*
X0060784Y0059157D01*
X0059462Y0060479D01*
X0058218Y0060995D01*
X0059462Y0061510D01*
X0060784Y0062832D01*
X0061500Y0064560D01*
X0061500Y0072430D01*
X0060784Y0074157D01*
X0059647Y0075295D01*
X0063953Y0075295D01*
X0062816Y0074157D01*
X0062100Y0072430D01*
X0062100Y0064560D01*
X0062816Y0062832D01*
X0064138Y0061510D01*
X0065382Y0060995D01*
X0064138Y0060479D01*
X0062816Y0059157D01*
X0062100Y0057430D01*
X0062100Y0049560D01*
X0062816Y0047832D01*
X0064138Y0046510D01*
X0065865Y0045795D01*
X0067735Y0045795D01*
X0069462Y0046510D01*
X0070784Y0047832D01*
X0071500Y0049560D01*
X0071500Y0057430D01*
X0070784Y0059157D01*
X0069462Y0060479D01*
X0068218Y0060995D01*
X0069462Y0061510D01*
X0070784Y0062832D01*
X0071500Y0064560D01*
X0071500Y0066295D01*
X0081073Y0066295D01*
X0081826Y0065541D01*
X0083107Y0065011D01*
X0084493Y0065011D01*
X0085774Y0065541D01*
X0086754Y0066521D01*
X0087284Y0067802D01*
X0087284Y0069188D01*
X0086754Y0070468D01*
X0085774Y0071449D01*
X0084493Y0071979D01*
X0083107Y0071979D01*
X0081826Y0071449D01*
X0081073Y0070695D01*
X0071500Y0070695D01*
X0071500Y0072430D01*
X0070784Y0074157D01*
X0069647Y0075295D01*
X0101073Y0075295D01*
X0101826Y0074541D01*
X0103107Y0074011D01*
X0104493Y0074011D01*
X0105774Y0074541D01*
X0106754Y0075521D01*
X0107284Y0076802D01*
X0107284Y0078188D01*
X0106754Y0079468D01*
X0105774Y0080449D01*
X0104493Y0080979D01*
X0103107Y0080979D01*
X0101826Y0080449D01*
X0101073Y0079695D01*
X0055889Y0079695D01*
X0054600Y0078406D01*
X0054600Y0075671D01*
X0054138Y0075479D01*
X0052816Y0074157D01*
X0052100Y0072430D01*
X0052442Y0073255D02*
X0051696Y0073255D01*
X0049923Y0075653D02*
X0054557Y0075653D01*
X0054600Y0078052D02*
X0007800Y0078052D01*
X0007800Y0080450D02*
X0101830Y0080450D01*
X0105770Y0080450D02*
X0209500Y0080450D01*
X0209500Y0078052D02*
X0107284Y0078052D01*
X0106808Y0075653D02*
X0209500Y0075653D01*
X0209500Y0073255D02*
X0162327Y0073255D01*
X0162327Y0073274D02*
X0161331Y0074270D01*
X0153773Y0074270D01*
X0152777Y0073274D01*
X0152777Y0065716D01*
X0153773Y0064720D01*
X0161331Y0064720D01*
X0162327Y0065716D01*
X0162327Y0067195D01*
X0170173Y0067195D01*
X0170826Y0066541D01*
X0172107Y0066011D01*
X0173493Y0066011D01*
X0174774Y0066541D01*
X0175754Y0067521D01*
X0176284Y0068802D01*
X0176284Y0070188D01*
X0175754Y0071468D01*
X0174774Y0072449D01*
X0173493Y0072979D01*
X0172107Y0072979D01*
X0170826Y0072449D01*
X0170173Y0071795D01*
X0162327Y0071795D01*
X0162327Y0073274D01*
X0152777Y0073255D02*
X0143823Y0073255D01*
X0143823Y0073274D02*
X0142827Y0074270D01*
X0135269Y0074270D01*
X0134273Y0073274D01*
X0134273Y0065716D01*
X0135269Y0064720D01*
X0142827Y0064720D01*
X0143823Y0065716D01*
X0143823Y0073274D01*
X0143823Y0070856D02*
X0152777Y0070856D01*
X0152777Y0068458D02*
X0143823Y0068458D01*
X0143823Y0066059D02*
X0152777Y0066059D01*
X0162327Y0066059D02*
X0171990Y0066059D01*
X0173610Y0066059D02*
X0209500Y0066059D01*
X0209500Y0063661D02*
X0071127Y0063661D01*
X0071500Y0066059D02*
X0081308Y0066059D01*
X0086292Y0066059D02*
X0134273Y0066059D01*
X0134273Y0068458D02*
X0087284Y0068458D01*
X0086366Y0070856D02*
X0134273Y0070856D01*
X0134273Y0073255D02*
X0071158Y0073255D01*
X0071500Y0070856D02*
X0081234Y0070856D01*
X0068863Y0061262D02*
X0209500Y0061262D01*
X0209500Y0058864D02*
X0070906Y0058864D01*
X0071500Y0056465D02*
X0209500Y0056465D01*
X0209500Y0054067D02*
X0071500Y0054067D01*
X0071500Y0051668D02*
X0152607Y0051668D01*
X0152119Y0051180D02*
X0152119Y0045810D01*
X0153115Y0044814D01*
X0158485Y0044814D01*
X0159481Y0045810D01*
X0159481Y0046195D01*
X0184119Y0046195D01*
X0184119Y0045810D01*
X0185115Y0044814D01*
X0190485Y0044814D01*
X0191481Y0045810D01*
X0191481Y0051180D01*
X0190485Y0052176D01*
X0185115Y0052176D01*
X0184119Y0051180D01*
X0184119Y0050795D01*
X0159481Y0050795D01*
X0159481Y0051180D01*
X0158485Y0052176D01*
X0153115Y0052176D01*
X0152119Y0051180D01*
X0152119Y0049270D02*
X0071380Y0049270D01*
X0069823Y0046871D02*
X0078846Y0046871D01*
X0080754Y0046871D02*
X0152119Y0046871D01*
X0158993Y0051668D02*
X0184607Y0051668D01*
X0190993Y0051668D02*
X0209500Y0051668D01*
X0209500Y0049270D02*
X0191481Y0049270D01*
X0191481Y0046871D02*
X0199540Y0046871D01*
X0199273Y0046228D02*
X0199834Y0047582D01*
X0200871Y0048618D01*
X0202225Y0049179D01*
X0203690Y0049179D01*
X0205044Y0048618D01*
X0205868Y0047795D01*
X0209500Y0047795D01*
X0209500Y0086814D01*
X0209115Y0086814D01*
X0208119Y0087810D01*
X0208119Y0093180D01*
X0209115Y0094176D01*
X0214485Y0094176D01*
X0215481Y0093180D01*
X0215481Y0087810D01*
X0214485Y0086814D01*
X0214100Y0086814D01*
X0214100Y0044542D01*
X0212753Y0043195D01*
X0205868Y0043195D01*
X0205044Y0042371D01*
X0203690Y0041811D01*
X0202225Y0041811D01*
X0200871Y0042371D01*
X0199834Y0043408D01*
X0199273Y0044762D01*
X0199273Y0046228D01*
X0199393Y0044472D02*
X0083166Y0044472D01*
X0082983Y0042074D02*
X0201589Y0042074D01*
X0204326Y0042074D02*
X0221274Y0042074D01*
X0221910Y0041811D02*
X0223375Y0041811D01*
X0224729Y0042371D01*
X0225766Y0043408D01*
X0226327Y0044762D01*
X0226327Y0046228D01*
X0225766Y0047582D01*
X0224729Y0048618D01*
X0223375Y0049179D01*
X0221910Y0049179D01*
X0220556Y0048618D01*
X0219519Y0047582D01*
X0218958Y0046228D01*
X0218958Y0044762D01*
X0219519Y0043408D01*
X0220556Y0042371D01*
X0221910Y0041811D01*
X0224011Y0042074D02*
X0310800Y0042074D01*
X0310800Y0044472D02*
X0226207Y0044472D01*
X0226060Y0046871D02*
X0298488Y0046871D01*
X0298137Y0049270D02*
X0214100Y0049270D01*
X0214100Y0051668D02*
X0299500Y0051668D01*
X0299500Y0054067D02*
X0214100Y0054067D01*
X0214100Y0056465D02*
X0299500Y0056465D01*
X0304100Y0054067D02*
X0310800Y0054067D01*
X0310800Y0051668D02*
X0304100Y0051668D01*
X0305463Y0049270D02*
X0310800Y0049270D01*
X0310800Y0046871D02*
X0305112Y0046871D01*
X0306500Y0058864D02*
X0214100Y0058864D01*
X0214100Y0061262D02*
X0235666Y0061262D01*
X0235119Y0063661D02*
X0214100Y0063661D01*
X0214100Y0066059D02*
X0235119Y0066059D01*
X0241934Y0061262D02*
X0282666Y0061262D01*
X0288934Y0061262D02*
X0305827Y0061262D01*
X0305119Y0063661D02*
X0289481Y0063661D01*
X0289481Y0066059D02*
X0303869Y0066059D01*
X0310481Y0068458D02*
X0310800Y0068458D01*
X0310800Y0070856D02*
X0310481Y0070856D01*
X0310800Y0073255D02*
X0214100Y0073255D01*
X0214100Y0075653D02*
X0241275Y0075653D01*
X0241119Y0075810D02*
X0242115Y0074814D01*
X0247485Y0074814D01*
X0248366Y0075695D01*
X0287328Y0075695D01*
X0287328Y0074519D01*
X0288324Y0073523D01*
X0295276Y0073523D01*
X0296272Y0074519D01*
X0296272Y0081471D01*
X0295276Y0082466D01*
X0288324Y0082466D01*
X0287328Y0081471D01*
X0287328Y0080295D01*
X0248481Y0080295D01*
X0248481Y0081180D01*
X0247485Y0082176D01*
X0242115Y0082176D01*
X0241119Y0081180D01*
X0241119Y0075810D01*
X0241119Y0078052D02*
X0214100Y0078052D01*
X0214100Y0080450D02*
X0241119Y0080450D01*
X0248481Y0080450D02*
X0287328Y0080450D01*
X0287328Y0075653D02*
X0248325Y0075653D01*
X0264925Y0092443D02*
X0215481Y0092443D01*
X0215481Y0090044D02*
X0310800Y0090044D01*
X0310800Y0087646D02*
X0215317Y0087646D01*
X0214100Y0085247D02*
X0310800Y0085247D01*
X0310800Y0082849D02*
X0214100Y0082849D01*
X0209500Y0082849D02*
X0007800Y0082849D01*
X0007800Y0085247D02*
X0012600Y0085247D01*
X0012328Y0085519D02*
X0013324Y0084523D01*
X0020276Y0084523D01*
X0021272Y0085519D01*
X0021272Y0092471D01*
X0020276Y0093466D01*
X0013324Y0093466D01*
X0012328Y0092471D01*
X0012328Y0085519D01*
X0012328Y0087646D02*
X0007800Y0087646D01*
X0007800Y0090044D02*
X0012328Y0090044D01*
X0012328Y0092443D02*
X0007800Y0092443D01*
X0007800Y0094841D02*
X0075119Y0094841D01*
X0075119Y0092443D02*
X0021272Y0092443D01*
X0021272Y0090044D02*
X0075884Y0090044D01*
X0081716Y0090044D02*
X0188884Y0090044D01*
X0194716Y0090044D02*
X0208119Y0090044D01*
X0208119Y0092443D02*
X0195481Y0092443D01*
X0195481Y0094841D02*
X0264316Y0094841D01*
X0264316Y0095188D02*
X0264316Y0093802D01*
X0264846Y0092521D01*
X0265826Y0091541D01*
X0267107Y0091011D01*
X0268493Y0091011D01*
X0269774Y0091541D01*
X0270427Y0092195D01*
X0288253Y0092195D01*
X0289600Y0093542D01*
X0290581Y0094523D01*
X0295276Y0094523D01*
X0296272Y0095519D01*
X0296272Y0102471D01*
X0295276Y0103466D01*
X0288324Y0103466D01*
X0287328Y0102471D01*
X0287328Y0097776D01*
X0286347Y0096795D01*
X0270427Y0096795D01*
X0269774Y0097449D01*
X0268493Y0097979D01*
X0267107Y0097979D01*
X0265826Y0097449D01*
X0264846Y0096468D01*
X0264316Y0095188D01*
X0265617Y0097240D02*
X0187100Y0097240D01*
X0187100Y0099638D02*
X0287328Y0099638D01*
X0287328Y0102037D02*
X0187100Y0102037D01*
X0187100Y0104435D02*
X0310800Y0104435D01*
X0310800Y0102037D02*
X0296272Y0102037D01*
X0296272Y0099638D02*
X0310800Y0099638D01*
X0310800Y0097240D02*
X0296272Y0097240D01*
X0295594Y0094841D02*
X0310800Y0094841D01*
X0310800Y0092443D02*
X0288501Y0092443D01*
X0286792Y0097240D02*
X0269983Y0097240D01*
X0296272Y0080450D02*
X0310800Y0080450D01*
X0310800Y0078052D02*
X0296272Y0078052D01*
X0296272Y0075653D02*
X0310800Y0075653D01*
X0277119Y0070856D02*
X0214100Y0070856D01*
X0214100Y0068458D02*
X0277119Y0068458D01*
X0219225Y0046871D02*
X0214100Y0046871D01*
X0214030Y0044472D02*
X0219078Y0044472D01*
X0217687Y0028770D02*
X0217128Y0028620D01*
X0216626Y0028330D01*
X0216216Y0027921D01*
X0215927Y0027419D01*
X0215777Y0026859D01*
X0215777Y0023495D01*
X0221052Y0023495D01*
X0221052Y0023495D01*
X0221052Y0028770D01*
X0224417Y0028770D01*
X0224976Y0028620D01*
X0225478Y0028330D01*
X0225887Y0027921D01*
X0226177Y0027419D01*
X0226327Y0026859D01*
X0226327Y0023495D01*
X0221052Y0023495D01*
X0221052Y0028770D01*
X0217687Y0028770D01*
X0216079Y0027683D02*
X0206914Y0027683D01*
X0207323Y0027274D02*
X0206327Y0028270D01*
X0198769Y0028270D01*
X0197773Y0027274D01*
X0197773Y0019716D01*
X0198769Y0018720D01*
X0206327Y0018720D01*
X0207323Y0019716D01*
X0207323Y0027274D01*
X0207323Y0025284D02*
X0215777Y0025284D01*
X0215777Y0023495D02*
X0215777Y0020130D01*
X0215927Y0019571D01*
X0216216Y0019069D01*
X0216626Y0018659D01*
X0217128Y0018370D01*
X0217687Y0018220D01*
X0221052Y0018220D01*
X0224417Y0018220D01*
X0224976Y0018370D01*
X0225478Y0018659D01*
X0225887Y0019069D01*
X0226177Y0019571D01*
X0226327Y0020130D01*
X0226327Y0023495D01*
X0221052Y0023495D01*
X0221052Y0023495D01*
X0221052Y0023495D01*
X0221052Y0018220D01*
X0221052Y0023495D01*
X0221052Y0023495D01*
X0215777Y0023495D01*
X0215777Y0022886D02*
X0207323Y0022886D01*
X0207323Y0020487D02*
X0215777Y0020487D01*
X0221052Y0020487D02*
X0221052Y0020487D01*
X0221052Y0022886D02*
X0221052Y0022886D01*
X0221052Y0025284D02*
X0221052Y0025284D01*
X0221052Y0027683D02*
X0221052Y0027683D01*
X0226025Y0027683D02*
X0243182Y0027683D01*
X0242773Y0027274D02*
X0242773Y0019716D01*
X0243769Y0018720D01*
X0251327Y0018720D01*
X0252323Y0019716D01*
X0252323Y0027274D01*
X0251327Y0028270D01*
X0243769Y0028270D01*
X0242773Y0027274D01*
X0242773Y0025284D02*
X0226327Y0025284D01*
X0226327Y0022886D02*
X0242773Y0022886D01*
X0242773Y0020487D02*
X0226327Y0020487D01*
X0251914Y0027683D02*
X0261079Y0027683D01*
X0260777Y0025284D02*
X0252323Y0025284D01*
X0252323Y0022886D02*
X0260777Y0022886D01*
X0260777Y0023495D02*
X0260777Y0020130D01*
X0260927Y0019571D01*
X0261216Y0019069D01*
X0261626Y0018659D01*
X0262128Y0018370D01*
X0262687Y0018220D01*
X0266052Y0018220D01*
X0266052Y0023495D01*
X0266052Y0023495D01*
X0260777Y0023495D01*
X0260777Y0020487D02*
X0252323Y0020487D01*
X0266052Y0020487D02*
X0266052Y0020487D01*
X0266052Y0022886D02*
X0266052Y0022886D01*
X0266052Y0025284D02*
X0266052Y0025284D01*
X0266052Y0027683D02*
X0266052Y0027683D01*
X0310800Y0015690D02*
X0007800Y0015690D01*
X0017323Y0020487D02*
X0025777Y0020487D01*
X0025777Y0020130D02*
X0025927Y0019571D01*
X0026216Y0019069D01*
X0026626Y0018659D01*
X0027128Y0018370D01*
X0027687Y0018220D01*
X0031052Y0018220D01*
X0034417Y0018220D01*
X0034976Y0018370D01*
X0035478Y0018659D01*
X0035887Y0019069D01*
X0036177Y0019571D01*
X0036327Y0020130D01*
X0036327Y0023495D01*
X0036327Y0026859D01*
X0036177Y0027419D01*
X0035887Y0027921D01*
X0035478Y0028330D01*
X0034976Y0028620D01*
X0034417Y0028770D01*
X0031052Y0028770D01*
X0031052Y0023495D01*
X0031052Y0023495D01*
X0031052Y0028770D01*
X0027687Y0028770D01*
X0027128Y0028620D01*
X0026626Y0028330D01*
X0026216Y0027921D01*
X0025927Y0027419D01*
X0025777Y0026859D01*
X0025777Y0023495D01*
X0031052Y0023495D01*
X0036327Y0023495D01*
X0031052Y0023495D01*
X0031052Y0023495D01*
X0031052Y0023495D01*
X0031052Y0018220D01*
X0031052Y0023495D01*
X0031052Y0023495D01*
X0025777Y0023495D01*
X0025777Y0020130D01*
X0025777Y0022886D02*
X0017323Y0022886D01*
X0017323Y0025284D02*
X0025777Y0025284D01*
X0026079Y0027683D02*
X0016914Y0027683D01*
X0031052Y0027683D02*
X0031052Y0027683D01*
X0031052Y0025284D02*
X0031052Y0025284D01*
X0031052Y0022886D02*
X0031052Y0022886D01*
X0031052Y0020487D02*
X0031052Y0020487D01*
X0036327Y0020487D02*
X0052773Y0020487D01*
X0052773Y0019716D02*
X0053769Y0018720D01*
X0061327Y0018720D01*
X0062323Y0019716D01*
X0062323Y0027274D01*
X0061327Y0028270D01*
X0053769Y0028270D01*
X0052773Y0027274D01*
X0052773Y0019716D01*
X0052773Y0022886D02*
X0036327Y0022886D01*
X0036327Y0025284D02*
X0052773Y0025284D01*
X0053182Y0027683D02*
X0036025Y0027683D01*
X0061914Y0027683D02*
X0071079Y0027683D01*
X0071216Y0027921D02*
X0070927Y0027419D01*
X0070777Y0026859D01*
X0070777Y0023495D01*
X0076052Y0023495D01*
X0076052Y0023495D01*
X0076052Y0028770D01*
X0079417Y0028770D01*
X0079976Y0028620D01*
X0080478Y0028330D01*
X0080887Y0027921D01*
X0081177Y0027419D01*
X0081327Y0026859D01*
X0081327Y0023495D01*
X0076052Y0023495D01*
X0076052Y0028770D01*
X0072687Y0028770D01*
X0072128Y0028620D01*
X0071626Y0028330D01*
X0071216Y0027921D01*
X0070777Y0025284D02*
X0062323Y0025284D01*
X0062323Y0022886D02*
X0070777Y0022886D01*
X0070777Y0023495D02*
X0070777Y0020130D01*
X0070927Y0019571D01*
X0071216Y0019069D01*
X0071626Y0018659D01*
X0072128Y0018370D01*
X0072687Y0018220D01*
X0076052Y0018220D01*
X0079417Y0018220D01*
X0079976Y0018370D01*
X0080478Y0018659D01*
X0080887Y0019069D01*
X0081177Y0019571D01*
X0081327Y0020130D01*
X0081327Y0023495D01*
X0076052Y0023495D01*
X0076052Y0023495D01*
X0076052Y0023495D01*
X0076052Y0018220D01*
X0076052Y0023495D01*
X0076052Y0023495D01*
X0070777Y0023495D01*
X0070777Y0020487D02*
X0062323Y0020487D01*
X0076052Y0020487D02*
X0076052Y0020487D01*
X0076052Y0022886D02*
X0076052Y0022886D01*
X0076052Y0025284D02*
X0076052Y0025284D01*
X0076052Y0027683D02*
X0076052Y0027683D01*
X0081025Y0027683D02*
X0098182Y0027683D01*
X0097773Y0027274D02*
X0097773Y0019716D01*
X0098769Y0018720D01*
X0106327Y0018720D01*
X0107323Y0019716D01*
X0107323Y0027274D01*
X0106327Y0028270D01*
X0098769Y0028270D01*
X0097773Y0027274D01*
X0097773Y0025284D02*
X0081327Y0025284D01*
X0081327Y0022886D02*
X0097773Y0022886D01*
X0097773Y0020487D02*
X0081327Y0020487D01*
X0107323Y0020487D02*
X0115777Y0020487D01*
X0115777Y0020130D02*
X0115927Y0019571D01*
X0116216Y0019069D01*
X0116626Y0018659D01*
X0117128Y0018370D01*
X0117687Y0018220D01*
X0121052Y0018220D01*
X0124417Y0018220D01*
X0124976Y0018370D01*
X0125478Y0018659D01*
X0125887Y0019069D01*
X0126177Y0019571D01*
X0126327Y0020130D01*
X0126327Y0023495D01*
X0126327Y0026859D01*
X0126177Y0027419D01*
X0125887Y0027921D01*
X0125478Y0028330D01*
X0124976Y0028620D01*
X0124417Y0028770D01*
X0121052Y0028770D01*
X0121052Y0023495D01*
X0121052Y0023495D01*
X0121052Y0028770D01*
X0117687Y0028770D01*
X0117128Y0028620D01*
X0116626Y0028330D01*
X0116216Y0027921D01*
X0115927Y0027419D01*
X0115777Y0026859D01*
X0115777Y0023495D01*
X0121052Y0023495D01*
X0126327Y0023495D01*
X0121052Y0023495D01*
X0121052Y0023495D01*
X0121052Y0023495D01*
X0121052Y0018220D01*
X0121052Y0023495D01*
X0121052Y0023495D01*
X0115777Y0023495D01*
X0115777Y0020130D01*
X0115777Y0022886D02*
X0107323Y0022886D01*
X0107323Y0025284D02*
X0115777Y0025284D01*
X0116079Y0027683D02*
X0106914Y0027683D01*
X0121052Y0027683D02*
X0121052Y0027683D01*
X0121052Y0025284D02*
X0121052Y0025284D01*
X0121052Y0022886D02*
X0121052Y0022886D01*
X0121052Y0020487D02*
X0121052Y0020487D01*
X0126327Y0020487D02*
X0147773Y0020487D01*
X0147773Y0019716D02*
X0148769Y0018720D01*
X0156327Y0018720D01*
X0157323Y0019716D01*
X0157323Y0027274D01*
X0156327Y0028270D01*
X0148769Y0028270D01*
X0147773Y0027274D01*
X0147773Y0019716D01*
X0147773Y0022886D02*
X0126327Y0022886D01*
X0126327Y0025284D02*
X0147773Y0025284D01*
X0148182Y0027683D02*
X0126025Y0027683D01*
X0156914Y0027683D02*
X0166079Y0027683D01*
X0166216Y0027921D02*
X0165927Y0027419D01*
X0165777Y0026859D01*
X0165777Y0023495D01*
X0171052Y0023495D01*
X0171052Y0023495D01*
X0171052Y0028770D01*
X0174417Y0028770D01*
X0174976Y0028620D01*
X0175478Y0028330D01*
X0175887Y0027921D01*
X0176177Y0027419D01*
X0176327Y0026859D01*
X0176327Y0023495D01*
X0171052Y0023495D01*
X0171052Y0028770D01*
X0167687Y0028770D01*
X0167128Y0028620D01*
X0166626Y0028330D01*
X0166216Y0027921D01*
X0165777Y0025284D02*
X0157323Y0025284D01*
X0157323Y0022886D02*
X0165777Y0022886D01*
X0165777Y0023495D02*
X0165777Y0020130D01*
X0165927Y0019571D01*
X0166216Y0019069D01*
X0166626Y0018659D01*
X0167128Y0018370D01*
X0167687Y0018220D01*
X0171052Y0018220D01*
X0174417Y0018220D01*
X0174976Y0018370D01*
X0175478Y0018659D01*
X0175887Y0019069D01*
X0176177Y0019571D01*
X0176327Y0020130D01*
X0176327Y0023495D01*
X0171052Y0023495D01*
X0171052Y0023495D01*
X0171052Y0023495D01*
X0171052Y0018220D01*
X0171052Y0023495D01*
X0171052Y0023495D01*
X0165777Y0023495D01*
X0165777Y0020487D02*
X0157323Y0020487D01*
X0171052Y0020487D02*
X0171052Y0020487D01*
X0171052Y0022886D02*
X0171052Y0022886D01*
X0171052Y0025284D02*
X0171052Y0025284D01*
X0171052Y0027683D02*
X0171052Y0027683D01*
X0176025Y0027683D02*
X0198182Y0027683D01*
X0197773Y0025284D02*
X0176327Y0025284D01*
X0176327Y0022886D02*
X0197773Y0022886D01*
X0197773Y0020487D02*
X0176327Y0020487D01*
X0176142Y0068458D02*
X0209500Y0068458D01*
X0209500Y0070856D02*
X0176007Y0070856D01*
X0208283Y0087646D02*
X0021272Y0087646D01*
X0021000Y0085247D02*
X0209500Y0085247D01*
X0182500Y0099638D02*
X0158084Y0099638D01*
X0153516Y0099638D02*
X0124055Y0099638D01*
X0123051Y0097240D02*
X0152316Y0097240D01*
X0165668Y0104435D02*
X0182500Y0104435D01*
X0182500Y0102037D02*
X0131967Y0102037D01*
X0131000Y0109232D02*
X0139135Y0109232D01*
X0138316Y0111631D02*
X0131000Y0111631D01*
X0131000Y0114029D02*
X0135636Y0114029D01*
X0135415Y0116428D02*
X0133129Y0116428D01*
X0133020Y0118826D02*
X0137738Y0118826D01*
X0139862Y0118826D02*
X0157738Y0118826D01*
X0159862Y0118826D02*
X0186379Y0118826D01*
X0194587Y0114029D02*
X0208636Y0114029D01*
X0208846Y0113521D02*
X0209826Y0112541D01*
X0211107Y0112011D01*
X0212493Y0112011D01*
X0213774Y0112541D01*
X0214427Y0113195D01*
X0227173Y0113195D01*
X0227826Y0112541D01*
X0229107Y0112011D01*
X0230493Y0112011D01*
X0231774Y0112541D01*
X0232754Y0113521D01*
X0233284Y0114802D01*
X0233284Y0116188D01*
X0232754Y0117468D01*
X0231774Y0118449D01*
X0230493Y0118979D01*
X0229107Y0118979D01*
X0227826Y0118449D01*
X0227173Y0117795D01*
X0214427Y0117795D01*
X0213774Y0118449D01*
X0212493Y0118979D01*
X0211107Y0118979D01*
X0209826Y0118449D01*
X0208846Y0117468D01*
X0208316Y0116188D01*
X0208316Y0114802D01*
X0208846Y0113521D01*
X0208415Y0116428D02*
X0200099Y0116428D01*
X0200981Y0118826D02*
X0210738Y0118826D01*
X0212862Y0118826D02*
X0228738Y0118826D01*
X0230862Y0118826D02*
X0299738Y0118826D01*
X0300107Y0118979D02*
X0298826Y0118449D01*
X0297846Y0117468D01*
X0297316Y0116188D01*
X0297316Y0114802D01*
X0297846Y0113521D01*
X0298826Y0112541D01*
X0300107Y0112011D01*
X0301493Y0112011D01*
X0302774Y0112541D01*
X0303427Y0113195D01*
X0327173Y0113195D01*
X0327826Y0112541D01*
X0329107Y0112011D01*
X0330493Y0112011D01*
X0331774Y0112541D01*
X0332754Y0113521D01*
X0333284Y0114802D01*
X0333284Y0116188D01*
X0332754Y0117468D01*
X0331774Y0118449D01*
X0330493Y0118979D01*
X0329107Y0118979D01*
X0327826Y0118449D01*
X0327173Y0117795D01*
X0303427Y0117795D01*
X0302774Y0118449D01*
X0301493Y0118979D01*
X0300107Y0118979D01*
X0301862Y0118826D02*
X0328738Y0118826D01*
X0330862Y0118826D02*
X0341500Y0118826D01*
X0341500Y0116428D02*
X0333185Y0116428D01*
X0332964Y0114029D02*
X0341500Y0114029D01*
X0341500Y0111631D02*
X0192189Y0111631D01*
X0189790Y0109232D02*
X0341500Y0109232D01*
X0341500Y0106834D02*
X0187392Y0106834D01*
X0183285Y0109232D02*
X0175528Y0109232D01*
X0173072Y0109232D02*
X0164990Y0109232D01*
X0164284Y0111631D02*
X0170887Y0111631D01*
X0171164Y0114029D02*
X0163193Y0114029D01*
X0162185Y0116428D02*
X0175480Y0116428D01*
X0177713Y0111631D02*
X0185683Y0111631D01*
X0182500Y0106834D02*
X0166284Y0106834D01*
X0168817Y0121225D02*
X0128000Y0121225D01*
X0128000Y0123623D02*
X0167500Y0123623D01*
X0167500Y0126022D02*
X0128000Y0126022D01*
X0128000Y0128420D02*
X0166119Y0128420D01*
X0166571Y0130819D02*
X0128000Y0130819D01*
X0128634Y0133217D02*
X0285608Y0133217D01*
X0286107Y0133011D02*
X0287493Y0133011D01*
X0288774Y0133541D01*
X0289754Y0134521D01*
X0290284Y0135802D01*
X0290284Y0137188D01*
X0289754Y0138468D01*
X0289100Y0139122D01*
X0289100Y0144867D01*
X0289754Y0145521D01*
X0290284Y0146802D01*
X0290284Y0148188D01*
X0289754Y0149468D01*
X0288774Y0150449D01*
X0287493Y0150979D01*
X0286107Y0150979D01*
X0284826Y0150449D01*
X0283846Y0149468D01*
X0283316Y0148188D01*
X0283316Y0146802D01*
X0283846Y0145521D01*
X0284500Y0144867D01*
X0284500Y0139122D01*
X0283846Y0138468D01*
X0283316Y0137188D01*
X0283316Y0135802D01*
X0283846Y0134521D01*
X0284826Y0133541D01*
X0286107Y0133011D01*
X0285774Y0132449D02*
X0286427Y0131795D01*
X0294673Y0131795D01*
X0295326Y0132449D01*
X0296607Y0132979D01*
X0297993Y0132979D01*
X0299274Y0132449D01*
X0300254Y0131468D01*
X0300784Y0130188D01*
X0300784Y0128802D01*
X0300254Y0127521D01*
X0299274Y0126541D01*
X0297993Y0126011D01*
X0296607Y0126011D01*
X0295326Y0126541D01*
X0294673Y0127195D01*
X0286427Y0127195D01*
X0285774Y0126541D01*
X0284493Y0126011D01*
X0283107Y0126011D01*
X0281826Y0126541D01*
X0280846Y0127521D01*
X0280316Y0128802D01*
X0280316Y0130188D01*
X0280846Y0131468D01*
X0281826Y0132449D01*
X0283107Y0132979D01*
X0284493Y0132979D01*
X0285774Y0132449D01*
X0287992Y0133217D02*
X0319500Y0133217D01*
X0319500Y0132122D02*
X0318846Y0131468D01*
X0318316Y0130188D01*
X0318316Y0128802D01*
X0318846Y0127521D01*
X0319826Y0126541D01*
X0321107Y0126011D01*
X0322493Y0126011D01*
X0323774Y0126541D01*
X0324754Y0127521D01*
X0325284Y0128802D01*
X0325284Y0130188D01*
X0324754Y0131468D01*
X0324100Y0132122D01*
X0324100Y0137867D01*
X0324754Y0138521D01*
X0325284Y0139802D01*
X0325284Y0141188D01*
X0324754Y0142468D01*
X0323774Y0143449D01*
X0322493Y0143979D01*
X0321107Y0143979D01*
X0319826Y0143449D01*
X0318846Y0142468D01*
X0318316Y0141188D01*
X0318316Y0139802D01*
X0318846Y0138521D01*
X0319500Y0137867D01*
X0319500Y0132122D01*
X0318577Y0130819D02*
X0300523Y0130819D01*
X0300626Y0128420D02*
X0318474Y0128420D01*
X0321080Y0126022D02*
X0298020Y0126022D01*
X0296580Y0126022D02*
X0284520Y0126022D01*
X0283080Y0126022D02*
X0236255Y0126022D01*
X0237284Y0128420D02*
X0280474Y0128420D01*
X0280577Y0130819D02*
X0236403Y0130819D01*
X0231197Y0130819D02*
X0225403Y0130819D01*
X0220197Y0130819D02*
X0173029Y0130819D01*
X0173481Y0128420D02*
X0219316Y0128420D01*
X0220345Y0126022D02*
X0172100Y0126022D01*
X0187619Y0135810D02*
X0188615Y0134814D01*
X0193985Y0134814D01*
X0194981Y0135810D01*
X0194981Y0136195D01*
X0215619Y0136195D01*
X0215619Y0135810D01*
X0216615Y0134814D01*
X0221985Y0134814D01*
X0222981Y0135810D01*
X0222981Y0141180D01*
X0221985Y0142176D01*
X0216615Y0142176D01*
X0215619Y0141180D01*
X0215619Y0140795D01*
X0194981Y0140795D01*
X0194981Y0141180D01*
X0193985Y0142176D01*
X0188615Y0142176D01*
X0187619Y0141180D01*
X0187619Y0135810D01*
X0187813Y0135616D02*
X0144793Y0135616D01*
X0145284Y0138014D02*
X0187619Y0138014D01*
X0187619Y0140413D02*
X0146464Y0140413D01*
X0148284Y0142811D02*
X0284500Y0142811D01*
X0284500Y0140413D02*
X0222981Y0140413D01*
X0222981Y0138014D02*
X0283658Y0138014D01*
X0283393Y0135616D02*
X0222787Y0135616D01*
X0215813Y0135616D02*
X0194787Y0135616D01*
X0199107Y0153511D02*
X0200493Y0153511D01*
X0201774Y0154041D01*
X0202754Y0155021D01*
X0203284Y0156302D01*
X0203284Y0157688D01*
X0202754Y0158968D01*
X0201774Y0159949D01*
X0200493Y0160479D01*
X0199107Y0160479D01*
X0197826Y0159949D01*
X0197173Y0159295D01*
X0190780Y0159295D01*
X0190297Y0159495D01*
X0177836Y0159495D01*
X0173981Y0163349D01*
X0173981Y0166180D01*
X0172985Y0167176D01*
X0167615Y0167176D01*
X0166619Y0166180D01*
X0166619Y0160810D01*
X0167615Y0159814D01*
X0170446Y0159814D01*
X0175384Y0154875D01*
X0176303Y0154495D01*
X0190297Y0154495D01*
X0190780Y0154695D01*
X0197173Y0154695D01*
X0197826Y0154041D01*
X0199107Y0153511D01*
X0202537Y0154804D02*
X0226316Y0154804D01*
X0226316Y0154802D02*
X0226846Y0153521D01*
X0227826Y0152541D01*
X0229107Y0152011D01*
X0230493Y0152011D01*
X0231774Y0152541D01*
X0232427Y0153195D01*
X0247173Y0153195D01*
X0247826Y0152541D01*
X0249107Y0152011D01*
X0250493Y0152011D01*
X0251774Y0152541D01*
X0252754Y0153521D01*
X0253284Y0154802D01*
X0253284Y0156188D01*
X0252754Y0157468D01*
X0251774Y0158449D01*
X0250493Y0158979D01*
X0249107Y0158979D01*
X0248662Y0158795D01*
X0247847Y0158795D01*
X0246847Y0157795D01*
X0232427Y0157795D01*
X0231774Y0158449D01*
X0230493Y0158979D01*
X0229107Y0158979D01*
X0227826Y0158449D01*
X0226846Y0157468D01*
X0226316Y0156188D01*
X0226316Y0154802D01*
X0226736Y0157203D02*
X0203284Y0157203D01*
X0202121Y0159601D02*
X0290500Y0159601D01*
X0290500Y0157203D02*
X0252864Y0157203D01*
X0253284Y0154804D02*
X0290182Y0154804D01*
X0290500Y0155122D02*
X0289846Y0154468D01*
X0289316Y0153188D01*
X0289316Y0151802D01*
X0289846Y0150521D01*
X0290826Y0149541D01*
X0292107Y0149011D01*
X0293493Y0149011D01*
X0294294Y0149342D01*
X0293816Y0148188D01*
X0293816Y0146802D01*
X0294346Y0145521D01*
X0295326Y0144541D01*
X0296607Y0144011D01*
X0297993Y0144011D01*
X0299274Y0144541D01*
X0299927Y0145195D01*
X0318173Y0145195D01*
X0318826Y0144541D01*
X0320107Y0144011D01*
X0321493Y0144011D01*
X0322774Y0144541D01*
X0323754Y0145521D01*
X0324284Y0146802D01*
X0324284Y0148188D01*
X0323754Y0149468D01*
X0322774Y0150449D01*
X0321493Y0150979D01*
X0320107Y0150979D01*
X0318826Y0150449D01*
X0318173Y0149795D01*
X0299927Y0149795D01*
X0299274Y0150449D01*
X0297993Y0150979D01*
X0296607Y0150979D01*
X0295806Y0150647D01*
X0296284Y0151802D01*
X0296284Y0153188D01*
X0295754Y0154468D01*
X0295100Y0155122D01*
X0295100Y0162867D01*
X0295754Y0163521D01*
X0296284Y0164802D01*
X0296284Y0166188D01*
X0295754Y0167468D01*
X0294774Y0168449D01*
X0293493Y0168979D01*
X0292107Y0168979D01*
X0290826Y0168449D01*
X0289846Y0167468D01*
X0289316Y0166188D01*
X0289316Y0164802D01*
X0289846Y0163521D01*
X0290500Y0162867D01*
X0290500Y0155122D01*
X0289316Y0152405D02*
X0251447Y0152405D01*
X0248153Y0152405D02*
X0231447Y0152405D01*
X0228153Y0152405D02*
X0158194Y0152405D01*
X0158284Y0152188D02*
X0157754Y0153468D01*
X0156774Y0154449D01*
X0155493Y0154979D01*
X0154107Y0154979D01*
X0152826Y0154449D01*
X0151846Y0153468D01*
X0151526Y0152695D01*
X0029889Y0152695D01*
X0028600Y0151406D01*
X0014600Y0137406D01*
X0014600Y0132522D01*
X0013021Y0132522D01*
X0012025Y0131526D01*
X0012025Y0123968D01*
X0013021Y0122972D01*
X0020579Y0122972D01*
X0021575Y0123968D01*
X0021575Y0131526D01*
X0020579Y0132522D01*
X0019000Y0132522D01*
X0019000Y0135584D01*
X0031711Y0148295D01*
X0094774Y0148295D01*
X0094316Y0147188D01*
X0094316Y0146122D01*
X0093889Y0145695D01*
X0083481Y0145695D01*
X0083481Y0146180D01*
X0082485Y0147176D01*
X0077115Y0147176D01*
X0076119Y0146180D01*
X0076119Y0145795D01*
X0061847Y0145795D01*
X0060500Y0144447D01*
X0060500Y0140795D01*
X0040481Y0140795D01*
X0040481Y0141180D01*
X0039485Y0142176D01*
X0034115Y0142176D01*
X0033119Y0141180D01*
X0033119Y0135810D01*
X0034115Y0134814D01*
X0039485Y0134814D01*
X0040481Y0135810D01*
X0040481Y0136195D01*
X0063753Y0136195D01*
X0065100Y0137542D01*
X0065100Y0141195D01*
X0076119Y0141195D01*
X0076119Y0140810D01*
X0077115Y0139814D01*
X0082485Y0139814D01*
X0083481Y0140810D01*
X0083481Y0141295D01*
X0095500Y0141295D01*
X0095500Y0136282D01*
X0096847Y0134935D01*
X0097173Y0134935D01*
X0097826Y0134281D01*
X0099107Y0133751D01*
X0100493Y0133751D01*
X0101774Y0134281D01*
X0102754Y0135261D01*
X0103284Y0136542D01*
X0103284Y0137928D01*
X0102754Y0139209D01*
X0101774Y0140189D01*
X0100493Y0140719D01*
X0100100Y0140719D01*
X0100100Y0143867D01*
X0100754Y0144521D01*
X0101284Y0145802D01*
X0101284Y0147188D01*
X0100826Y0148295D01*
X0153421Y0148295D01*
X0154107Y0148011D01*
X0155493Y0148011D01*
X0156774Y0148541D01*
X0157754Y0149521D01*
X0158284Y0150802D01*
X0158284Y0152188D01*
X0157955Y0150007D02*
X0284385Y0150007D01*
X0283316Y0147608D02*
X0101110Y0147608D01*
X0101039Y0145210D02*
X0126739Y0145210D01*
X0126316Y0142811D02*
X0100100Y0142811D01*
X0101232Y0140413D02*
X0127791Y0140413D01*
X0126316Y0138014D02*
X0103248Y0138014D01*
X0102901Y0135616D02*
X0124810Y0135616D01*
X0123600Y0133217D02*
X0087450Y0133217D01*
X0087754Y0133521D02*
X0088284Y0134802D01*
X0088284Y0136188D01*
X0087754Y0137468D01*
X0086774Y0138449D01*
X0085493Y0138979D01*
X0084107Y0138979D01*
X0082826Y0138449D01*
X0081846Y0137468D01*
X0081316Y0136188D01*
X0081316Y0134802D01*
X0081846Y0133521D01*
X0082500Y0132867D01*
X0082500Y0130295D01*
X0051427Y0130295D01*
X0050774Y0130949D01*
X0049493Y0131479D01*
X0048107Y0131479D01*
X0046826Y0130949D01*
X0045846Y0129968D01*
X0045316Y0128688D01*
X0045316Y0127302D01*
X0045846Y0126021D01*
X0046826Y0125041D01*
X0048107Y0124511D01*
X0049493Y0124511D01*
X0050774Y0125041D01*
X0051427Y0125695D01*
X0085753Y0125695D01*
X0087100Y0127042D01*
X0087100Y0132867D01*
X0087754Y0133521D01*
X0088284Y0135616D02*
X0096166Y0135616D01*
X0095500Y0138014D02*
X0087208Y0138014D01*
X0083084Y0140413D02*
X0095500Y0140413D01*
X0094490Y0147608D02*
X0031025Y0147608D01*
X0028626Y0145210D02*
X0061262Y0145210D01*
X0060500Y0142811D02*
X0026228Y0142811D01*
X0023829Y0140413D02*
X0033119Y0140413D01*
X0033119Y0138014D02*
X0021431Y0138014D01*
X0019032Y0135616D02*
X0033313Y0135616D01*
X0040287Y0135616D02*
X0081316Y0135616D01*
X0082150Y0133217D02*
X0019000Y0133217D01*
X0021575Y0130819D02*
X0046697Y0130819D01*
X0045316Y0128420D02*
X0021575Y0128420D01*
X0021575Y0126022D02*
X0045846Y0126022D01*
X0050903Y0130819D02*
X0082500Y0130819D01*
X0087100Y0130819D02*
X0123600Y0130819D01*
X0123600Y0128420D02*
X0100774Y0128420D01*
X0100754Y0128468D02*
X0099774Y0129449D01*
X0098493Y0129979D01*
X0097107Y0129979D01*
X0095826Y0129449D01*
X0094846Y0128468D01*
X0094316Y0127188D01*
X0094316Y0125802D01*
X0094846Y0124521D01*
X0095500Y0123867D01*
X0095500Y0119542D01*
X0096847Y0118195D01*
X0097173Y0118195D01*
X0097826Y0117541D01*
X0099107Y0117011D01*
X0100493Y0117011D01*
X0101774Y0117541D01*
X0102754Y0118521D01*
X0103284Y0119802D01*
X0103284Y0121188D01*
X0102754Y0122468D01*
X0101774Y0123449D01*
X0100493Y0123979D01*
X0100212Y0123979D01*
X0100754Y0124521D01*
X0101284Y0125802D01*
X0101284Y0127188D01*
X0100754Y0128468D01*
X0101284Y0126022D02*
X0123600Y0126022D01*
X0123600Y0123623D02*
X0101352Y0123623D01*
X0103269Y0121225D02*
X0123600Y0121225D01*
X0123600Y0118826D02*
X0102880Y0118826D01*
X0096216Y0118826D02*
X0007800Y0118826D01*
X0007800Y0116428D02*
X0123600Y0116428D01*
X0123600Y0114029D02*
X0088481Y0114029D01*
X0088481Y0114180D02*
X0087485Y0115176D01*
X0082115Y0115176D01*
X0081119Y0114180D01*
X0081119Y0113795D01*
X0035481Y0113795D01*
X0035481Y0114180D01*
X0034485Y0115176D01*
X0029115Y0115176D01*
X0028119Y0114180D01*
X0028119Y0108810D01*
X0029115Y0107814D01*
X0034485Y0107814D01*
X0035481Y0108810D01*
X0035481Y0109195D01*
X0081119Y0109195D01*
X0081119Y0108810D01*
X0082115Y0107814D01*
X0087485Y0107814D01*
X0088481Y0108810D01*
X0088481Y0114180D01*
X0088481Y0111631D02*
X0123600Y0111631D01*
X0123600Y0109232D02*
X0088481Y0109232D01*
X0081119Y0114029D02*
X0035481Y0114029D01*
X0028119Y0114029D02*
X0021275Y0114029D01*
X0021226Y0114078D02*
X0020724Y0114368D01*
X0020165Y0114518D01*
X0016800Y0114518D01*
X0016800Y0109243D01*
X0016800Y0109243D01*
X0016800Y0114518D01*
X0013435Y0114518D01*
X0012876Y0114368D01*
X0012374Y0114078D01*
X0011965Y0113669D01*
X0011675Y0113167D01*
X0011525Y0112607D01*
X0011525Y0109243D01*
X0016800Y0109243D01*
X0022075Y0109243D01*
X0022075Y0112607D01*
X0021925Y0113167D01*
X0021635Y0113669D01*
X0021226Y0114078D01*
X0022075Y0111631D02*
X0028119Y0111631D01*
X0028119Y0109232D02*
X0022075Y0109232D01*
X0022075Y0109243D02*
X0022075Y0105878D01*
X0021925Y0105319D01*
X0021635Y0104817D01*
X0021226Y0104407D01*
X0020724Y0104118D01*
X0020165Y0103968D01*
X0016800Y0103968D01*
X0016800Y0109243D01*
X0016800Y0109243D01*
X0016800Y0109243D01*
X0022075Y0109243D01*
X0022075Y0106834D02*
X0123600Y0106834D01*
X0122629Y0104435D02*
X0021254Y0104435D01*
X0016800Y0104435D02*
X0016800Y0104435D01*
X0016800Y0103968D02*
X0016800Y0109243D01*
X0011525Y0109243D01*
X0011525Y0105878D01*
X0011675Y0105319D01*
X0011965Y0104817D01*
X0012374Y0104407D01*
X0012876Y0104118D01*
X0013435Y0103968D01*
X0016800Y0103968D01*
X0016800Y0106834D02*
X0016800Y0106834D01*
X0016800Y0109232D02*
X0016800Y0109232D01*
X0016800Y0109243D02*
X0016800Y0109243D01*
X0016800Y0111631D02*
X0016800Y0111631D01*
X0016800Y0114029D02*
X0016800Y0114029D01*
X0012325Y0114029D02*
X0007800Y0114029D01*
X0007800Y0111631D02*
X0011525Y0111631D01*
X0011525Y0109232D02*
X0007800Y0109232D01*
X0007800Y0106834D02*
X0011525Y0106834D01*
X0012346Y0104435D02*
X0007800Y0104435D01*
X0007800Y0102037D02*
X0120231Y0102037D01*
X0116502Y0099638D02*
X0007800Y0099638D01*
X0007800Y0097240D02*
X0116549Y0097240D01*
X0095500Y0121225D02*
X0007800Y0121225D01*
X0007800Y0123623D02*
X0012369Y0123623D01*
X0012025Y0126022D02*
X0007800Y0126022D01*
X0007800Y0128420D02*
X0012025Y0128420D01*
X0012025Y0130819D02*
X0007800Y0130819D01*
X0007800Y0133217D02*
X0014600Y0133217D01*
X0014600Y0135616D02*
X0007800Y0135616D01*
X0007800Y0138014D02*
X0015208Y0138014D01*
X0017607Y0140413D02*
X0007800Y0140413D01*
X0007800Y0142811D02*
X0020005Y0142811D01*
X0022404Y0145210D02*
X0007800Y0145210D01*
X0007800Y0147608D02*
X0024802Y0147608D01*
X0027201Y0150007D02*
X0021118Y0150007D01*
X0021575Y0150464D02*
X0020579Y0149468D01*
X0013021Y0149468D01*
X0012025Y0150464D01*
X0012025Y0158022D01*
X0013021Y0159018D01*
X0018464Y0159018D01*
X0025141Y0165695D01*
X0147073Y0165695D01*
X0147826Y0166449D01*
X0149107Y0166979D01*
X0150493Y0166979D01*
X0151774Y0166449D01*
X0152754Y0165468D01*
X0153284Y0164188D01*
X0153284Y0162802D01*
X0152754Y0161521D01*
X0151774Y0160541D01*
X0150493Y0160011D01*
X0149107Y0160011D01*
X0147826Y0160541D01*
X0147073Y0161295D01*
X0026963Y0161295D01*
X0021575Y0155907D01*
X0021575Y0150464D01*
X0021575Y0152405D02*
X0029599Y0152405D01*
X0021575Y0154804D02*
X0127124Y0154804D01*
X0127119Y0154810D02*
X0128115Y0153814D01*
X0133485Y0153814D01*
X0134481Y0154810D01*
X0134481Y0155195D01*
X0136119Y0155195D01*
X0136119Y0154810D01*
X0137115Y0153814D01*
X0142485Y0153814D01*
X0143481Y0154810D01*
X0143481Y0160180D01*
X0142485Y0161176D01*
X0137115Y0161176D01*
X0136119Y0160180D01*
X0136119Y0159795D01*
X0134481Y0159795D01*
X0134481Y0160180D01*
X0133485Y0161176D01*
X0128115Y0161176D01*
X0127119Y0160180D01*
X0127119Y0154810D01*
X0127119Y0157203D02*
X0022871Y0157203D01*
X0025269Y0159601D02*
X0127119Y0159601D01*
X0134476Y0154804D02*
X0136124Y0154804D01*
X0143476Y0154804D02*
X0153684Y0154804D01*
X0155916Y0154804D02*
X0175556Y0154804D01*
X0173057Y0157203D02*
X0143481Y0157203D01*
X0143481Y0159601D02*
X0170658Y0159601D01*
X0166619Y0162000D02*
X0152952Y0162000D01*
X0153197Y0164398D02*
X0166619Y0164398D01*
X0167235Y0166797D02*
X0150934Y0166797D01*
X0148666Y0166797D02*
X0007800Y0166797D01*
X0007800Y0169195D02*
X0011575Y0169195D01*
X0011525Y0169382D02*
X0011675Y0168823D01*
X0011965Y0168321D01*
X0012374Y0167911D01*
X0012876Y0167622D01*
X0013435Y0167472D01*
X0016800Y0167472D01*
X0020165Y0167472D01*
X0020724Y0167622D01*
X0021226Y0167911D01*
X0021635Y0168321D01*
X0021925Y0168823D01*
X0022075Y0169382D01*
X0022075Y0172747D01*
X0022075Y0176111D01*
X0021925Y0176671D01*
X0021635Y0177173D01*
X0021226Y0177582D01*
X0020724Y0177872D01*
X0020165Y0178022D01*
X0016800Y0178022D01*
X0013435Y0178022D01*
X0012876Y0177872D01*
X0012374Y0177582D01*
X0011965Y0177173D01*
X0011675Y0176671D01*
X0011525Y0176111D01*
X0011525Y0172747D01*
X0016800Y0172747D01*
X0016800Y0172747D01*
X0016800Y0178022D01*
X0016800Y0172747D01*
X0022075Y0172747D01*
X0016800Y0172747D01*
X0016800Y0172747D01*
X0016800Y0172747D01*
X0011525Y0172747D01*
X0011525Y0169382D01*
X0011525Y0171594D02*
X0007800Y0171594D01*
X0007800Y0173992D02*
X0011525Y0173992D01*
X0011600Y0176391D02*
X0007800Y0176391D01*
X0007800Y0178789D02*
X0049932Y0178789D01*
X0050106Y0179209D02*
X0049576Y0177928D01*
X0049576Y0176542D01*
X0050106Y0175261D01*
X0051086Y0174281D01*
X0052367Y0173751D01*
X0053753Y0173751D01*
X0055034Y0174281D01*
X0055947Y0175195D01*
X0083173Y0175195D01*
X0083826Y0174541D01*
X0085107Y0174011D01*
X0086493Y0174011D01*
X0087774Y0174541D01*
X0088754Y0175521D01*
X0089284Y0176802D01*
X0089284Y0178188D01*
X0088754Y0179468D01*
X0087774Y0180449D01*
X0086493Y0180979D01*
X0085107Y0180979D01*
X0083826Y0180449D01*
X0083173Y0179795D01*
X0055427Y0179795D01*
X0055034Y0180189D01*
X0053753Y0180719D01*
X0052367Y0180719D01*
X0051086Y0180189D01*
X0050106Y0179209D01*
X0049638Y0176391D02*
X0022000Y0176391D01*
X0022075Y0173992D02*
X0051784Y0173992D01*
X0054336Y0173992D02*
X0217000Y0173992D01*
X0217000Y0171594D02*
X0022075Y0171594D01*
X0022025Y0169195D02*
X0217000Y0169195D01*
X0217000Y0167622D02*
X0216346Y0166968D01*
X0215816Y0165688D01*
X0215816Y0164302D01*
X0216346Y0163021D01*
X0217326Y0162041D01*
X0218607Y0161511D01*
X0219993Y0161511D01*
X0221274Y0162041D01*
X0222254Y0163021D01*
X0222784Y0164302D01*
X0222784Y0165688D01*
X0222254Y0166968D01*
X0221600Y0167622D01*
X0221600Y0176195D01*
X0244173Y0176195D01*
X0244826Y0175541D01*
X0246107Y0175011D01*
X0247493Y0175011D01*
X0248774Y0175541D01*
X0249754Y0176521D01*
X0250284Y0177802D01*
X0250284Y0179188D01*
X0249754Y0180468D01*
X0248774Y0181449D01*
X0247493Y0181979D01*
X0246107Y0181979D01*
X0244826Y0181449D01*
X0244173Y0180795D01*
X0234867Y0180795D01*
X0235284Y0181802D01*
X0235284Y0183188D01*
X0235074Y0183695D01*
X0260253Y0183695D01*
X0261600Y0185042D01*
X0261600Y0185221D01*
X0262107Y0185011D01*
X0263493Y0185011D01*
X0264774Y0185541D01*
X0265427Y0186195D01*
X0269573Y0186195D01*
X0268846Y0185468D01*
X0268316Y0184188D01*
X0268316Y0182802D01*
X0268846Y0181521D01*
X0269826Y0180541D01*
X0271107Y0180011D01*
X0272493Y0180011D01*
X0273774Y0180541D01*
X0274754Y0181521D01*
X0275033Y0182195D01*
X0330173Y0182195D01*
X0330826Y0181541D01*
X0332107Y0181011D01*
X0333493Y0181011D01*
X0334774Y0181541D01*
X0335754Y0182521D01*
X0336284Y0183802D01*
X0336284Y0185188D01*
X0335867Y0186195D01*
X0357173Y0186195D01*
X0357826Y0185541D01*
X0359107Y0185011D01*
X0360493Y0185011D01*
X0361774Y0185541D01*
X0362754Y0186521D01*
X0363284Y0187802D01*
X0363284Y0189188D01*
X0362754Y0190468D01*
X0361774Y0191449D01*
X0360493Y0191979D01*
X0359107Y0191979D01*
X0357826Y0191449D01*
X0357173Y0190795D01*
X0277981Y0190795D01*
X0277981Y0195680D01*
X0276985Y0196676D01*
X0272481Y0196676D01*
X0272481Y0200180D01*
X0271485Y0201176D01*
X0266115Y0201176D01*
X0265119Y0200180D01*
X0265119Y0199795D01*
X0259347Y0199795D01*
X0258284Y0198732D01*
X0258284Y0199188D01*
X0257754Y0200468D01*
X0256774Y0201449D01*
X0255493Y0201979D01*
X0254107Y0201979D01*
X0252826Y0201449D01*
X0252173Y0200795D01*
X0227427Y0200795D01*
X0226774Y0201449D01*
X0225493Y0201979D01*
X0224107Y0201979D01*
X0222826Y0201449D01*
X0221846Y0200468D01*
X0221316Y0199188D01*
X0221316Y0197802D01*
X0221846Y0196521D01*
X0222826Y0195541D01*
X0224107Y0195011D01*
X0225493Y0195011D01*
X0226774Y0195541D01*
X0227427Y0196195D01*
X0250747Y0196195D01*
X0250500Y0195947D01*
X0249347Y0194795D01*
X0204347Y0194795D01*
X0204228Y0194676D01*
X0201115Y0194676D01*
X0200119Y0193680D01*
X0200119Y0188310D01*
X0201115Y0187314D01*
X0204119Y0187314D01*
X0204119Y0184795D01*
X0124427Y0184795D01*
X0123774Y0185449D01*
X0122493Y0185979D01*
X0121107Y0185979D01*
X0119826Y0185449D01*
X0118846Y0184468D01*
X0118316Y0183188D01*
X0118316Y0181802D01*
X0118846Y0180521D01*
X0119826Y0179541D01*
X0121107Y0179011D01*
X0122493Y0179011D01*
X0123774Y0179541D01*
X0124427Y0180195D01*
X0217747Y0180195D01*
X0217000Y0179447D01*
X0217000Y0167622D01*
X0216275Y0166797D02*
X0173365Y0166797D01*
X0173981Y0164398D02*
X0215816Y0164398D01*
X0217426Y0162000D02*
X0175331Y0162000D01*
X0177729Y0159601D02*
X0197479Y0159601D01*
X0221174Y0162000D02*
X0290500Y0162000D01*
X0289483Y0164398D02*
X0222784Y0164398D01*
X0222325Y0166797D02*
X0289568Y0166797D01*
X0296032Y0166797D02*
X0377666Y0166797D01*
X0379934Y0166797D02*
X0415800Y0166797D01*
X0415800Y0169195D02*
X0412867Y0169195D01*
X0412485Y0168814D02*
X0413481Y0169810D01*
X0413481Y0175180D01*
X0412485Y0176176D01*
X0407115Y0176176D01*
X0406119Y0175180D01*
X0406119Y0174795D01*
X0373481Y0174795D01*
X0373481Y0175180D01*
X0372485Y0176176D01*
X0367115Y0176176D01*
X0366119Y0175180D01*
X0366119Y0174995D01*
X0348481Y0174995D01*
X0348481Y0175180D01*
X0347485Y0176176D01*
X0342115Y0176176D01*
X0341119Y0175180D01*
X0341119Y0174995D01*
X0322481Y0174995D01*
X0322481Y0175180D01*
X0321485Y0176176D01*
X0316115Y0176176D01*
X0315119Y0175180D01*
X0315119Y0174995D01*
X0303481Y0174995D01*
X0303481Y0175180D01*
X0302485Y0176176D01*
X0297115Y0176176D01*
X0296119Y0175180D01*
X0296119Y0169810D01*
X0297115Y0168814D01*
X0302485Y0168814D01*
X0303481Y0169810D01*
X0303481Y0169995D01*
X0315119Y0169995D01*
X0315119Y0169810D01*
X0316115Y0168814D01*
X0321485Y0168814D01*
X0322481Y0169810D01*
X0322481Y0169995D01*
X0341119Y0169995D01*
X0341119Y0169810D01*
X0342115Y0168814D01*
X0347485Y0168814D01*
X0348481Y0169810D01*
X0348481Y0169995D01*
X0366119Y0169995D01*
X0366119Y0169810D01*
X0367115Y0168814D01*
X0372485Y0168814D01*
X0373481Y0169810D01*
X0373481Y0170195D01*
X0406119Y0170195D01*
X0406119Y0169810D01*
X0407115Y0168814D01*
X0412485Y0168814D01*
X0413481Y0171594D02*
X0415800Y0171594D01*
X0415800Y0173992D02*
X0413481Y0173992D01*
X0415800Y0176391D02*
X0249623Y0176391D01*
X0250284Y0178789D02*
X0415800Y0178789D01*
X0415800Y0181188D02*
X0396481Y0181188D01*
X0396481Y0180810D02*
X0396481Y0185133D01*
X0396764Y0184849D01*
X0398345Y0184195D01*
X0405255Y0184195D01*
X0406836Y0184849D01*
X0408045Y0186059D01*
X0408700Y0187639D01*
X0408700Y0189350D01*
X0408045Y0190931D01*
X0406836Y0192140D01*
X0405255Y0192795D01*
X0398345Y0192795D01*
X0396764Y0192140D01*
X0395555Y0190931D01*
X0394900Y0189350D01*
X0394900Y0187639D01*
X0395092Y0187176D01*
X0390847Y0187176D01*
X0391481Y0187810D01*
X0391481Y0193180D01*
X0390485Y0194176D01*
X0390100Y0194176D01*
X0390100Y0199814D01*
X0390485Y0199814D01*
X0391481Y0200810D01*
X0391481Y0206180D01*
X0390485Y0207176D01*
X0385115Y0207176D01*
X0384119Y0206180D01*
X0384119Y0200810D01*
X0385115Y0199814D01*
X0385500Y0199814D01*
X0385500Y0194176D01*
X0385115Y0194176D01*
X0384119Y0193180D01*
X0384119Y0187810D01*
X0385115Y0186814D01*
X0389753Y0186814D01*
X0389119Y0186180D01*
X0389119Y0185795D01*
X0369100Y0185795D01*
X0369100Y0205814D01*
X0369485Y0205814D01*
X0370481Y0206810D01*
X0370481Y0212180D01*
X0369485Y0213176D01*
X0365981Y0213176D01*
X0365981Y0217180D01*
X0364985Y0218176D01*
X0359615Y0218176D01*
X0358619Y0217180D01*
X0358619Y0216795D01*
X0290966Y0216795D01*
X0291481Y0217310D01*
X0291481Y0222680D01*
X0290485Y0223676D01*
X0285115Y0223676D01*
X0284119Y0222680D01*
X0284119Y0222295D01*
X0266481Y0222295D01*
X0266481Y0222680D01*
X0265485Y0223676D01*
X0260115Y0223676D01*
X0259119Y0222680D01*
X0259119Y0217310D01*
X0259184Y0217245D01*
X0259119Y0217180D01*
X0259119Y0211810D01*
X0260115Y0210814D01*
X0265485Y0210814D01*
X0266481Y0211810D01*
X0266481Y0212195D01*
X0358619Y0212195D01*
X0358619Y0211810D01*
X0359615Y0210814D01*
X0363119Y0210814D01*
X0363119Y0206810D01*
X0364115Y0205814D01*
X0364500Y0205814D01*
X0364500Y0182542D01*
X0365847Y0181195D01*
X0389119Y0181195D01*
X0389119Y0180810D01*
X0390115Y0179814D01*
X0395485Y0179814D01*
X0396481Y0180810D01*
X0396481Y0183586D02*
X0415800Y0183586D01*
X0415800Y0185985D02*
X0407971Y0185985D01*
X0408700Y0188383D02*
X0415800Y0188383D01*
X0415800Y0190782D02*
X0408107Y0190782D01*
X0406836Y0194849D02*
X0405255Y0194195D01*
X0398345Y0194195D01*
X0396764Y0194849D01*
X0395555Y0196059D01*
X0394900Y0197639D01*
X0394900Y0199350D01*
X0395555Y0200931D01*
X0396764Y0202140D01*
X0398345Y0202795D01*
X0405255Y0202795D01*
X0406836Y0202140D01*
X0408045Y0200931D01*
X0408700Y0199350D01*
X0408700Y0197639D01*
X0408045Y0196059D01*
X0406836Y0194849D01*
X0407565Y0195579D02*
X0415800Y0195579D01*
X0415800Y0197977D02*
X0408700Y0197977D01*
X0408275Y0200376D02*
X0415800Y0200376D01*
X0415800Y0202774D02*
X0405305Y0202774D01*
X0405255Y0204195D02*
X0398345Y0204195D01*
X0396764Y0204849D01*
X0395555Y0206059D01*
X0394900Y0207639D01*
X0394900Y0209350D01*
X0395555Y0210931D01*
X0396764Y0212140D01*
X0398345Y0212795D01*
X0405255Y0212795D01*
X0406836Y0212140D01*
X0408045Y0210931D01*
X0408700Y0209350D01*
X0408700Y0207639D01*
X0408045Y0206059D01*
X0406836Y0204849D01*
X0405255Y0204195D01*
X0407159Y0205173D02*
X0415800Y0205173D01*
X0415800Y0207571D02*
X0408672Y0207571D01*
X0408443Y0209970D02*
X0415800Y0209970D01*
X0415800Y0212368D02*
X0406285Y0212368D01*
X0406636Y0214767D02*
X0415800Y0214767D01*
X0415800Y0221962D02*
X0415048Y0221962D01*
X0412552Y0221962D02*
X0407014Y0221962D01*
X0406243Y0224046D02*
X0405524Y0223813D01*
X0404778Y0223695D01*
X0401800Y0223695D01*
X0401800Y0228495D01*
X0401800Y0228495D01*
X0401800Y0233295D01*
X0404778Y0233295D01*
X0405524Y0233177D01*
X0406243Y0232943D01*
X0406916Y0232600D01*
X0407527Y0232156D01*
X0408061Y0231622D01*
X0408505Y0231011D01*
X0408848Y0230337D01*
X0409082Y0229619D01*
X0409200Y0228873D01*
X0409200Y0228495D01*
X0401800Y0228495D01*
X0401800Y0233295D01*
X0398822Y0233295D01*
X0398076Y0233177D01*
X0397357Y0232943D01*
X0396684Y0232600D01*
X0396073Y0232156D01*
X0395539Y0231622D01*
X0395095Y0231011D01*
X0394752Y0230337D01*
X0394518Y0229619D01*
X0394400Y0228873D01*
X0394400Y0228495D01*
X0401800Y0228495D01*
X0401800Y0228495D01*
X0401800Y0228495D01*
X0409200Y0228495D01*
X0409200Y0228117D01*
X0409082Y0227371D01*
X0408848Y0226652D01*
X0408505Y0225979D01*
X0408061Y0225368D01*
X0407527Y0224834D01*
X0406916Y0224389D01*
X0406243Y0224046D01*
X0406859Y0224361D02*
X0415800Y0224361D01*
X0415800Y0226759D02*
X0408883Y0226759D01*
X0409155Y0229158D02*
X0415800Y0229158D01*
X0415800Y0231556D02*
X0408109Y0231556D01*
X0401800Y0231556D02*
X0401800Y0231556D01*
X0401800Y0229158D02*
X0401800Y0229158D01*
X0401800Y0228495D02*
X0394400Y0228495D01*
X0394400Y0228117D01*
X0394518Y0227371D01*
X0394752Y0226652D01*
X0395095Y0225979D01*
X0395539Y0225368D01*
X0396073Y0224834D01*
X0396684Y0224389D01*
X0397357Y0224046D01*
X0398076Y0223813D01*
X0398822Y0223695D01*
X0401800Y0223695D01*
X0401800Y0228495D01*
X0401800Y0228495D01*
X0401800Y0226759D02*
X0401800Y0226759D01*
X0401800Y0224361D02*
X0401800Y0224361D01*
X0396740Y0224361D02*
X0156300Y0224361D01*
X0156481Y0224180D02*
X0155485Y0225176D01*
X0150115Y0225176D01*
X0149119Y0224180D01*
X0149119Y0223995D01*
X0122481Y0223995D01*
X0122481Y0224180D01*
X0121485Y0225176D01*
X0116115Y0225176D01*
X0115119Y0224180D01*
X0115119Y0218810D01*
X0116115Y0217814D01*
X0121485Y0217814D01*
X0122481Y0218810D01*
X0122481Y0218995D01*
X0149119Y0218995D01*
X0149119Y0218810D01*
X0150115Y0217814D01*
X0155485Y0217814D01*
X0156481Y0218810D01*
X0156481Y0224180D01*
X0156481Y0221962D02*
X0194119Y0221962D01*
X0194119Y0222180D02*
X0194119Y0216810D01*
X0195115Y0215814D01*
X0200485Y0215814D01*
X0201481Y0216810D01*
X0201481Y0217195D01*
X0215119Y0217195D01*
X0215119Y0216810D01*
X0216115Y0215814D01*
X0219753Y0215814D01*
X0219119Y0215180D01*
X0219119Y0214995D01*
X0140481Y0214995D01*
X0140481Y0215180D01*
X0139485Y0216176D01*
X0134115Y0216176D01*
X0133119Y0215180D01*
X0133119Y0209810D01*
X0134115Y0208814D01*
X0139485Y0208814D01*
X0140481Y0209810D01*
X0140481Y0209995D01*
X0181443Y0209995D01*
X0181316Y0209688D01*
X0181316Y0208302D01*
X0181846Y0207021D01*
X0182826Y0206041D01*
X0184107Y0205511D01*
X0185493Y0205511D01*
X0186774Y0206041D01*
X0187427Y0206695D01*
X0190526Y0206695D01*
X0190316Y0206188D01*
X0190316Y0204802D01*
X0190846Y0203521D01*
X0191826Y0202541D01*
X0193107Y0202011D01*
X0194493Y0202011D01*
X0195774Y0202541D01*
X0196427Y0203195D01*
X0208173Y0203195D01*
X0208826Y0202541D01*
X0210107Y0202011D01*
X0211493Y0202011D01*
X0212774Y0202541D01*
X0213754Y0203521D01*
X0214284Y0204802D01*
X0214284Y0206188D01*
X0213754Y0207468D01*
X0212774Y0208449D01*
X0211493Y0208979D01*
X0210284Y0208979D01*
X0210284Y0209688D01*
X0210157Y0209995D01*
X0219119Y0209995D01*
X0219119Y0209810D01*
X0220115Y0208814D01*
X0225485Y0208814D01*
X0226481Y0209810D01*
X0226481Y0210195D01*
X0244173Y0210195D01*
X0244826Y0209541D01*
X0246107Y0209011D01*
X0247493Y0209011D01*
X0248774Y0209541D01*
X0249754Y0210521D01*
X0250284Y0211802D01*
X0250284Y0213188D01*
X0249754Y0214468D01*
X0248774Y0215449D01*
X0247493Y0215979D01*
X0246107Y0215979D01*
X0244826Y0215449D01*
X0244173Y0214795D01*
X0226481Y0214795D01*
X0226481Y0215180D01*
X0225485Y0216176D01*
X0221847Y0216176D01*
X0222481Y0216810D01*
X0222481Y0222180D01*
X0221485Y0223176D01*
X0216115Y0223176D01*
X0215119Y0222180D01*
X0215119Y0221795D01*
X0201481Y0221795D01*
X0201481Y0222180D01*
X0200485Y0223176D01*
X0195115Y0223176D01*
X0194119Y0222180D01*
X0194119Y0219564D02*
X0156481Y0219564D01*
X0149300Y0224361D02*
X0122300Y0224361D01*
X0115300Y0224361D02*
X0007800Y0224361D01*
X0007800Y0226759D02*
X0394717Y0226759D01*
X0394445Y0229158D02*
X0358875Y0229158D01*
X0358875Y0228916D02*
X0358875Y0237074D01*
X0357879Y0238070D01*
X0349721Y0238070D01*
X0349095Y0237444D01*
X0348935Y0237721D01*
X0348526Y0238130D01*
X0348024Y0238420D01*
X0347465Y0238570D01*
X0343800Y0238570D01*
X0343800Y0232995D01*
X0343800Y0232995D01*
X0343800Y0238570D01*
X0340135Y0238570D01*
X0339576Y0238420D01*
X0339074Y0238130D01*
X0338665Y0237721D01*
X0338505Y0237444D01*
X0337879Y0238070D01*
X0329721Y0238070D01*
X0328725Y0237074D01*
X0328725Y0228916D01*
X0329721Y0227920D01*
X0337879Y0227920D01*
X0338505Y0228546D01*
X0338665Y0228269D01*
X0339074Y0227859D01*
X0339576Y0227570D01*
X0340135Y0227420D01*
X0343800Y0227420D01*
X0347465Y0227420D01*
X0348024Y0227570D01*
X0348526Y0227859D01*
X0348935Y0228269D01*
X0349095Y0228546D01*
X0349721Y0227920D01*
X0357879Y0227920D01*
X0358875Y0228916D01*
X0358875Y0231556D02*
X0395491Y0231556D01*
X0396586Y0221962D02*
X0291481Y0221962D01*
X0291481Y0219564D02*
X0394989Y0219564D01*
X0395096Y0217165D02*
X0365981Y0217165D01*
X0365981Y0214767D02*
X0396964Y0214767D01*
X0397315Y0212368D02*
X0370293Y0212368D01*
X0370481Y0209970D02*
X0395157Y0209970D01*
X0394928Y0207571D02*
X0370481Y0207571D01*
X0369100Y0205173D02*
X0384119Y0205173D01*
X0384119Y0202774D02*
X0369100Y0202774D01*
X0369100Y0200376D02*
X0384553Y0200376D01*
X0385500Y0197977D02*
X0369100Y0197977D01*
X0369100Y0195579D02*
X0385500Y0195579D01*
X0384119Y0193180D02*
X0369100Y0193180D01*
X0369100Y0190782D02*
X0384119Y0190782D01*
X0384119Y0188383D02*
X0369100Y0188383D01*
X0369100Y0185985D02*
X0389119Y0185985D01*
X0391481Y0188383D02*
X0394900Y0188383D01*
X0395493Y0190782D02*
X0391481Y0190782D01*
X0391481Y0193180D02*
X0415800Y0193180D01*
X0398295Y0202774D02*
X0391481Y0202774D01*
X0391481Y0205173D02*
X0396441Y0205173D01*
X0395325Y0200376D02*
X0391047Y0200376D01*
X0390100Y0197977D02*
X0394900Y0197977D01*
X0396035Y0195579D02*
X0390100Y0195579D01*
X0389119Y0181188D02*
X0333921Y0181188D01*
X0331679Y0181188D02*
X0274420Y0181188D01*
X0269180Y0181188D02*
X0249035Y0181188D01*
X0244565Y0181188D02*
X0235030Y0181188D01*
X0235119Y0183586D02*
X0268316Y0183586D01*
X0269362Y0185985D02*
X0265217Y0185985D01*
X0277981Y0193180D02*
X0364500Y0193180D01*
X0364500Y0190782D02*
X0362441Y0190782D01*
X0363284Y0188383D02*
X0364500Y0188383D01*
X0364500Y0185985D02*
X0362217Y0185985D01*
X0364500Y0183586D02*
X0336195Y0183586D01*
X0335954Y0185985D02*
X0357383Y0185985D01*
X0364500Y0195579D02*
X0277981Y0195579D01*
X0272481Y0197977D02*
X0364500Y0197977D01*
X0364500Y0200376D02*
X0272285Y0200376D01*
X0265315Y0200376D02*
X0257792Y0200376D01*
X0250131Y0195579D02*
X0226811Y0195579D01*
X0222789Y0195579D02*
X0146778Y0195579D01*
X0146754Y0195521D02*
X0147284Y0196802D01*
X0147284Y0198188D01*
X0146754Y0199468D01*
X0145774Y0200449D01*
X0144493Y0200979D01*
X0143427Y0200979D01*
X0142963Y0201443D01*
X0021575Y0201443D01*
X0021575Y0203022D01*
X0020579Y0204018D01*
X0013021Y0204018D01*
X0012025Y0203022D01*
X0012025Y0195464D01*
X0013021Y0194468D01*
X0020579Y0194468D01*
X0021575Y0195464D01*
X0021575Y0197043D01*
X0140316Y0197043D01*
X0140316Y0196802D01*
X0140846Y0195521D01*
X0141826Y0194541D01*
X0143107Y0194011D01*
X0144493Y0194011D01*
X0145774Y0194541D01*
X0146754Y0195521D01*
X0147284Y0197977D02*
X0221316Y0197977D01*
X0221808Y0200376D02*
X0180375Y0200376D01*
X0180774Y0200541D02*
X0181754Y0201521D01*
X0182284Y0202802D01*
X0182284Y0204188D01*
X0181754Y0205468D01*
X0180774Y0206449D01*
X0179493Y0206979D01*
X0178107Y0206979D01*
X0176826Y0206449D01*
X0176073Y0205695D01*
X0165527Y0205695D01*
X0164774Y0206449D01*
X0163493Y0206979D01*
X0162107Y0206979D01*
X0160826Y0206449D01*
X0159846Y0205468D01*
X0159316Y0204188D01*
X0159316Y0202802D01*
X0159846Y0201521D01*
X0160826Y0200541D01*
X0162107Y0200011D01*
X0163493Y0200011D01*
X0164774Y0200541D01*
X0165527Y0201295D01*
X0176073Y0201295D01*
X0176826Y0200541D01*
X0178107Y0200011D01*
X0179493Y0200011D01*
X0180774Y0200541D01*
X0182273Y0202774D02*
X0191593Y0202774D01*
X0190316Y0205173D02*
X0181876Y0205173D01*
X0181618Y0207571D02*
X0007800Y0207571D01*
X0007800Y0205173D02*
X0159724Y0205173D01*
X0159327Y0202774D02*
X0021575Y0202774D01*
X0021575Y0195579D02*
X0140822Y0195579D01*
X0145847Y0200376D02*
X0161225Y0200376D01*
X0164375Y0200376D02*
X0177225Y0200376D01*
X0181433Y0209970D02*
X0140481Y0209970D01*
X0133119Y0209970D02*
X0129940Y0209970D01*
X0129754Y0209521D02*
X0130284Y0210802D01*
X0130284Y0212188D01*
X0129754Y0213468D01*
X0128774Y0214449D01*
X0127493Y0214979D01*
X0126107Y0214979D01*
X0124826Y0214449D01*
X0124173Y0213795D01*
X0065427Y0213795D01*
X0064774Y0214449D01*
X0063493Y0214979D01*
X0062107Y0214979D01*
X0060826Y0214449D01*
X0059846Y0213468D01*
X0059316Y0212188D01*
X0059316Y0210802D01*
X0059846Y0209521D01*
X0060826Y0208541D01*
X0062107Y0208011D01*
X0063493Y0208011D01*
X0064774Y0208541D01*
X0065427Y0209195D01*
X0124173Y0209195D01*
X0124826Y0208541D01*
X0126107Y0208011D01*
X0127493Y0208011D01*
X0128774Y0208541D01*
X0129754Y0209521D01*
X0130210Y0212368D02*
X0133119Y0212368D01*
X0133119Y0214767D02*
X0128006Y0214767D01*
X0125594Y0214767D02*
X0064006Y0214767D01*
X0061594Y0214767D02*
X0022075Y0214767D01*
X0022075Y0214382D02*
X0022075Y0217747D01*
X0022075Y0221111D01*
X0021925Y0221671D01*
X0021635Y0222173D01*
X0021226Y0222582D01*
X0020724Y0222872D01*
X0020165Y0223022D01*
X0016800Y0223022D01*
X0013435Y0223022D01*
X0012876Y0222872D01*
X0012374Y0222582D01*
X0011965Y0222173D01*
X0011675Y0221671D01*
X0011525Y0221111D01*
X0011525Y0217747D01*
X0016800Y0217747D01*
X0016800Y0217747D01*
X0016800Y0223022D01*
X0016800Y0217747D01*
X0022075Y0217747D01*
X0016800Y0217747D01*
X0016800Y0217747D01*
X0016800Y0217747D01*
X0011525Y0217747D01*
X0011525Y0214382D01*
X0011675Y0213823D01*
X0011965Y0213321D01*
X0012374Y0212911D01*
X0012876Y0212622D01*
X0013435Y0212472D01*
X0016800Y0212472D01*
X0020165Y0212472D01*
X0020724Y0212622D01*
X0021226Y0212911D01*
X0021635Y0213321D01*
X0021925Y0213823D01*
X0022075Y0214382D01*
X0022075Y0217165D02*
X0194119Y0217165D01*
X0201481Y0217165D02*
X0215119Y0217165D01*
X0215119Y0221962D02*
X0201481Y0221962D01*
X0210167Y0209970D02*
X0219119Y0209970D01*
X0226481Y0209970D02*
X0244398Y0209970D01*
X0249202Y0209970D02*
X0363119Y0209970D01*
X0363119Y0207571D02*
X0213651Y0207571D01*
X0214284Y0205173D02*
X0364500Y0205173D01*
X0364500Y0202774D02*
X0213007Y0202774D01*
X0208593Y0202774D02*
X0196007Y0202774D01*
X0200119Y0193180D02*
X0007800Y0193180D01*
X0007800Y0190782D02*
X0200119Y0190782D01*
X0200119Y0188383D02*
X0007800Y0188383D01*
X0007800Y0185985D02*
X0204119Y0185985D01*
X0217000Y0178789D02*
X0089035Y0178789D01*
X0089114Y0176391D02*
X0217000Y0176391D01*
X0221600Y0173992D02*
X0296119Y0173992D01*
X0296119Y0171594D02*
X0221600Y0171594D01*
X0221600Y0169195D02*
X0296733Y0169195D01*
X0302867Y0169195D02*
X0315733Y0169195D01*
X0321867Y0169195D02*
X0341733Y0169195D01*
X0347867Y0169195D02*
X0366733Y0169195D01*
X0372867Y0169195D02*
X0406733Y0169195D01*
X0415800Y0164398D02*
X0382197Y0164398D01*
X0384100Y0162000D02*
X0415800Y0162000D01*
X0415800Y0159601D02*
X0384100Y0159601D01*
X0384100Y0157203D02*
X0415800Y0157203D01*
X0415800Y0154804D02*
X0401272Y0154804D01*
X0401272Y0154971D02*
X0400276Y0155966D01*
X0393324Y0155966D01*
X0392328Y0154971D01*
X0392328Y0148019D01*
X0393324Y0147023D01*
X0400276Y0147023D01*
X0401272Y0148019D01*
X0401272Y0154971D01*
X0401272Y0152405D02*
X0415800Y0152405D01*
X0415800Y0150007D02*
X0401272Y0150007D01*
X0400861Y0147608D02*
X0415800Y0147608D01*
X0415800Y0145210D02*
X0384100Y0145210D01*
X0384100Y0147608D02*
X0392739Y0147608D01*
X0392328Y0150007D02*
X0384100Y0150007D01*
X0384100Y0152405D02*
X0392328Y0152405D01*
X0392328Y0154804D02*
X0384100Y0154804D01*
X0379500Y0154804D02*
X0295418Y0154804D01*
X0295100Y0157203D02*
X0379500Y0157203D01*
X0379500Y0159601D02*
X0295100Y0159601D01*
X0295100Y0162000D02*
X0375648Y0162000D01*
X0375403Y0164398D02*
X0296117Y0164398D01*
X0296284Y0152405D02*
X0379500Y0152405D01*
X0379500Y0150007D02*
X0335945Y0150007D01*
X0335754Y0150468D02*
X0334774Y0151449D01*
X0333493Y0151979D01*
X0332107Y0151979D01*
X0330826Y0151449D01*
X0329846Y0150468D01*
X0329316Y0149188D01*
X0329316Y0147802D01*
X0329846Y0146521D01*
X0330500Y0145867D01*
X0330500Y0133447D01*
X0330032Y0132979D01*
X0329107Y0132979D01*
X0327826Y0132449D01*
X0326846Y0131468D01*
X0326316Y0130188D01*
X0326316Y0128802D01*
X0326846Y0127521D01*
X0327826Y0126541D01*
X0329107Y0126011D01*
X0330493Y0126011D01*
X0331774Y0126541D01*
X0332754Y0127521D01*
X0333284Y0128802D01*
X0333284Y0129726D01*
X0335100Y0131542D01*
X0335100Y0145867D01*
X0335754Y0146521D01*
X0336284Y0147802D01*
X0336284Y0149188D01*
X0335754Y0150468D01*
X0336204Y0147608D02*
X0379500Y0147608D01*
X0379500Y0145210D02*
X0335100Y0145210D01*
X0335100Y0142811D02*
X0362574Y0142811D01*
X0362316Y0142188D02*
X0362316Y0140802D01*
X0362846Y0139521D01*
X0363500Y0138867D01*
X0363500Y0132728D01*
X0362826Y0132449D01*
X0361846Y0131468D01*
X0361316Y0130188D01*
X0361316Y0128802D01*
X0361846Y0127521D01*
X0362826Y0126541D01*
X0364107Y0126011D01*
X0365493Y0126011D01*
X0366774Y0126541D01*
X0367754Y0127521D01*
X0368284Y0128802D01*
X0368284Y0130188D01*
X0368100Y0130633D01*
X0368100Y0138867D01*
X0368754Y0139521D01*
X0369284Y0140802D01*
X0369284Y0142188D01*
X0368754Y0143468D01*
X0367774Y0144449D01*
X0366493Y0144979D01*
X0365107Y0144979D01*
X0363826Y0144449D01*
X0362846Y0143468D01*
X0362316Y0142188D01*
X0362477Y0140413D02*
X0335100Y0140413D01*
X0335100Y0138014D02*
X0363500Y0138014D01*
X0363500Y0135616D02*
X0335100Y0135616D01*
X0335100Y0133217D02*
X0363500Y0133217D01*
X0361577Y0130819D02*
X0334377Y0130819D01*
X0333126Y0128420D02*
X0361474Y0128420D01*
X0364080Y0126022D02*
X0330520Y0126022D01*
X0329080Y0126022D02*
X0322520Y0126022D01*
X0325126Y0128420D02*
X0326474Y0128420D01*
X0326577Y0130819D02*
X0325023Y0130819D01*
X0324100Y0133217D02*
X0330270Y0133217D01*
X0330500Y0135616D02*
X0324100Y0135616D01*
X0324247Y0138014D02*
X0330500Y0138014D01*
X0330500Y0140413D02*
X0325284Y0140413D01*
X0324411Y0142811D02*
X0330500Y0142811D01*
X0330500Y0145210D02*
X0323443Y0145210D01*
X0324284Y0147608D02*
X0329396Y0147608D01*
X0329655Y0150007D02*
X0323215Y0150007D01*
X0318385Y0150007D02*
X0299715Y0150007D01*
X0293816Y0147608D02*
X0290284Y0147608D01*
X0290360Y0150007D02*
X0289215Y0150007D01*
X0289443Y0145210D02*
X0294657Y0145210D01*
X0289100Y0142811D02*
X0319189Y0142811D01*
X0318316Y0140413D02*
X0289100Y0140413D01*
X0289942Y0138014D02*
X0319353Y0138014D01*
X0319500Y0135616D02*
X0290207Y0135616D01*
X0284157Y0145210D02*
X0147861Y0145210D01*
X0094826Y0128420D02*
X0087100Y0128420D01*
X0086080Y0126022D02*
X0094316Y0126022D01*
X0095500Y0123623D02*
X0021231Y0123623D01*
X0012482Y0150007D02*
X0007800Y0150007D01*
X0007800Y0152405D02*
X0012025Y0152405D01*
X0012025Y0154804D02*
X0007800Y0154804D01*
X0007800Y0157203D02*
X0012025Y0157203D01*
X0007800Y0159601D02*
X0019047Y0159601D01*
X0021445Y0162000D02*
X0007800Y0162000D01*
X0007800Y0164398D02*
X0023844Y0164398D01*
X0016800Y0167472D02*
X0016800Y0172747D01*
X0016800Y0172747D01*
X0016800Y0167472D01*
X0016800Y0169195D02*
X0016800Y0169195D01*
X0016800Y0171594D02*
X0016800Y0171594D01*
X0016800Y0173992D02*
X0016800Y0173992D01*
X0016800Y0176391D02*
X0016800Y0176391D01*
X0007800Y0181188D02*
X0118570Y0181188D01*
X0118481Y0183586D02*
X0007800Y0183586D01*
X0007800Y0195579D02*
X0012025Y0195579D01*
X0012025Y0197977D02*
X0007800Y0197977D01*
X0007800Y0200376D02*
X0012025Y0200376D01*
X0012025Y0202774D02*
X0007800Y0202774D01*
X0007800Y0209970D02*
X0059660Y0209970D01*
X0059390Y0212368D02*
X0007800Y0212368D01*
X0007800Y0214767D02*
X0011525Y0214767D01*
X0011525Y0217165D02*
X0007800Y0217165D01*
X0007800Y0219564D02*
X0011525Y0219564D01*
X0011843Y0221962D02*
X0007800Y0221962D01*
X0016800Y0221962D02*
X0016800Y0221962D01*
X0016800Y0219564D02*
X0016800Y0219564D01*
X0016800Y0217747D02*
X0016800Y0212472D01*
X0016800Y0217747D01*
X0016800Y0217747D01*
X0016800Y0217165D02*
X0016800Y0217165D01*
X0016800Y0214767D02*
X0016800Y0214767D01*
X0022075Y0219564D02*
X0115119Y0219564D01*
X0115119Y0221962D02*
X0021757Y0221962D01*
X0007800Y0229158D02*
X0328725Y0229158D01*
X0328725Y0231556D02*
X0326481Y0231556D01*
X0326481Y0230810D02*
X0325485Y0229814D01*
X0320115Y0229814D01*
X0319119Y0230810D01*
X0319119Y0230995D01*
X0230666Y0230995D01*
X0230485Y0230814D01*
X0225115Y0230814D01*
X0224119Y0231810D01*
X0224119Y0231995D01*
X0165481Y0231995D01*
X0165481Y0231810D01*
X0164485Y0230814D01*
X0159115Y0230814D01*
X0158119Y0231810D01*
X0158119Y0237180D01*
X0159115Y0238176D01*
X0159500Y0238176D01*
X0159500Y0239195D01*
X0103481Y0239195D01*
X0103481Y0238810D01*
X0102485Y0237814D01*
X0097115Y0237814D01*
X0096119Y0238810D01*
X0096119Y0244180D01*
X0097115Y0245176D01*
X0102485Y0245176D01*
X0103481Y0244180D01*
X0103481Y0243795D01*
X0162753Y0243795D01*
X0164100Y0242447D01*
X0164100Y0238176D01*
X0164485Y0238176D01*
X0165481Y0237180D01*
X0165481Y0236995D01*
X0224119Y0236995D01*
X0224119Y0237180D01*
X0225115Y0238176D01*
X0230485Y0238176D01*
X0231481Y0237180D01*
X0231481Y0235995D01*
X0242434Y0235995D01*
X0241619Y0236810D01*
X0241619Y0242180D01*
X0242615Y0243176D01*
X0247985Y0243176D01*
X0248981Y0242180D01*
X0248981Y0240795D01*
X0270619Y0240795D01*
X0270619Y0241180D01*
X0271615Y0242176D01*
X0276985Y0242176D01*
X0277981Y0241180D01*
X0277981Y0235995D01*
X0319119Y0235995D01*
X0319119Y0236180D01*
X0320115Y0237176D01*
X0325485Y0237176D01*
X0326481Y0236180D01*
X0326481Y0230810D01*
X0326481Y0233955D02*
X0328725Y0233955D01*
X0328725Y0236353D02*
X0326308Y0236353D01*
X0319292Y0236353D02*
X0277981Y0236353D01*
X0277981Y0238752D02*
X0415800Y0238752D01*
X0415800Y0241150D02*
X0277981Y0241150D01*
X0270619Y0241150D02*
X0248981Y0241150D01*
X0241619Y0241150D02*
X0164100Y0241150D01*
X0164100Y0238752D02*
X0241619Y0238752D01*
X0242075Y0236353D02*
X0231481Y0236353D01*
X0224372Y0231556D02*
X0165228Y0231556D01*
X0158372Y0231556D02*
X0007800Y0231556D01*
X0007800Y0233955D02*
X0062119Y0233955D01*
X0062119Y0236353D02*
X0007800Y0236353D01*
X0007800Y0238752D02*
X0062119Y0238752D01*
X0062900Y0241150D02*
X0021575Y0241150D01*
X0016800Y0244243D02*
X0028300Y0244243D01*
X0028300Y0266995D01*
X0357800Y0266995D01*
X0357800Y0251995D01*
X0361481Y0253143D02*
X0415800Y0253143D01*
X0415800Y0255541D02*
X0398327Y0255541D01*
X0398327Y0254716D02*
X0398327Y0262274D01*
X0397331Y0263270D01*
X0389773Y0263270D01*
X0388777Y0262274D01*
X0388777Y0254716D01*
X0389773Y0253720D01*
X0397331Y0253720D01*
X0398327Y0254716D01*
X0398327Y0257940D02*
X0415800Y0257940D01*
X0415800Y0260338D02*
X0398327Y0260338D01*
X0397864Y0262737D02*
X0415800Y0262737D01*
X0415800Y0265136D02*
X0360700Y0265136D01*
X0360700Y0262737D02*
X0370107Y0262737D01*
X0370213Y0262921D02*
X0369923Y0262419D01*
X0369773Y0261859D01*
X0369773Y0258495D01*
X0375048Y0258495D01*
X0375048Y0263770D01*
X0371683Y0263770D01*
X0371124Y0263620D01*
X0370622Y0263330D01*
X0370213Y0262921D01*
X0369773Y0260338D02*
X0360700Y0260338D01*
X0360700Y0257940D02*
X0369773Y0257940D01*
X0369773Y0258495D02*
X0369773Y0255130D01*
X0369923Y0254571D01*
X0370213Y0254069D01*
X0370622Y0253659D01*
X0371124Y0253370D01*
X0371683Y0253220D01*
X0375048Y0253220D01*
X0375048Y0258495D01*
X0375048Y0258495D01*
X0375048Y0263770D01*
X0378413Y0263770D01*
X0378972Y0263620D01*
X0379474Y0263330D01*
X0379883Y0262921D01*
X0380173Y0262419D01*
X0380323Y0261859D01*
X0380323Y0258495D01*
X0375048Y0258495D01*
X0375048Y0258495D01*
X0375048Y0258495D01*
X0369773Y0258495D01*
X0369773Y0255541D02*
X0360700Y0255541D01*
X0361481Y0250744D02*
X0415800Y0250744D01*
X0415800Y0248346D02*
X0360517Y0248346D01*
X0355082Y0248346D02*
X0068700Y0248346D01*
X0068700Y0250744D02*
X0354119Y0250744D01*
X0354119Y0253143D02*
X0068700Y0253143D01*
X0068700Y0255541D02*
X0113773Y0255541D01*
X0113773Y0254716D02*
X0114769Y0253720D01*
X0122327Y0253720D01*
X0123323Y0254716D01*
X0123323Y0262274D01*
X0122327Y0263270D01*
X0114769Y0263270D01*
X0113773Y0262274D01*
X0113773Y0254716D01*
X0113773Y0257940D02*
X0071875Y0257940D01*
X0071875Y0260338D02*
X0113773Y0260338D01*
X0114236Y0262737D02*
X0071875Y0262737D01*
X0066800Y0261495D02*
X0065800Y0260495D01*
X0065800Y0236495D01*
X0069481Y0236353D02*
X0158119Y0236353D01*
X0158119Y0233955D02*
X0069481Y0233955D01*
X0069481Y0238752D02*
X0096177Y0238752D01*
X0096119Y0241150D02*
X0068700Y0241150D01*
X0068700Y0243549D02*
X0096119Y0243549D01*
X0103423Y0238752D02*
X0159500Y0238752D01*
X0162999Y0243549D02*
X0415800Y0243549D01*
X0415800Y0245947D02*
X0068700Y0245947D01*
X0062900Y0245947D02*
X0031200Y0245947D01*
X0031151Y0243549D02*
X0062900Y0243549D01*
X0062900Y0248346D02*
X0031200Y0248346D01*
X0031200Y0250744D02*
X0062900Y0250744D01*
X0062900Y0253143D02*
X0031200Y0253143D01*
X0031200Y0255541D02*
X0062900Y0255541D01*
X0056800Y0257940D02*
X0056800Y0257940D01*
X0056800Y0260338D02*
X0056800Y0260338D01*
X0041725Y0260338D02*
X0031200Y0260338D01*
X0031200Y0257940D02*
X0041725Y0257940D01*
X0041725Y0262737D02*
X0031200Y0262737D01*
X0025400Y0262737D02*
X0022075Y0262737D01*
X0022075Y0262747D02*
X0016800Y0262747D01*
X0011525Y0262747D01*
X0011525Y0259382D01*
X0011675Y0258823D01*
X0011965Y0258321D01*
X0012374Y0257911D01*
X0012876Y0257622D01*
X0013435Y0257472D01*
X0016800Y0257472D01*
X0020165Y0257472D01*
X0020724Y0257622D01*
X0021226Y0257911D01*
X0021635Y0258321D01*
X0021925Y0258823D01*
X0022075Y0259382D01*
X0022075Y0262747D01*
X0022075Y0265136D02*
X0025400Y0265136D01*
X0025400Y0260338D02*
X0022075Y0260338D01*
X0021255Y0257940D02*
X0025400Y0257940D01*
X0025400Y0255541D02*
X0007800Y0255541D01*
X0007800Y0253143D02*
X0025400Y0253143D01*
X0025400Y0250744D02*
X0007800Y0250744D01*
X0007800Y0248346D02*
X0012349Y0248346D01*
X0012025Y0245947D02*
X0007800Y0245947D01*
X0007800Y0243549D02*
X0012025Y0243549D01*
X0012025Y0241150D02*
X0007800Y0241150D01*
X0021251Y0248346D02*
X0025400Y0248346D01*
X0016800Y0257472D02*
X0016800Y0262747D01*
X0016800Y0262747D01*
X0016800Y0257472D01*
X0016800Y0257940D02*
X0016800Y0257940D01*
X0016800Y0260338D02*
X0016800Y0260338D01*
X0016800Y0262737D02*
X0016800Y0262737D01*
X0011525Y0262737D02*
X0007800Y0262737D01*
X0007800Y0260338D02*
X0011525Y0260338D01*
X0012345Y0257940D02*
X0007800Y0257940D01*
X0007800Y0265136D02*
X0011525Y0265136D01*
X0122860Y0262737D02*
X0132740Y0262737D01*
X0132277Y0262274D02*
X0133273Y0263270D01*
X0140831Y0263270D01*
X0141827Y0262274D01*
X0141827Y0254716D01*
X0140831Y0253720D01*
X0133273Y0253720D01*
X0132277Y0254716D01*
X0132277Y0262274D01*
X0132277Y0260338D02*
X0123323Y0260338D01*
X0123323Y0257940D02*
X0132277Y0257940D01*
X0132277Y0255541D02*
X0123323Y0255541D01*
X0141827Y0255541D02*
X0154773Y0255541D01*
X0154773Y0254716D02*
X0155769Y0253720D01*
X0163327Y0253720D01*
X0164323Y0254716D01*
X0164323Y0262274D01*
X0163327Y0263270D01*
X0155769Y0263270D01*
X0154773Y0262274D01*
X0154773Y0254716D01*
X0154773Y0257940D02*
X0141827Y0257940D01*
X0141827Y0260338D02*
X0154773Y0260338D01*
X0155236Y0262737D02*
X0141364Y0262737D01*
X0163860Y0262737D02*
X0173110Y0262737D01*
X0173216Y0262921D02*
X0172927Y0262419D01*
X0172777Y0261859D01*
X0172777Y0258495D01*
X0178052Y0258495D01*
X0178052Y0258495D01*
X0178052Y0263770D01*
X0181417Y0263770D01*
X0181976Y0263620D01*
X0182478Y0263330D01*
X0182887Y0262921D01*
X0183177Y0262419D01*
X0183327Y0261859D01*
X0183327Y0258495D01*
X0178052Y0258495D01*
X0178052Y0263770D01*
X0174687Y0263770D01*
X0174128Y0263620D01*
X0173626Y0263330D01*
X0173216Y0262921D01*
X0172777Y0260338D02*
X0164323Y0260338D01*
X0164323Y0257940D02*
X0172777Y0257940D01*
X0172777Y0258495D02*
X0172777Y0255130D01*
X0172927Y0254571D01*
X0173216Y0254069D01*
X0173626Y0253659D01*
X0174128Y0253370D01*
X0174687Y0253220D01*
X0178052Y0253220D01*
X0181417Y0253220D01*
X0181976Y0253370D01*
X0182478Y0253659D01*
X0182887Y0254069D01*
X0183177Y0254571D01*
X0183327Y0255130D01*
X0183327Y0258495D01*
X0178052Y0258495D01*
X0178052Y0258495D01*
X0178052Y0258495D01*
X0178052Y0253220D01*
X0178052Y0258495D01*
X0178052Y0258495D01*
X0172777Y0258495D01*
X0172777Y0255541D02*
X0164323Y0255541D01*
X0178052Y0255541D02*
X0178052Y0255541D01*
X0178052Y0257940D02*
X0178052Y0257940D01*
X0178052Y0260338D02*
X0178052Y0260338D01*
X0178052Y0262737D02*
X0178052Y0262737D01*
X0182993Y0262737D02*
X0198236Y0262737D01*
X0197773Y0262274D02*
X0197773Y0254716D01*
X0198769Y0253720D01*
X0206327Y0253720D01*
X0207323Y0254716D01*
X0207323Y0262274D01*
X0206327Y0263270D01*
X0198769Y0263270D01*
X0197773Y0262274D01*
X0197773Y0260338D02*
X0183327Y0260338D01*
X0183327Y0257940D02*
X0197773Y0257940D01*
X0197773Y0255541D02*
X0183327Y0255541D01*
X0207323Y0255541D02*
X0216277Y0255541D01*
X0216277Y0254716D02*
X0217273Y0253720D01*
X0224831Y0253720D01*
X0225827Y0254716D01*
X0225827Y0262274D01*
X0224831Y0263270D01*
X0217273Y0263270D01*
X0216277Y0262274D01*
X0216277Y0254716D01*
X0216277Y0257940D02*
X0207323Y0257940D01*
X0207323Y0260338D02*
X0216277Y0260338D01*
X0216740Y0262737D02*
X0206860Y0262737D01*
X0225364Y0262737D02*
X0241236Y0262737D01*
X0240773Y0262274D02*
X0241769Y0263270D01*
X0249327Y0263270D01*
X0250323Y0262274D01*
X0250323Y0254716D01*
X0249327Y0253720D01*
X0241769Y0253720D01*
X0240773Y0254716D01*
X0240773Y0262274D01*
X0240773Y0260338D02*
X0225827Y0260338D01*
X0225827Y0257940D02*
X0240773Y0257940D01*
X0240773Y0255541D02*
X0225827Y0255541D01*
X0250323Y0255541D02*
X0259277Y0255541D01*
X0259277Y0254716D02*
X0260273Y0253720D01*
X0267831Y0253720D01*
X0268827Y0254716D01*
X0268827Y0262274D01*
X0267831Y0263270D01*
X0260273Y0263270D01*
X0259277Y0262274D01*
X0259277Y0254716D01*
X0259277Y0257940D02*
X0250323Y0257940D01*
X0250323Y0260338D02*
X0259277Y0260338D01*
X0259740Y0262737D02*
X0249860Y0262737D01*
X0268364Y0262737D02*
X0284736Y0262737D01*
X0284273Y0262274D02*
X0284273Y0254716D01*
X0285269Y0253720D01*
X0292827Y0253720D01*
X0293823Y0254716D01*
X0293823Y0262274D01*
X0292827Y0263270D01*
X0285269Y0263270D01*
X0284273Y0262274D01*
X0284273Y0260338D02*
X0268827Y0260338D01*
X0268827Y0257940D02*
X0284273Y0257940D01*
X0284273Y0255541D02*
X0268827Y0255541D01*
X0293823Y0255541D02*
X0302277Y0255541D01*
X0302277Y0255130D02*
X0302427Y0254571D01*
X0302716Y0254069D01*
X0303126Y0253659D01*
X0303628Y0253370D01*
X0304187Y0253220D01*
X0307552Y0253220D01*
X0310917Y0253220D01*
X0311476Y0253370D01*
X0311978Y0253659D01*
X0312387Y0254069D01*
X0312677Y0254571D01*
X0312827Y0255130D01*
X0312827Y0258495D01*
X0312827Y0261859D01*
X0312677Y0262419D01*
X0312387Y0262921D01*
X0311978Y0263330D01*
X0311476Y0263620D01*
X0310917Y0263770D01*
X0307552Y0263770D01*
X0307552Y0258495D01*
X0307552Y0258495D01*
X0307552Y0263770D01*
X0304187Y0263770D01*
X0303628Y0263620D01*
X0303126Y0263330D01*
X0302716Y0262921D01*
X0302427Y0262419D01*
X0302277Y0261859D01*
X0302277Y0258495D01*
X0307552Y0258495D01*
X0312827Y0258495D01*
X0307552Y0258495D01*
X0307552Y0258495D01*
X0307552Y0258495D01*
X0307552Y0253220D01*
X0307552Y0258495D01*
X0307552Y0258495D01*
X0302277Y0258495D01*
X0302277Y0255130D01*
X0302277Y0257940D02*
X0293823Y0257940D01*
X0293823Y0260338D02*
X0302277Y0260338D01*
X0302610Y0262737D02*
X0293360Y0262737D01*
X0307552Y0262737D02*
X0307552Y0262737D01*
X0307552Y0260338D02*
X0307552Y0260338D01*
X0307552Y0257940D02*
X0307552Y0257940D01*
X0307552Y0255541D02*
X0307552Y0255541D01*
X0312827Y0255541D02*
X0327773Y0255541D01*
X0327773Y0254716D02*
X0328769Y0253720D01*
X0336327Y0253720D01*
X0337323Y0254716D01*
X0337323Y0262274D01*
X0336327Y0263270D01*
X0328769Y0263270D01*
X0327773Y0262274D01*
X0327773Y0254716D01*
X0327773Y0257940D02*
X0312827Y0257940D01*
X0312827Y0260338D02*
X0327773Y0260338D01*
X0328236Y0262737D02*
X0312493Y0262737D01*
X0336860Y0262737D02*
X0346110Y0262737D01*
X0346216Y0262921D02*
X0345927Y0262419D01*
X0345777Y0261859D01*
X0345777Y0258495D01*
X0351052Y0258495D01*
X0351052Y0263770D01*
X0347687Y0263770D01*
X0347128Y0263620D01*
X0346626Y0263330D01*
X0346216Y0262921D01*
X0345777Y0260338D02*
X0337323Y0260338D01*
X0337323Y0257940D02*
X0345777Y0257940D01*
X0345777Y0258495D02*
X0345777Y0255130D01*
X0345927Y0254571D01*
X0346216Y0254069D01*
X0346626Y0253659D01*
X0347128Y0253370D01*
X0347687Y0253220D01*
X0351052Y0253220D01*
X0351052Y0258495D01*
X0351052Y0258495D01*
X0351052Y0258495D01*
X0345777Y0258495D01*
X0345777Y0255541D02*
X0337323Y0255541D01*
X0351052Y0255541D02*
X0351052Y0255541D01*
X0351052Y0257940D02*
X0351052Y0257940D01*
X0351052Y0260338D02*
X0351052Y0260338D01*
X0351052Y0262737D02*
X0351052Y0262737D01*
X0375048Y0262737D02*
X0375048Y0262737D01*
X0375048Y0260338D02*
X0375048Y0260338D01*
X0375048Y0258495D02*
X0380323Y0258495D01*
X0380323Y0255130D01*
X0380173Y0254571D01*
X0379883Y0254069D01*
X0379474Y0253659D01*
X0378972Y0253370D01*
X0378413Y0253220D01*
X0375048Y0253220D01*
X0375048Y0258495D01*
X0375048Y0258495D01*
X0375048Y0257940D02*
X0375048Y0257940D01*
X0375048Y0255541D02*
X0375048Y0255541D01*
X0380323Y0255541D02*
X0388777Y0255541D01*
X0388777Y0257940D02*
X0380323Y0257940D01*
X0380323Y0260338D02*
X0388777Y0260338D01*
X0389240Y0262737D02*
X0379990Y0262737D01*
X0358875Y0236353D02*
X0415800Y0236353D01*
X0415800Y0233955D02*
X0358875Y0233955D01*
X0343800Y0233955D02*
X0343800Y0233955D01*
X0343800Y0232995D02*
X0343800Y0227420D01*
X0343800Y0232995D01*
X0343800Y0232995D01*
X0343800Y0231556D02*
X0343800Y0231556D01*
X0343800Y0229158D02*
X0343800Y0229158D01*
X0343800Y0236353D02*
X0343800Y0236353D01*
X0358619Y0217165D02*
X0291337Y0217165D01*
X0259119Y0217165D02*
X0222481Y0217165D01*
X0222481Y0219564D02*
X0259119Y0219564D01*
X0259119Y0221962D02*
X0222481Y0221962D01*
X0249455Y0214767D02*
X0259119Y0214767D01*
X0259119Y0212368D02*
X0250284Y0212368D01*
X0369026Y0142811D02*
X0379500Y0142811D01*
X0379500Y0140413D02*
X0369123Y0140413D01*
X0368100Y0138014D02*
X0379500Y0138014D01*
X0379500Y0135616D02*
X0368100Y0135616D01*
X0368100Y0133217D02*
X0379500Y0133217D01*
X0379500Y0130819D02*
X0373880Y0130819D01*
X0371720Y0130819D02*
X0368100Y0130819D01*
X0368126Y0128420D02*
X0369412Y0128420D01*
X0369639Y0126022D02*
X0365520Y0126022D01*
X0383580Y0126022D02*
X0412121Y0126022D01*
X0415800Y0128420D02*
X0401272Y0128420D01*
X0401272Y0127019D02*
X0401272Y0133971D01*
X0400276Y0134966D01*
X0393324Y0134966D01*
X0392328Y0133971D01*
X0392328Y0127019D01*
X0393324Y0126023D01*
X0400276Y0126023D01*
X0401272Y0127019D01*
X0401272Y0130819D02*
X0415800Y0130819D01*
X0415800Y0133217D02*
X0401272Y0133217D01*
X0392328Y0133217D02*
X0384100Y0133217D01*
X0384100Y0130819D02*
X0392328Y0130819D01*
X0392328Y0128420D02*
X0384100Y0128420D01*
X0384100Y0135616D02*
X0415800Y0135616D01*
X0415800Y0138014D02*
X0384100Y0138014D01*
X0384100Y0140413D02*
X0415800Y0140413D01*
X0415800Y0142811D02*
X0384100Y0142811D01*
X0297415Y0116428D02*
X0233185Y0116428D01*
X0232964Y0114029D02*
X0297636Y0114029D01*
X0082392Y0138014D02*
X0065100Y0138014D01*
X0065100Y0140413D02*
X0076516Y0140413D01*
X0062442Y0073255D02*
X0061158Y0073255D01*
X0061500Y0070856D02*
X0062100Y0070856D01*
X0062100Y0068458D02*
X0061500Y0068458D01*
X0061500Y0066059D02*
X0062100Y0066059D01*
X0062473Y0063661D02*
X0061127Y0063661D01*
X0058863Y0061262D02*
X0064737Y0061262D01*
X0062694Y0058864D02*
X0060906Y0058864D01*
X0061500Y0056465D02*
X0062100Y0056465D01*
X0062100Y0054067D02*
X0061500Y0054067D01*
X0061500Y0051668D02*
X0062100Y0051668D01*
X0062220Y0049270D02*
X0061380Y0049270D01*
X0059823Y0046871D02*
X0063777Y0046871D01*
X0053777Y0046871D02*
X0049823Y0046871D01*
X0051380Y0049270D02*
X0052220Y0049270D01*
X0052100Y0051668D02*
X0051500Y0051668D01*
X0051500Y0054067D02*
X0052100Y0054067D01*
X0052100Y0056465D02*
X0051500Y0056465D01*
X0050906Y0058864D02*
X0052694Y0058864D01*
X0054737Y0061262D02*
X0049821Y0061262D01*
X0051672Y0063661D02*
X0052473Y0063661D01*
X0052100Y0066059D02*
X0052000Y0066059D01*
X0052000Y0068458D02*
X0052100Y0068458D01*
X0016800Y0068458D02*
X0016800Y0068458D01*
X0016800Y0067995D02*
X0016800Y0063023D01*
X0016800Y0067995D01*
X0016800Y0067995D01*
X0016800Y0066059D02*
X0016800Y0066059D01*
X0016800Y0063661D02*
X0016800Y0063661D01*
X0012480Y0063661D02*
X0007800Y0063661D01*
X0007800Y0066059D02*
X0011828Y0066059D01*
X0011828Y0068458D02*
X0007800Y0068458D01*
X0007800Y0070856D02*
X0011828Y0070856D01*
X0016800Y0070856D02*
X0016800Y0070856D01*
D21*
X0046800Y0053495D02*
X0046800Y0043495D01*
X0079800Y0043495D01*
X0083800Y0068495D02*
X0066800Y0068495D01*
X0056800Y0068495D02*
X0056800Y0077495D01*
X0103800Y0077495D01*
X0119800Y0098495D02*
X0125800Y0104495D01*
X0125800Y0133495D01*
X0129800Y0137495D01*
X0141800Y0137495D01*
X0144800Y0143495D02*
X0129800Y0143495D01*
X0153800Y0150495D02*
X0154800Y0151495D01*
X0153800Y0150495D02*
X0030800Y0150495D01*
X0016800Y0136495D01*
X0016800Y0127747D01*
X0016800Y0154243D02*
X0026052Y0163495D01*
X0149800Y0163495D01*
X0143800Y0197495D02*
X0142052Y0199243D01*
X0016800Y0199243D01*
X0094800Y0143495D02*
X0097800Y0146495D01*
X0094800Y0143495D02*
X0079800Y0143495D01*
X0128800Y0116495D02*
X0129800Y0117495D01*
X0128800Y0116495D02*
X0128800Y0107495D01*
X0129800Y0106495D01*
X0162800Y0106495D01*
X0160800Y0111495D02*
X0141800Y0111495D01*
X0162800Y0203495D02*
X0178800Y0203495D01*
D22*
X0169800Y0128995D03*
X0301800Y0048495D03*
X0308800Y0063495D03*
X0414800Y0123495D03*
X0413800Y0218495D03*
M02*
