G75*
%MOIN*%
%OFA0B0*%
%FSLAX25Y25*%
%IPPOS*%
%LPD*%
%AMOC8*
5,1,8,0,0,1.08239X$1,22.5*
%
%ADD10R,0.05906X0.05118*%
%ADD11R,0.05118X0.05906*%
%ADD12R,0.05512X0.03543*%
%ADD13R,0.03543X0.05512*%
%ADD14R,0.01772X0.04921*%
%ADD15R,0.08000X0.02600*%
%ADD16R,0.09000X0.13100*%
%ADD17R,0.03300X0.06300*%
%ADD18R,0.13000X0.07500*%
%ADD19R,0.05512X0.03937*%
%ADD20R,0.05906X0.01378*%
%ADD21R,0.01378X0.05906*%
%ADD22R,0.03937X0.05512*%
D10*
X0091800Y0109755D03*
X0091800Y0117235D03*
X0091800Y0129755D03*
X0091800Y0137235D03*
X0091800Y0149755D03*
X0091800Y0157235D03*
X0091800Y0169755D03*
X0091800Y0177235D03*
X0121800Y0177235D03*
X0121800Y0169755D03*
X0121800Y0157235D03*
X0121800Y0149755D03*
X0121800Y0137235D03*
X0121800Y0129755D03*
X0121800Y0117235D03*
X0121800Y0109755D03*
X0151800Y0137255D03*
X0151800Y0144735D03*
X0161800Y0219755D03*
X0161800Y0227235D03*
X0191800Y0227235D03*
X0191800Y0219755D03*
X0227800Y0219755D03*
X0227800Y0227235D03*
X0254800Y0227235D03*
X0254800Y0219755D03*
X0301800Y0204235D03*
X0301800Y0196755D03*
X0319800Y0196755D03*
X0319800Y0204235D03*
X0337800Y0204235D03*
X0337800Y0196755D03*
X0352800Y0196755D03*
X0352800Y0204235D03*
X0361800Y0181235D03*
X0361800Y0173755D03*
X0336800Y0172755D03*
X0336800Y0180235D03*
X0312800Y0180235D03*
X0312800Y0172755D03*
X0292800Y0172755D03*
X0292800Y0180235D03*
X0276800Y0144735D03*
X0276800Y0137255D03*
X0311800Y0133755D03*
X0311800Y0141235D03*
X0336800Y0142235D03*
X0336800Y0134755D03*
X0356800Y0134755D03*
X0356800Y0142235D03*
X0376800Y0142235D03*
X0376800Y0134755D03*
X0301800Y0062235D03*
X0291800Y0062235D03*
X0291800Y0054755D03*
X0301800Y0054755D03*
X0224800Y0056755D03*
X0224800Y0064235D03*
X0204800Y0064235D03*
X0204800Y0056755D03*
X0091800Y0234755D03*
X0091800Y0242235D03*
X0051800Y0242235D03*
X0051800Y0234755D03*
X0039800Y0234755D03*
X0039800Y0242235D03*
D11*
X0053060Y0088495D03*
X0060540Y0088495D03*
X0063060Y0120495D03*
X0070540Y0120495D03*
X0048540Y0121495D03*
X0041060Y0121495D03*
X0053060Y0163495D03*
X0060540Y0163495D03*
X0061540Y0187995D03*
X0054060Y0187995D03*
X0208060Y0198495D03*
X0215540Y0198495D03*
X0340560Y0123995D03*
X0348040Y0123995D03*
X0348040Y0114495D03*
X0340560Y0114495D03*
X0260540Y0098495D03*
X0253060Y0098495D03*
X0253060Y0088495D03*
X0260540Y0088495D03*
X0260540Y0078495D03*
X0253060Y0078495D03*
X0216540Y0074495D03*
X0209060Y0074495D03*
X0374060Y0204495D03*
X0381540Y0204495D03*
X0381540Y0214495D03*
X0374060Y0214495D03*
X0374060Y0224495D03*
X0381540Y0224495D03*
X0352540Y0222995D03*
X0345060Y0222995D03*
D12*
X0316339Y0090896D03*
X0316339Y0085896D03*
X0316339Y0080896D03*
X0316339Y0075896D03*
X0316339Y0070896D03*
X0316339Y0065896D03*
X0316339Y0060896D03*
X0316339Y0055896D03*
X0316339Y0050896D03*
X0316339Y0045896D03*
X0316339Y0040896D03*
X0316339Y0035896D03*
D13*
X0322127Y0026841D03*
X0327127Y0026841D03*
X0332127Y0026841D03*
X0337127Y0026841D03*
X0342127Y0026841D03*
X0347127Y0026841D03*
X0352127Y0026841D03*
X0357127Y0026841D03*
X0362127Y0026841D03*
X0367127Y0026841D03*
X0372127Y0026841D03*
X0377127Y0026841D03*
X0382127Y0026841D03*
X0387127Y0026841D03*
X0392127Y0026841D03*
X0397127Y0026841D03*
X0397127Y0100149D03*
X0392127Y0100149D03*
X0387127Y0100149D03*
X0382127Y0100149D03*
X0377127Y0100149D03*
X0372127Y0100149D03*
X0367127Y0100149D03*
X0362127Y0100149D03*
X0357127Y0100149D03*
X0352127Y0100149D03*
X0347127Y0100149D03*
X0342127Y0100149D03*
X0337127Y0100149D03*
X0332127Y0100149D03*
X0327127Y0100149D03*
X0322127Y0100149D03*
D14*
X0299851Y0028495D03*
X0293749Y0028495D03*
X0293749Y0018495D03*
X0299851Y0018495D03*
D15*
X0068900Y0133495D03*
X0068900Y0138495D03*
X0068900Y0143495D03*
X0068900Y0148495D03*
X0044700Y0148495D03*
X0044700Y0143495D03*
X0044700Y0138495D03*
X0044700Y0133495D03*
D16*
X0056800Y0140995D03*
D17*
X0062745Y0225895D03*
X0071800Y0225895D03*
X0080855Y0225895D03*
D18*
X0071800Y0250495D03*
D19*
X0292469Y0158495D03*
X0301131Y0162235D03*
X0301131Y0154755D03*
X0320469Y0158495D03*
X0329131Y0162235D03*
X0329131Y0154755D03*
X0342469Y0158495D03*
X0351131Y0162235D03*
X0351131Y0154755D03*
X0361469Y0158495D03*
X0370131Y0162235D03*
X0370131Y0154755D03*
D20*
X0243296Y0154774D03*
X0243296Y0152806D03*
X0243296Y0150837D03*
X0243296Y0148869D03*
X0243296Y0146900D03*
X0243296Y0144932D03*
X0243296Y0142963D03*
X0243296Y0140995D03*
X0243296Y0139026D03*
X0243296Y0137058D03*
X0243296Y0135089D03*
X0243296Y0133121D03*
X0243296Y0131152D03*
X0243296Y0129184D03*
X0243296Y0127215D03*
X0243296Y0125247D03*
X0243296Y0123278D03*
X0243296Y0121310D03*
X0243296Y0119341D03*
X0243296Y0117373D03*
X0243296Y0156743D03*
X0243296Y0158711D03*
X0243296Y0160680D03*
X0243296Y0162648D03*
X0243296Y0164617D03*
X0180304Y0164617D03*
X0180304Y0162648D03*
X0180304Y0160680D03*
X0180304Y0158711D03*
X0180304Y0156743D03*
X0180304Y0154774D03*
X0180304Y0152806D03*
X0180304Y0150837D03*
X0180304Y0148869D03*
X0180304Y0146900D03*
X0180304Y0144932D03*
X0180304Y0142963D03*
X0180304Y0140995D03*
X0180304Y0139026D03*
X0180304Y0137058D03*
X0180304Y0135089D03*
X0180304Y0133121D03*
X0180304Y0131152D03*
X0180304Y0129184D03*
X0180304Y0127215D03*
X0180304Y0125247D03*
X0180304Y0123278D03*
X0180304Y0121310D03*
X0180304Y0119341D03*
X0180304Y0117373D03*
D21*
X0188178Y0109499D03*
X0190146Y0109499D03*
X0192115Y0109499D03*
X0194083Y0109499D03*
X0196052Y0109499D03*
X0198020Y0109499D03*
X0199989Y0109499D03*
X0201957Y0109499D03*
X0203926Y0109499D03*
X0205894Y0109499D03*
X0207863Y0109499D03*
X0209831Y0109499D03*
X0211800Y0109499D03*
X0213769Y0109499D03*
X0215737Y0109499D03*
X0217706Y0109499D03*
X0219674Y0109499D03*
X0221643Y0109499D03*
X0223611Y0109499D03*
X0225580Y0109499D03*
X0227548Y0109499D03*
X0229517Y0109499D03*
X0231485Y0109499D03*
X0233454Y0109499D03*
X0235422Y0109499D03*
X0235422Y0172491D03*
X0233454Y0172491D03*
X0231485Y0172491D03*
X0229517Y0172491D03*
X0227548Y0172491D03*
X0225580Y0172491D03*
X0223611Y0172491D03*
X0221643Y0172491D03*
X0219674Y0172491D03*
X0217706Y0172491D03*
X0215737Y0172491D03*
X0213769Y0172491D03*
X0211800Y0172491D03*
X0209831Y0172491D03*
X0207863Y0172491D03*
X0205894Y0172491D03*
X0203926Y0172491D03*
X0201957Y0172491D03*
X0199989Y0172491D03*
X0198020Y0172491D03*
X0196052Y0172491D03*
X0194083Y0172491D03*
X0192115Y0172491D03*
X0190146Y0172491D03*
X0188178Y0172491D03*
D22*
X0180540Y0219164D03*
X0173060Y0219164D03*
X0176800Y0227826D03*
X0238060Y0219164D03*
X0245540Y0219164D03*
X0241800Y0227826D03*
X0110540Y0169164D03*
X0103060Y0169164D03*
X0106800Y0177826D03*
X0106800Y0157826D03*
X0103060Y0149164D03*
X0110540Y0149164D03*
X0106800Y0137826D03*
X0103060Y0129164D03*
X0110540Y0129164D03*
X0106800Y0117826D03*
X0103060Y0109164D03*
X0110540Y0109164D03*
M02*
